<?xml version="1.0" standalone="no"?>
<!DOCTYPE svg PUBLIC "-//W3C//DTD SVG 1.1//EN" "http://www.w3.org/Graphics/SVG/1.1/DTD/svg11.dtd">
<svg xmlns="http://www.w3.org/2000/svg">
<defs >
<font id="IBMPlexSerif" horiz-adv-x="563" ><font-face
    font-family="IBM Plex Serif Light"
    units-per-em="1000"
    panose-1="2 6 4 3 5 4 6 0 2 3"
    ascent="1025"
    descent="-275"
    alphabetic="0" />
<glyph unicode=" " glyph-name="space" horiz-adv-x="212" />
<glyph unicode="!" glyph-name="exclam" horiz-adv-x="247" d="M64 -9Q43 -9 33 3T22 31Q22 40 26 52Q31 69 45 79T78 90Q99 90 109 78T120 50Q120 41 116 29Q111 12 97 2T64 -9ZM145 459L205 698H263L203 459L117 181H92L145 459Z" />
<glyph unicode="&quot;" glyph-name="quotedbl" horiz-adv-x="368" d="M181 663L203 748H254L232 663L172 482H149L181 663ZM341 663L363 748H414L392 663L332 482H309L341 663Z" />
<glyph unicode="#" glyph-name="numbersign" horiz-adv-x="657" d="M169 216H44L52 249H183L264 449H139L147 482H278L367 698H408L320 482H479L567 698H609L520 482H646L638 449H507L425 249H550L542 216H411L323 0H281L370 216H210L122 0H80L169 216ZM224 249H384L465
449H305L224 249Z" />
<glyph unicode="$" glyph-name="dollar" horiz-adv-x="550" d="M190 -2Q118 3 77 30T36 103Q36 128 49 146T87 164Q107 164 118 153T130 122Q130 102 118 87T82 66V62Q99 48 126 41T199 31L277 343L259 351Q199 377 168 412T137 508Q137 551 154 586T202 646T274
686T364 700H366L386 780H422L402 700Q464 694 502 666T541 595Q541 570 528 552T490 534Q470 534 459 545T447 576Q447 596 459 611T495 632V636Q478 649 454 657T393 667L323 387L350 376Q417 349 446 312T476 218Q476 173 459 133T410 63T332 16T228 -2H226L206
-82H170L190 -2ZM233 31H234Q268 31 301 42T362 76T406 130T423 203Q423 253 397 280T321 326L308 331L233 31ZM292 400L359 667H358Q320 667 290 656T237 624T202 578T190 522Q190 476 215 450T285 403L292 400Z" />
<glyph unicode="%" glyph-name="percent" horiz-adv-x="832" d="M217 348Q259 348 292 381T346 494Q349 504 352 518T359 548T364 577T366 603Q366 645 348 663T301 681Q259 681 226 648T172 535Q169 524 166 510T159 481T154 452T152 426Q152 384 170 366T217
348ZM574 17Q616 17 649 50T703 163Q706 173 709 187T716 217T721 246T723 272Q723 314 705 332T658 350Q616 350 583 317T529 204Q526 193 523 179T516 150T511 121T509 95Q509 53 527 35T574 17ZM214 319Q167 319 137 347T107 439Q107 484 119 532T156 619T218
684T304 710Q351 710 381 682T411 590Q411 545 399 498T361 410T300 345T214 319ZM571 -12Q524 -12 494 16T464 108Q464 153 476 200T513 288T575 353T661 379Q708 379 738 351T768 259Q768 214 756 166T718 79T657 14T571 -12ZM724 698H767L151 0H108L724 698Z"
/>
<glyph unicode="&amp;" glyph-name="ampersand" horiz-adv-x="641" d="M206 -12Q114 -12 70 27T26 133Q26 182 42 219T86 284T149 334T220 374L211 391Q191 425 182 452T172 511Q172 553 187 589T229 652T293 694T375 710Q438 710 471 683T505 600Q505 564 488
533T440 473T369 420T281 371L418 134Q449 172 473 222T511 332H435L443 364H632L624 332H549Q529 260 500 203T436 103L453 73Q467 48 490 40T557 32L549 0H506Q468 0 446 12T404 55L398 65Q356 26 307 7T206 -12ZM267 396Q336 432 384 472T445 558Q448 569 450
579T452 601Q452 637 433 657T372 678Q345 678 323 669T283 644T253 608T234 563Q232 553 230 542T228 519Q228 487 238 458T267 396ZM211 23Q259 23 302 41T382 93L235 347Q209 333 186 317T145 282T114 239T94 185Q92 177 89 160T86 133Q86 74 122 49T211 23Z"
/>
<glyph unicode="&apos;" glyph-name="quotesingle" horiz-adv-x="208" d="M181 663L203 748H254L232 663L172 482H149L181 663Z" />
<glyph unicode="(" glyph-name="parenleft" horiz-adv-x="289" d="M166 -148Q143 -127 123 -96T87 -25T62 62T52 162Q52 237 72 320Q91 393 125 461T202 587T295 692T393 771L414 754Q369 722 327 679T249 582T185 468T140 339L125 279Q114 237 109 200T104 130Q104
49 126 -20T189 -134L166 -148V-148Z" />
<glyph unicode=")" glyph-name="parenright" horiz-adv-x="289" d="M-100 -131Q-55 -100 -13 -56T65 41T129 155T174 284L189 344Q200 386 205 423T210 493Q210 574 188 643T125 757L148 771Q170 750 191 719T227 648T252 561T262 461Q262 386 242 303Q223 229
189 162T112 36T19 -69T-79 -148L-100 -131Z" />
<glyph unicode="*" glyph-name="asterisk" horiz-adv-x="427" d="M138 454L176 493L262 559L277 547L213 463L174 424L138 454ZM171 593L128 607L153 650L196 636L271 593L263 578L171 593ZM319 463L296 549L312 557L365 488L384 450L337 424L319 463ZM297 699L309
747H361L349 699L310 607H291L297 699ZM323 594L415 636L465 652L471 605L421 590L325 576L323 594Z" />
<glyph unicode="+" glyph-name="plus" horiz-adv-x="550" d="M262 288H59L68 323H271L326 540H367L312 323H515L506 288H303L248 71H207L262 288Z" />
<glyph unicode="," glyph-name="comma" horiz-adv-x="228" d="M-55 -140Q-16 -109 11 -74T52 -7H49Q32 -6 22 5T11 32Q11 55 27 72T67 90Q88 90 99 78T111 47Q111 34 103 12Q96 -8 83 -30T52 -72T16 -110T-22 -140H-55V-140Z" />
<glyph unicode="-" glyph-name="hyphen" horiz-adv-x="355" d="M79 327H311L300 283H68L79 327Z" />
<glyph unicode="." glyph-name="period" horiz-adv-x="228" d="M54 -9Q33 -9 23 3T12 31Q12 40 16 52Q21 69 35 79T68 90Q89 90 99 78T110 50Q110 41 106 29Q101 12 87 2T54 -9Z" />
<glyph unicode="/" glyph-name="slash" horiz-adv-x="336" d="M374 748H419L-42 -143H-87L374 748Z" />
<glyph unicode="0" glyph-name="zero" horiz-adv-x="550" d="M217 22Q301 22 356 93T442 294Q455 345 463 381T477 444T484 491T486 530Q486 597 460 636T374 676Q290 676 235 605T149 404Q136 353 128 317T114 254T107 207T105 168Q105 101 131 62T217 22ZM376
710Q458 710 498 659T539 507Q539 465 532 411T508 299T466 185T404 86T321 15T215 -12Q133 -12 93 39T52 191Q52 233 59 287T83 399T125 513T187 612T270 683T376 710Z" />
<glyph unicode="1" glyph-name="one" horiz-adv-x="550" d="M53 32H206L359 649L179 565L176 598L378 698H431L265 32H421L413 0H45L53 32Z" />
<glyph unicode="2" glyph-name="two" horiz-adv-x="550" d="M12 42L289 288Q347 340 385 390T440 503Q446 524 449 539T453 567Q453 618 425 646T336 675Q297 675 268 666T217 640L216 635Q230 630 239 620T248 595Q248 578 236 561T199 544Q179 544 168 556T156
588Q156 612 173 634T217 673T279 700T347 710Q433 710 474 672T515 567Q515 519 498 477T453 397T388 323T311 254L69 52L67 47H367L393 147H442L405 0H2L12 42Z" />
<glyph unicode="3" glyph-name="three" horiz-adv-x="550" d="M193 -12Q152 -12 122 -2T71 23T41 57T30 93Q30 121 45 136T81 152Q103 152 113 141T123 113Q123 90 107 78T75 64L73 57Q94 37 123 30T185 22Q260 22 311 59T379 165Q383 179 387 201T392 240Q392
268 382 288T355 322T314 341T263 347H202L211 381H270Q339 381 386 415T448 506Q453 523 457 544T462 582Q462 624 435 650T345 676Q311 676 278 668T223 643L221 637Q252 628 252 597Q252 580 240 564T204 547Q162 547 162 590Q162 613 178 635T222 673T284 700T355
710Q439 710 480 673T522 574Q522 530 508 495T468 435T410 393T341 370L340 364Q389 354 421 320T453 229Q453 177 434 133T380 57T298 6T193 -12Z" />
<glyph unicode="4" glyph-name="four" horiz-adv-x="550" d="M315 149H11L20 189L445 698H509L382 190H470L461 149H372L334 0H278L315 149ZM63 190H325L437 637H434L63 190Z" />
<glyph unicode="5" glyph-name="five" horiz-adv-x="550" d="M208 -12Q168 -12 138 -2T88 23T58 57T48 93Q48 121 63 136T100 152Q121 152 131 141T141 113Q141 90 125 79T93 64L91 57Q111 38 138 30T198 22Q274 22 325 67T397 190Q400 203 404 224T409 265Q409
297 401 319T377 356T341 377T295 384Q248 384 214 364T154 313L115 322L228 698H553L541 650H247L157 343L163 342Q190 380 228 401T319 423Q350 423 378 415T426 387T459 339T471 270Q471 213 451 162T396 72T312 11T208 -12Z" />
<glyph unicode="6" glyph-name="six" horiz-adv-x="550" d="M217 -12Q141 -12 99 30T57 156Q57 206 70 262T108 374T172 483T259 580T370 659T504 710L508 683Q443 666 386 629T281 542T199 434T146 316L152 315Q179 363 222 393T332 423Q397 423 437 386T478
270Q478 206 456 154T398 65T314 8T217 -12ZM220 22Q256 22 285 34T338 69T377 123T404 191Q407 204 412 226T417 271Q417 389 310 389Q274 389 245 377T192 342T153 288T126 220Q123 207 118 185T113 140Q113 22 220 22Z" />
<glyph unicode="7" glyph-name="seven" horiz-adv-x="550" d="M531 650H222L186 506H137L185 698H589L580 661L165 0H106L531 650Z" />
<glyph unicode="8" glyph-name="eight" horiz-adv-x="550" d="M218 -12Q130 -12 83 30T36 143Q36 189 53 227T97 293T160 339T232 363L234 369Q193 381 169 414T145 498Q145 541 162 579T211 647T284 693T378 710Q456 710 498 673T541 570Q541 529 526 495T486
433T431 389T370 367L369 360Q418 346 447 312T476 223Q476 176 457 134T404 59T323 7T218 -12ZM223 21Q295 21 343 63T408 174Q412 188 414 202T417 233Q417 287 384 318T290 349Q218 349 170 307T105 196Q101 182 99 168T96 137Q96 83 129 52T223 21ZM310 382Q343
382 370 393T419 423T454 468T475 523Q479 537 481 549T484 575Q484 625 456 652T375 679Q342 679 315 668T266 638T231 593T210 538Q206 524 204 512T201 486Q201 436 229 409T310 382Z" />
<glyph unicode="9" glyph-name="nine" horiz-adv-x="550" d="M88 15Q153 32 210 69T315 156T397 264T450 382L444 383Q417 335 374 305T264 275Q199 275 159 312T118 428Q118 492 140 544T198 633T282 690T379 710Q455 710 497 668T539 542Q539 492 526 436T488
324T424 215T337 118T226 39T92 -12L88 15ZM286 309Q322 309 351 321T404 356T443 410T470 478Q473 491 478 513T483 558Q483 676 376 676Q340 676 311 664T258 629T219 575T192 507Q189 494 184 472T179 427Q179 309 286 309Z" />
<glyph unicode=":" glyph-name="colon" horiz-adv-x="245" d="M61 -9Q40 -9 30 3T19 31Q19 40 23 52Q28 69 42 79T75 90Q96 90 106 78T117 50Q117 41 113 29Q108 12 94 2T61 -9ZM169 422Q148 422 138 434T127 462Q127 471 131 483Q136 500 150 510T183 521Q204
521 214 509T225 481Q225 472 221 460Q216 443 202 433T169 422Z" />
<glyph unicode=";" glyph-name="semicolon" horiz-adv-x="245" d="M-47 -140Q-8 -109 19 -74T60 -7H57Q40 -6 30 5T19 32Q19 55 35 72T75 90Q96 90 107 78T119 47Q119 34 111 12Q104 -8 91 -30T60 -72T24 -110T-14 -140H-47V-140ZM169 422Q148 422 138 434T127
462Q127 471 131 483Q136 500 150 510T183 521Q204 521 214 509T225 481Q225 472 221 460Q216 443 202 433T169 422Z" />
<glyph unicode="&lt;" glyph-name="less" horiz-adv-x="550" d="M81 263L91 304L529 558L517 510L128 282L127 277L402 49L393 11L81 263Z" />
<glyph unicode="=" glyph-name="equal" horiz-adv-x="550" d="M43 226H490L481 191H34L43 226ZM91 420H538L529 385H82L91 420Z" />
<glyph unicode="&gt;" glyph-name="greater" horiz-adv-x="550" d="M47 59L436 287L437 292L162 520L171 558L483 306L473 265L35 11L47 59Z" />
<glyph unicode="?" glyph-name="question" horiz-adv-x="461" d="M187 360Q269 365 325 406T399 510Q404 527 408 545T412 581Q412 627 384 651T306 675Q271 675 239 666T187 642L185 636Q216 628 216 596Q216 579 204 563T167 546Q147 546 136 557T125 588Q125
613 142 635T187 674T250 700T320 710Q360 710 389 700T436 672T464 630T473 578Q473 525 453 482T397 406T316 354T217 329L183 194H146L187 360ZM122 -9Q101 -9 91 3T80 31Q80 40 84 52Q89 69 103 79T136 90Q157 90 167 78T178 50Q178 41 174 29Q169 12 155 2T122
-9Z" />
<glyph unicode="@" glyph-name="at" horiz-adv-x="835" d="M367 -121Q301 -121 246 -103T150 -47T88 47T65 177Q65 275 97 370T187 541T329 663T517 710Q579 710 629 693T714 641T769 557T789 442Q789 380 774 314T730 194T660 104T566 69Q523 69 505 95T486 162Q486
192 495 227L499 241L492 243Q478 209 461 178T424 122T381 84T331 69Q290 69 274 100T257 186Q257 237 271 293T312 398T377 477T466 508Q536 508 551 445H556L583 497H607L534 203Q531 188 529 177T527 156Q527 99 572 99Q618 99 662 151T730 304Q736 329 740
348T746 384T749 414T750 444Q750 559 689 620T517 682Q446 682 384 656T271 584T183 471T127 326Q124 313 120 295T113 256T108 214T105 175Q105 110 124 61T178 -23T262 -74T373 -91H541L535 -112Q492 -117 447 -119T367 -121ZM347 108Q366 108 385 122T424 160T459
211T489 266T512 316T524 353L531 381Q542 424 531 450T478 476Q448 476 424 462T380 423T347 365T323 295Q320 286 317 272T312 243T308 211T306 182Q306 150 314 129T347 108Z" />
<glyph unicode="A" glyph-name="A" horiz-adv-x="641" d="M-43 32H10L400 698H463L519 32H572L564 0H366L374 32H460L444 232H173L58 32H144L136 0H-51L-43 32ZM190 265H442L412 642H408L190 265Z" />
<glyph unicode="B" glyph-name="B" horiz-adv-x="612" d="M-7 32H68L226 666H151L159 698H453Q525 698 562 665T599 566Q599 491 555 437T435 366L434 362Q489 351 515 317T542 229Q542 184 526 143T481 70T411 19T320 0H-15L-7 32ZM129 34H300Q363 34 407 68T467
163Q472 180 476 202T481 243Q481 291 456 318T375 345H206L129 34ZM215 379H370Q426 379 468 411T526 496Q531 512 535 534T540 574Q540 613 518 638T442 664H286L215 379Z" />
<glyph unicode="C" glyph-name="C" horiz-adv-x="596" d="M273 -12Q176 -12 121 44T65 218Q65 267 74 323T103 433T151 538T220 626T309 687T420 710Q479 710 518 688T568 629H573L590 698H639L588 494H539L555 556Q558 569 558 580Q558 624 521 648T427 673Q375
673 332 652T256 595T198 508T159 401Q148 359 142 329T132 277T127 239T125 208Q125 122 166 76T288 30Q359 30 412 68T501 167L527 151Q511 121 487 92T431 39T360 2T273 -12Z" />
<glyph unicode="D" glyph-name="D" horiz-adv-x="669" d="M-7 32H68L226 666H151L159 698H416Q519 698 580 643T642 472Q642 431 634 381T609 278T563 175T493 86T397 24T271 0H-15L-7 32ZM129 34H266Q315 34 360 53T442 106T506 190T549 298Q559 338 565 367T575
418T580 456T582 487Q582 572 539 618T409 664H286L129 34Z" />
<glyph unicode="E" glyph-name="E" horiz-adv-x="586" d="M-7 32H68L226 666H151L159 698H628L588 538H539L570 664H286L215 380H423L444 464H483L432 262H393L415 346H207L129 34H428L461 166H510L469 0H-15L-7 32Z" />
<glyph unicode="F" glyph-name="F" horiz-adv-x="559" d="M-7 32H67L225 666H150L158 698H624L584 538H535L566 664H285L211 367H419L440 451H479L429 250H390L411 333H202L127 32H222L214 0H-15L-7 32Z" />
<glyph unicode="G" glyph-name="G" horiz-adv-x="683" d="M278 -12Q178 -12 122 44T65 218Q65 267 74 323T104 433T154 538T225 626T318 687T434 710Q495 710 541 688T597 626H601L619 698H668L617 494H568L584 556Q587 569 587 580Q587 602 576 619T545 648T499
666T441 673Q387 673 342 653T259 594T196 501T154 380Q138 314 132 276T125 208Q125 122 166 75T288 27Q325 27 358 38T418 70T464 119T492 182L521 298H400L407 330H652L644 298H579L506 0H481L476 94H472Q446 51 397 20T278 -12Z" />
<glyph unicode="H" glyph-name="H" horiz-adv-x="724" d="M-7 32H68L226 666H151L159 698H369L361 666H286L214 377H570L642 666H567L575 698H785L777 666H702L544 32H619L611 0H401L409 32H484L561 343H206L128 32H203L195 0H-15L-7 32Z" />
<glyph unicode="I" glyph-name="I" horiz-adv-x="308" d="M-7 32H68L226 666H151L159 698H369L361 666H286L128 32H203L195 0H-15L-7 32Z" />
<glyph unicode="J" glyph-name="J" horiz-adv-x="430" d="M99 -12Q40 -12 11 11T-18 68Q-18 90 -6 105T29 120Q49 120 60 108T72 78Q72 67 66 55T41 33V30Q48 25 62 22T93 19Q145 19 177 50T225 143L356 666H261L269 698H499L491 666H416L284 136Q265 60 218 24T99 -12Z" />
<glyph unicode="K" glyph-name="K" horiz-adv-x="654" d="M-7 32H68L226 666H151L159 698H369L361 666H286L194 299H199L319 412L592 666H508L516 698H710L702 666H642L364 408L518 32H578L570 0H366L374 32H453L319 371L180 242L128 32H203L195 0H-15L-7 32Z" />
<glyph unicode="L" glyph-name="L" horiz-adv-x="548" d="M-7 32H67L225 666H150L158 698H368L360 666H285L128 34H398L431 166H480L439 0H-15L-7 32Z" />
<glyph unicode="M" glyph-name="M" horiz-adv-x="805" d="M-7 32H68L226 666H151L159 698H304L399 274H403L710 698H866L858 666H783L625 32H700L692 0H482L490 32H565L714 632H710L593 473L370 164L299 474L262 630H257L108 32H183L175 0H-15L-7 32Z" />
<glyph unicode="N" glyph-name="N" horiz-adv-x="723" d="M-7 32H67L225 666H150L158 698H300L520 93H525L669 666H594L602 698H792L784 666H709L542 0H494L262 632H257L107 32H182L174 0H-15L-7 32Z" />
<glyph unicode="O" glyph-name="O" horiz-adv-x="677" d="M426 673Q375 673 333 653T256 596T197 508T157 396Q148 358 142 329T132 278T127 237T125 203Q125 121 164 73T291 25Q342 25 384 45T461 102T520 190T560 302Q569 340 575 369T585 420T590 461T592 495Q592
577 553 625T426 673ZM285 -12Q179 -12 122 50T65 226Q65 269 73 322T101 429T149 533T218 623T312 686T432 710Q538 710 595 648T652 472Q652 428 644 376T616 269T568 165T499 75T405 12T285 -12Z" />
<glyph unicode="P" glyph-name="P" horiz-adv-x="577" d="M-7 32H68L226 666H151L159 698H454Q527 698 565 665T603 568Q603 534 592 492T554 414T482 352T370 327H202L128 32H223L215 0H-15L-7 32ZM211 361H371Q430 361 472 396T530 490Q535 507 539 530T544
572Q544 614 522 639T449 664H286L211 361Z" />
<glyph unicode="Q" glyph-name="Q" horiz-adv-x="678" d="M437 -162Q389 -162 365 -149T322 -107L262 -11Q167 -4 116 57T65 226Q65 269 73 322T101 429T149 533T218 623T312 686T432 710Q538 710 595 648T652 472Q652 431 644 381T619 280T576 179T513 90T429
24T321 -10L380 -88Q396 -109 415 -119T467 -129H482L474 -162H437ZM291 25Q342 25 384 45T461 102T520 190T560 302Q569 340 575 369T585 420T590 461T592 495Q592 577 553 625T426 673Q375 673 333 653T256 596T197 508T157 396Q148 358 142 329T132 278T127
237T125 203Q125 121 164 73T291 25Z" />
<glyph unicode="R" glyph-name="R" horiz-adv-x="618" d="M-7 32H68L226 666H151L159 698H454Q527 698 565 665T603 568Q603 529 592 490T556 417T493 360T401 331L467 84Q474 58 488 45T532 32H554L546 0H502Q457 0 437 16T405 79L344 327H202L128 32H203L195
0H-15L-7 32ZM211 361H371Q400 361 426 370T472 397T508 437T530 490Q534 506 539 529T544 572Q544 614 522 639T449 664H286L211 361Z" />
<glyph unicode="S" glyph-name="S" horiz-adv-x="556" d="M228 -12Q171 -12 128 9T76 70H71L54 0H5L57 209H106L90 147Q86 131 86 117Q86 74 122 50T224 25Q269 25 306 38T370 74T411 129T426 199Q426 251 399 278T321 325L263 349Q200 375 169 412T138 511Q138
556 156 592T206 655T280 695T372 710Q427 710 467 691T517 633H522L538 698H587L538 499H489L503 557Q507 573 507 585Q507 628 471 650T374 673Q329 673 296 661T240 628T206 581T195 526Q195 476 222 448T300 399L356 377Q424 348 453 310T483 215Q483 169 465
128T414 55T333 6T228 -12Z" />
<glyph unicode="T" glyph-name="T" horiz-adv-x="604" d="M121 32H216L373 664H187L155 538H106L146 698H677L637 538H588L619 664H433L276 32H371L363 0H113L121 32Z" />
<glyph unicode="U" glyph-name="U" horiz-adv-x="684" d="M289 -12Q198 -12 148 26T98 148Q98 173 103 202T117 264L217 666H142L150 698H360L352 666H277L174 251Q166 218 161 191T156 139Q156 85 188 55T293 25Q342 25 379 38T445 80T493 151T528 253L631 666H556L564
698H754L746 666H671L568 253Q550 178 525 127T465 45T388 1T289 -12Z" />
<glyph unicode="V" glyph-name="V" horiz-adv-x="609" d="M167 666H114L122 698H320L312 666H226L248 331L263 69H268L413 330L603 666H517L525 698H708L700 666H647L268 0H213L167 666Z" />
<glyph unicode="W" glyph-name="W" horiz-adv-x="873" d="M168 666H115L123 698H319L311 666H226L215 78H219L522 698H584L580 78H584L863 666H778L786 698H970L962 666H909L585 0H526L531 624H527L220 0H161L168 666Z" />
<glyph unicode="X" glyph-name="X" horiz-adv-x="604" d="M-48 32H11L295 352L177 666H117L125 698H323L315 666H239L340 392H344L585 666H508L516 698H702L694 666H634L355 355L476 32H536L529 0H329L337 32H413L312 314H307L60 32H137L129 0H-56L-48 32Z" />
<glyph unicode="Y" glyph-name="Y" horiz-adv-x="589" d="M122 32H210L272 285L170 666H117L125 698H326L318 666H233L318 328H323L577 666H492L500 698H686L678 666H625L333 286L270 32H359L351 0H114L122 32Z" />
<glyph unicode="Z" glyph-name="Z" horiz-adv-x="583" d="M-4 34L544 664H212L180 538H131L171 698H621L613 664L64 34H421L454 166H503L462 0H-12L-4 34Z" />
<glyph unicode="[" glyph-name="bracketleft" horiz-adv-x="277" d="M209 760H368L360 728H253L45 -106H152L144 -138H-16L209 760Z" />
<glyph unicode="\" glyph-name="backslash" horiz-adv-x="336" d="M167 748H207L221 -143H180L167 748Z" />
<glyph unicode="]" glyph-name="bracketright" horiz-adv-x="277" d="M-56 -106H51L259 728H152L160 760H320L95 -138H-64L-56 -106Z" />
<glyph unicode="^" glyph-name="asciicircum" horiz-adv-x="550" d="M69 337L357 698H404L516 331L481 318L376 659H372L100 318L69 337Z" />
<glyph unicode="_" glyph-name="underscore" horiz-adv-x="530" d="M-67 -113H413L405 -147H-75L-67 -113Z" />
<glyph unicode="`" glyph-name="grave" horiz-adv-x="600" d="M234 740L287 762L343 595L322 586L234 740Z" />
<glyph unicode="a" glyph-name="a" horiz-adv-x="528" d="M137 -12Q85 -12 64 26T43 127Q43 169 50 215T73 305T110 389T160 459T224 506T301 524Q341 524 366 506T403 446H409L442 512H473L353 38L371 30L494 144L511 129L433 46Q401 11 383 0T347 -12Q326 -12
314 0T302 32Q302 40 303 52T307 73L340 199L333 202Q315 162 295 124T250 55T198 7T137 -12ZM155 34Q174 34 195 46T238 84Q262 111 284 146T324 218T356 289T375 347L379 364Q393 423 377 455T314 487Q248 487 200 431T126 278Q116 240 110 198T103 127Q103 85
113 60T155 34Z" />
<glyph unicode="b" glyph-name="b" horiz-adv-x="504" d="M203 -12Q163 -12 137 6T100 66H94L61 0H30L207 705H119L125 730L277 758L163 313L170 310Q188 349 208 387T252 456T304 505T366 524Q418 524 439 487T460 386Q460 344 453 298T430 207T393 123T343 53T279
6T203 -12ZM189 25Q255 25 303 81T377 234Q387 272 393 314T400 385Q400 427 390 452T348 478Q329 478 308 466T265 428Q241 401 219 366T179 294T147 223T128 165L124 148Q110 89 126 57T189 25Z" />
<glyph unicode="c" glyph-name="c" horiz-adv-x="415" d="M162 -12Q101 -12 73 25T45 135Q45 172 51 215T70 301T103 384T150 456T213 505T292 524Q343 524 374 500T405 437Q405 411 391 395T353 379Q333 379 323 389T313 416Q313 435 326 450T368 468V473Q344
494 294 494Q268 494 244 483T198 446T158 379T125 278Q122 266 119 249T112 212T107 171T104 131Q104 88 119 59T178 30Q223 30 266 68T347 178L371 167Q322 72 273 30T162 -12Z" />
<glyph unicode="d" glyph-name="d" horiz-adv-x="529" d="M137 -12Q85 -12 64 26T43 127Q43 169 50 215T73 305T110 389T160 459T224 506T301 524Q342 524 364 507T397 455H403L464 705H376L382 730L534 758L353 38L371 30L494 144L511 129L433 46Q401 11 383
0T347 -12Q326 -12 314 0T302 32Q302 40 303 52T307 73L340 199L333 202Q315 162 295 124T250 55T198 7T137 -12ZM155 34Q174 34 195 46T238 84Q262 111 284 146T324 218T356 289T375 347L379 364Q393 423 377 455T314 487Q248 487 200 431T126 278Q116 240 110
198T103 127Q103 85 113 60T155 34Z" />
<glyph unicode="e" glyph-name="e" horiz-adv-x="437" d="M163 -12Q100 -12 73 25T45 138Q45 174 51 217T71 303T104 386T153 456T218 505T300 524Q320 524 340 520T377 504T404 475T415 428Q415 397 400 370T351 320T260 283T122 261Q115 230 110 197T104 132Q104
110 107 92T119 60T142 38T179 30Q225 30 269 68T353 178L377 167Q328 71 278 30T163 -12ZM127 284Q242 297 301 328T360 423Q360 450 346 471T293 492Q241 492 198 444T127 284Z" />
<glyph unicode="f" glyph-name="f" horiz-adv-x="292" d="M-73 -212Q-112 -212 -130 -197T-149 -158Q-149 -139 -137 -126T-105 -112Q-87 -112 -77 -123T-66 -150Q-66 -159 -71 -169T-88 -186L-85 -192H-79Q-34 -192 -9 -159T30 -68L166 478H71L80 512H175L199
609Q216 677 260 718T372 760Q411 760 429 745T448 706Q448 687 436 674T404 660Q386 660 376 671T365 698Q365 707 370 717T387 734L384 740H377Q329 739 301 706T258 616L232 512H348L339 478H223L89 -61Q72 -130 31 -171T-73 -212Z" />
<glyph unicode="g" glyph-name="g" horiz-adv-x="465" d="M134 -212Q39 -212 -8 -183T-56 -105Q-56 -76 -40 -54T1 -15T58 14T120 34L122 39L116 41Q87 51 68 69T48 114Q48 135 57 150T80 175T112 192T145 202L146 205Q117 221 103 250T88 319Q88 363 104 400T147
465T210 508T289 524Q339 524 371 495L380 521Q391 552 404 570T444 588Q462 588 472 579T482 554Q482 537 471 526T442 514Q416 514 411 541H407L385 482Q413 450 413 394Q413 351 397 314T354 249T291 206T213 190Q193 190 177 194Q166 193 152 189T126 178T106
159T97 133Q97 117 111 108T156 86L263 47Q289 37 309 27T344 3T367 -27T375 -68Q375 -107 354 -134T299 -178T222 -204T134 -212ZM220 219Q266 219 298 251T344 335Q352 369 354 385T357 410Q357 451 340 473T281 496Q235 496 203 464T157 380Q149 346 147 330T144
305Q144 264 161 242T220 219ZM143 -187Q170 -187 201 -182T258 -165T301 -132T318 -80Q318 -47 297 -32T242 -4L152 29Q122 20 95 8T46 -19T13 -54T0 -98Q0 -140 38 -163T143 -187Z" />
<glyph unicode="h" glyph-name="h" horiz-adv-x="539" d="M354 -12Q332 -12 319 0T306 33Q306 41 308 51T312 71L406 418Q410 431 410 444Q410 479 375 479Q352 479 327 465T276 424Q253 401 231 371T188 305T151 232T126 158L87 0H30L206 705H118L124 730L276
758L161 305L167 302Q186 338 209 377T261 449T321 503T393 524Q432 524 449 504T467 452Q467 441 465 430T460 407L361 38L379 30L502 144L519 129L441 46Q408 11 390 0T354 -12Z" />
<glyph unicode="i" glyph-name="i" horiz-adv-x="289" d="M104 -12Q84 -12 71 0T58 33Q58 41 60 51T64 71L162 468H74L80 493L233 520L112 38L130 30L253 144L270 129L192 46Q160 12 141 0T104 -12ZM237 651Q219 651 210 661T201 684Q201 688 201 692T204 702Q209
715 220 724T248 734Q266 734 275 724T284 701Q284 697 284 693T281 683Q276 670 265 661T237 651Z" />
<glyph unicode="j" glyph-name="j" horiz-adv-x="261" d="M-67 -212Q-105 -212 -123 -197T-141 -159Q-141 -139 -129 -126T-97 -112Q-79 -112 -69 -123T-58 -151Q-58 -160 -63 -170T-80 -188L-78 -194H-71Q-30 -193 -8 -161T29 -68L161 468H73L79 493L232 520L86
-63Q69 -132 31 -172T-67 -212ZM237 651Q219 651 210 661T201 684Q201 688 201 692T204 702Q209 715 220 724T248 734Q266 734 275 724T284 701Q284 697 284 693T281 683Q276 670 265 661T237 651Z" />
<glyph unicode="k" glyph-name="k" horiz-adv-x="516" d="M341 -12Q329 -12 319 -6T297 21L205 217Q256 243 294 272T359 330T398 387T411 439Q411 479 374 479Q351 479 327 464T277 423Q254 401 232 371T189 305T152 233T126 158L87 0H30L207 705H119L125 730L277
758L161 305L167 302Q187 340 211 379T262 451T322 503T393 524Q431 524 449 505T467 450Q467 410 445 374T390 308T323 257T262 223L355 36H368L484 143L501 129L422 45Q392 11 376 0T341 -12Z" />
<glyph unicode="l" glyph-name="l" horiz-adv-x="274" d="M89 -12Q69 -12 56 0T43 33Q43 41 45 51T49 71L208 705H120L126 730L278 758L97 38L115 30L238 144L255 129L177 46Q144 11 126 0T89 -12Z" />
<glyph unicode="m" glyph-name="m" horiz-adv-x="826" d="M640 -12Q619 -12 606 0T593 33Q593 51 599 71L693 418Q697 431 697 444Q697 479 663 479Q640 479 615 465T564 424Q541 401 518 371T475 305T439 232T414 158L374 0H317L421 416Q425 432 425 444Q425
479 391 479Q369 479 344 465T292 424Q270 401 247 371T204 305T168 232T142 158L103 0H46L163 468H75L81 493L231 520L177 305L183 302Q202 338 225 377T276 448T337 502T409 524Q447 524 463 503T480 450Q480 439 478 428T473 404L448 305L455 302Q474 338 497
377T547 448T608 502T680 524Q720 524 737 504T754 452Q754 441 752 430T747 407L648 38L666 30L789 144L806 129L727 46Q694 11 675 0T640 -12Z" />
<glyph unicode="n" glyph-name="n" horiz-adv-x="555" d="M370 -12Q348 -12 335 0T322 33Q322 41 324 51T328 71L422 418Q426 431 426 444Q426 479 391 479Q368 479 343 465T292 424Q269 401 247 371T204 305T167 232T142 158L103 0H46L163 468H75L81 493L231
520L177 305L183 302Q202 338 225 377T277 449T337 503T409 524Q448 524 465 504T483 452Q483 441 481 430T476 407L377 38L395 30L518 144L535 129L457 46Q424 11 406 0T370 -12Z" />
<glyph unicode="o" glyph-name="o" horiz-adv-x="482" d="M185 20Q219 20 246 36T294 81T331 146T356 225Q365 259 370 283T378 323T382 352T383 375Q383 401 379 422T365 459T339 483T297 492Q263 492 236 476T188 431T151 366T126 287Q117 252 112 229T104 189T100
160T99 137Q99 111 103 90T117 53T143 29T185 20ZM184 -12Q110 -12 76 34T42 161Q42 222 60 286T111 404T192 490T298 524Q372 524 406 477T440 350Q440 288 422 224T371 108T290 22T184 -12Z" />
<glyph unicode="p" glyph-name="p" horiz-adv-x="519" d="M-69 -168H3L162 468H74L80 493L231 520L178 312L185 310Q203 349 223 387T267 456T319 505T380 524Q432 524 453 486T475 386Q475 344 468 298T445 207T408 123T358 53T294 6T217 -12Q180 -12 156 3T121
58H114L60 -168H155L147 -200H-77L-69 -168ZM204 25Q270 25 318 81T392 234Q402 272 408 314T415 385Q415 427 405 452T363 478Q344 478 323 466T280 428Q256 401 234 366T194 294T162 223T143 165L139 148Q125 89 141 57T204 25Z" />
<glyph unicode="q" glyph-name="q" horiz-adv-x="505" d="M151 -168H245L340 199L333 202Q315 162 295 124T250 55T198 7T137 -12Q85 -12 64 26T43 127Q43 169 50 215T73 305T110 389T160 459T224 506T301 524Q340 524 366 506T403 446H409L442 512H473L302 -168H374L366
-200H143L151 -168ZM155 34Q174 34 195 46T238 84Q262 111 284 146T324 218T356 289T375 347L379 364Q393 423 377 455T314 487Q248 487 200 431T126 278Q116 240 110 198T103 127Q103 85 113 60T155 34Z" />
<glyph unicode="r" glyph-name="r" horiz-adv-x="413" d="M163 468H75L80 493L231 520L180 316L186 314Q203 354 222 391T263 458T312 506T371 524Q403 524 420 508T438 469Q438 449 425 434T390 418Q371 418 361 429T350 456Q350 467 356 477T370 494L366 499H364Q338
499 309 468T249 388Q239 372 224 343T192 279T160 207T137 137L103 0H46L163 468Z" />
<glyph unicode="s" glyph-name="s" horiz-adv-x="361" d="M100 -12Q52 -12 29 4T5 47Q5 64 16 77T48 90Q65 90 75 81T86 53Q86 31 68 16L69 11Q73 9 85 9Q106 9 130 13T176 30T211 64T225 118Q225 138 220 154T206 185T182 216T149 253Q124 281 108 307T91 374Q91
408 104 436T140 483T194 513T262 524Q310 524 333 508T356 466Q356 448 345 435T313 422Q296 422 286 432T275 459Q275 470 280 480T293 496L291 502Q288 503 277 503Q256 503 233 499T191 482T158 449T145 395Q145 375 150 359T164 327T188 295T221 258Q247 230
263 204T279 139Q279 104 265 76T227 29T170 -1T100 -12Z" />
<glyph unicode="t" glyph-name="t" horiz-adv-x="340" d="M103 -12Q82 -12 70 0T57 33Q57 41 59 51T63 71L165 478H79L88 512H129Q156 512 169 520T192 552L234 650H265L231 512H364L356 478H222L112 38L129 30L281 135L297 118L188 32Q170 18 158 9T137 -4T120
-10T103 -12Z" />
<glyph unicode="u" glyph-name="u" horiz-adv-x="550" d="M132 -12Q93 -12 76 8T59 61Q59 72 61 83T66 106L163 468H75L81 493L235 520L120 94Q116 81 116 68Q116 33 151 33Q174 33 199 47T250 88Q272 110 295 141T338 207T375 280T400 354L439 512H496L376 38L394
30L517 144L534 129L456 46Q424 11 406 0T370 -12Q348 -12 336 0T324 32Q324 40 326 52T331 74L365 207L358 209Q339 173 316 134T265 62T204 9T132 -12Z" />
<glyph unicode="v" glyph-name="v" horiz-adv-x="448" d="M91 481H46L54 512H224L216 481H149L179 68H185L418 481H351L359 512H514L506 481H461L177 0H132L91 481Z" />
<glyph unicode="w" glyph-name="w" horiz-adv-x="675" d="M108 481H63L71 512H237L229 481H162L156 71H161L381 514H430L424 71H431L636 481H569L577 512H730L722 481H677L423 0H377L380 438H374L157 0H107L108 481Z" />
<glyph unicode="x" glyph-name="x" horiz-adv-x="551" d="M58 -12Q26 -12 8 2T-11 40Q-11 62 2 77T37 92Q55 92 65 81T75 54Q75 41 70 31T56 16L59 12H62Q104 12 152 74T250 251L200 474L183 477L77 379L61 394L130 466Q146 483 158 494T179 512T195 521T211 524Q247
524 253 491L288 303H295Q309 335 329 376T376 451Q402 485 431 504T494 524Q526 524 544 510T563 472Q563 450 550 435T515 420Q497 420 487 431T477 458Q477 471 482 481T496 496L493 500H490Q448 500 400 439T302 262L352 38L369 35L475 133L491 118L422 46Q405
29 394 18T373 0T357 -9T341 -12Q305 -12 299 21L264 209H257Q243 177 223 136T176 61Q150 27 121 8T58 -12Z" />
<glyph unicode="y" glyph-name="y" horiz-adv-x="449" d="M-36 -212Q-68 -212 -87 -197T-106 -159Q-106 -138 -93 -123T-58 -108Q-39 -108 -29 -119T-19 -147Q-19 -173 -39 -184L-34 -188H-30Q12 -179 45 -149T111 -59L135 -16L93 481H48L56 512H226L218 481H151L181
65H187L421 481H353L361 512H516L508 481H462L135 -79Q93 -151 51 -181T-36 -212Z" />
<glyph unicode="z" glyph-name="z" horiz-adv-x="460" d="M312 -12Q276 -12 209 3T39 49L27 0H-8L2 39Q7 59 14 69T36 93L380 430L152 475L137 466L97 340L75 345L105 473Q112 502 126 513T171 524Q203 524 261 508T411 464L423 512H458L448 473Q443 454 436 444T414
420L69 83L331 38L346 46L386 172L408 168L378 40Q371 11 357 0T312 -12Z" />
<glyph unicode="{" glyph-name="braceleft" horiz-adv-x="301" d="M69 -138Q48 -138 38 -128T28 -101Q28 -92 31 -80L101 201Q103 209 104 215T105 228Q105 259 84 273T28 287L40 334Q83 334 114 356T156 424L229 713Q235 734 251 747T295 760H389L381 728H286L212
429Q199 380 164 351T82 317L78 305Q113 300 134 276T155 217Q155 203 151 188L78 -106H173L165 -138H69V-138Z" />
<glyph unicode="|" glyph-name="bar" horiz-adv-x="315" d="M262 760H303L79 -138H38L262 760Z" />
<glyph unicode="}" glyph-name="braceright" horiz-adv-x="301" d="M-52 -106H43L117 193Q130 242 165 271T247 305L251 317Q216 322 195 346T174 405Q174 419 178 434L251 728H156L164 760H260Q281 760 291 750T301 723Q301 714 298 702L228 421Q226 413 225
407T224 394Q224 363 245 349T301 335L289 288Q246 288 215 266T173 198L100 -91Q94 -112 78 -125T34 -138H-60L-52 -106Z" />
<glyph unicode="~" glyph-name="asciitilde" horiz-adv-x="550" d="M395 251Q366 251 341 260T277 289Q243 306 221 315T173 324Q147 324 126 316T79 287L63 311Q88 336 114 348T177 360Q206 360 231 351T295 322Q329 305 351 296T399 287Q425 287 446 295T493
324L509 300Q484 275 458 263T395 251Z" />
<glyph unicode="&#xa0;" glyph-name="uni00A0" horiz-adv-x="212" />
<glyph unicode="&#xa1;" glyph-name="exclamdown" horiz-adv-x="247" d="M169 422Q148 422 138 434T127 462Q127 471 131 483Q136 500 150 510T183 521Q204 521 214 509T225 481Q225 472 221 460Q216 443 202 433T169 422ZM44 53L130 331H155L102 53L42 -186H-16L44 53Z" />
<glyph unicode="&#xa2;" glyph-name="cent" horiz-adv-x="427" d="M144 -11Q91 -6 68 31T45 135Q45 188 58 253T99 377T171 476T277 522L303 625H339L313 522Q359 518 387 494T416 436Q416 411 402 396T365 380Q346 380 337 390T327 415Q327 433 340 448T381 465V471Q370
480 350 486T305 494L189 30Q235 33 275 72T353 178L377 167Q330 77 284 35T180 -12L154 -114H118L144 -11ZM270 489Q223 480 186 430T124 278Q121 266 118 249T111 212T106 171T104 131Q104 96 114 69T157 33L270 489Z" />
<glyph unicode="&#xa3;" glyph-name="sterling" horiz-adv-x="545" d="M8 47Q34 61 59 84T105 140T139 211T152 297V309H64L72 342H150Q148 368 147 396T145 453Q145 515 163 563T214 643T290 693T385 710Q418 710 447 702T497 680T531 646T544 603Q544 577 530
559T492 541Q472 541 461 552T449 582Q449 602 461 618T497 639L498 643Q479 657 452 665T384 673Q337 673 303 657T247 611T214 542T203 458Q203 434 205 403T208 342H389L381 309H208V301Q206 213 163 151T51 47V43H379L409 162H458L418 0H-4L8 47Z" />
<glyph unicode="&#xa4;" glyph-name="currency" horiz-adv-x="586" d="M262 124Q222 124 192 138T144 177L22 73L-3 107L123 215Q114 240 114 274Q114 335 134 392T190 491L118 601L152 628L222 523Q251 546 285 560T358 574Q398 574 428 560T476 521L598 625L623
591L497 483Q506 457 506 424Q506 363 486 306T430 207L502 97L468 70L398 175Q369 152 335 138T262 124ZM265 155Q297 155 324 167T372 201T409 251T432 312Q441 349 449 383T457 443Q457 490 430 516T355 543Q323 543 296 531T248 497T211 447T188 386Q179 349
171 315T163 255Q163 208 190 182T265 155Z" />
<glyph unicode="&#xa5;" glyph-name="yen" horiz-adv-x="586" d="M119 32H209L240 159H74L82 191H247L278 313H112L121 345H273L179 666H126L134 698H335L327 666H240L323 361H327L566 666H479L487 698H674L666 666H613L357 345H509L501 313H335L305 191H471L463
159H297L265 32H355L347 0H111L119 32Z" />
<glyph unicode="&#xa6;" glyph-name="brokenbar" horiz-adv-x="315" d="M126 216H167L78 -138H37L126 216ZM261 760H302L214 406H173L261 760Z" />
<glyph unicode="&#xa7;" glyph-name="section" horiz-adv-x="516" d="M149 -154Q99 -154 66 -135T32 -80Q32 -57 46 -42T81 -27Q97 -27 108 -37T119 -64Q119 -81 108 -93T80 -109V-115Q91 -122 106 -125T141 -128Q204 -128 243 -96T282 -9Q282 26 263 50T214 103L164
152Q146 170 129 187T98 222T77 260T69 305Q69 362 110 400T215 453L216 461Q198 483 189 503T180 550Q180 585 194 614T234 665T294 698T367 710Q417 710 450 691T484 636Q484 613 470 598T435 583Q419 583 408 593T397 620Q397 637 408 649T436 665V671Q426 678
410 681T375 684Q312 684 273 652T234 565Q234 530 253 506T302 453L352 404Q370 386 387 369T418 334T439 296T447 251Q447 194 406 156T301 103L300 95Q318 73 327 53T336 6Q336 -29 322 -58T282 -109T222 -142T149 -154ZM123 317Q123 278 145 252T195 198L245
150Q255 141 263 133T279 117Q334 131 363 163T393 239Q393 278 371 304T321 358L271 406Q261 415 253 423T237 439Q182 425 153 393T123 317Z" />
<glyph unicode="&#xa8;" glyph-name="dieresis" horiz-adv-x="600" d="M234 629Q217 629 209 639T201 661Q201 669 204 678Q208 689 217 698T244 707Q261 707 269 697T277 675Q277 667 274 658Q270 647 261 638T234 629ZM413 629Q396 629 388 639T380 661Q380
669 383 678Q387 689 396 698T423 707Q440 707 448 697T456 675Q456 667 453 658Q449 647 440 638T413 629Z" />
<glyph unicode="&#xa9;" glyph-name="copyright" horiz-adv-x="759" d="M342 154Q297 154 276 181T255 261Q255 301 265 350T299 442T358 514T444 544Q484 544 505 524T527 478Q527 459 516 447T488 435Q474 435 466 443T458 463Q458 476 468 487T498 501V505Q489
511 477 515T447 519Q406 519 373 486T319 366Q311 332 307 307T302 259Q302 229 313 208T354 187Q386 187 419 213T481 291L497 282Q461 213 424 184T342 154ZM335 19Q398 19 452 42T549 105T624 201T670 323Q687 399 687 434Q687 551 628 616T461 681Q398 681
344 658T247 595T172 499T126 377Q109 301 109 266Q109 149 168 84T335 19ZM330 -11Q268 -11 221 9T140 65T90 153T73 266Q73 347 100 426T179 569T303 672T467 711Q528 711 576 691T656 635T706 547T723 434Q723 353 696 274T617 131T494 28T330 -11Z" />
<glyph unicode="&#xaa;" glyph-name="ordfeminine" horiz-adv-x="364" d="M148 348Q116 348 100 366T84 410Q84 461 136 498T301 545L308 573Q311 586 313 600T316 626Q316 682 255 682Q220 682 193 667L192 663Q208 657 208 639Q208 624 199 615T175 605Q164
605 156 612T148 633Q148 646 156 659T180 682T217 698T265 704Q310 704 334 684T359 627Q359 616 357 603T353 580L303 381L313 375L397 455L409 445L349 382Q329 362 317 355T294 348Q262 348 262 376Q262 381 263 388T268 408L280 451H275Q255 406 221 377T148
348ZM164 374Q183 374 203 388T242 422T274 466T292 509L296 525Q208 515 168 487T127 415Q127 397 136 386T164 374Z" />
<glyph unicode="&#xab;" glyph-name="guillemotleft" horiz-adv-x="468" d="M53 272L61 305L281 485L290 461L110 281L203 112L186 93L53 272ZM240 272L248 305L468 485L477 461L297 281L390 112L373 93L240 272Z" />
<glyph unicode="&#xac;" glyph-name="logicalnot" horiz-adv-x="550" d="M452 288H59L68 323H502L444 90H403L452 288Z" />
<glyph unicode="&#xad;" glyph-name="uni00AD" horiz-adv-x="355" d="M79 327H311L300 283H68L79 327Z" />
<glyph unicode="&#xae;" glyph-name="registered" horiz-adv-x="459" d="M176 414H198L243 594H221L225 610H319Q347 610 360 598T374 566Q374 539 358 520T310 494L329 431Q334 414 355 414H360L356 398H342Q325 398 316 404T302 427L282 492H246L226 414H248L244
398H172L176 414ZM260 322Q291 322 321 332T376 363T420 414T448 484Q452 499 454 517T456 544Q456 578 445 604T415 649T369 676T313 686Q281 686 252 676T197 645T153 594T125 524Q121 509 119 491T117 464Q117 430 128 404T158 359T204 332T260 322ZM258 298Q222
298 191 309T138 343T103 396T90 465Q90 515 106 559T152 637T223 690T315 710Q351 710 381 698T434 665T470 612T483 543Q483 493 467 449T421 371T350 318T258 298ZM251 510H296Q312 510 323 519T339 544Q343 559 343 568Q343 592 314 592H270L251 510Z" />
<glyph unicode="&#xaf;" glyph-name="overscore" horiz-adv-x="600" d="M207 689H464L454 649H197L207 689Z" />
<glyph unicode="&#xb0;" glyph-name="degree" horiz-adv-x="442" d="M269 370Q239 370 213 381T167 411T137 458T126 519Q126 559 139 594T177 654T234 695T307 710Q337 710 363 699T409 669T439 622T450 561Q450 521 437 486T399 426T342 385T269 370ZM274 406Q305
406 330 418T373 452T400 501T410 562Q410 612 380 643T302 674Q271 674 246 662T203 628T176 579T166 518Q166 468 196 437T274 406Z" />
<glyph unicode="&#xb1;" glyph-name="plusminus" horiz-adv-x="550" d="M280 361H77L86 396H289L343 610H384L330 396H533L524 361H321L267 147H226L280 361ZM-3 35H444L435 0H-12L-3 35Z" />
<glyph unicode="&#xb2;" glyph-name="twosuperior" horiz-adv-x="344" d="M72 365L216 475Q254 504 278 531T311 590Q313 598 315 606T317 627Q317 651 301 664T252 678Q232 678 215 674T184 662L182 658Q203 650 203 632Q203 615 193 604T168 593Q138 593 138
624Q138 639 147 653T174 679T213 697T262 704Q313 704 339 683T365 624Q365 597 355 574T327 529T288 489T241 454L111 367L110 364H290L304 419H335L313 330H63L72 365Z" />
<glyph unicode="&#xb3;" glyph-name="threesuperior" horiz-adv-x="346" d="M181 324Q132 324 106 345T79 392Q79 411 89 422T116 434Q145 434 145 406Q145 392 136 383T113 370L112 366Q123 357 140 354T174 350Q212 350 242 369T283 426Q285 431 286 440T288
457Q288 481 271 494T218 508H184L191 535H220Q263 535 286 554T318 602Q320 607 321 615T323 630Q323 678 260 678Q240 678 222 674T191 662L190 659Q198 656 204 649T210 630Q210 616 200 606T175 596Q145 596 145 627Q145 641 154 655T181 680T221 697T270 704Q319
704 345 685T372 630Q372 606 363 588T340 556T309 535T274 524L273 520Q301 515 318 497T335 452Q335 425 324 402T293 361T245 334T181 324Z" />
<glyph unicode="&#xb4;" glyph-name="acute" horiz-adv-x="600" d="M278 597L392 762L441 736L298 586L278 597Z" />
<glyph unicode="&#xb5;" glyph-name="mu" horiz-adv-x="550" d="M164 468H76L82 493L236 520L121 94Q117 81 117 68Q117 33 152 33Q175 33 200 47T251 88Q273 110 296 141T339 207T375 280T401 354L441 512H497L377 38L395 30L518 144L535 129L457 46Q425 11 406
0T370 -12Q349 -12 337 0T325 32Q325 40 327 52T332 74L366 207L359 209Q340 173 317 134T266 63T207 9T140 -12Q113 -12 100 3T84 47H78L67 -104L43 -200H-14L164 468Z" />
<glyph unicode="&#xb6;" glyph-name="paragraph" horiz-adv-x="557" d="M173 -152Q143 -152 118 -145T75 -124T47 -93T37 -54Q37 -28 51 -13T86 3Q105 3 114 -7T124 -33Q124 -53 113 -66T79 -83L78 -89Q108 -122 177 -122H183L292 315Q251 315 217 325T158 355T119
405T105 474Q105 525 126 566T184 637T272 682T381 698H618L610 666H535L379 44Q355 -53 305 -102T173 -152ZM220 -115Q311 -91 344 44L500 666H415L220 -115Z" />
<glyph unicode="&#xb7;" glyph-name="middot" horiz-adv-x="263" d="M134 255Q113 255 103 267T92 295Q92 304 96 316Q101 333 115 343T148 354Q169 354 179 342T190 314Q190 305 186 293Q181 276 167 266T134 255Z" />
<glyph unicode="&#xb8;" glyph-name="cedilla" horiz-adv-x="600" d="M261 -204Q232 -204 214 -193T189 -167L204 -152Q221 -177 260 -177Q279 -177 292 -171T312 -155T323 -135T327 -119Q327 -102 316 -93T278 -82L249 -80L289 6H318L284 -66L286 -69Q294 -67
302 -66T318 -65Q343 -65 357 -78T372 -113Q372 -133 363 -149T339 -178T303 -197T261 -204Z" />
<glyph unicode="&#xb9;" glyph-name="onesuperior" horiz-adv-x="346" d="M81 358H188L264 659L140 609L134 634L283 698H320L235 358H331L324 330H74L81 358Z" />
<glyph unicode="&#xba;" glyph-name="ordmasculine" horiz-adv-x="366" d="M212 372Q260 372 292 408T337 496Q345 525 350 552T356 600Q356 637 338 658T286 680Q238 680 206 644T161 556Q153 527 148 500T142 452Q142 415 160 394T212 372ZM211 348Q154 348
128 381T101 468Q101 513 114 555T152 631T211 684T287 704Q344 704 370 671T397 584Q397 539 384 497T346 421T287 368T211 348Z" />
<glyph unicode="&#xbb;" glyph-name="guillemotright" horiz-adv-x="468" d="M9 117L189 297L96 466L113 485L246 306L238 273L18 93L9 117ZM196 117L376 297L283 466L300 485L433 306L425 273L205 93L196 117Z" />
<glyph unicode="&#xbc;" glyph-name="onequarter" horiz-adv-x="843" d="M81 358H188L264 659L140 609L134 634L283 698H320L235 358H331L324 330H74L81 358ZM743 698H786L183 0H140L743 698ZM628 78H447L455 111L695 368H745L681 111H737L729 78H672L653 0H609L628
78ZM487 111H637L689 321H683L487 111Z" />
<glyph unicode="&#xbd;" glyph-name="onehalf" horiz-adv-x="847" d="M81 358H188L264 659L140 609L134 634L283 698H320L235 358H331L324 330H74L81 358ZM743 698H786L183 0H140L743 698ZM487 35L631 145Q669 174 693 201T726 260Q728 268 730 276T732 297Q732
321 716 334T667 348Q647 348 630 344T599 332L597 328Q618 320 618 302Q618 285 608 274T583 263Q553 263 553 294Q553 309 562 323T589 349T628 367T677 374Q728 374 754 353T780 294Q780 267 770 244T742 199T703 159T656 124L526 37L525 34H705L719 89H750L728
0H478L487 35Z" />
<glyph unicode="&#xbe;" glyph-name="threequarters" horiz-adv-x="803" d="M181 324Q132 324 106 345T79 392Q79 411 89 422T116 434Q145 434 145 406Q145 392 136 383T113 370L112 366Q123 357 140 354T174 350Q212 350 242 369T283 426Q285 431 286 440T288
457Q288 481 271 494T218 508H184L191 535H220Q263 535 286 554T318 602Q320 607 321 615T323 630Q323 678 260 678Q240 678 222 674T191 662L190 659Q198 656 204 649T210 630Q210 616 200 606T175 596Q145 596 145 627Q145 641 154 655T181 680T221 697T270 704Q319
704 345 685T372 630Q372 606 363 588T340 556T309 535T274 524L273 520Q301 515 318 497T335 452Q335 425 324 402T293 361T245 334T181 324ZM703 698H746L143 0H100L703 698ZM588 78H407L415 111L655 368H705L641 111H697L689 78H632L613 0H569L588 78ZM447 111H597L649
321H643L447 111Z" />
<glyph unicode="&#xbf;" glyph-name="questiondown" horiz-adv-x="461" d="M141 -198Q101 -198 72 -188T25 -160T-3 -118T-12 -66Q-12 -14 8 29T64 105T145 158T244 183L278 318H315L274 152Q192 147 136 106T62 2Q57 -15 53 -33T49 -69Q49 -115 77 -139T155 -163Q190
-163 222 -154T274 -130L276 -124Q245 -116 245 -84Q245 -67 257 -51T294 -34Q314 -34 325 -45T336 -76Q336 -101 319 -123T274 -162T211 -188T141 -198ZM325 422Q304 422 294 434T283 462Q283 471 287 483Q292 500 306 510T339 521Q360 521 370 509T381 481Q381
472 377 460Q372 443 358 433T325 422Z" />
<glyph unicode="&#xc0;" glyph-name="Agrave" horiz-adv-x="641" d="M-43 32H10L400 698H463L519 32H572L564 0H366L374 32H460L444 232H173L58 32H144L136 0H-51L-43 32ZM190 265H442L412 642H408L190 265ZM358 919L411 941L467 774L446 765L358 919Z" />
<glyph unicode="&#xc1;" glyph-name="Aacute" horiz-adv-x="641" d="M-43 32H10L400 698H463L519 32H572L564 0H366L374 32H460L444 232H173L58 32H144L136 0H-51L-43 32ZM190 265H442L412 642H408L190 265ZM416 776L530 941L579 915L436 765L416 776Z" />
<glyph unicode="&#xc2;" glyph-name="Acircumflex" horiz-adv-x="641" d="M-43 32H10L400 698H463L519 32H572L564 0H366L374 32H460L444 232H173L58 32H144L136 0H-51L-43 32ZM190 265H442L412 642H408L190 265ZM311 786L463 929H507L594 784L574 774L477 879L328
774L311 786Z" />
<glyph unicode="&#xc3;" glyph-name="Atilde" horiz-adv-x="641" d="M-43 32H10L400 698H463L519 32H572L564 0H366L374 32H460L444 232H173L58 32H144L136 0H-51L-43 32ZM190 265H442L412 642H408L190 265ZM530 796Q509 796 492 803T452 824Q429 837 414 844T383
851Q368 851 354 844T322 820L307 834Q328 857 348 873T394 890Q415 890 432 883T472 862Q495 849 510 842T541 835Q556 835 570 842T602 866L617 852Q596 829 576 813T530 796Z" />
<glyph unicode="&#xc4;" glyph-name="Adieresis" horiz-adv-x="641" d="M-43 32H10L400 698H463L519 32H572L564 0H366L374 32H460L444 232H173L58 32H144L136 0H-51L-43 32ZM190 265H442L412 642H408L190 265ZM372 803Q355 803 347 813T339 835Q339 843 342 852Q346
863 355 872T382 881Q399 881 407 871T415 849Q415 841 412 832Q408 821 399 812T372 803ZM551 803Q534 803 526 813T518 835Q518 843 521 852Q525 863 534 872T561 881Q578 881 586 871T594 849Q594 841 591 832Q587 821 578 812T551 803Z" />
<glyph unicode="&#xc5;" glyph-name="Aring" horiz-adv-x="641" d="M-43 32H10L400 698H463L519 32H572L564 0H366L374 32H460L444 232H173L58 32H144L136 0H-51L-43 32ZM190 265H442L412 642H408L190 265ZM455 783Q484 783 503 800T529 845Q531 855 534 868T537
889Q537 910 524 923T484 937Q455 937 436 920T410 875Q408 865 405 852T402 831Q402 810 415 797T455 783ZM452 756Q411 756 388 779T365 835Q365 892 399 928T487 964Q528 964 551 941T574 885Q574 828 540 792T452 756Z" />
<glyph unicode="&#xc6;" glyph-name="AE" horiz-adv-x="901" d="M-45 32H8L491 666H407L415 698H943L903 538H854L885 664H601L530 380H738L759 464H798L747 262H708L730 346H522L444 34H743L776 166H825L784 0H300L308 32H383L433 232H206L55 32H141L133 0H-53L-45
32ZM229 265H441L541 666H534L229 265Z" />
<glyph unicode="&#xc7;" glyph-name="Ccedilla" horiz-adv-x="596" d="M238 -204Q209 -204 191 -193T166 -167L181 -152Q198 -177 237 -177Q256 -177 269 -171T289 -155T300 -135T304 -119Q304 -102 293 -93T255 -82L226 -80L258 -12Q167 -7 116 49T65 218Q65
267 74 323T103 433T151 538T220 626T309 687T420 710Q479 710 518 688T568 629H573L590 698H639L588 494H539L555 556Q558 569 558 580Q558 624 521 648T427 673Q375 673 332 652T256 595T198 508T159 401Q148 359 142 329T132 277T127 239T125 208Q125 122 166
76T288 30Q359 30 412 68T501 167L527 151Q512 122 489 94T436 43T368 5T287 -12L261 -66L263 -69Q271 -67 279 -66T295 -65Q320 -65 334 -78T349 -113Q349 -133 340 -149T316 -178T280 -197T238 -204Z" />
<glyph unicode="&#xc8;" glyph-name="Egrave" horiz-adv-x="586" d="M-7 32H68L226 666H151L159 698H628L588 538H539L570 664H286L215 380H423L444 464H483L432 262H393L415 346H207L129 34H428L461 166H510L469 0H-15L-7 32ZM331 919L384 941L440 774L419 765L331 919Z" />
<glyph unicode="&#xc9;" glyph-name="Eacute" horiz-adv-x="586" d="M-7 32H68L226 666H151L159 698H628L588 538H539L570 664H286L215 380H423L444 464H483L432 262H393L415 346H207L129 34H428L461 166H510L469 0H-15L-7 32ZM389 776L503 941L552 915L409 765L389 776Z" />
<glyph unicode="&#xca;" glyph-name="Ecircumflex" horiz-adv-x="586" d="M-7 32H68L226 666H151L159 698H628L588 538H539L570 664H286L215 380H423L444 464H483L432 262H393L415 346H207L129 34H428L461 166H510L469 0H-15L-7 32ZM284 786L436 929H480L567 784L547
774L450 879L301 774L284 786Z" />
<glyph unicode="&#xcb;" glyph-name="Edieresis" horiz-adv-x="586" d="M-7 32H68L226 666H151L159 698H628L588 538H539L570 664H286L215 380H423L444 464H483L432 262H393L415 346H207L129 34H428L461 166H510L469 0H-15L-7 32ZM343 803Q326 803 318 813T310
835Q310 843 313 852Q317 863 326 872T353 881Q370 881 378 871T386 849Q386 841 383 832Q379 821 370 812T343 803ZM522 803Q505 803 497 813T489 835Q489 843 492 852Q496 863 505 872T532 881Q549 881 557 871T565 849Q565 841 562 832Q558 821 549 812T522
803Z" />
<glyph unicode="&#xcc;" glyph-name="Igrave" horiz-adv-x="308" d="M-7 32H68L226 666H151L159 698H369L361 666H286L128 32H203L195 0H-15L-7 32ZM449 919L502 941L558 774L537 765L449 919Z" />
<glyph unicode="&#xcd;" glyph-name="Iacute" horiz-adv-x="308" d="M-7 32H68L226 666H151L159 698H369L361 666H286L128 32H203L195 0H-15L-7 32ZM507 776L621 941L670 915L527 765L507 776Z" />
<glyph unicode="&#xce;" glyph-name="Icircumflex" horiz-adv-x="308" d="M-7 32H68L226 666H151L159 698H369L361 666H286L128 32H203L195 0H-15L-7 32ZM402 786L554 929H598L685 784L665 774L568 879L419 774L402 786Z" />
<glyph unicode="&#xcf;" glyph-name="Idieresis" horiz-adv-x="308" d="M-7 32H68L226 666H151L159 698H369L361 666H286L128 32H203L195 0H-15L-7 32ZM463 803Q446 803 438 813T430 835Q430 843 433 852Q437 863 446 872T473 881Q490 881 498 871T506 849Q506
841 503 832Q499 821 490 812T463 803ZM642 803Q625 803 617 813T609 835Q609 843 612 852Q616 863 625 872T652 881Q669 881 677 871T685 849Q685 841 682 832Q678 821 669 812T642 803Z" />
<glyph unicode="&#xd0;" glyph-name="Eth" horiz-adv-x="669" d="M-7 32H68L144 336H54L63 369H152L226 666H151L159 698H416Q519 698 580 643T642 472Q642 431 634 381T609 278T563 175T493 86T397 24T271 0H-15L-7 32ZM129 34H266Q315 34 360 53T442 106T506
190T549 298Q559 338 565 367T575 418T580 456T582 487Q582 572 539 618T409 664H286L212 369H355L346 336H204L129 34Z" />
<glyph unicode="&#xd1;" glyph-name="Ntilde" horiz-adv-x="723" d="M-7 32H67L225 666H150L158 698H300L520 93H525L669 666H594L602 698H792L784 666H709L542 0H494L262 632H257L107 32H182L174 0H-15L-7 32ZM576 796Q555 796 538 803T498 824Q475 837 460 844T429
851Q414 851 400 844T368 820L353 834Q374 857 394 873T440 890Q461 890 478 883T518 862Q541 849 556 842T587 835Q602 835 616 842T648 866L663 852Q642 829 622 813T576 796Z" />
<glyph unicode="&#xd2;" glyph-name="Ograve" horiz-adv-x="677" d="M426 673Q375 673 333 653T256 596T197 508T157 396Q148 358 142 329T132 278T127 237T125 203Q125 121 164 73T291 25Q342 25 384 45T461 102T520 190T560 302Q569 340 575 369T585 420T590
461T592 495Q592 577 553 625T426 673ZM285 -12Q179 -12 122 50T65 226Q65 269 73 322T101 429T149 533T218 623T312 686T432 710Q538 710 595 648T652 472Q652 428 644 376T616 269T568 165T499 75T405 12T285 -12ZM362 919L415 941L471 774L450 765L362 919Z"
/>
<glyph unicode="&#xd3;" glyph-name="Oacute" horiz-adv-x="677" d="M426 673Q375 673 333 653T256 596T197 508T157 396Q148 358 142 329T132 278T127 237T125 203Q125 121 164 73T291 25Q342 25 384 45T461 102T520 190T560 302Q569 340 575 369T585 420T590
461T592 495Q592 577 553 625T426 673ZM285 -12Q179 -12 122 50T65 226Q65 269 73 322T101 429T149 533T218 623T312 686T432 710Q538 710 595 648T652 472Q652 428 644 376T616 269T568 165T499 75T405 12T285 -12ZM420 776L534 941L583 915L440 765L420 776Z"
/>
<glyph unicode="&#xd4;" glyph-name="Ocircumflex" horiz-adv-x="677" d="M426 673Q375 673 333 653T256 596T197 508T157 396Q148 358 142 329T132 278T127 237T125 203Q125 121 164 73T291 25Q342 25 384 45T461 102T520 190T560 302Q569 340 575 369T585 420T590
461T592 495Q592 577 553 625T426 673ZM285 -12Q179 -12 122 50T65 226Q65 269 73 322T101 429T149 533T218 623T312 686T432 710Q538 710 595 648T652 472Q652 428 644 376T616 269T568 165T499 75T405 12T285 -12ZM315 786L467 929H511L598 784L578 774L481 879L332
774L315 786Z" />
<glyph unicode="&#xd5;" glyph-name="Otilde" horiz-adv-x="677" d="M426 673Q375 673 333 653T256 596T197 508T157 396Q148 358 142 329T132 278T127 237T125 203Q125 121 164 73T291 25Q342 25 384 45T461 102T520 190T560 302Q569 340 575 369T585 420T590
461T592 495Q592 577 553 625T426 673ZM285 -12Q179 -12 122 50T65 226Q65 269 73 322T101 429T149 533T218 623T312 686T432 710Q538 710 595 648T652 472Q652 428 644 376T616 269T568 165T499 75T405 12T285 -12ZM536 796Q515 796 498 803T458 824Q435 837 420
844T389 851Q374 851 360 844T328 820L313 834Q334 857 354 873T400 890Q421 890 438 883T478 862Q501 849 516 842T547 835Q562 835 576 842T608 866L623 852Q602 829 582 813T536 796Z" />
<glyph unicode="&#xd6;" glyph-name="Odieresis" horiz-adv-x="677" d="M426 673Q375 673 333 653T256 596T197 508T157 396Q148 358 142 329T132 278T127 237T125 203Q125 121 164 73T291 25Q342 25 384 45T461 102T520 190T560 302Q569 340 575 369T585 420T590
461T592 495Q592 577 553 625T426 673ZM285 -12Q179 -12 122 50T65 226Q65 269 73 322T101 429T149 533T218 623T312 686T432 710Q538 710 595 648T652 472Q652 428 644 376T616 269T568 165T499 75T405 12T285 -12ZM376 803Q359 803 351 813T343 835Q343 843 346
852Q350 863 359 872T386 881Q403 881 411 871T419 849Q419 841 416 832Q412 821 403 812T376 803ZM555 803Q538 803 530 813T522 835Q522 843 525 852Q529 863 538 872T565 881Q582 881 590 871T598 849Q598 841 595 832Q591 821 582 812T555 803Z" />
<glyph unicode="&#xd7;" glyph-name="multiply" horiz-adv-x="550" d="M51 129L263 307L140 483L171 505L292 331L500 505L523 480L311 302L434 126L403 104L282 278L74 104L51 129Z" />
<glyph unicode="&#xd8;" glyph-name="Oslash" horiz-adv-x="677" d="M23 -17L103 76Q65 135 65 226Q65 269 73 322T101 429T149 533T218 623T312 686T432 710Q484 710 524 694T593 649L670 738L695 716L615 621Q652 561 652 472Q652 428 644 376T616 269T568 165T499
75T405 12T285 -12Q181 -12 124 50L48 -38L23 -17ZM426 673Q375 673 333 653T256 596T197 508T157 396Q148 358 142 329T132 278T127 237T125 203Q125 179 128 158T139 118L562 612Q542 641 509 657T426 673ZM291 25Q342 25 384 45T461 102T520 190T560 302Q569
340 575 369T585 420T590 461T592 495Q592 519 589 540T578 580L155 86Q175 57 208 41T291 25Z" />
<glyph unicode="&#xd9;" glyph-name="Ugrave" horiz-adv-x="684" d="M289 -12Q198 -12 148 26T98 148Q98 173 103 202T117 264L217 666H142L150 698H360L352 666H277L174 251Q166 218 161 191T156 139Q156 85 188 55T293 25Q342 25 379 38T445 80T493 151T528
253L631 666H556L564 698H754L746 666H671L568 253Q550 178 525 127T465 45T388 1T289 -12ZM389 919L442 941L498 774L477 765L389 919Z" />
<glyph unicode="&#xda;" glyph-name="Uacute" horiz-adv-x="684" d="M289 -12Q198 -12 148 26T98 148Q98 173 103 202T117 264L217 666H142L150 698H360L352 666H277L174 251Q166 218 161 191T156 139Q156 85 188 55T293 25Q342 25 379 38T445 80T493 151T528
253L631 666H556L564 698H754L746 666H671L568 253Q550 178 525 127T465 45T388 1T289 -12ZM447 776L561 941L610 915L467 765L447 776Z" />
<glyph unicode="&#xdb;" glyph-name="Ucircumflex" horiz-adv-x="684" d="M289 -12Q198 -12 148 26T98 148Q98 173 103 202T117 264L217 666H142L150 698H360L352 666H277L174 251Q166 218 161 191T156 139Q156 85 188 55T293 25Q342 25 379 38T445 80T493 151T528
253L631 666H556L564 698H754L746 666H671L568 253Q550 178 525 127T465 45T388 1T289 -12ZM342 786L494 929H538L625 784L605 774L508 879L359 774L342 786Z" />
<glyph unicode="&#xdc;" glyph-name="Udieresis" horiz-adv-x="684" d="M289 -12Q198 -12 148 26T98 148Q98 173 103 202T117 264L217 666H142L150 698H360L352 666H277L174 251Q166 218 161 191T156 139Q156 85 188 55T293 25Q342 25 379 38T445 80T493 151T528
253L631 666H556L564 698H754L746 666H671L568 253Q550 178 525 127T465 45T388 1T289 -12ZM403 803Q386 803 378 813T370 835Q370 843 373 852Q377 863 386 872T413 881Q430 881 438 871T446 849Q446 841 443 832Q439 821 430 812T403 803ZM582 803Q565 803 557
813T549 835Q549 843 552 852Q556 863 565 872T592 881Q609 881 617 871T625 849Q625 841 622 832Q618 821 609 812T582 803Z" />
<glyph unicode="&#xdd;" glyph-name="Yacute" horiz-adv-x="589" d="M122 32H210L272 285L170 666H117L125 698H326L318 666H233L318 328H323L577 666H492L500 698H686L678 666H625L333 286L270 32H359L351 0H114L122 32ZM399 776L513 941L562 915L419 765L399 776Z" />
<glyph unicode="&#xde;" glyph-name="Thorn" horiz-adv-x="571" d="M-7 32H68L226 666H151L159 698H369L361 666H286L254 536H414Q487 536 525 503T563 406Q563 372 552 330T514 252T442 190T330 165H161L128 32H203L195 0H-15L-7 32ZM170 199H330Q389 199 432
234T490 328Q494 343 499 367T504 410Q504 452 482 477T408 502H245L170 199Z" />
<glyph unicode="&#xdf;" glyph-name="germandbls" horiz-adv-x="560" d="M-73 -212Q-112 -212 -130 -197T-149 -158Q-149 -139 -137 -126T-105 -112Q-87 -112 -77 -123T-66 -150Q-66 -159 -71 -169T-88 -186L-86 -192H-79Q-34 -192 -9 -159T30 -68L166 478H71L80
512H175L190 574Q212 663 269 711T408 760Q482 760 520 722T558 619Q558 604 556 587T548 550L535 493H501Q475 493 450 487T406 469T376 437T364 391Q364 372 369 357T383 326T407 295T440 258Q466 230 482 204T498 139Q498 104 484 76T446 29T389 -1T319 -12Q271
-12 248 4T224 47Q224 64 235 77T267 90Q284 90 294 81T305 53Q305 31 287 16L288 11Q292 9 304 9Q325 9 349 13T395 30T430 64T444 118Q444 138 439 154T425 185T401 216T368 253Q343 281 327 307T310 372Q310 405 323 431T361 476T417 505T487 516L497 558Q507
597 507 626Q507 679 481 704T407 730Q286 730 250 584L89 -61Q72 -130 31 -171T-73 -212Z" />
<glyph unicode="&#xe0;" glyph-name="agrave" horiz-adv-x="528" d="M137 -12Q85 -12 64 26T43 127Q43 169 50 215T73 305T110 389T160 459T224 506T301 524Q341 524 366 506T403 446H409L442 512H473L353 38L371 30L494 144L511 129L433 46Q401 11 383 0T347
-12Q326 -12 314 0T302 32Q302 40 303 52T307 73L340 199L333 202Q315 162 295 124T250 55T198 7T137 -12ZM155 34Q174 34 195 46T238 84Q262 111 284 146T324 218T356 289T375 347L379 364Q393 423 377 455T314 487Q248 487 200 431T126 278Q116 240 110 198T103
127Q103 85 113 60T155 34ZM242 740L295 762L351 595L330 586L242 740Z" />
<glyph unicode="&#xe1;" glyph-name="aacute" horiz-adv-x="528" d="M137 -12Q85 -12 64 26T43 127Q43 169 50 215T73 305T110 389T160 459T224 506T301 524Q341 524 366 506T403 446H409L442 512H473L353 38L371 30L494 144L511 129L433 46Q401 11 383 0T347
-12Q326 -12 314 0T302 32Q302 40 303 52T307 73L340 199L333 202Q315 162 295 124T250 55T198 7T137 -12ZM155 34Q174 34 195 46T238 84Q262 111 284 146T324 218T356 289T375 347L379 364Q393 423 377 455T314 487Q248 487 200 431T126 278Q116 240 110 198T103
127Q103 85 113 60T155 34ZM300 597L414 762L463 736L320 586L300 597Z" />
<glyph unicode="&#xe2;" glyph-name="acircumflex" horiz-adv-x="528" d="M137 -12Q85 -12 64 26T43 127Q43 169 50 215T73 305T110 389T160 459T224 506T301 524Q341 524 366 506T403 446H409L442 512H473L353 38L371 30L494 144L511 129L433 46Q401 11 383 0T347
-12Q326 -12 314 0T302 32Q302 40 303 52T307 73L340 199L333 202Q315 162 295 124T250 55T198 7T137 -12ZM155 34Q174 34 195 46T238 84Q262 111 284 146T324 218T356 289T375 347L379 364Q393 423 377 455T314 487Q248 487 200 431T126 278Q116 240 110 198T103
127Q103 85 113 60T155 34ZM188 612L340 755H384L471 610L451 600L354 705L205 600L188 612Z" />
<glyph unicode="&#xe3;" glyph-name="atilde" horiz-adv-x="528" d="M137 -12Q85 -12 64 26T43 127Q43 169 50 215T73 305T110 389T160 459T224 506T301 524Q341 524 366 506T403 446H409L442 512H473L353 38L371 30L494 144L511 129L433 46Q401 11 383 0T347
-12Q326 -12 314 0T302 32Q302 40 303 52T307 73L340 199L333 202Q315 162 295 124T250 55T198 7T137 -12ZM155 34Q174 34 195 46T238 84Q262 111 284 146T324 218T356 289T375 347L379 364Q393 423 377 455T314 487Q248 487 200 431T126 278Q116 240 110 198T103
127Q103 85 113 60T155 34ZM407 623Q386 623 369 630T329 651Q306 664 291 671T260 678Q245 678 231 671T199 647L184 661Q205 684 225 700T271 717Q292 717 309 710T349 689Q372 676 387 669T418 662Q433 662 447 669T479 693L494 679Q473 656 453 640T407 623Z"
/>
<glyph unicode="&#xe4;" glyph-name="adieresis" horiz-adv-x="528" d="M137 -12Q85 -12 64 26T43 127Q43 169 50 215T73 305T110 389T160 459T224 506T301 524Q341 524 366 506T403 446H409L442 512H473L353 38L371 30L494 144L511 129L433 46Q401 11 383 0T347
-12Q326 -12 314 0T302 32Q302 40 303 52T307 73L340 199L333 202Q315 162 295 124T250 55T198 7T137 -12ZM155 34Q174 34 195 46T238 84Q262 111 284 146T324 218T356 289T375 347L379 364Q393 423 377 455T314 487Q248 487 200 431T126 278Q116 240 110 198T103
127Q103 85 113 60T155 34ZM247 629Q230 629 222 639T214 661Q214 669 217 678Q221 689 230 698T257 707Q274 707 282 697T290 675Q290 667 287 658Q283 647 274 638T247 629ZM426 629Q409 629 401 639T393 661Q393 669 396 678Q400 689 409 698T436 707Q453 707
461 697T469 675Q469 667 466 658Q462 647 453 638T426 629Z" />
<glyph unicode="&#xe5;" glyph-name="aring" horiz-adv-x="528" d="M137 -12Q85 -12 64 26T43 127Q43 169 50 215T73 305T110 389T160 459T224 506T301 524Q341 524 366 506T403 446H409L442 512H473L353 38L371 30L494 144L511 129L433 46Q401 11 383 0T347 -12Q326
-12 314 0T302 32Q302 40 303 52T307 73L340 199L333 202Q315 162 295 124T250 55T198 7T137 -12ZM155 34Q174 34 195 46T238 84Q262 111 284 146T324 218T356 289T375 347L379 364Q393 423 377 455T314 487Q248 487 200 431T126 278Q116 240 110 198T103 127Q103
85 113 60T155 34ZM333 613Q362 613 381 630T407 675Q409 685 412 698T415 719Q415 740 402 753T362 767Q333 767 314 750T288 705Q286 695 283 682T280 661Q280 640 293 627T333 613ZM330 586Q289 586 266 609T243 665Q243 722 277 758T365 794Q406 794 429 771T452
715Q452 658 418 622T330 586Z" />
<glyph unicode="&#xe6;" glyph-name="ae" horiz-adv-x="690" d="M116 -12Q71 -12 47 16T23 85Q23 122 39 154T92 213T184 256T322 280Q324 287 327 298T336 336Q341 355 344 373T348 409Q348 495 263 495Q240 495 217 489T175 469L174 464Q184 459 190 450T197
426Q197 405 185 392T152 378Q135 378 124 388T112 420Q112 439 125 457T161 491T214 515T277 524Q335 524 362 494T389 425V423H394Q420 468 461 496T553 524Q573 524 593 520T630 504T657 475T668 428Q668 397 654 370T605 320T514 283T375 261Q370 238 364 203T357
132Q357 88 372 59T431 30Q478 30 523 68T606 178L630 167Q581 71 531 30T416 -12Q353 -12 330 24T306 123Q306 128 306 133T307 144H301Q287 111 267 83T222 33T170 0T116 -12ZM136 28Q163 28 191 48T243 99T285 165T311 232L317 258Q202 244 141 199T80 92Q80
63 92 46T136 28ZM380 284Q495 297 554 328T613 423Q613 451 599 471T545 492Q493 492 451 444T380 284Z" />
<glyph unicode="&#xe7;" glyph-name="ccedilla" horiz-adv-x="415" d="M127 -204Q98 -204 80 -193T55 -167L70 -152Q87 -177 126 -177Q145 -177 158 -171T178 -155T189 -135T193 -119Q193 -102 182 -93T144 -82L115 -80L147 -11Q94 -6 70 30T45 135Q45 172 51
215T70 301T103 384T150 456T213 505T292 524Q343 524 374 500T405 437Q405 411 391 395T353 379Q333 379 323 389T313 416Q313 435 326 450T368 468V473Q344 494 294 494Q268 494 244 483T198 446T158 379T125 278Q122 266 119 249T112 212T107 171T104 131Q104
88 119 59T178 30Q223 30 266 68T347 178L371 167Q325 77 279 35T176 -12L150 -66L152 -69Q160 -67 168 -66T184 -65Q209 -65 223 -78T238 -113Q238 -133 229 -149T205 -178T169 -197T127 -204Z" />
<glyph unicode="&#xe8;" glyph-name="egrave" horiz-adv-x="437" d="M163 -12Q100 -12 73 25T45 138Q45 174 51 217T71 303T104 386T153 456T218 505T300 524Q320 524 340 520T377 504T404 475T415 428Q415 397 400 370T351 320T260 283T122 261Q115 230 110 197T104
132Q104 110 107 92T119 60T142 38T179 30Q225 30 269 68T353 178L377 167Q328 71 278 30T163 -12ZM127 284Q242 297 301 328T360 423Q360 450 346 471T293 492Q241 492 198 444T127 284ZM488 740L541 762L597 595L576 586L488 740Z" />
<glyph unicode="&#xe9;" glyph-name="eacute" horiz-adv-x="437" d="M163 -12Q100 -12 73 25T45 138Q45 174 51 217T71 303T104 386T153 456T218 505T300 524Q320 524 340 520T377 504T404 475T415 428Q415 397 400 370T351 320T260 283T122 261Q115 230 110 197T104
132Q104 110 107 92T119 60T142 38T179 30Q225 30 269 68T353 178L377 167Q328 71 278 30T163 -12ZM127 284Q242 297 301 328T360 423Q360 450 346 471T293 492Q241 492 198 444T127 284ZM289 597L403 762L452 736L309 586L289 597Z" />
<glyph unicode="&#xea;" glyph-name="ecircumflex" horiz-adv-x="437" d="M163 -12Q100 -12 73 25T45 138Q45 174 51 217T71 303T104 386T153 456T218 505T300 524Q320 524 340 520T377 504T404 475T415 428Q415 397 400 370T351 320T260 283T122 261Q115 230
110 197T104 132Q104 110 107 92T119 60T142 38T179 30Q225 30 269 68T353 178L377 167Q328 71 278 30T163 -12ZM127 284Q242 297 301 328T360 423Q360 450 346 471T293 492Q241 492 198 444T127 284ZM177 612L329 755H373L460 610L440 600L343 705L194 600L177
612Z" />
<glyph unicode="&#xeb;" glyph-name="edieresis" horiz-adv-x="437" d="M163 -12Q100 -12 73 25T45 138Q45 174 51 217T71 303T104 386T153 456T218 505T300 524Q320 524 340 520T377 504T404 475T415 428Q415 397 400 370T351 320T260 283T122 261Q115 230 110
197T104 132Q104 110 107 92T119 60T142 38T179 30Q225 30 269 68T353 178L377 167Q328 71 278 30T163 -12ZM127 284Q242 297 301 328T360 423Q360 450 346 471T293 492Q241 492 198 444T127 284ZM236 629Q219 629 211 639T203 661Q203 669 206 678Q210 689 219
698T246 707Q263 707 271 697T279 675Q279 667 276 658Q272 647 263 638T236 629ZM415 629Q398 629 390 639T382 661Q382 669 385 678Q389 689 398 698T425 707Q442 707 450 697T458 675Q458 667 455 658Q451 647 442 638T415 629Z" />
<glyph unicode="&#xec;" glyph-name="igrave" horiz-adv-x="289" d="M104 -12Q84 -12 71 0T58 33Q58 41 60 51T64 71L162 468H74L80 493L233 520L112 38L130 30L253 144L270 129L192 46Q160 12 141 0T104 -12ZM381 740L434 762L490 595L469 586L381 740Z" />
<glyph unicode="&#xed;" glyph-name="iacute" horiz-adv-x="289" d="M104 -12Q84 -12 71 0T58 33Q58 41 60 51T64 71L162 468H74L80 493L233 520L112 38L130 30L253 144L270 129L192 46Q160 12 141 0T104 -12ZM439 597L553 762L602 736L459 586L439 597Z" />
<glyph unicode="&#xee;" glyph-name="icircumflex" horiz-adv-x="289" d="M104 -12Q84 -12 71 0T58 33Q58 41 60 51T64 71L162 468H74L80 493L233 520L112 38L130 30L253 144L270 129L192 46Q160 12 141 0T104 -12ZM327 612L479 755H523L610 610L590 600L493 705L344
600L327 612Z" />
<glyph unicode="&#xef;" glyph-name="idieresis" horiz-adv-x="289" d="M104 -12Q84 -12 71 0T58 33Q58 41 60 51T64 71L162 468H74L80 493L233 520L112 38L130 30L253 144L270 129L192 46Q160 12 141 0T104 -12ZM386 629Q369 629 361 639T353 661Q353 669 356
678Q360 689 369 698T396 707Q413 707 421 697T429 675Q429 667 426 658Q422 647 413 638T386 629ZM565 629Q548 629 540 639T532 661Q532 669 535 678Q539 689 548 698T575 707Q592 707 600 697T608 675Q608 667 605 658Q601 647 592 638T565 629Z" />
<glyph unicode="&#xf0;" glyph-name="eth" horiz-adv-x="502" d="M187 -12Q113 -12 78 36T42 162Q42 217 59 279T109 392T191 478T303 512Q348 512 374 488T406 422L412 423Q408 480 389 540T340 646L237 576L221 603L322 672Q304 695 282 714T237 748H289Q303
738 320 724T352 693L450 760L467 732L373 668Q416 611 439 540T463 398Q463 324 445 251T392 120T306 25T187 -12ZM190 20Q226 20 255 36T307 80T346 144T373 222Q381 252 385 273T392 309T396 337T397 360Q397 412 377 446T305 480Q269 480 240 464T188 420T149
356T122 278Q114 248 110 227T103 190T99 163T98 139Q98 86 118 53T190 20Z" />
<glyph unicode="&#xf1;" glyph-name="ntilde" horiz-adv-x="555" d="M370 -12Q348 -12 335 0T322 33Q322 41 324 51T328 71L422 418Q426 431 426 444Q426 479 391 479Q368 479 343 465T292 424Q269 401 247 371T204 305T167 232T142 158L103 0H46L163 468H75L81
493L231 520L177 305L183 302Q202 338 225 377T277 449T337 503T409 524Q448 524 465 504T483 452Q483 441 481 430T476 407L377 38L395 30L518 144L535 129L457 46Q424 11 406 0T370 -12ZM446 623Q425 623 408 630T368 651Q345 664 330 671T299 678Q284 678 270
671T238 647L223 661Q244 684 264 700T310 717Q331 717 348 710T388 689Q411 676 426 669T457 662Q472 662 486 669T518 693L533 679Q512 656 492 640T446 623Z" />
<glyph unicode="&#xf2;" glyph-name="ograve" horiz-adv-x="482" d="M185 20Q219 20 246 36T294 81T331 146T356 225Q365 259 370 283T378 323T382 352T383 375Q383 401 379 422T365 459T339 483T297 492Q263 492 236 476T188 431T151 366T126 287Q117 252 112
229T104 189T100 160T99 137Q99 111 103 90T117 53T143 29T185 20ZM184 -12Q110 -12 76 34T42 161Q42 222 60 286T111 404T192 490T298 524Q372 524 406 477T440 350Q440 288 422 224T371 108T290 22T184 -12ZM489 740L542 762L598 595L577 586L489 740Z" />
<glyph unicode="&#xf3;" glyph-name="oacute" horiz-adv-x="482" d="M185 20Q219 20 246 36T294 81T331 146T356 225Q365 259 370 283T378 323T382 352T383 375Q383 401 379 422T365 459T339 483T297 492Q263 492 236 476T188 431T151 366T126 287Q117 252 112
229T104 189T100 160T99 137Q99 111 103 90T117 53T143 29T185 20ZM184 -12Q110 -12 76 34T42 161Q42 222 60 286T111 404T192 490T298 524Q372 524 406 477T440 350Q440 288 422 224T371 108T290 22T184 -12ZM290 597L404 762L453 736L310 586L290 597Z" />
<glyph unicode="&#xf4;" glyph-name="ocircumflex" horiz-adv-x="482" d="M185 20Q219 20 246 36T294 81T331 146T356 225Q365 259 370 283T378 323T382 352T383 375Q383 401 379 422T365 459T339 483T297 492Q263 492 236 476T188 431T151 366T126 287Q117 252
112 229T104 189T100 160T99 137Q99 111 103 90T117 53T143 29T185 20ZM184 -12Q110 -12 76 34T42 161Q42 222 60 286T111 404T192 490T298 524Q372 524 406 477T440 350Q440 288 422 224T371 108T290 22T184 -12ZM178 612L330 755H374L461 610L441 600L344 705L195
600L178 612Z" />
<glyph unicode="&#xf5;" glyph-name="otilde" horiz-adv-x="482" d="M185 20Q219 20 246 36T294 81T331 146T356 225Q365 259 370 283T378 323T382 352T383 375Q383 401 379 422T365 459T339 483T297 492Q263 492 236 476T188 431T151 366T126 287Q117 252 112
229T104 189T100 160T99 137Q99 111 103 90T117 53T143 29T185 20ZM184 -12Q110 -12 76 34T42 161Q42 222 60 286T111 404T192 490T298 524Q372 524 406 477T440 350Q440 288 422 224T371 108T290 22T184 -12ZM397 623Q376 623 359 630T319 651Q296 664 281 671T250
678Q235 678 221 671T189 647L174 661Q195 684 215 700T261 717Q282 717 299 710T339 689Q362 676 377 669T408 662Q423 662 437 669T469 693L484 679Q463 656 443 640T397 623Z" />
<glyph unicode="&#xf6;" glyph-name="odieresis" horiz-adv-x="482" d="M185 20Q219 20 246 36T294 81T331 146T356 225Q365 259 370 283T378 323T382 352T383 375Q383 401 379 422T365 459T339 483T297 492Q263 492 236 476T188 431T151 366T126 287Q117 252
112 229T104 189T100 160T99 137Q99 111 103 90T117 53T143 29T185 20ZM184 -12Q110 -12 76 34T42 161Q42 222 60 286T111 404T192 490T298 524Q372 524 406 477T440 350Q440 288 422 224T371 108T290 22T184 -12ZM237 629Q220 629 212 639T204 661Q204 669 207
678Q211 689 220 698T247 707Q264 707 272 697T280 675Q280 667 277 658Q273 647 264 638T237 629ZM416 629Q399 629 391 639T383 661Q383 669 386 678Q390 689 399 698T426 707Q443 707 451 697T459 675Q459 667 456 658Q452 647 443 638T416 629Z" />
<glyph unicode="&#xf7;" glyph-name="divide" horiz-adv-x="550" d="M235 72Q215 72 206 83T196 109Q196 120 200 131Q213 162 246 162Q266 162 275 151T285 125Q285 114 281 103Q268 72 235 72ZM328 449Q308 449 299 460T289 486Q289 497 293 508Q306 539 339
539Q359 539 368 528T378 502Q378 491 374 480Q361 449 328 449ZM68 323H515L506 288H59L68 323Z" />
<glyph unicode="&#xf8;" glyph-name="oslash" horiz-adv-x="482" d="M-18 -13L56 71Q42 110 42 161Q42 222 60 286T111 404T192 490T298 524Q338 524 366 510T411 470L479 547L501 524L426 440Q440 400 440 350Q440 288 422 224T371 108T290 22T184 -12Q108 -12
72 41L5 -35L-18 -13ZM297 492Q263 492 236 476T188 431T151 366T126 287Q117 252 112 229T104 189T100 160T99 137Q99 132 99 128T100 118L377 431Q369 460 351 476T297 492ZM185 20Q219 20 246 36T294 81T331 146T356 225Q365 259 370 283T378 323T382 352T383
375V392L105 80Q113 51 131 36T185 20Z" />
<glyph unicode="&#xf9;" glyph-name="ugrave" horiz-adv-x="550" d="M132 -12Q93 -12 76 8T59 61Q59 72 61 83T66 106L163 468H75L81 493L235 520L120 94Q116 81 116 68Q116 33 151 33Q174 33 199 47T250 88Q272 110 295 141T338 207T375 280T400 354L439 512H496L376
38L394 30L517 144L534 129L456 46Q424 11 406 0T370 -12Q348 -12 336 0T324 32Q324 40 326 52T331 74L365 207L358 209Q339 173 316 134T265 62T204 9T132 -12ZM269 740L322 762L378 595L357 586L269 740Z" />
<glyph unicode="&#xfa;" glyph-name="uacute" horiz-adv-x="550" d="M132 -12Q93 -12 76 8T59 61Q59 72 61 83T66 106L163 468H75L81 493L235 520L120 94Q116 81 116 68Q116 33 151 33Q174 33 199 47T250 88Q272 110 295 141T338 207T375 280T400 354L439 512H496L376
38L394 30L517 144L534 129L456 46Q424 11 406 0T370 -12Q348 -12 336 0T324 32Q324 40 326 52T331 74L365 207L358 209Q339 173 316 134T265 62T204 9T132 -12ZM327 597L441 762L490 736L347 586L327 597Z" />
<glyph unicode="&#xfb;" glyph-name="ucircumflex" horiz-adv-x="550" d="M132 -12Q93 -12 76 8T59 61Q59 72 61 83T66 106L163 468H75L81 493L235 520L120 94Q116 81 116 68Q116 33 151 33Q174 33 199 47T250 88Q272 110 295 141T338 207T375 280T400 354L439
512H496L376 38L394 30L517 144L534 129L456 46Q424 11 406 0T370 -12Q348 -12 336 0T324 32Q324 40 326 52T331 74L365 207L358 209Q339 173 316 134T265 62T204 9T132 -12ZM215 612L367 755H411L498 610L478 600L381 705L232 600L215 612Z" />
<glyph unicode="&#xfc;" glyph-name="udieresis" horiz-adv-x="550" d="M132 -12Q93 -12 76 8T59 61Q59 72 61 83T66 106L163 468H75L81 493L235 520L120 94Q116 81 116 68Q116 33 151 33Q174 33 199 47T250 88Q272 110 295 141T338 207T375 280T400 354L439 512H496L376
38L394 30L517 144L534 129L456 46Q424 11 406 0T370 -12Q348 -12 336 0T324 32Q324 40 326 52T331 74L365 207L358 209Q339 173 316 134T265 62T204 9T132 -12ZM274 629Q257 629 249 639T241 661Q241 669 244 678Q248 689 257 698T284 707Q301 707 309 697T317
675Q317 667 314 658Q310 647 301 638T274 629ZM453 629Q436 629 428 639T420 661Q420 669 423 678Q427 689 436 698T463 707Q480 707 488 697T496 675Q496 667 493 658Q489 647 480 638T453 629Z" />
<glyph unicode="&#xfd;" glyph-name="yacute" horiz-adv-x="449" d="M-36 -212Q-68 -212 -87 -197T-106 -159Q-106 -138 -93 -123T-58 -108Q-39 -108 -29 -119T-19 -147Q-19 -173 -39 -184L-34 -188H-30Q12 -179 45 -149T111 -59L135 -16L93 481H48L56 512H226L218
481H151L181 65H187L421 481H353L361 512H516L508 481H462L135 -79Q93 -151 51 -181T-36 -212ZM287 597L401 762L450 736L307 586L287 597Z" />
<glyph unicode="&#xfe;" glyph-name="thorn" horiz-adv-x="504" d="M-84 -168H-12L207 705H119L125 730L277 758L163 312L170 310Q188 349 208 387T252 456T304 505T365 524Q417 524 438 486T460 385Q460 321 443 251T393 123T312 26T202 -12Q165 -12 141 3T106
58H99L45 -168H140L132 -200H-92L-84 -168ZM189 25Q255 25 303 81T377 234Q387 272 393 314T400 385Q400 427 390 452T348 478Q329 478 308 466T265 428Q241 401 219 366T179 294T147 223T128 165L124 148Q110 89 126 57T189 25Z" />
<glyph unicode="&#xff;" glyph-name="ydieresis" horiz-adv-x="449" d="M-36 -212Q-68 -212 -87 -197T-106 -159Q-106 -138 -93 -123T-58 -108Q-39 -108 -29 -119T-19 -147Q-19 -173 -39 -184L-34 -188H-30Q12 -179 45 -149T111 -59L135 -16L93 481H48L56 512H226L218
481H151L181 65H187L421 481H353L361 512H516L508 481H462L135 -79Q93 -151 51 -181T-36 -212ZM234 629Q217 629 209 639T201 661Q201 669 204 678Q208 689 217 698T244 707Q261 707 269 697T277 675Q277 667 274 658Q270 647 261 638T234 629ZM413 629Q396 629
388 639T380 661Q380 669 383 678Q387 689 396 698T423 707Q440 707 448 697T456 675Q456 667 453 658Q449 647 440 638T413 629Z" />
<glyph unicode="&#x2013;" glyph-name="endash" horiz-adv-x="564" d="M54 321H541L533 287H46L54 321Z" />
<glyph unicode="&#x2014;" glyph-name="emdash" horiz-adv-x="747" d="M54 321H724L716 287H46L54 321Z" />
<glyph unicode="&#x2018;" glyph-name="quoteleft" horiz-adv-x="228" d="M180 518Q159 518 148 530T136 561Q136 574 144 596Q151 616 164 638T195 680T231 718T269 748H302Q263 717 236 682T195 615H198Q215 614 225 603T236 576Q236 553 220 536T180 518Z" />
<glyph unicode="&#x2019;" glyph-name="quoteright" horiz-adv-x="228" d="M109 518Q148 549 175 584T216 651H213Q196 652 186 663T175 690Q175 713 191 730T231 748Q252 748 263 736T275 705Q275 692 267 670Q260 650 247 628T216 586T180 548T142 518H109V518Z" />
<glyph unicode="&#x201a;" glyph-name="quotesinglbase" horiz-adv-x="228" d="M-55 -127Q-16 -96 11 -61T52 6H49Q32 7 22 18T11 45Q11 68 27 85T67 103Q88 103 99 91T111 60Q111 47 103 25Q96 5 83 -17T52 -59T16 -97T-22 -127H-55V-127Z" />
<glyph unicode="&#x201c;" glyph-name="quotedblleft" horiz-adv-x="403" d="M180 518Q159 518 148 530T136 561Q136 574 144 596Q151 616 164 638T195 680T231 718T269 748H302Q263 717 236 682T195 615H198Q215 614 225 603T236 576Q236 553 220 536T180 518ZM355
518Q334 518 323 530T311 561Q311 574 319 596Q326 616 339 638T370 680T406 718T444 748H477Q438 717 411 682T370 615H373Q390 614 400 603T411 576Q411 553 395 536T355 518Z" />
<glyph unicode="&#x201d;" glyph-name="quotedblright" horiz-adv-x="403" d="M109 518Q148 549 175 584T216 651H213Q196 652 186 663T175 690Q175 713 191 730T231 748Q252 748 263 736T275 705Q275 692 267 670Q260 650 247 628T216 586T180 548T142 518H109V518ZM284
518Q323 549 350 584T391 651H388Q371 652 361 663T350 690Q350 713 366 730T406 748Q427 748 438 736T450 705Q450 692 442 670Q435 650 422 628T391 586T355 548T317 518H284V518Z" />
<glyph unicode="&#x201e;" glyph-name="quotedblbase" horiz-adv-x="403" d="M-55 -127Q-16 -96 11 -61T52 6H49Q32 7 22 18T11 45Q11 68 27 85T67 103Q88 103 99 91T111 60Q111 47 103 25Q96 5 83 -17T52 -59T16 -97T-22 -127H-55V-127ZM120 -127Q159 -96 186
-61T227 6H224Q207 7 197 18T186 45Q186 68 202 85T242 103Q263 103 274 91T286 60Q286 47 278 25Q271 5 258 -17T227 -59T191 -97T153 -127H120V-127Z" />
<glyph unicode="&#x2022;" glyph-name="bullet" horiz-adv-x="370" d="M180 202Q137 202 114 227T90 285Q90 292 90 300T94 319Q104 360 135 383T208 407Q251 407 274 382T298 324Q298 317 298 309T294 290Q284 249 253 226T180 202Z" />
<glyph unicode="&#x2039;" glyph-name="guilsinglleft" horiz-adv-x="281" d="M53 272L61 305L281 485L290 461L110 281L203 112L186 93L53 272Z" />
<glyph unicode="&#x203a;" glyph-name="guilsinglright" horiz-adv-x="281" d="M9 117L189 297L96 466L113 485L246 306L238 273L18 93L9 117Z" />
</font>
</defs>
</svg>
