<?xml version="1.0" standalone="no"?>
<!DOCTYPE svg PUBLIC "-//W3C//DTD SVG 1.1//EN" "http://www.w3.org/Graphics/SVG/1.1/DTD/svg11.dtd">
<svg xmlns="http://www.w3.org/2000/svg">
<defs >
<font id="IBMPlexSerif" horiz-adv-x="607" ><font-face
    font-family="IBM Plex Serif Light"
    units-per-em="1000"
    panose-1="2 6 4 3 5 4 6 0 2 3"
    ascent="1025"
    descent="-275"
    alphabetic="0" />
<glyph unicode=" " glyph-name="space" horiz-adv-x="232" />
<glyph unicode="!" glyph-name="exclam" horiz-adv-x="268" d="M134 -9Q111 -9 98 4T85 38V43Q85 63 98 76T134 90Q157 90 170 77T183 43V38Q183 18 170 5T134 -9ZM104 459V698H164V459L147 181H121L104 459Z" />
<glyph unicode="&quot;" glyph-name="quotedbl" horiz-adv-x="397" d="M89 653V748H142V653L127 482H104L89 653ZM255 653V748H308V653L293 482H270L255 653Z" />
<glyph unicode="#" glyph-name="numbersign" horiz-adv-x="700" d="M201 214H63V251H207L241 447H102V484H247L283 698H325L289 484H457L493 698H535L499 484H637V447H493L459 251H598V214H453L417 0H375L411 214H243L207 0H165L201 214ZM249 251H417L451 447H283L249
251Z" />
<glyph unicode="$" glyph-name="dollar" horiz-adv-x="594" d="M284 -4Q235 -4 197 6T132 32T91 70T77 113Q77 136 90 151T127 166Q150 166 162 152T175 117Q175 82 140 66V64Q158 53 191 43T285 33V334L274 337Q177 363 129 407T80 526Q80 607 135 651T284 701V780H322V701Q365
699 399 689T456 663T492 627T505 585Q505 562 492 547T455 532Q432 532 420 546T407 581Q407 599 416 611T443 632V634Q426 645 398 654T321 665V387L333 384Q435 358 479 311T524 192Q524 111 474 59T322 -2V-82H284V-4ZM285 397V665Q209 661 171 627T132 536Q132
507 142 485T172 447T217 420T276 399L285 397ZM321 34Q398 42 435 78T473 178Q473 210 463 234T433 275T388 303T331 323L321 325V34Z" />
<glyph unicode="%" glyph-name="percent" horiz-adv-x="901" d="M221 349Q266 349 293 381T321 483V545Q321 614 294 646T221 679Q176 679 149 647T121 545V483Q121 414 148 382T221 349ZM680 19Q725 19 752 51T780 153V215Q780 284 753 316T680 349Q635 349 608
317T580 215V153Q580 84 607 52T680 19ZM221 318Q154 318 112 366T69 514Q69 614 111 662T221 710Q288 710 330 662T373 514Q373 414 331 366T221 318ZM680 -12Q613 -12 571 36T528 184Q528 284 570 332T680 380Q747 380 789 332T832 184Q832 84 790 36T680 -12ZM669
698H715L231 0H185L669 698Z" />
<glyph unicode="&amp;" glyph-name="ampersand" horiz-adv-x="711" d="M286 -12Q236 -12 195 0T124 37T78 95T61 172Q61 209 72 238T104 292T153 335T217 372L207 383Q170 421 148 462T125 552Q125 624 173 667T305 710Q343 710 374 700T428 670T462 626T474 570Q474
538 460 510T422 458T363 413T289 372L494 156Q511 192 520 237T532 332H451V367H654V332H570Q567 272 554 221T519 129L566 80Q590 55 614 45T680 35V0H635Q596 0 570 12T517 54L487 85Q414 -12 286 -12ZM267 396Q341 432 380 470T420 556V570Q420 617 387 645T303
674Q274 674 252 665T215 641T191 605T183 560V547Q183 507 207 472T264 401L267 396ZM290 27Q350 27 393 49T463 110L239 348Q181 316 153 278T124 183V164Q124 100 170 64T290 27Z" />
<glyph unicode="&apos;" glyph-name="quotesingle" horiz-adv-x="231" d="M89 653V748H142V653L127 482H104L89 653Z" />
<glyph unicode="(" glyph-name="parenleft" horiz-adv-x="325" d="M297 -147Q257 -118 218 -73T148 32T98 161T78 312Q78 392 97 462T148 592T218 696T297 771L322 753Q282 721 249 677T191 580T154 466T140 341V283Q140 219 153 159T191 45T248 -53T322 -129L297
-147V-147Z" />
<glyph unicode=")" glyph-name="parenright" horiz-adv-x="325" d="M3 -129Q43 -98 76 -54T134 44T171 158T185 283V341Q185 405 172 465T134 579T77 677T3 753L28 771Q68 742 107 697T177 592T227 463T247 312Q247 232 228 162T177 32T107 -72T28 -147L3 -129Z" />
<glyph unicode="*" glyph-name="asterisk" horiz-adv-x="411" d="M79 441L109 481L180 549L196 538L152 450L123 409L79 441ZM76 583L28 598L45 648L92 633L179 587L173 568L76 583ZM179 697V747H232V697L216 600H195L179 697ZM232 587L319 633L367 648L383 598L335
583L238 568L232 587ZM259 450L216 538L232 549L302 481L332 441L289 409L259 450Z" />
<glyph unicode="+" glyph-name="plus" horiz-adv-x="600" d="M279 286H64V324H279V540H321V324H536V286H321V71H279V286Z" />
<glyph unicode="," glyph-name="comma" horiz-adv-x="254" d="M46 -140Q116 -74 127 -9H124Q102 -9 90 4T78 38V42Q78 62 91 76T127 90Q150 90 163 76T176 40V33Q176 -12 150 -60T83 -140H46V-140Z" />
<glyph unicode="-" glyph-name="hyphen" horiz-adv-x="394" d="M73 330H321V280H73V330Z" />
<glyph unicode="." glyph-name="period" horiz-adv-x="254" d="M127 -9Q104 -9 91 4T78 38V43Q78 63 91 76T127 90Q150 90 163 77T176 43V38Q176 18 163 5T127 -9Z" />
<glyph unicode="/" glyph-name="slash" horiz-adv-x="343" d="M261 748H303L52 -143H10L261 748Z" />
<glyph unicode="0" glyph-name="zero" horiz-adv-x="600" d="M300 25Q391 25 433 94T475 292V406Q475 534 433 603T300 673Q209 673 167 604T125 406V292Q125 164 167 95T300 25ZM300 -12Q184 -12 122 77T59 349Q59 532 121 621T300 710Q416 710 478 621T541 349Q541
166 479 77T300 -12Z" />
<glyph unicode="1" glyph-name="one" horiz-adv-x="600" d="M97 35H288V646L89 546L76 578L295 698H349V35H532V0H97V35Z" />
<glyph unicode="2" glyph-name="two" horiz-adv-x="600" d="M74 47L312 295Q361 346 389 396T417 505V530Q417 595 376 634T262 673Q221 673 190 664T142 642V640Q155 635 165 622T175 591Q175 571 162 557T127 542Q105 542 92 556T79 594Q79 616 94 637T135 674T196
700T272 710Q370 710 427 660T484 519Q484 479 473 445T443 379T397 320T339 262L128 58V54H477V164H517V0H74V47Z" />
<glyph unicode="3" glyph-name="three" horiz-adv-x="600" d="M272 -12Q228 -12 191 -2T128 24T88 60T73 103Q73 126 86 140T122 154Q144 154 156 140T169 106Q169 89 160 77T137 58V55Q155 42 187 34T265 25Q345 25 393 63T441 171V203Q441 269 398 308T273 347H189V384H268Q343
384 384 420T426 514V548Q426 608 385 640T278 673Q235 673 204 664T155 642V640Q168 634 178 621T188 591Q188 571 175 557T139 542Q117 542 105 556T92 594Q92 615 106 635T144 672T204 699T281 710Q325 710 364 699T431 665T476 610T493 535Q493 500 481 472T449
424T403 390T346 370V367Q378 362 407 348T458 312T494 259T508 189Q508 142 491 105T442 42T368 2T272 -12Z" />
<glyph unicode="4" glyph-name="four" horiz-adv-x="600" d="M386 161H43V203L386 698H444V207H551V161H444V0H386V161ZM88 207H386V631H382L88 207Z" />
<glyph unicode="5" glyph-name="five" horiz-adv-x="600" d="M276 -12Q233 -12 197 -2T136 24T96 60T81 103Q81 126 94 140T130 154Q152 154 164 140T177 106Q177 89 168 77T145 58V55Q163 43 195 34T272 25Q358 25 403 69T449 189V215Q449 290 408 335T288 380Q234
380 202 361T146 311L104 319L130 698H486V641H162L141 341L144 340Q169 378 209 400T304 423Q350 423 389 409T456 368T499 299T515 205Q515 157 498 117T449 49T373 4T276 -12Z" />
<glyph unicode="6" glyph-name="six" horiz-adv-x="600" d="M304 -12Q247 -12 204 6T133 59T91 142T77 250Q77 352 106 431T184 569T300 662T441 710L452 679Q386 666 332 636T238 559T174 453T142 319L147 318Q156 340 171 359T207 394T257 417T319 426Q367 426
405 411T471 367T513 299T528 209Q528 159 512 119T465 49T394 4T304 -12ZM303 25Q343 25 373 38T424 73T454 127T464 194V218Q464 254 454 285T424 338T374 374T303 387Q262 387 232 374T182 339T152 285T142 218V194Q142 158 152 127T182 74T232 38T303 25Z"
/>
<glyph unicode="7" glyph-name="seven" horiz-adv-x="600" d="M476 641H112V504H72V698H521V655L239 0H187L476 641Z" />
<glyph unicode="8" glyph-name="eight" horiz-adv-x="600" d="M300 -12Q189 -12 127 41T65 184Q65 221 78 251T113 304T164 341T227 362V368Q198 373 173 387T129 422T99 472T88 533Q88 573 103 606T146 662T213 697T300 710Q348 710 387 698T454 662T497 606T512
533Q512 500 501 472T471 423T426 387T371 368V362Q404 356 434 342T486 305T522 252T535 184Q535 95 473 42T300 -12ZM300 23Q340 23 371 34T425 66T458 114T470 175V198Q470 231 459 258T425 306T372 338T300 350Q260 350 229 339T175 307T142 259T130 198V175Q130
142 141 115T175 67T228 35T300 23ZM300 383Q336 383 364 394T410 423T438 467T448 521V538Q448 566 439 591T411 635T364 665T300 676Q264 676 236 665T190 636T162 592T152 538V521Q152 492 161 467T189 424T236 394T300 383Z" />
<glyph unicode="9" glyph-name="nine" horiz-adv-x="600" d="M148 19Q214 32 268 62T362 139T426 245T458 379L453 380Q444 358 429 339T393 304T343 281T281 272Q233 272 195 287T129 331T87 399T72 489Q72 539 88 579T135 649T206 694T296 710Q353 710 396 692T467
639T509 556T523 448Q523 346 494 267T416 129T300 36T159 -12L148 19ZM297 311Q337 311 367 324T418 359T448 413T458 480V504Q458 540 448 571T418 624T368 660T297 673Q256 673 226 660T176 625T146 571T136 504V480Q136 444 146 413T176 360T226 324T297 311Z"
/>
<glyph unicode=":" glyph-name="colon" horiz-adv-x="274" d="M137 -9Q114 -9 101 4T88 38V43Q88 63 101 76T137 90Q160 90 173 77T186 43V38Q186 18 173 5T137 -9ZM137 422Q114 422 101 435T88 469V474Q88 494 101 507T137 521Q160 521 173 508T186 474V469Q186
449 173 436T137 422Z" />
<glyph unicode=";" glyph-name="semicolon" horiz-adv-x="274" d="M56 -140Q126 -74 137 -9H134Q112 -9 100 4T88 38V42Q88 62 101 76T137 90Q160 90 173 76T186 40V33Q186 -12 160 -60T93 -140H56V-140ZM137 422Q114 422 101 435T88 469V474Q88 494 101 507T137
521Q160 521 173 508T186 474V469Q186 449 173 436T137 422Z" />
<glyph unicode="&lt;" glyph-name="less" horiz-adv-x="600" d="M87 260V308L513 558V513L132 287V281L513 55V10L87 260Z" />
<glyph unicode="=" glyph-name="equal" horiz-adv-x="600" d="M64 226H536V188H64V226ZM64 423H536V385H64V423Z" />
<glyph unicode="&gt;" glyph-name="greater" horiz-adv-x="600" d="M87 55L468 281V287L87 513V558L513 308V260L87 10V55Z" />
<glyph unicode="?" glyph-name="question" horiz-adv-x="466" d="M172 362Q259 365 311 405T363 515V539Q363 602 325 637T220 673Q178 673 151 664T104 641V639Q115 635 125 622T136 591Q136 571 124 557T89 542Q66 542 53 556T40 594Q40 616 54 637T94 674T154
700T228 710Q272 710 308 697T371 661T411 604T426 529Q426 485 411 450T367 388T300 346T214 326V194H172V362ZM194 -9Q171 -9 158 4T145 38V43Q145 63 158 76T194 90Q217 90 230 77T243 43V38Q243 18 230 5T194 -9Z" />
<glyph unicode="@" glyph-name="at" horiz-adv-x="907" d="M448 -121Q367 -121 299 -93T181 -11T104 120T76 293Q76 387 104 464T182 595T301 680T453 710Q534 710 603 683T723 606T802 484T831 323Q831 271 822 225T795 144T746 89T674 69Q626 69 600 93T570
158H567Q551 122 521 96T439 69Q403 69 372 82T318 123T282 192T269 289Q269 344 282 385T317 454T371 494T439 508Q464 508 484 501T519 483T544 456T561 425H564L583 498H611V175Q611 140 628 120T676 100Q728 100 757 151T786 305V352Q786 423 763 482T696 585T591
653T453 677Q377 677 316 650T212 576T145 465T121 324V267Q121 189 144 125T211 14T314 -59T449 -85H670V-108Q622 -113 566 -117T448 -121ZM445 107Q499 107 531 136T564 217V360Q564 412 532 441T445 470Q384 470 354 432T323 327V250Q323 184 353 146T445 107Z"
/>
<glyph unicode="A" glyph-name="A" horiz-adv-x="688" d="M20 35H75L310 698H378L613 35H668V0H452V35H547L479 230H188L120 35H215V0H20V35ZM199 266H467L336 645H331L199 266Z" />
<glyph unicode="B" glyph-name="B" horiz-adv-x="655" d="M53 35H132V663H53V698H384Q467 698 513 654T560 531Q560 460 525 420T441 368V366Q470 362 496 350T543 315T576 263T589 192Q589 104 540 52T409 0H53V35ZM193 37H390Q423 37 448 47T490 76T515 118T524
169V213Q524 240 516 264T490 306T448 334T390 345H193V37ZM193 382H374Q434 382 464 416T495 499V544Q495 593 465 627T374 661H193V382Z" />
<glyph unicode="C" glyph-name="C" horiz-adv-x="650" d="M344 -12Q278 -12 225 12T134 82T76 196T56 349Q56 437 76 504T133 617T223 686T341 710Q379 710 409 703T463 684T500 657T522 626H525V698H577V494H525V550Q525 576 512 598T476 637T420 662T347 671Q291
671 250 651T180 595T138 509T124 396V306Q124 175 185 105T355 34Q433 34 483 71T557 169L587 155Q576 124 556 94T506 41T436 3T344 -12Z" />
<glyph unicode="D" glyph-name="D" horiz-adv-x="693" d="M53 35H132V663H53V698H333Q476 698 556 611T637 349Q637 174 557 87T333 0H53V35ZM193 37H328Q387 37 432 56T507 109T553 192T569 300V398Q569 457 554 505T508 588T432 642T328 661H193V37Z" />
<glyph unicode="E" glyph-name="E" horiz-adv-x="617" d="M53 35H132V663H53V698H548V538H496V661H193V381H416V463H461V262H416V344H193V37H505V166H557V0H53V35Z" />
<glyph unicode="F" glyph-name="F" horiz-adv-x="600" d="M53 35H132V663H53V698H544V538H492V661H193V368H416V450H461V249H416V331H193V35H292V0H53V35Z" />
<glyph unicode="G" glyph-name="G" horiz-adv-x="735" d="M347 -12Q279 -12 226 12T134 82T76 195T56 349Q56 439 77 506T137 619T231 687T356 710Q443 710 490 684T550 626H555V698H607V494H555V550Q555 578 541 600T501 639T440 663T363 671Q244 671 184 599T124
397V303Q124 239 140 189T186 103T258 50T353 31Q395 31 431 42T495 74T538 127T554 201V295H419V330H687V295H615V0H588L557 106H553Q543 82 526 61T483 23T424 -2T347 -12Z" />
<glyph unicode="H" glyph-name="H" horiz-adv-x="769" d="M53 35H132V663H53V698H272V663H193V378H576V663H497V698H716V663H637V35H716V0H497V35H576V341H193V35H272V0H53V35Z" />
<glyph unicode="I" glyph-name="I" horiz-adv-x="325" d="M53 35H132V663H53V698H272V663H193V35H272V0H53V35Z" />
<glyph unicode="J" glyph-name="J" horiz-adv-x="434" d="M148 -12Q84 -12 52 13T19 73Q19 95 32 110T68 125Q88 125 99 112T111 78Q111 61 102 50T80 35V32Q91 27 107 24T148 20Q198 20 225 47T252 136V663H153V698H392V663H313V142Q313 62 268 25T148 -12Z" />
<glyph unicode="K" glyph-name="K" horiz-adv-x="691" d="M53 35H132V663H53V698H272V663H193V298H196L306 419L529 663H444V698H647V663H581L350 413L599 35H668V0H449V35H528L308 369L193 246V35H272V0H53V35Z" />
<glyph unicode="L" glyph-name="L" horiz-adv-x="581" d="M53 35H132V663H53V698H272V663H193V37H475V166H527V0H53V35Z" />
<glyph unicode="M" glyph-name="M" horiz-adv-x="864" d="M53 35H132V663H53V698H207L431 270H434L664 698H811V663H732V35H811V0H592V35H671V628H668L603 506L420 164L249 491L178 628H174V35H253V0H53V35Z" />
<glyph unicode="N" glyph-name="N" horiz-adv-x="763" d="M53 35H132V663H53V698H202L595 96H599V663H520V698H720V663H641V0H588L178 630H174V35H253V0H53V35Z" />
<glyph unicode="O" glyph-name="O" horiz-adv-x="720" d="M360 27Q415 27 458 46T532 102T577 189T593 306V392Q593 456 578 508T532 596T459 651T360 671Q304 671 261 652T188 596T143 508T127 392V306Q127 241 142 190T188 102T261 47T360 27ZM360 -12Q291 -12
235 12T140 82T80 195T59 349Q59 435 80 502T140 616T235 686T360 710Q429 710 485 686T580 616T640 503T661 349Q661 263 640 196T580 82T485 12T360 -12Z" />
<glyph unicode="P" glyph-name="P" horiz-adv-x="610" d="M53 35H132V663H53V698H376Q467 698 515 650T564 513Q564 424 515 375T375 325H193V35H292V0H53V35ZM193 362H372Q403 362 426 372T466 400T490 441T499 490V533Q499 559 491 582T466 622T427 650T372
661H193V362Z" />
<glyph unicode="Q" glyph-name="Q" horiz-adv-x="720" d="M514 -162Q464 -162 435 -146T382 -94L324 -10Q262 -4 213 23T130 95T78 204T59 349Q59 435 80 502T140 616T235 686T360 710Q429 710 485 686T580 616T640 503T661 349Q661 186 589 93T390 -10L435 -73Q457
-103 477 -115T530 -127H562V-162H514ZM360 27Q415 27 458 46T532 102T577 189T593 306V392Q593 456 578 508T532 596T459 651T360 671Q304 671 261 652T188 596T143 508T127 392V306Q127 241 142 190T188 102T261 47T360 27Z" />
<glyph unicode="R" glyph-name="R" horiz-adv-x="668" d="M53 35H132V663H53V698H376Q466 698 515 651T564 514Q564 438 523 390T400 333L523 103Q558 35 627 35H642V0H593Q543 0 516 21T466 84L337 325H193V35H272V0H53V35ZM193 362H371Q402 362 426 372T466
400T490 441T499 490V533Q499 559 491 582T466 622T426 650T371 661H193V362Z" />
<glyph unicode="S" glyph-name="S" horiz-adv-x="584" d="M290 -12Q216 -12 177 11T120 67H116V0H64V209H116V156Q116 129 124 105T152 64T203 37T280 27Q374 27 417 66T460 175Q460 207 450 230T422 271T379 299T322 319L262 335Q164 361 119 407T73 529Q73 572
88 605T132 662T201 698T290 710Q358 710 396 688T450 637H455V698H507V499H455V554Q455 607 415 639T290 671Q212 671 171 636T130 539Q130 477 169 446T274 396L332 381Q429 355 473 308T517 189Q517 145 503 108T460 45T389 3T290 -12Z" />
<glyph unicode="T" glyph-name="T" horiz-adv-x="647" d="M194 35H293V661H91V538H39V698H608V538H556V661H354V35H453V0H194V35Z" />
<glyph unicode="U" glyph-name="U" horiz-adv-x="725" d="M367 -12Q300 -12 254 3T178 51T135 138T122 269V663H43V698H262V663H183V259Q183 199 192 156T223 85T281 44T371 30Q424 30 460 43T519 84T551 155T561 259V663H482V698H682V663H603V277Q603 200 591
146T552 56T479 5T367 -12Z" />
<glyph unicode="V" glyph-name="V" horiz-adv-x="666" d="M79 663H24V698H238V663H143L257 326L342 62H346L432 327L543 663H448V698H642V663H587L364 0H302L79 663Z" />
<glyph unicode="W" glyph-name="W" horiz-adv-x="969" d="M80 663H25V698H239V663H144L290 74H294L461 698H524L693 74H696L844 663H749V698H944V663H889L717 0H656L485 619H481L313 0H252L80 663Z" />
<glyph unicode="X" glyph-name="X" horiz-adv-x="657" d="M17 35H79L296 346L86 663H24V698H244V663H159L336 393H339L519 663H439V698H632V663H570L360 361L578 35H640V0H419V35H504L322 313H318L131 35H211V0H17V35Z" />
<glyph unicode="Y" glyph-name="Y" horiz-adv-x="629" d="M185 35H284V282L75 663H17V698H239V663H144L323 329H327L509 663H414V698H612V663H554L345 286V35H444V0H185V35Z" />
<glyph unicode="Z" glyph-name="Z" horiz-adv-x="625" d="M60 37L482 661H121V538H69V698H553V661L130 37H510V166H562V0H60V37Z" />
<glyph unicode="[" glyph-name="bracketleft" horiz-adv-x="287" d="M77 760H244V726H131V-104H244V-138H77V760Z" />
<glyph unicode="\" glyph-name="backslash" horiz-adv-x="343" d="M42 748H84L335 -143H293L42 748Z" />
<glyph unicode="]" glyph-name="bracketright" horiz-adv-x="287" d="M43 -104H156V726H43V760H210V-138H43V-104Z" />
<glyph unicode="^" glyph-name="asciicircum" horiz-adv-x="600" d="M62 336L275 698H325L538 336L504 318L302 654H298L96 318L62 336Z" />
<glyph unicode="_" glyph-name="underscore" horiz-adv-x="566" d="M27 -110H539V-150H27V-110Z" />
<glyph unicode="`" glyph-name="grave" horiz-adv-x="600" d="M189 738L243 766L333 598L311 586L189 738Z" />
<glyph unicode="a" glyph-name="a" horiz-adv-x="532" d="M207 -12Q134 -12 93 25T51 126Q51 163 63 190T102 237T171 265T275 275H364V358Q364 422 331 455T235 489Q199 489 173 483T133 467V465Q144 460 152 450T161 422Q161 402 149 391T117 379Q97 379 85
390T73 424Q73 443 85 461T121 493T178 515T252 524Q331 524 376 483T422 366V32H499V6Q489 -1 471 -5T433 -10Q367 -10 367 56V82H363Q356 65 345 48T314 18T269 -4T207 -12ZM228 28Q286 28 325 59T364 143V245H283Q235 245 203 238T151 218T123 185T114 140V117Q114
76 144 52T228 28Z" />
<glyph unicode="b" glyph-name="b" horiz-adv-x="585" d="M320 -12Q256 -12 217 15T161 80H157L128 0H101V700L23 710V736L159 758V431H163Q180 469 218 496T320 524Q418 524 474 456T531 256Q531 124 475 56T320 -12ZM305 30Q383 30 425 81T468 221V291Q468 379
426 430T305 482Q277 482 251 474T205 451T172 415T159 367V145Q159 118 171 97T204 61T251 38T305 30Z" />
<glyph unicode="c" glyph-name="c" horiz-adv-x="508" d="M278 -12Q225 -12 183 6T112 59T67 143T51 256Q51 319 67 369T114 453T187 506T282 524Q318 524 348 516T400 494T434 461T446 420Q446 396 434 383T398 369Q375 369 363 382T351 416Q351 433 360 445T386
466V468Q353 488 288 488Q248 488 216 474T162 435T127 374T115 296V232Q115 187 127 151T161 88T215 48T285 34Q317 34 341 41T384 62T416 93T441 131L466 116Q456 92 441 69T402 28T349 -1T278 -12Z" />
<glyph unicode="d" glyph-name="d" horiz-adv-x="595" d="M265 -12Q167 -12 111 56T54 256Q54 388 110 456T265 524Q328 524 367 497T422 432H426V700L348 710V736L484 758V48L562 38V12L426 -10V81H422Q405 43 367 16T265 -12ZM280 30Q308 30 334 38T380 61T413
97T426 145V367Q426 394 414 415T381 451T334 474T280 482Q202 482 160 431T117 291V221Q117 133 159 82T280 30Z" />
<glyph unicode="e" glyph-name="e" horiz-adv-x="532" d="M277 -12Q173 -12 112 58T51 256Q51 317 67 367T114 451T185 505T275 524Q323 524 361 506T427 457T468 381T483 284V267H115V235Q115 138 162 86T285 34Q348 34 387 62T448 131L473 116Q463 92 446 69T405
28T349 -1T277 -12ZM115 301H422V307Q422 346 413 379T386 436T340 474T275 488Q238 488 209 475T158 438T126 381T115 308V301Z" />
<glyph unicode="f" glyph-name="f" horiz-adv-x="327" d="M47 35H125V475H47V512H125V612Q125 646 136 673T166 720T212 749T270 760Q319 760 345 741T371 692Q371 672 360 660T329 647Q311 647 300 658T289 686Q289 715 314 725V727Q306 729 296 730T275 731Q232
731 208 702T183 619V512H293V475H183V35H281V0H47V35Z" />
<glyph unicode="g" glyph-name="g" horiz-adv-x="542" d="M261 -212Q202 -212 161 -203T94 -178T56 -138T44 -86Q44 -43 75 -15T149 24V27Q89 47 89 106Q89 144 115 166T175 197V201Q129 220 103 259T76 354Q76 393 90 424T128 478T187 512T263 524Q308 524 342
511T399 476Q400 533 417 556T463 579Q481 579 492 569T504 540Q504 522 494 512T464 501Q450 501 442 507T428 524H425Q423 519 423 496T422 452Q433 435 442 412T452 354Q452 315 438 284T399 230T339 196T263 184Q233 184 209 191Q177 184 155 167T132 123Q132
100 150 87T217 74H341Q429 74 470 40T511 -56Q511 -131 447 -171T261 -212ZM264 217Q326 217 358 250T390 335V373Q390 425 358 458T264 491Q202 491 170 458T138 373V335Q138 283 170 250T264 217ZM97 -83Q97 -127 135 -151T240 -175H287Q366 -175 413 -148T460
-69Q460 -28 432 -6T332 17H176Q97 -12 97 -83Z" />
<glyph unicode="h" glyph-name="h" d="M33 35H111V700L33 710V736L169 758V433H173Q179 450 191 466T222 495T266 516T324 524Q415 524 455 476T495 331V35H573V0H359V35H437V325Q437 406 404 444T304 482Q278 482 254 475T211 454T181 418T169 367V35H247V0H33V35Z" />
<glyph unicode="i" glyph-name="i" horiz-adv-x="294" d="M153 648Q133 648 122 660T111 690V694Q111 711 122 723T153 736Q173 736 184 724T195 694V690Q195 673 184 661T153 648ZM46 35H124V464L46 474V500L182 522V35H260V0H46V35Z" />
<glyph unicode="j" glyph-name="j" horiz-adv-x="282" d="M55 -212Q9 -212 -12 -193T-34 -146Q-34 -128 -24 -116T6 -104Q24 -104 33 -114T43 -143Q43 -155 37 -165T21 -178V-181Q33 -185 53 -185Q86 -185 104 -163T122 -98V464L44 474V500L180 522V-71Q180 -145
146 -178T55 -212ZM152 648Q132 648 121 660T110 690V694Q110 711 121 723T152 736Q172 736 183 724T194 694V690Q194 673 183 661T152 648Z" />
<glyph unicode="k" glyph-name="k" horiz-adv-x="568" d="M33 35H111V700L33 710V736L169 758V226H174L259 318L406 477H333V512H530V477H460L298 308L494 35H554V0H360V35H428L259 269L169 178V35H247V0H33V35Z" />
<glyph unicode="l" glyph-name="l" horiz-adv-x="281" d="M33 35H111V700L33 710V736L169 758V35H247V0H33V35Z" />
<glyph unicode="m" glyph-name="m" horiz-adv-x="936" d="M46 35H124V464L46 474V500L181 522V432H185Q191 449 203 465T234 495T277 516T334 524Q461 524 492 417H495Q502 438 515 457T548 491T594 515T655 524Q745 524 785 476T826 330V35H904V0H690V35H768V325Q768
406 735 444T636 482Q610 482 587 475T545 454T515 417T504 366V35H582V0H368V35H446V325Q446 406 414 444T315 482Q289 482 265 475T223 454T193 417T182 366V35H260V0H46V35Z" />
<glyph unicode="n" glyph-name="n" horiz-adv-x="620" d="M46 35H124V464L46 474V500L181 522V432H185Q191 449 203 465T235 495T279 516T336 524Q427 524 467 476T508 331V35H586V0H372V35H450V325Q450 406 417 444T317 482Q291 482 267 475T224 454T194 418T182
367V35H260V0H46V35Z" />
<glyph unicode="o" glyph-name="o" horiz-adv-x="554" d="M277 25Q317 25 347 39T397 77T428 136T438 213V299Q438 341 428 375T398 434T347 473T277 487Q237 487 207 473T157 435T126 376T116 299V213Q116 171 126 137T156 78T207 39T277 25ZM277 -12Q225 -12
184 6T113 58T67 143T51 256Q51 319 67 368T112 452T183 505T277 524Q329 524 370 506T441 453T487 369T503 256Q503 193 487 143T442 59T371 6T277 -12Z" />
<glyph unicode="p" glyph-name="p" horiz-adv-x="595" d="M33 -165H111V464L33 474V500L169 522V431H173Q190 469 228 496T330 524Q428 524 484 456T541 256Q541 124 485 56T330 -12Q267 -12 228 15T173 80H169V-165H267V-200H33V-165ZM315 30Q393 30 435 81T478
221V291Q478 379 436 430T315 482Q287 482 261 474T215 451T182 415T169 367V145Q169 118 181 97T214 61T261 38T315 30Z" />
<glyph unicode="q" glyph-name="q" horiz-adv-x="585" d="M328 -165H426V81H422Q405 43 367 16T265 -12Q167 -12 111 56T54 256Q54 388 110 456T265 524Q329 524 368 497T424 432H428L457 512H484V-165H562V-200H328V-165ZM280 30Q308 30 334 38T380 61T413 97T426
145V367Q426 394 414 415T381 451T334 474T280 482Q202 482 160 431T117 291V221Q117 133 159 82T280 30Z" />
<glyph unicode="r" glyph-name="r" horiz-adv-x="414" d="M46 35H124V464L46 474V500L181 522V427H185Q192 444 203 461T231 493T270 515T320 524Q357 524 378 508T400 459Q400 436 388 423T357 410Q335 410 323 421T310 452Q310 467 317 477T332 489V491Q324
492 319 492T308 492Q286 492 264 481T223 452T194 411T182 364V35H281V0H46V35Z" />
<glyph unicode="s" glyph-name="s" horiz-adv-x="481" d="M243 -12Q190 -12 156 7T107 53H104V0H60V151H104V124Q104 77 138 51T234 25Q297 25 331 49T365 123Q365 166 340 190T264 225L211 236Q141 252 103 286T64 387Q64 453 110 488T232 524Q284 524 315 507T358
465H362V512H406V361H362V397Q362 442 331 464T239 487Q183 487 151 465T119 396Q119 352 145 329T220 294L271 283Q344 267 382 233T421 133Q421 69 374 29T243 -12Z" />
<glyph unicode="t" glyph-name="t" horiz-adv-x="340" d="M188 -4Q146 -4 131 11T115 65V475H47V512H62Q97 512 108 522T124 555L139 650H173V512H310V475H173V37H310V10Q301 7 286 5T254 0T220 -3T188 -4Z" />
<glyph unicode="u" glyph-name="u" horiz-adv-x="602" d="M278 -12Q188 -12 147 36T106 182V464L28 474V500L164 522V188Q164 107 197 69T298 30Q323 30 347 37T390 58T420 94T432 145V464L354 474V500L490 522V48L568 38V12L434 -10V80H430Q424 63 412 47T380
17T336 -4T278 -12Z" />
<glyph unicode="v" glyph-name="v" horiz-adv-x="525" d="M57 477H6V512H205V477H120L272 65H276L425 477H341V512H519V477H468L287 0H239L57 477Z" />
<glyph unicode="w" glyph-name="w" horiz-adv-x="783" d="M65 477H14V512H209V477H124L241 59H245L379 512H429L557 59H560L679 477H594V512H768V477H717L578 0H520L395 431H392L261 0H203L65 477Z" />
<glyph unicode="x" glyph-name="x" horiz-adv-x="548" d="M25 35H83L244 253L83 477H28V512H222V477H153L284 291H288L413 477H342V512H517V477H459L306 263L468 35H523V0H328V35H397L266 224H263L130 35H201V0H25V35Z" />
<glyph unicode="y" glyph-name="y" horiz-adv-x="525" d="M117 -212Q72 -212 52 -193T32 -146Q32 -125 43 -113T75 -100Q93 -100 103 -111T114 -141Q114 -155 107 -164T89 -177V-179Q100 -183 118 -183Q150 -183 175 -158T222 -76L245 -14L57 477H6V512H205V477H120L272
65H276L425 477H340V512H519V477H468L255 -82Q232 -143 199 -177T117 -212Z" />
<glyph unicode="z" glyph-name="z" horiz-adv-x="492" d="M48 29L360 476H101V361H57V512H432V483L121 36H396V151H440V0H48V29Z" />
<glyph unicode="{" glyph-name="braceleft" horiz-adv-x="320" d="M176 -138Q147 -138 133 -123T118 -82V199Q118 243 91 264T19 286V336Q64 336 91 357T118 423V704Q118 729 132 744T176 760H274V726H172V434Q172 386 142 354T66 317V305Q111 300 141 268T172
188V-104H274V-138H176V-138Z" />
<glyph unicode="|" glyph-name="bar" horiz-adv-x="277" d="M118 760H159V-138H118V760Z" />
<glyph unicode="}" glyph-name="braceright" horiz-adv-x="320" d="M46 -104H148V188Q148 236 178 268T254 305V317Q209 322 179 354T148 434V726H46V760H145Q174 760 188 745T202 704V423Q202 379 229 358T301 336V286Q257 286 230 265T202 199V-82Q202 -107
188 -122T145 -138H46V-104Z" />
<glyph unicode="~" glyph-name="asciitilde" horiz-adv-x="600" d="M422 250Q389 250 361 260T293 287Q258 303 232 312T176 322Q149 322 128 314T84 285L64 311Q87 336 113 349T178 362Q211 362 239 352T307 325Q342 309 368 300T424 290Q451 290 472 298T516
327L536 301Q513 276 487 263T422 250Z" />
<glyph unicode="&#xa0;" glyph-name="uni00A0" horiz-adv-x="232" />
<glyph unicode="&#xa1;" glyph-name="exclamdown" horiz-adv-x="268" d="M134 422Q111 422 98 435T85 469V474Q85 494 98 507T134 521Q157 521 170 508T183 474V469Q183 449 170 436T134 422ZM104 53L121 331H147L164 53V-186H104V53Z" />
<glyph unicode="&#xa2;" glyph-name="cent" horiz-adv-x="512" d="M256 -11Q160 -3 106 66T51 256Q51 316 65 363T107 444T171 497T256 522V625H294V523Q328 522 356 514T404 492T435 460T446 420Q446 397 434 384T398 370Q377 370 365 383T353 417Q353 432 362
444T388 463V465Q351 488 293 488V34Q353 36 386 64T441 131L466 116Q457 93 443 72T407 32T358 3T294 -11V-114H256V-11ZM257 485Q190 474 153 423T115 295V232Q115 151 153 99T257 36V485Z" />
<glyph unicode="&#xa3;" glyph-name="sterling" horiz-adv-x="581" d="M73 53Q116 77 140 126T165 235Q165 254 162 272T154 307H62V343H145Q131 384 118 425T104 514Q104 558 119 594T163 656T231 696T318 710Q360 710 396 701T458 675T499 637T514 592Q514 568
500 553T463 538Q440 538 428 552T415 586Q415 605 424 617T451 638V641Q434 653 401 662T329 671Q248 671 205 630T162 520Q162 469 176 428T204 343H401V307H212Q216 291 218 275T220 241Q220 210 212 182T189 129T157 85T118 53V50H480V162H520V0H73V53Z" />
<glyph unicode="&#xa4;" glyph-name="currency" horiz-adv-x="614" d="M307 123Q221 123 169 173L65 68L32 101L139 208Q103 262 103 349Q103 436 139 490L32 597L65 630L169 525Q221 575 307 575Q393 575 445 525L549 630L582 597L475 490Q511 436 511 349Q511
262 475 208L582 101L549 68L445 173Q393 123 307 123ZM307 160Q380 160 416 202T452 314V384Q452 453 416 495T307 538Q234 538 198 496T162 384V314Q162 245 198 203T307 160Z" />
<glyph unicode="&#xa5;" glyph-name="yen" horiz-adv-x="630" d="M185 35H284V157H100V192H284V312H100V347H265L78 663H20V698H240V663H147L323 358H326L507 663H414V698H610V663H552L362 347H529V312H345V192H529V157H345V35H444V0H185V35Z" />
<glyph unicode="&#xa6;" glyph-name="brokenbar" horiz-adv-x="277" d="M118 221H159V-138H118V221ZM118 760H159V401H118V760Z" />
<glyph unicode="&#xa7;" glyph-name="section" horiz-adv-x="583" d="M273 -154Q237 -154 207 -147T156 -126T122 -96T110 -59Q110 -36 123 -23T158 -9Q178 -9 190 -21T203 -52Q203 -69 194 -79T172 -94V-96Q188 -106 211 -112T264 -119Q330 -119 365 -93T401
-12Q401 36 372 62T300 102L232 122Q196 133 168 146T120 179T90 223T80 282Q80 336 112 373T198 428V432Q129 476 129 558Q129 632 178 671T311 710Q347 710 377 703T428 682T462 652T474 615Q474 592 461 579T426 565Q406 565 394 577T381 608Q381 625 390 635T412
650V652Q396 662 373 668T320 675Q254 675 219 649T183 568Q183 520 212 494T284 454L352 434Q388 423 416 410T464 377T494 333T504 274Q504 220 472 183T386 128V124Q455 80 455 -2Q455 -76 406 -115T273 -154ZM353 141Q398 153 423 182T448 264Q448 311 422
337T344 379L273 400Q262 403 252 406T231 415Q186 403 161 374T136 292Q136 245 162 219T240 177L311 156Q322 153 332 150T353 141Z" />
<glyph unicode="&#xa8;" glyph-name="dieresis" horiz-adv-x="600" d="M209 628Q190 628 180 639T170 667V669Q170 685 180 696T209 708Q228 708 238 697T248 669V667Q248 651 238 640T209 628ZM391 628Q372 628 362 639T352 667V669Q352 685 362 696T391 708Q410
708 420 697T430 669V667Q430 651 420 640T391 628Z" />
<glyph unicode="&#xa9;" glyph-name="copyright" horiz-adv-x="776" d="M396 154Q318 154 275 205T231 348Q231 394 243 430T277 492T330 530T399 544Q452 544 485 522T519 466Q519 449 510 439T483 428Q466 428 458 438T449 463Q449 488 477 497V499Q450 515
403 515Q347 515 314 477T280 378V331Q280 267 312 229T401 190Q447 190 473 209T513 255L532 243Q525 227 514 211T486 183T447 162T396 154ZM388 24Q451 24 504 46T595 109T654 203T675 322V376Q675 440 654 494T595 589T504 651T388 674Q325 674 272 652T181
589T122 495T101 376V322Q101 258 122 204T181 109T272 47T388 24ZM388 -12Q317 -12 257 13T154 86T85 199T60 349Q60 432 85 498T153 612T257 684T388 710Q458 710 518 685T622 612T691 499T716 349Q716 266 691 200T623 86T519 14T388 -12Z" />
<glyph unicode="&#xaa;" glyph-name="ordfeminine" horiz-adv-x="380" d="M146 348Q94 348 67 372T40 439Q40 487 73 511T185 536H249V591Q249 633 228 656T165 679Q121 679 101 666V664Q110 661 116 653T122 634Q122 620 113 612T88 603Q73 603 64 612T55 636Q55
662 87 683T176 704Q233 704 263 676T294 597V379H347V360Q339 356 327 353T300 350Q252 350 252 395V405H249Q238 382 215 365T146 348ZM161 377Q198 377 223 395T249 450V512H189Q132 512 110 496T87 447V435Q87 406 106 392T161 377Z" />
<glyph unicode="&#xab;" glyph-name="guillemotleft" horiz-adv-x="500" d="M35 272V306L230 485L246 463L96 289L246 115L230 93L35 272ZM231 272V306L426 485L442 463L292 289L442 115L426 93L231 272Z" />
<glyph unicode="&#xac;" glyph-name="logicalnot" horiz-adv-x="600" d="M477 286H64V324H519V90H477V286Z" />
<glyph unicode="&#xad;" glyph-name="uni00AD" horiz-adv-x="394" d="M73 330H321V280H73V330Z" />
<glyph unicode="&#xae;" glyph-name="registered" horiz-adv-x="472" d="M148 414H170V594H148V610H247Q278 610 295 595T312 554Q312 531 300 516T265 496L302 430Q310 414 330 414H334V398H320Q303 398 292 403T272 425L235 492H199V414H220V398H148V414ZM236
322Q273 322 303 335T356 372T391 427T404 493V515Q404 550 392 581T357 635T304 672T236 686Q199 686 169 673T116 636T81 581T68 515V493Q68 458 80 427T115 373T168 336T236 322ZM236 298Q194 298 158 313T96 356T54 421T38 504Q38 549 53 587T95 652T158 694T236
710Q278 710 314 695T376 652T418 587T434 504Q434 459 419 421T377 356T314 314T236 298ZM199 510H245Q262 510 271 520T281 544V558Q281 572 272 581T245 591H199V510Z" />
<glyph unicode="&#xaf;" glyph-name="overscore" horiz-adv-x="600" d="M165 690H435V649H165V690Z" />
<glyph unicode="&#xb0;" glyph-name="degree" horiz-adv-x="465" d="M233 370Q198 370 168 383T115 419T81 473T68 540Q68 576 80 607T115 661T167 697T233 710Q268 710 298 697T351 661T385 607T398 540Q398 504 386 473T351 419T299 383T233 370ZM233 408Q261
408 283 418T322 447T347 489T356 540Q356 567 347 591T322 633T284 661T233 672Q205 672 183 662T144 633T119 591T110 540Q110 513 119 489T144 447T182 419T233 408Z" />
<glyph unicode="&#xb1;" glyph-name="plusminus" horiz-adv-x="600" d="M279 360H64V398H279V610H321V398H536V360H321V148H279V360ZM64 38H536V0H64V38Z" />
<glyph unicode="&#xb2;" glyph-name="twosuperior" horiz-adv-x="347" d="M40 369L169 480Q200 507 218 534T236 590V601Q236 635 215 656T155 677Q112 677 90 661V658Q100 653 104 645T109 627Q109 612 100 603T77 593Q42 593 42 630Q42 643 50 656T75 680T112
697T161 704Q224 704 256 676T288 600Q288 555 262 521T194 455L81 372V368H275V422H307V330H40V369Z" />
<glyph unicode="&#xb3;" glyph-name="threesuperior" horiz-adv-x="347" d="M158 324Q101 324 69 347T37 398Q37 415 46 424T72 434Q88 434 96 425T105 401Q105 380 86 371V368Q108 351 152 351Q197 351 221 370T245 425V438Q245 470 222 488T154 507H119V536H152Q196
536 217 554T238 602V614Q238 645 218 661T160 677Q114 677 94 661V659Q113 649 113 628Q113 614 104 605T80 595Q45 595 45 632Q45 645 53 657T78 680T116 697T164 704Q224 704 256 681T289 611Q289 576 266 554T210 525V521Q245 516 270 494T296 433Q296 379
259 352T158 324Z" />
<glyph unicode="&#xb4;" glyph-name="acute" horiz-adv-x="600" d="M267 598L356 766L411 738L288 586L267 598Z" />
<glyph unicode="&#xb5;" glyph-name="mu" horiz-adv-x="602" d="M106 464L28 474V500L164 522V188Q164 107 197 69T297 30Q323 30 347 37T390 58T420 94T432 145V464L354 474V500L490 522V48L568 38V12L434 -10V80H430Q424 63 412 47T380 17T336 -4T279 -12Q231
-12 197 5T145 57H141L169 -105V-200H106V464Z" />
<glyph unicode="&#xb6;" glyph-name="paragraph" horiz-adv-x="619" d="M284 -154Q248 -154 218 -146T166 -122T131 -85T118 -37Q118 -12 131 3T168 19Q189 19 200 6T211 -27Q211 -65 167 -76V-79Q181 -99 210 -111T285 -123H288V315Q239 315 196 327T121 364T71
424T52 507Q52 554 70 590T121 650T196 686T288 698H537V663H464V65Q464 -45 417 -99T284 -154ZM326 -116Q374 -104 400 -60T426 65V663H326V-116Z" />
<glyph unicode="&#xb7;" glyph-name="middot" horiz-adv-x="310" d="M155 255Q132 255 119 268T106 302V307Q106 327 119 340T155 354Q178 354 191 341T204 307V302Q204 282 191 269T155 255Z" />
<glyph unicode="&#xb8;" glyph-name="cedilla" horiz-adv-x="600" d="M310 -204Q277 -204 256 -193T225 -168L241 -151Q251 -162 267 -169T304 -176Q329 -176 344 -165T360 -130Q360 -113 348 -100T299 -83L267 -80L287 12H317L300 -66L303 -69Q311 -67 320 -66T336
-65Q367 -65 387 -81T408 -127Q408 -164 380 -184T310 -204Z" />
<glyph unicode="&#xb9;" glyph-name="onesuperior" horiz-adv-x="362" d="M58 359H174V657L53 608L41 633L184 698H222V359H326V330H58V359Z" />
<glyph unicode="&#xba;" glyph-name="ordmasculine" horiz-adv-x="389" d="M195 375Q221 375 240 384T272 410T291 449T297 497V555Q297 580 291 602T273 641T241 667T195 677Q169 677 150 668T118 642T99 603T93 555V497Q93 472 99 450T117 411T149 385T195 375ZM195
348Q124 348 84 396T43 526Q43 607 83 655T195 704Q266 704 306 656T347 526Q347 445 307 397T195 348Z" />
<glyph unicode="&#xbb;" glyph-name="guillemotright" horiz-adv-x="500" d="M58 115L208 289L58 463L74 485L269 306V272L74 93L58 115ZM254 115L404 289L254 463L270 485L465 306V272L270 93L254 115Z" />
<glyph unicode="&#xbc;" glyph-name="onequarter" horiz-adv-x="885" d="M58 359H174V657L53 608L41 633L184 698H222V359H326V330H58V359ZM690 698H736L267 0H221L690 698ZM737 79H540V115L733 368H782V115H842V79H782V0H737V79ZM574 115H737V324H734L574 115Z" />
<glyph unicode="&#xbd;" glyph-name="onehalf" horiz-adv-x="904" d="M58 359H174V657L53 608L41 633L184 698H222V359H326V330H58V359ZM690 698H736L267 0H221L690 698ZM597 39L726 150Q757 177 775 204T793 260V271Q793 305 772 326T712 347Q669 347 647 331V328Q657
323 661 315T666 297Q666 282 657 273T634 263Q599 263 599 300Q599 313 607 326T632 350T669 367T718 374Q781 374 813 346T845 270Q845 225 819 191T751 125L638 42V38H832V92H864V0H597V39Z" />
<glyph unicode="&#xbe;" glyph-name="threequarters" horiz-adv-x="830" d="M158 324Q101 324 69 347T37 398Q37 415 46 424T72 434Q88 434 96 425T105 401Q105 380 86 371V368Q108 351 152 351Q197 351 221 370T245 425V438Q245 470 222 488T154 507H119V536H152Q196
536 217 554T238 602V614Q238 645 218 661T160 677Q114 677 94 661V659Q113 649 113 628Q113 614 104 605T80 595Q45 595 45 632Q45 645 53 657T78 680T116 697T164 704Q224 704 256 681T289 611Q289 576 266 554T210 525V521Q245 516 270 494T296 433Q296 379
259 352T158 324ZM635 698H681L212 0H166L635 698ZM682 79H485V115L678 368H727V115H787V79H727V0H682V79ZM519 115H682V324H679L519 115Z" />
<glyph unicode="&#xbf;" glyph-name="questiondown" horiz-adv-x="466" d="M239 -198Q195 -198 159 -185T96 -149T56 -92T41 -17Q41 27 56 62T100 124T167 166T253 186V318H295V150Q208 147 156 107T104 -3V-27Q104 -90 142 -125T247 -161Q289 -161 316 -152T363
-129V-127Q352 -123 342 -110T331 -79Q331 -59 343 -45T378 -30Q401 -30 414 -44T427 -82Q427 -104 412 -125T372 -162T312 -188T239 -198ZM273 422Q250 422 237 435T224 469V474Q224 494 237 507T273 521Q296 521 309 508T322 474V469Q322 449 309 436T273 422Z"
/>
<glyph unicode="&#xc0;" glyph-name="Agrave" horiz-adv-x="688" d="M20 35H75L310 698H378L613 35H668V0H452V35H547L479 230H188L120 35H215V0H20V35ZM199 266H467L336 645H331L199 266ZM233 916L287 944L377 776L355 764L233 916Z" />
<glyph unicode="&#xc1;" glyph-name="Aacute" horiz-adv-x="688" d="M20 35H75L310 698H378L613 35H668V0H452V35H547L479 230H188L120 35H215V0H20V35ZM199 266H467L336 645H331L199 266ZM311 776L400 944L455 916L332 764L311 776Z" />
<glyph unicode="&#xc2;" glyph-name="Acircumflex" horiz-adv-x="688" d="M20 35H75L310 698H378L613 35H668V0H452V35H547L479 230H188L120 35H215V0H20V35ZM199 266H467L336 645H331L199 266ZM198 787L323 930H365L490 787L471 774L344 882L217 774L198 787Z" />
<glyph unicode="&#xc3;" glyph-name="Atilde" horiz-adv-x="688" d="M20 35H75L310 698H378L613 35H668V0H452V35H547L479 230H188L120 35H215V0H20V35ZM199 266H467L336 645H331L199 266ZM409 795Q391 795 374 803T335 823Q315 834 297 842T265 850Q248 850 236
843T206 817L191 833Q213 859 232 874T279 890Q297 890 314 882T353 862Q373 851 391 843T423 835Q440 835 452 842T482 868L497 852Q475 826 456 811T409 795Z" />
<glyph unicode="&#xc4;" glyph-name="Adieresis" horiz-adv-x="688" d="M20 35H75L310 698H378L613 35H668V0H452V35H547L479 230H188L120 35H215V0H20V35ZM199 266H467L336 645H331L199 266ZM253 802Q234 802 224 813T214 841V843Q214 859 224 870T253 882Q272
882 282 871T292 843V841Q292 825 282 814T253 802ZM435 802Q416 802 406 813T396 841V843Q396 859 406 870T435 882Q454 882 464 871T474 843V841Q474 825 464 814T435 802Z" />
<glyph unicode="&#xc5;" glyph-name="Aring" horiz-adv-x="688" d="M20 35H75L310 698H378L613 35H668V0H452V35H547L479 230H188L120 35H215V0H20V35ZM199 266H467L336 645H331L199 266ZM344 783Q373 783 390 800T407 848V872Q407 903 390 920T344 937Q315 937
298 920T281 872V848Q281 817 298 800T344 783ZM344 756Q298 756 268 785T238 860Q238 905 268 934T344 964Q390 964 420 935T450 860Q450 815 420 786T344 756Z" />
<glyph unicode="&#xc6;" glyph-name="AE" horiz-adv-x="940" d="M6 35H61L400 663H321V698H871V538H819V661H516V381H739V463H784V262H739V344H516V37H828V166H880V0H376V35H455V230H213L108 35H194V0H6V35ZM229 266H455V663H445L229 266Z" />
<glyph unicode="&#xc7;" glyph-name="Ccedilla" horiz-adv-x="650" d="M355 -204Q322 -204 301 -193T270 -168L286 -151Q296 -162 312 -169T349 -176Q374 -176 389 -165T405 -130Q405 -113 393 -100T344 -83L312 -80L327 -12Q264 -9 214 17T129 89T75 200T56 349Q56
437 76 504T133 617T223 686T341 710Q379 710 409 703T463 684T500 657T522 626H525V698H577V494H525V550Q525 576 512 598T476 637T420 662T347 671Q291 671 250 651T180 595T138 509T124 396V306Q124 175 185 105T355 34Q433 34 483 71T557 169L587 155Q576 125
557 96T510 44T443 5T357 -12L345 -66L348 -69Q356 -67 365 -66T381 -65Q412 -65 432 -81T453 -127Q453 -164 425 -184T355 -204Z" />
<glyph unicode="&#xc8;" glyph-name="Egrave" horiz-adv-x="617" d="M53 35H132V663H53V698H548V538H496V661H193V381H416V463H461V262H416V344H193V37H505V166H557V0H53V35ZM213 916L267 944L357 776L335 764L213 916Z" />
<glyph unicode="&#xc9;" glyph-name="Eacute" horiz-adv-x="617" d="M53 35H132V663H53V698H548V538H496V661H193V381H416V463H461V262H416V344H193V37H505V166H557V0H53V35ZM291 776L380 944L435 916L312 764L291 776Z" />
<glyph unicode="&#xca;" glyph-name="Ecircumflex" horiz-adv-x="617" d="M53 35H132V663H53V698H548V538H496V661H193V381H416V463H461V262H416V344H193V37H505V166H557V0H53V35ZM178 787L303 930H345L470 787L451 774L324 882L197 774L178 787Z" />
<glyph unicode="&#xcb;" glyph-name="Edieresis" horiz-adv-x="617" d="M53 35H132V663H53V698H548V538H496V661H193V381H416V463H461V262H416V344H193V37H505V166H557V0H53V35ZM233 802Q214 802 204 813T194 841V843Q194 859 204 870T233 882Q252 882 262 871T272
843V841Q272 825 262 814T233 802ZM415 802Q396 802 386 813T376 841V843Q376 859 386 870T415 882Q434 882 444 871T454 843V841Q454 825 444 814T415 802Z" />
<glyph unicode="&#xcc;" glyph-name="Igrave" horiz-adv-x="325" d="M53 35H132V663H53V698H272V663H193V35H272V0H53V35ZM52 916L106 944L196 776L174 764L52 916Z" />
<glyph unicode="&#xcd;" glyph-name="Iacute" horiz-adv-x="325" d="M53 35H132V663H53V698H272V663H193V35H272V0H53V35ZM130 776L219 944L274 916L151 764L130 776Z" />
<glyph unicode="&#xce;" glyph-name="Icircumflex" horiz-adv-x="325" d="M53 35H132V663H53V698H272V663H193V35H272V0H53V35ZM17 787L142 930H184L309 787L290 774L163 882L36 774L17 787Z" />
<glyph unicode="&#xcf;" glyph-name="Idieresis" horiz-adv-x="325" d="M53 35H132V663H53V698H272V663H193V35H272V0H53V35ZM72 802Q53 802 43 813T33 841V843Q33 859 43 870T72 882Q91 882 101 871T111 843V841Q111 825 101 814T72 802ZM254 802Q235 802 225
813T215 841V843Q215 859 225 870T254 882Q273 882 283 871T293 843V841Q293 825 283 814T254 802Z" />
<glyph unicode="&#xd0;" glyph-name="Eth" horiz-adv-x="693" d="M53 35H132V331H38V367H132V663H53V698H333Q476 698 556 611T637 349Q637 174 557 87T333 0H53V35ZM193 37H328Q387 37 432 56T507 109T553 192T569 300V398Q569 457 554 505T508 588T432 642T328
661H193V367H344V331H193V37Z" />
<glyph unicode="&#xd1;" glyph-name="Ntilde" horiz-adv-x="763" d="M53 35H132V663H53V698H202L595 96H599V663H520V698H720V663H641V0H588L178 630H174V35H253V0H53V35ZM448 795Q430 795 413 803T374 823Q354 834 336 842T304 850Q287 850 275 843T245 817L230
833Q252 859 271 874T318 890Q336 890 353 882T392 862Q412 851 430 843T462 835Q479 835 491 842T521 868L536 852Q514 826 495 811T448 795Z" />
<glyph unicode="&#xd2;" glyph-name="Ograve" horiz-adv-x="720" d="M360 27Q415 27 458 46T532 102T577 189T593 306V392Q593 456 578 508T532 596T459 651T360 671Q304 671 261 652T188 596T143 508T127 392V306Q127 241 142 190T188 102T261 47T360 27ZM360
-12Q291 -12 235 12T140 82T80 195T59 349Q59 435 80 502T140 616T235 686T360 710Q429 710 485 686T580 616T640 503T661 349Q661 263 640 196T580 82T485 12T360 -12ZM249 916L303 944L393 776L371 764L249 916Z" />
<glyph unicode="&#xd3;" glyph-name="Oacute" horiz-adv-x="720" d="M360 27Q415 27 458 46T532 102T577 189T593 306V392Q593 456 578 508T532 596T459 651T360 671Q304 671 261 652T188 596T143 508T127 392V306Q127 241 142 190T188 102T261 47T360 27ZM360
-12Q291 -12 235 12T140 82T80 195T59 349Q59 435 80 502T140 616T235 686T360 710Q429 710 485 686T580 616T640 503T661 349Q661 263 640 196T580 82T485 12T360 -12ZM327 776L416 944L471 916L348 764L327 776Z" />
<glyph unicode="&#xd4;" glyph-name="Ocircumflex" horiz-adv-x="720" d="M360 27Q415 27 458 46T532 102T577 189T593 306V392Q593 456 578 508T532 596T459 651T360 671Q304 671 261 652T188 596T143 508T127 392V306Q127 241 142 190T188 102T261 47T360 27ZM360
-12Q291 -12 235 12T140 82T80 195T59 349Q59 435 80 502T140 616T235 686T360 710Q429 710 485 686T580 616T640 503T661 349Q661 263 640 196T580 82T485 12T360 -12ZM214 787L339 930H381L506 787L487 774L360 882L233 774L214 787Z" />
<glyph unicode="&#xd5;" glyph-name="Otilde" horiz-adv-x="720" d="M360 27Q415 27 458 46T532 102T577 189T593 306V392Q593 456 578 508T532 596T459 651T360 671Q304 671 261 652T188 596T143 508T127 392V306Q127 241 142 190T188 102T261 47T360 27ZM360
-12Q291 -12 235 12T140 82T80 195T59 349Q59 435 80 502T140 616T235 686T360 710Q429 710 485 686T580 616T640 503T661 349Q661 263 640 196T580 82T485 12T360 -12ZM425 795Q407 795 390 803T351 823Q331 834 313 842T281 850Q264 850 252 843T222 817L207
833Q229 859 248 874T295 890Q313 890 330 882T369 862Q389 851 407 843T439 835Q456 835 468 842T498 868L513 852Q491 826 472 811T425 795Z" />
<glyph unicode="&#xd6;" glyph-name="Odieresis" horiz-adv-x="720" d="M360 27Q415 27 458 46T532 102T577 189T593 306V392Q593 456 578 508T532 596T459 651T360 671Q304 671 261 652T188 596T143 508T127 392V306Q127 241 142 190T188 102T261 47T360 27ZM360
-12Q291 -12 235 12T140 82T80 195T59 349Q59 435 80 502T140 616T235 686T360 710Q429 710 485 686T580 616T640 503T661 349Q661 263 640 196T580 82T485 12T360 -12ZM269 802Q250 802 240 813T230 841V843Q230 859 240 870T269 882Q288 882 298 871T308 843V841Q308
825 298 814T269 802ZM451 802Q432 802 422 813T412 841V843Q412 859 422 870T451 882Q470 882 480 871T490 843V841Q490 825 480 814T451 802Z" />
<glyph unicode="&#xd7;" glyph-name="multiply" horiz-adv-x="600" d="M100 132L273 305L100 478L128 505L300 333L472 505L500 478L327 305L500 132L472 105L300 277L128 105L100 132Z" />
<glyph unicode="&#xd8;" glyph-name="Oslash" horiz-adv-x="720" d="M91 -18L151 70Q106 117 83 187T59 349Q59 435 80 502T140 616T235 686T360 710Q468 710 541 652L599 738L630 717L569 628Q614 581 637 511T661 349Q661 263 640 196T580 82T485 12T360 -12Q252
-12 179 46L121 -39L91 -18ZM516 613Q456 671 360 671Q304 671 261 652T188 596T143 508T127 392V306Q127 186 179 114L516 613ZM360 27Q415 27 458 46T532 102T577 189T593 306V392Q593 513 540 584L204 85Q264 27 360 27Z" />
<glyph unicode="&#xd9;" glyph-name="Ugrave" horiz-adv-x="725" d="M367 -12Q300 -12 254 3T178 51T135 138T122 269V663H43V698H262V663H183V259Q183 199 192 156T223 85T281 44T371 30Q424 30 460 43T519 84T551 155T561 259V663H482V698H682V663H603V277Q603
200 591 146T552 56T479 5T367 -12ZM261 916L315 944L405 776L383 764L261 916Z" />
<glyph unicode="&#xda;" glyph-name="Uacute" horiz-adv-x="725" d="M367 -12Q300 -12 254 3T178 51T135 138T122 269V663H43V698H262V663H183V259Q183 199 192 156T223 85T281 44T371 30Q424 30 460 43T519 84T551 155T561 259V663H482V698H682V663H603V277Q603
200 591 146T552 56T479 5T367 -12ZM339 776L428 944L483 916L360 764L339 776Z" />
<glyph unicode="&#xdb;" glyph-name="Ucircumflex" horiz-adv-x="725" d="M367 -12Q300 -12 254 3T178 51T135 138T122 269V663H43V698H262V663H183V259Q183 199 192 156T223 85T281 44T371 30Q424 30 460 43T519 84T551 155T561 259V663H482V698H682V663H603V277Q603
200 591 146T552 56T479 5T367 -12ZM226 787L351 930H393L518 787L499 774L372 882L245 774L226 787Z" />
<glyph unicode="&#xdc;" glyph-name="Udieresis" horiz-adv-x="725" d="M367 -12Q300 -12 254 3T178 51T135 138T122 269V663H43V698H262V663H183V259Q183 199 192 156T223 85T281 44T371 30Q424 30 460 43T519 84T551 155T561 259V663H482V698H682V663H603V277Q603
200 591 146T552 56T479 5T367 -12ZM281 802Q262 802 252 813T242 841V843Q242 859 252 870T281 882Q300 882 310 871T320 843V841Q320 825 310 814T281 802ZM463 802Q444 802 434 813T424 841V843Q424 859 434 870T463 882Q482 882 492 871T502 843V841Q502 825
492 814T463 802Z" />
<glyph unicode="&#xdd;" glyph-name="Yacute" horiz-adv-x="629" d="M185 35H284V282L75 663H17V698H239V663H144L323 329H327L509 663H414V698H612V663H554L345 286V35H444V0H185V35ZM293 776L382 944L437 916L314 764L293 776Z" />
<glyph unicode="&#xde;" glyph-name="Thorn" horiz-adv-x="610" d="M53 35H132V663H53V698H272V663H193V538H376Q467 538 515 490T564 353Q564 264 515 215T375 165H193V35H272V0H53V35ZM193 202H372Q403 202 426 212T466 240T490 281T499 330V373Q499 399 491
422T466 462T427 490T372 501H193V202Z" />
<glyph unicode="&#xdf;" glyph-name="germandbls" horiz-adv-x="647" d="M435 -12Q366 -12 324 14T282 78Q282 97 292 109T321 121Q338 121 348 111T358 83Q358 56 335 45V42Q355 31 377 27T426 22Q489 22 522 48T556 128Q556 174 531 195T460 228L426 237Q369
252 333 281T297 371Q297 440 346 475T484 513V541Q484 630 446 676T333 723Q259 723 221 678T183 546V0H47V35H125V475H47V512H125V539Q125 589 139 629T181 699T246 744T333 760Q382 760 421 743T486 696T527 625T541 534V479H511Q433 479 393 455T352 379Q352
341 374 322T441 290L474 281Q541 263 576 232T611 141Q611 71 565 30T435 -12Z" />
<glyph unicode="&#xe0;" glyph-name="agrave" horiz-adv-x="532" d="M207 -12Q134 -12 93 25T51 126Q51 163 63 190T102 237T171 265T275 275H364V358Q364 422 331 455T235 489Q199 489 173 483T133 467V465Q144 460 152 450T161 422Q161 402 149 391T117 379Q97
379 85 390T73 424Q73 443 85 461T121 493T178 515T252 524Q331 524 376 483T422 366V32H499V6Q489 -1 471 -5T433 -10Q367 -10 367 56V82H363Q356 65 345 48T314 18T269 -4T207 -12ZM228 28Q286 28 325 59T364 143V245H283Q235 245 203 238T151 218T123 185T114
140V117Q114 76 144 52T228 28ZM398 738L452 766L542 598L520 586L398 738Z" />
<glyph unicode="&#xe1;" glyph-name="aacute" horiz-adv-x="532" d="M207 -12Q134 -12 93 25T51 126Q51 163 63 190T102 237T171 265T275 275H364V358Q364 422 331 455T235 489Q199 489 173 483T133 467V465Q144 460 152 450T161 422Q161 402 149 391T117 379Q97
379 85 390T73 424Q73 443 85 461T121 493T178 515T252 524Q331 524 376 483T422 366V32H499V6Q489 -1 471 -5T433 -10Q367 -10 367 56V82H363Q356 65 345 48T314 18T269 -4T207 -12ZM228 28Q286 28 325 59T364 143V245H283Q235 245 203 238T151 218T123 185T114
140V117Q114 76 144 52T228 28ZM476 598L565 766L620 738L497 586L476 598Z" />
<glyph unicode="&#xe2;" glyph-name="acircumflex" horiz-adv-x="532" d="M207 -12Q134 -12 93 25T51 126Q51 163 63 190T102 237T171 265T275 275H364V358Q364 422 331 455T235 489Q199 489 173 483T133 467V465Q144 460 152 450T161 422Q161 402 149 391T117
379Q97 379 85 390T73 424Q73 443 85 461T121 493T178 515T252 524Q331 524 376 483T422 366V32H499V6Q489 -1 471 -5T433 -10Q367 -10 367 56V82H363Q356 65 345 48T314 18T269 -4T207 -12ZM228 28Q286 28 325 59T364 143V245H283Q235 245 203 238T151 218T123
185T114 140V117Q114 76 144 52T228 28ZM363 612L488 755H530L655 612L636 599L509 707L382 599L363 612Z" />
<glyph unicode="&#xe3;" glyph-name="atilde" horiz-adv-x="532" d="M207 -12Q134 -12 93 25T51 126Q51 163 63 190T102 237T171 265T275 275H364V358Q364 422 331 455T235 489Q199 489 173 483T133 467V465Q144 460 152 450T161 422Q161 402 149 391T117 379Q97
379 85 390T73 424Q73 443 85 461T121 493T178 515T252 524Q331 524 376 483T422 366V32H499V6Q489 -1 471 -5T433 -10Q367 -10 367 56V82H363Q356 65 345 48T314 18T269 -4T207 -12ZM228 28Q286 28 325 59T364 143V245H283Q235 245 203 238T151 218T123 185T114
140V117Q114 76 144 52T228 28ZM574 623Q556 623 539 631T500 651Q480 662 462 670T430 678Q413 678 401 671T371 645L356 661Q378 687 397 702T444 718Q462 718 479 710T518 690Q538 679 556 671T588 663Q605 663 617 670T647 696L662 680Q640 654 621 639T574
623Z" />
<glyph unicode="&#xe4;" glyph-name="adieresis" horiz-adv-x="532" d="M207 -12Q134 -12 93 25T51 126Q51 163 63 190T102 237T171 265T275 275H364V358Q364 422 331 455T235 489Q199 489 173 483T133 467V465Q144 460 152 450T161 422Q161 402 149 391T117 379Q97
379 85 390T73 424Q73 443 85 461T121 493T178 515T252 524Q331 524 376 483T422 366V32H499V6Q489 -1 471 -5T433 -10Q367 -10 367 56V82H363Q356 65 345 48T314 18T269 -4T207 -12ZM228 28Q286 28 325 59T364 143V245H283Q235 245 203 238T151 218T123 185T114
140V117Q114 76 144 52T228 28ZM418 628Q399 628 389 639T379 667V669Q379 685 389 696T418 708Q437 708 447 697T457 669V667Q457 651 447 640T418 628ZM600 628Q581 628 571 639T561 667V669Q561 685 571 696T600 708Q619 708 629 697T639 669V667Q639 651 629
640T600 628Z" />
<glyph unicode="&#xe5;" glyph-name="aring" horiz-adv-x="532" d="M207 -12Q134 -12 93 25T51 126Q51 163 63 190T102 237T171 265T275 275H364V358Q364 422 331 455T235 489Q199 489 173 483T133 467V465Q144 460 152 450T161 422Q161 402 149 391T117 379Q97
379 85 390T73 424Q73 443 85 461T121 493T178 515T252 524Q331 524 376 483T422 366V32H499V6Q489 -1 471 -5T433 -10Q367 -10 367 56V82H363Q356 65 345 48T314 18T269 -4T207 -12ZM228 28Q286 28 325 59T364 143V245H283Q235 245 203 238T151 218T123 185T114
140V117Q114 76 144 52T228 28ZM509 613Q538 613 555 630T572 678V702Q572 733 555 750T509 767Q480 767 463 750T446 702V678Q446 647 463 630T509 613ZM509 586Q463 586 433 615T403 690Q403 735 433 764T509 794Q555 794 585 765T615 690Q615 645 585 616T509
586Z" />
<glyph unicode="&#xe6;" glyph-name="ae" horiz-adv-x="829" d="M206 -12Q134 -12 93 27T51 129Q51 208 102 246T275 285H364V358Q364 422 331 455T233 489Q198 489 173 483T133 467V465Q144 460 152 450T161 422Q161 402 149 391T117 379Q97 379 85 390T73 424Q73
443 85 461T121 493T177 515T251 524Q321 524 359 490T402 404H407Q426 460 471 492T580 524Q628 524 665 506T727 454T766 375T780 275V253H423V235Q423 138 469 86T592 34Q653 34 687 59T742 126L768 110Q758 86 743 64T705 25T653 -2T584 -12Q512 -12 465 22T398
113H393Q378 53 330 21T206 -12ZM228 28Q287 28 325 59T364 143V254H283Q235 254 203 247T151 226T123 192T114 146V117Q114 76 144 52T228 28ZM423 286H719V296Q719 337 711 372T685 433T642 473T580 488Q542 488 513 475T464 437T434 378T423 304V286Z" />
<glyph unicode="&#xe7;" glyph-name="ccedilla" horiz-adv-x="508" d="M290 -204Q257 -204 236 -193T205 -168L221 -151Q231 -162 247 -169T284 -176Q309 -176 324 -165T340 -130Q340 -113 328 -100T279 -83L247 -80L262 -12Q162 -6 107 64T51 256Q51 319 67 369T114
453T187 506T282 524Q318 524 348 516T400 494T434 461T446 420Q446 396 434 383T398 369Q375 369 363 382T351 416Q351 433 360 445T386 466V468Q353 488 288 488Q248 488 216 474T162 435T127 374T115 296V232Q115 187 127 151T161 88T215 48T285 34Q317 34 341
41T384 62T416 93T441 131L466 116Q457 93 442 72T406 32T357 2T292 -12L280 -66L283 -69Q291 -67 300 -66T316 -65Q347 -65 367 -81T388 -127Q388 -164 360 -184T290 -204Z" />
<glyph unicode="&#xe8;" glyph-name="egrave" horiz-adv-x="532" d="M277 -12Q173 -12 112 58T51 256Q51 317 67 367T114 451T185 505T275 524Q323 524 361 506T427 457T468 381T483 284V267H115V235Q115 138 162 86T285 34Q348 34 387 62T448 131L473 116Q463
92 446 69T405 28T349 -1T277 -12ZM115 301H422V307Q422 346 413 379T386 436T340 474T275 488Q238 488 209 475T158 438T126 381T115 308V301ZM420 738L474 766L564 598L542 586L420 738Z" />
<glyph unicode="&#xe9;" glyph-name="eacute" horiz-adv-x="532" d="M277 -12Q173 -12 112 58T51 256Q51 317 67 367T114 451T185 505T275 524Q323 524 361 506T427 457T468 381T483 284V267H115V235Q115 138 162 86T285 34Q348 34 387 62T448 131L473 116Q463
92 446 69T405 28T349 -1T277 -12ZM115 301H422V307Q422 346 413 379T386 436T340 474T275 488Q238 488 209 475T158 438T126 381T115 308V301ZM498 598L587 766L642 738L519 586L498 598Z" />
<glyph unicode="&#xea;" glyph-name="ecircumflex" horiz-adv-x="532" d="M277 -12Q173 -12 112 58T51 256Q51 317 67 367T114 451T185 505T275 524Q323 524 361 506T427 457T468 381T483 284V267H115V235Q115 138 162 86T285 34Q348 34 387 62T448 131L473 116Q463
92 446 69T405 28T349 -1T277 -12ZM115 301H422V307Q422 346 413 379T386 436T340 474T275 488Q238 488 209 475T158 438T126 381T115 308V301ZM385 612L510 755H552L677 612L658 599L531 707L404 599L385 612Z" />
<glyph unicode="&#xeb;" glyph-name="edieresis" horiz-adv-x="532" d="M277 -12Q173 -12 112 58T51 256Q51 317 67 367T114 451T185 505T275 524Q323 524 361 506T427 457T468 381T483 284V267H115V235Q115 138 162 86T285 34Q348 34 387 62T448 131L473 116Q463
92 446 69T405 28T349 -1T277 -12ZM115 301H422V307Q422 346 413 379T386 436T340 474T275 488Q238 488 209 475T158 438T126 381T115 308V301ZM440 628Q421 628 411 639T401 667V669Q401 685 411 696T440 708Q459 708 469 697T479 669V667Q479 651 469 640T440
628ZM622 628Q603 628 593 639T583 667V669Q583 685 593 696T622 708Q641 708 651 697T661 669V667Q661 651 651 640T622 628Z" />
<glyph unicode="&#xec;" glyph-name="igrave" horiz-adv-x="294" d="M46 35H124V464L46 474V500L182 522V35H260V0H46V35ZM43 738L97 766L187 598L165 586L43 738Z" />
<glyph unicode="&#xed;" glyph-name="iacute" horiz-adv-x="294" d="M46 35H124V464L46 474V500L182 522V35H260V0H46V35ZM121 598L210 766L265 738L142 586L121 598Z" />
<glyph unicode="&#xee;" glyph-name="icircumflex" horiz-adv-x="294" d="M46 35H124V464L46 474V500L182 522V35H260V0H46V35ZM8 612L133 755H175L300 612L281 599L154 707L27 599L8 612Z" />
<glyph unicode="&#xef;" glyph-name="idieresis" horiz-adv-x="294" d="M46 35H124V464L46 474V500L182 522V35H260V0H46V35ZM63 628Q44 628 34 639T24 667V669Q24 685 34 696T63 708Q82 708 92 697T102 669V667Q102 651 92 640T63 628ZM245 628Q226 628 216 639T206
667V669Q206 685 216 696T245 708Q264 708 274 697T284 669V667Q284 651 274 640T245 628Z" />
<glyph unicode="&#xf0;" glyph-name="eth" horiz-adv-x="557" d="M276 -12Q224 -12 183 6T112 57T67 139T51 249Q51 310 66 358T110 440T178 492T268 510Q358 510 408 440L412 442Q392 499 360 550T286 643L189 572L167 601L260 669Q237 690 209 711T152 748H217Q233
739 253 724T294 693L385 760L408 731L323 669Q356 638 388 598T445 508T485 397T500 263Q500 126 440 57T276 -12ZM276 25Q348 25 393 73T438 214V284Q438 377 393 425T276 473Q204 473 159 425T114 284V214Q114 121 159 73T276 25Z" />
<glyph unicode="&#xf1;" glyph-name="ntilde" horiz-adv-x="620" d="M46 35H124V464L46 474V500L181 522V432H185Q191 449 203 465T235 495T279 516T336 524Q427 524 467 476T508 331V35H586V0H372V35H450V325Q450 406 417 444T317 482Q291 482 267 475T224 454T194
418T182 367V35H260V0H46V35ZM387 623Q369 623 352 631T313 651Q293 662 275 670T243 678Q226 678 214 671T184 645L169 661Q191 687 210 702T257 718Q275 718 292 710T331 690Q351 679 369 671T401 663Q418 663 430 670T460 696L475 680Q453 654 434 639T387 623Z"
/>
<glyph unicode="&#xf2;" glyph-name="ograve" horiz-adv-x="554" d="M277 25Q317 25 347 39T397 77T428 136T438 213V299Q438 341 428 375T398 434T347 473T277 487Q237 487 207 473T157 435T126 376T116 299V213Q116 171 126 137T156 78T207 39T277 25ZM277 -12Q225
-12 184 6T113 58T67 143T51 256Q51 319 67 368T112 452T183 505T277 524Q329 524 370 506T441 453T487 369T503 256Q503 193 487 143T442 59T371 6T277 -12ZM423 738L477 766L567 598L545 586L423 738Z" />
<glyph unicode="&#xf3;" glyph-name="oacute" horiz-adv-x="554" d="M277 25Q317 25 347 39T397 77T428 136T438 213V299Q438 341 428 375T398 434T347 473T277 487Q237 487 207 473T157 435T126 376T116 299V213Q116 171 126 137T156 78T207 39T277 25ZM277 -12Q225
-12 184 6T113 58T67 143T51 256Q51 319 67 368T112 452T183 505T277 524Q329 524 370 506T441 453T487 369T503 256Q503 193 487 143T442 59T371 6T277 -12ZM501 598L590 766L645 738L522 586L501 598Z" />
<glyph unicode="&#xf4;" glyph-name="ocircumflex" horiz-adv-x="554" d="M277 25Q317 25 347 39T397 77T428 136T438 213V299Q438 341 428 375T398 434T347 473T277 487Q237 487 207 473T157 435T126 376T116 299V213Q116 171 126 137T156 78T207 39T277 25ZM277
-12Q225 -12 184 6T113 58T67 143T51 256Q51 319 67 368T112 452T183 505T277 524Q329 524 370 506T441 453T487 369T503 256Q503 193 487 143T442 59T371 6T277 -12ZM388 612L513 755H555L680 612L661 599L534 707L407 599L388 612Z" />
<glyph unicode="&#xf5;" glyph-name="otilde" horiz-adv-x="554" d="M277 25Q317 25 347 39T397 77T428 136T438 213V299Q438 341 428 375T398 434T347 473T277 487Q237 487 207 473T157 435T126 376T116 299V213Q116 171 126 137T156 78T207 39T277 25ZM277 -12Q225
-12 184 6T113 58T67 143T51 256Q51 319 67 368T112 452T183 505T277 524Q329 524 370 506T441 453T487 369T503 256Q503 193 487 143T442 59T371 6T277 -12ZM599 623Q581 623 564 631T525 651Q505 662 487 670T455 678Q438 678 426 671T396 645L381 661Q403 687
422 702T469 718Q487 718 504 710T543 690Q563 679 581 671T613 663Q630 663 642 670T672 696L687 680Q665 654 646 639T599 623Z" />
<glyph unicode="&#xf6;" glyph-name="odieresis" horiz-adv-x="554" d="M277 25Q317 25 347 39T397 77T428 136T438 213V299Q438 341 428 375T398 434T347 473T277 487Q237 487 207 473T157 435T126 376T116 299V213Q116 171 126 137T156 78T207 39T277 25ZM277
-12Q225 -12 184 6T113 58T67 143T51 256Q51 319 67 368T112 452T183 505T277 524Q329 524 370 506T441 453T487 369T503 256Q503 193 487 143T442 59T371 6T277 -12ZM443 628Q424 628 414 639T404 667V669Q404 685 414 696T443 708Q462 708 472 697T482 669V667Q482
651 472 640T443 628ZM625 628Q606 628 596 639T586 667V669Q586 685 596 696T625 708Q644 708 654 697T664 669V667Q664 651 654 640T625 628Z" />
<glyph unicode="&#xf7;" glyph-name="divide" horiz-adv-x="600" d="M301 71Q277 71 264 84T251 117V123Q251 142 264 155T301 169Q325 169 338 156T351 123V117Q351 98 338 85T301 71ZM301 441Q277 441 264 454T251 487V493Q251 512 264 525T301 539Q325 539
338 526T351 493V487Q351 468 338 455T301 441ZM64 324H536V286H64V324Z" />
<glyph unicode="&#xf8;" glyph-name="oslash" horiz-adv-x="554" d="M44 -14L106 66Q80 101 66 148T51 256Q51 319 67 368T112 452T183 505T277 524Q366 524 424 471L483 547L510 526L448 445Q474 411 488 364T503 256Q503 193 487 143T442 59T371 6T277 -12Q188
-12 130 41L71 -34L44 -14ZM397 436Q377 460 347 473T277 487Q237 487 207 473T157 435T126 376T116 299V213Q116 152 138 105L397 436ZM277 25Q317 25 347 39T397 77T428 136T438 213V299Q438 363 416 407L157 76Q177 52 207 39T277 25Z" />
<glyph unicode="&#xf9;" glyph-name="ugrave" horiz-adv-x="602" d="M278 -12Q188 -12 147 36T106 182V464L28 474V500L164 522V188Q164 107 197 69T298 30Q323 30 347 37T390 58T420 94T432 145V464L354 474V500L490 522V48L568 38V12L434 -10V80H430Q424 63
412 47T380 17T336 -4T278 -12ZM432 738L486 766L576 598L554 586L432 738Z" />
<glyph unicode="&#xfa;" glyph-name="uacute" horiz-adv-x="602" d="M278 -12Q188 -12 147 36T106 182V464L28 474V500L164 522V188Q164 107 197 69T298 30Q323 30 347 37T390 58T420 94T432 145V464L354 474V500L490 522V48L568 38V12L434 -10V80H430Q424 63
412 47T380 17T336 -4T278 -12ZM510 598L599 766L654 738L531 586L510 598Z" />
<glyph unicode="&#xfb;" glyph-name="ucircumflex" horiz-adv-x="602" d="M278 -12Q188 -12 147 36T106 182V464L28 474V500L164 522V188Q164 107 197 69T298 30Q323 30 347 37T390 58T420 94T432 145V464L354 474V500L490 522V48L568 38V12L434 -10V80H430Q424
63 412 47T380 17T336 -4T278 -12ZM397 612L522 755H564L689 612L670 599L543 707L416 599L397 612Z" />
<glyph unicode="&#xfc;" glyph-name="udieresis" horiz-adv-x="602" d="M278 -12Q188 -12 147 36T106 182V464L28 474V500L164 522V188Q164 107 197 69T298 30Q323 30 347 37T390 58T420 94T432 145V464L354 474V500L490 522V48L568 38V12L434 -10V80H430Q424
63 412 47T380 17T336 -4T278 -12ZM452 628Q433 628 423 639T413 667V669Q413 685 423 696T452 708Q471 708 481 697T491 669V667Q491 651 481 640T452 628ZM634 628Q615 628 605 639T595 667V669Q595 685 605 696T634 708Q653 708 663 697T673 669V667Q673 651
663 640T634 628Z" />
<glyph unicode="&#xfd;" glyph-name="yacute" horiz-adv-x="525" d="M117 -212Q72 -212 52 -193T32 -146Q32 -125 43 -113T75 -100Q93 -100 103 -111T114 -141Q114 -155 107 -164T89 -177V-179Q100 -183 118 -183Q150 -183 175 -158T222 -76L245 -14L57 477H6V512H205V477H120L272
65H276L425 477H340V512H519V477H468L255 -82Q232 -143 199 -177T117 -212ZM496 598L585 766L640 738L517 586L496 598Z" />
<glyph unicode="&#xfe;" glyph-name="thorn" horiz-adv-x="585" d="M23 -165H101V700L23 710V736L159 758V431H163Q180 469 218 496T320 524Q418 524 474 456T531 256Q531 124 475 56T320 -12Q257 -12 219 15T163 80H159V-165H257V-200H23V-165ZM305 30Q383 30
425 81T468 221V291Q468 379 426 430T305 482Q277 482 251 474T205 451T172 415T159 367V145Q159 118 171 97T204 61T251 38T305 30Z" />
<glyph unicode="&#xff;" glyph-name="ydieresis" horiz-adv-x="525" d="M117 -212Q72 -212 52 -193T32 -146Q32 -125 43 -113T75 -100Q93 -100 103 -111T114 -141Q114 -155 107 -164T89 -177V-179Q100 -183 118 -183Q150 -183 175 -158T222 -76L245 -14L57 477H6V512H205V477H120L272
65H276L425 477H340V512H519V477H468L255 -82Q232 -143 199 -177T117 -212ZM438 628Q419 628 409 639T399 667V669Q399 685 409 696T438 708Q457 708 467 697T477 669V667Q477 651 467 640T438 628ZM620 628Q601 628 591 639T581 667V669Q581 685 591 696T620 708Q639
708 649 697T659 669V667Q659 651 649 640T620 628Z" />
<glyph unicode="&#x2013;" glyph-name="endash" horiz-adv-x="586" d="M33 324H553V284H33V324Z" />
<glyph unicode="&#x2014;" glyph-name="emdash" horiz-adv-x="781" d="M33 324H748V284H33V324Z" />
<glyph unicode="&#x2018;" glyph-name="quoteleft" horiz-adv-x="254" d="M127 518Q104 518 91 532T78 568V575Q78 620 104 668T171 748H208Q138 682 127 617H130Q152 617 164 604T176 570V566Q176 546 163 532T127 518Z" />
<glyph unicode="&#x2019;" glyph-name="quoteright" horiz-adv-x="254" d="M46 518Q116 584 127 649H124Q102 649 90 662T78 696V700Q78 720 91 734T127 748Q150 748 163 734T176 698V691Q176 646 150 598T83 518H46V518Z" />
<glyph unicode="&#x201a;" glyph-name="quotesinglbase" horiz-adv-x="254" d="M46 -127Q116 -61 127 4H124Q102 4 90 17T78 51V55Q78 75 91 89T127 103Q150 103 163 89T176 53V46Q176 1 150 -47T83 -127H46V-127Z" />
<glyph unicode="&#x201c;" glyph-name="quotedblleft" horiz-adv-x="435" d="M127 518Q104 518 91 532T78 568V575Q78 620 104 668T171 748H208Q138 682 127 617H130Q152 617 164 604T176 570V566Q176 546 163 532T127 518ZM308 518Q285 518 272 532T259 568V575Q259
620 285 668T352 748H389Q319 682 308 617H311Q333 617 345 604T357 570V566Q357 546 344 532T308 518Z" />
<glyph unicode="&#x201d;" glyph-name="quotedblright" horiz-adv-x="435" d="M46 518Q116 584 127 649H124Q102 649 90 662T78 696V700Q78 720 91 734T127 748Q150 748 163 734T176 698V691Q176 646 150 598T83 518H46V518ZM227 518Q297 584 308 649H305Q283
649 271 662T259 696V700Q259 720 272 734T308 748Q331 748 344 734T357 698V691Q357 646 331 598T264 518H227V518Z" />
<glyph unicode="&#x201e;" glyph-name="quotedblbase" horiz-adv-x="435" d="M46 -127Q116 -61 127 4H124Q102 4 90 17T78 51V55Q78 75 91 89T127 103Q150 103 163 89T176 53V46Q176 1 150 -47T83 -127H46V-127ZM227 -127Q297 -61 308 4H305Q283 4 271 17T259
51V55Q259 75 272 89T308 103Q331 103 344 89T357 53V46Q357 1 331 -47T264 -127H227V-127Z" />
<glyph unicode="&#x2022;" glyph-name="bullet" horiz-adv-x="382" d="M191 198Q143 198 115 226T86 300V308Q86 353 114 381T191 410Q239 410 267 382T296 308V300Q296 255 268 227T191 198Z" />
<glyph unicode="&#x2039;" glyph-name="guilsinglleft" horiz-adv-x="304" d="M35 272V306L230 485L246 463L96 289L246 115L230 93L35 272Z" />
<glyph unicode="&#x203a;" glyph-name="guilsinglright" horiz-adv-x="304" d="M58 115L208 289L58 463L74 485L269 306V272L74 93L58 115Z" />
</font>
</defs>
</svg>
