<svg xmlns="http://www.w3.org/2000/svg" viewBox="0 0 750 750">
  <defs>
    <filter id="c" color-interpolation-filters="sRGB">
      <feTurbulence numOctaves="5" type="fractalNoise" baseFrequency=".02" result="result1"/>
      <feComposite operator="in" result="result2" in2="result1" in="SourceGraphic"/>
      <feColorMatrix result="result3" values="1 0 0 0 0 0 1 0 0 0 0 0 1 0 0 0 0 0 3 -1" in="result2"/>
    </filter>
    <filter id="a" color-interpolation-filters="sRGB">
      <feGaussianBlur stdDeviation="3.15"/>
    </filter>
    <radialGradient id="b" gradientUnits="userSpaceOnUse" cy="-943.97" cx="5024.7" gradientTransform="matrix(1.3076 0 0 1.269 -1545.7 253.96)" r="302.33">
      <stop stop-color="#f60" offset="0"/>
      <stop stop-color="#ffc107" offset="1"/>
    </radialGradient>
  </defs>
  <path filter="url(#a)" fill="#a40" d="M397.33 51.74c-4.69 4.94-7.26 12.28-8.75 18-4.21-2.66-8.21 2.28-10.16 5-4.15-6.9-10.95-11.47-17.25-16.28-3.8 6.37.9 12.88 1.47 19.03-1.4 1.97-4.32 4.18-5.28.78-2.9-6.8 2.01-16.9-4.53-22.06-4.55-.12-6.18 5.9-8.03 9.19-1.8 4.06-.85 9.8-3.69 13.06-2.16-4.94-5-10.6-9.25-14.6-5.28 4.62-3.14 12.04-4.37 17.82-3.02-.06-4.57 3.45-6.53 4.28-4.08 1.07-1.96-3.93-3.63-6.06-.88-4.7-7.5-6.73-9.78-1.94-1.43 2.74-1.3 6.02-2.5 8.78-4.95-6.74-11.19-13.34-19.66-15.22-2.56 7.3 4.86 13.05 3.69 20.04-1.38 3.92-5.61.37-6.56-2.16-4.38-7.7-5.76-17.47-13.66-22.75-3.45 7.12-2.68 15.87-1.81 22.9-5.13-.76-6.5 5.88-7.34 8.85-6.7-4.69-14.96-5.86-22.82-7.81-.26 7.28 6.2 11.38 9.72 16.75-.2 3.18-3.6 6.29-5.47 2-4.34-6.28-5.52-15.14-12.93-19.03-4.76 8.14-2.33 17.73-.47 26.18-1.67 1.65-3.76-3.46-5.88-3.97-2.78-2.22-5.97-3.66-9.28-5-2.56 6.52 2.44 12.23 3.6 18.13a9.13 9.13 0 0 0-3.82 6.62c-2.35 1.25-3.95.26-4.69-2.25a15.45 15.45 0 0 0-10.5-6.71c-2.32 5 .8 11.59.1 15.75-7.22-3.96-15.5-7.2-23.9-5.41 1.1 7.21 8.84 9.6 11.56 15.62 1.34 3.22-2.27 5.1-4.57 2.85-8.53-4.52-13.56-14.7-23.87-16.38-.29 7.9 4.39 15.83 7.56 21.72-4.34 1.91-3.64 7.7-2.84 11.06-8.04-1.6-16.25.51-24 2.6 2.64 6.77 10.52 7.31 15.6 10.97.63 2.39-.28 6.8-3.45 4.34-7.15-3.77-11.76-12.17-20.65-12.47-.86 9.47 5.75 17.01 10.4 24.25-1.62 1.04-5.44-1.7-8.12-1.75-2.78-.24-8.66-1.8-9.4.33.74 6.52 7.4 9.48 10.68 14.23-1.61 2.39-.87 5.75-1.31 7.88-2.17 3.73-5.06-2-7.94-2.03-7.07-3.05-9.7 6.89-4.34 10.6 3.48 3.26 1.9 4.38-2.44 3.36-6.98-.5-14.24.73-19.9 5.07 4.16 6.17 13.14 4.7 17.5 10.25 1.32 2.22 0 4-2.5 3.56-10.07.28-18.88-8.22-29.23-5.1 2.95 7.35 9.39 12.48 15.72 16.48-4.34 3.12-.22 8.93 1.66 11.47-7.84 1.8-14.34 7-20.63 11.8 5 5.36 12.37 2.65 18.53 4.04 1.64 2.25 2.44 6.48-1.78 5.31-7.84-.63-15.32-6.24-23.47-3.15 2.82 9.27 12.25 13.34 19.41 18.3-2.76 1.23-8.44.85-12 2.73-3.85 1.05-6.16 3.01-2.1 5.72 3.59 3.34 9.1 3.3 13 5.71-.48 2.86 1.04 5.97 2.2 7.85-1.65 4.2-7.1.25-10.48 1.65-3.29.6-7.83 3.4-3.84 6.32 2.74 3.13 6.8 4.5 9.88 7.22-8.05 2.75-16.22 6.85-20.6 14.5 6.36 3.86 14.03-.99 20.31 2.18 3.74 2.9-1.6 5.15-4.18 5.66-8.43 1.72-18.13-.13-25.35 5.78 5.72 5.56 13.73 7.82 21.28 8.75-2.78 4.6 3.43 8.18 5.75 9.9-6.52 4.97-10.4 12.54-14.34 19.6 6.92 2.24 12.57-2.85 18.81-4.4 1.9.99 5.21 4.35 1.31 5.34-7.4 3.1-16.74.56-23.06 6.72 5.95 7.54 16.34 7.48 24.72 8.97-.78 1.94-5.54 3.23-7.44 5.43-2.04 2.31-8.93 5.79-3.18 7.32 4.86 2.87 10.7-.17 15.56.87.5 2.9 3.64 4.55 5 6.25 1.13 4.06-4.72 2.5-6.75 4.44a14.38 14.38 0 0 0-6.44 6.5c4.36 3.6 10.2 3.16 15.35 4.65-6.02 5.7-11.83 12.48-12.75 21.07 7.42 1.68 12.35-6.3 19.4-5.75 4.32 1.01.86 5.23-1.28 6.62-7.12 5.2-16.91 7.47-21.03 16.1 7.42 2.45 15.62 1.23 22.75-.82-.53 5.34 6.86 5.85 9.4 6.69-3.72 7.09-4.43 15.3-5.06 23.22 7.27-.38 10.42-7.4 15.47-11.31 2.25.05 6.38 2.07 3.32 4.4-5.6 5.8-15.16 7.4-18.2 15.72 8.54 4.3 17.84-.14 26.07-2.12.87 1.63-2.99 3.97-3.53 6.1-1.8 2.9-3.1 6.1-4.16 9.37 6.75 2.18 12.3-3.33 18-5.07 1.59 2.23 5.03 3.1 6.85 3.44 2.5 3.92-3.7 4.95-4.94 8.16-3.11 4.5 2.28 9.12 6.78 7.28 2.32-.48 4.44-1.77 6.75-2-3.37 7.8-6.14 16.59-3.16 25.03 7.06-2.15 8.72-10.77 15.07-13.5 3.29-.88 3.78 2.38 2.53 4.6-3.54 9-13.57 14.75-13.35 25.34 7.86-.56 14.84-5.94 20.4-9.9 1.88 4.68 8.29 2.66 11.29 1.77-.76 8.16 2.27 15.92 4.84 23.56 6.22-3.43 6.67-10.86 9.38-16.53 2.47-1.17 7.07-.45 4.72 3.2-3.14 7.18-10.54 12.48-10.16 21.05 9.64.61 16.37-7.34 23.22-12.44.87 1.71-1.35 5.73-1.1 8.29a49.1 49.1 0 0 0 .07 9.75c7.07-1.19 9.7-8.53 14.31-12.57 2.4.99 5.34 1.19 7.63.07 2.52 1.23 2.3 2.89.6 4.78-2.09 3.87-2.64 8.63-.67 12.69 5.4-.47 9.64-6.48 13.5-7.91.15 8.38 1.65 17.2 7.5 23.6 5.59-4.88 3.5-13.38 8.04-18.48 2.27-1.98 4.55-.04 4.21 2.7.62 9.76-6.1 19.29-1.93 29.02 6.9-3.75 11.22-11.35 14.75-17.34 3.71 3.41 8.57-.88 11.03-3 2.63 7.69 8.51 13.52 13.93 19.4 4.58-5.68 1.35-12.77 2.07-19.09 1.68-1.57 6.03-2.89 5.43 1 .15 8.03-4.45 16.15-.59 24 8.83-3.78 11.88-13.64 16.03-21.15 1.5 1.91 1.5 6.82 3.19 9.68 1.45 2.52 2.98 9.17 5.84 4.35 4.11-3.76 2.84-10.07 5.32-14.53 3.01.65 5.35-2.34 7.56-2.79 4.3.05.9 5.2 2.19 7.66.23 3.06 1.87 5.77 3.9 8 4.92-2.9 6.48-8.5 9.4-13 3.52 7.48 8.1 15.07 15.79 18.88 4.22-6.36-1.24-13.38.56-19.94 1.19-2.97 4.3-2.15 5.03.6 4.56 8.5 2.31 19.84 9.6 27.3 5.07-6.09 6.2-14.8 6.78-21.87 4.69 1.74 7.57-4.07 8.87-7.25 5.59 6.05 13.33 9.14 20.82 12.03 1.9-6.98-3.92-11.96-6-17.88.85-1.96 3.89-5.66 5.18-1.8 3.82 7.16 2.31 16.62 9.28 22.18 6.82-6.75 5.37-16.95 6.2-25.47 1.67-.2 2.93 4.08 4.74 5.28a37.7 37.7 0 0 0 8.06 6.63c3.48-5.88.33-12.31.07-18.28a10.68 10.68 0 0 0 5.18-5.5c2.46-1.03 3.68.04 3.97 2.68.8 4.71 7.5 9.21 10.56 3.85 1.83-3.26.62-7.15 1.22-10.66 6.37 5.47 13.8 10.85 22.63 10.69.48-7.43-7.1-11.63-8.06-18.44.06-3.68 3.89-3.09 5.53-.75 7.11 6.25 10.13 16.88 19.53 20.81 2-7.83-.83-16.46-3.06-23.22 5.25-.13 4.72-7.68 5.62-9.9 7.5 3.05 15.8 2.56 23.75 2.6-1.54-6.98-8.52-9.7-13.1-14.2-.23-2.51 1.68-6.86 4.38-3.56 5.98 5.16 8.75 13.89 17 16.4 3.54-8.98-1.74-17.92-4.72-26 1.87-.58 5.09 3.05 7.69 3.54 2.7.75 7.88 3.5 9.17 1.56.96-6.64-5.65-10.79-7.45-16.19 2.19-1.83 1.98-5.24 2.62-7.3 2.92-3.12 4.1 1.63 6.41 2.74a15.33 15.33 0 0 0 9.81 3.25c1.16-5.65-2.28-10.57-3.56-15.81 7.96 2.46 16.9 3.95 24.97.69-2.47-7.12-11.23-7.77-14.88-13.63-1.54-3.1 1.87-4.66 4.35-3.19 9.24 2.77 16.23 11.8 26.62 10.85-1.73-7.71-7.3-14.27-12.15-19.5 4.62-2.3 1.82-8.53.72-11.4 8.1-.13 15.5-3.83 22.68-7.23-3.92-6.13-11.5-5.22-17.3-7.78-.69-1.97-1.77-6.39 1.96-5.03 7.98 1.76 14.07 9.62 23.03 8.03-.9-9.54-9.14-15.54-14.97-21.81 1.38-1.07 5.32.63 7.63.16 3.33.05 6.6-.58 9.78-1.54-1.8-6.67-9.01-8.44-13.5-12.4 1.22-2.57.04-5.8-.35-7.9 1.22-4.3 5.23.8 7.97.18 5.31 1.57 9.16-5.4 4.78-8.94-1.68-1.95-4.03-3.23-5.56-5.25 8.4-.99 17.25-3.2 22.94-9.87-5.1-5.13-12.83-2.27-18.44-5.81-2.34-1.53-1.75-4.76 1.25-4.7 9.69-2.13 20.1 4.15 29.5-1.18-4.45-6.6-12.36-10.17-18.94-12.9 3.17-3.98-1.5-8.44-3.96-10.66 7.46-3.43 12.62-9.91 18.21-15.72-6.1-4.08-12.93-.38-19.4-.19-1.53-1.41-3.81-5.27-.1-5.44 7.76-1.5 16.24 2.88 23.6-1.71-3.05-7.67-11.38-10.13-18.25-12.7-.85-2.08-1-3.16 1.56-3.74 4.53-2.37 8.6-5.56 12.72-8.63-4.95-2.96-11.57-.46-16.16-2.69.64-4.02-4.41-5.68-2.96-9.56 1.21-.75 4.93-.15 6.28-2.37 3.5-3.31.5-8.57-3.7-9.32-1.77-.73-5.76-2.23-2.15-4 4.87-4.5 9.37-10.04 9.97-16.96-5.3-2.54-9.81 2.3-14.62 2.9-3.85-2.76.25-8.32 4.22-8.44 6.26-2.1 12.91-4.2 17.18-9.65-5.72-3.7-13.24-4.16-19.4-4 .63-4.68-4.52-7.14-7.88-8.16 4.87-6.27 6.68-14.2 9.1-21.65-6.94-1.48-11.39 4.38-16.57 7.56-2.61-.77-5.96-3.94-1.84-5.47 6.7-3.88 15.85-3.93 20.44-11.12-7.71-5.53-17.7-3.72-26.28-3.32.34-1.94 4.38-3.86 5.72-6.1 2.25-2.43 3.87-5.32 5.53-8.18-6.45-3.03-12.69 1.44-18.85 2.1-.96-2.87-4.44-3.85-6.22-5.1-1.95-4.06 4.36-3.29 5.88-5.94 2.43-1.8 3.9-4.56 4.78-7.4-4.99-2.76-10.68-1.13-16.03-1.47 4.7-6.79 9.12-14.87 7.94-23.56-7.49.34-10.58 8.9-17.5 9.97-4.58.15-2.06-5.15-.06-6.88 5.8-6.63 14.84-10.91 17.37-20.1-7.86-1.24-16.08 2.55-22.34 5.35-.76-5-7.31-4.44-10.75-4.03 2.46-7.82 1.01-16.25.43-24.31-6.83 2.3-8.9 9.36-12.9 14.43-2.56.54-6.9-.85-3.94-3.93 4.36-6.7 13.01-10.23 14.6-18.78-9.34-2.34-17.73 3.68-25.41 7.46-.77-1.76 2.37-5.37 2.62-8.03.47-2.73 2.58-8.24.58-9.27-6.6-.11-10.15 6.74-15.2 9.15-2.03-1.86-5.23-1.46-7.4-1.6-2.8-1.86-1-3.64.87-5.5 3.48-2.98 3.4-10.54-2.28-10.46-3.93.03-6.66 3.3-10.1 4.4 1.82-8.18 2.64-17.23-2.03-24.62-6.88 2.97-6.21 12.27-12.12 15.87-3.74 1.79-4.06-3.7-2.91-6.03 2.66-8.41 9.52-15.93 7.47-25.37-7.51 2.04-13.3 9.08-17.97 13.65-2.76-4.05-8.24-1.27-11.31.84-.93-8.2-5.43-15.26-9.57-22.21-5.52 4.63-4.18 12.05-5.87 18.18-1.8.94-6.19 2.34-5.22-1.4.85-8.23 7.98-15.1 5.66-23.85-9.5 1.75-14.6 10.73-20.13 17.32-1.3-2-.02-6.92-1.1-10-.83-2.77-.7-9.43-4.55-5.57-4.98 2.72-5.33 9.04-8.5 13.07-2.57-.34-5.63-.4-7.54 1.59-2.61-.76-3.2-2.44-1.53-4.78 1.2-4.21.85-8.93-1.68-12.6-5.4 1.7-8.23 8.16-11.97 10.85-1.83-8.11-5-16.52-12.13-21.4-4.65 5.76-.6 13.72-4.22 19.59-2.18 2.88-4.75-.08-4.87-2.75-1.98-9.38 2.1-19.87-3.94-28.35l-1.97 2.75z" transform="translate(2.34 10.62)"/>
  <path transform="translate(-4649.66 1319.02)" fill="url(#b)" d="M5305.9-942.95a498.98 498.98 0 0 1 21.12 7.03c-7.04-1.7-12.2-1.63-15.7-.23s-5.34 4.15-5.82 8.14c1.91 1.88 2.58 4.94 4.37 6.96a5.77 5.77 0 0 0 3.85 1.98c1.77.21 4.15-.12 7.42-1.35-2.35 1.56-4.19 3.4-6.63 4.84-2.44 1.44-5.48 2.48-10.2 2.47 1.08 1.5 1.83 2.96 3.08 4.55a25.53 25.53 0 0 0 6.15 5.37c-2.65-1.6-4.85-1.77-6.68-.85s-3.3 2.93-4.54 5.75c8 2.86 15.98 5.85 23.9 8.98-8.32-2.1-14.37-2.31-18.64-1.22-4.26 1.1-6.75 3.51-8.03 6.93 1.06 2.75 1.79 5.72 3.7 7.91.96 1.1 2.22 2 3.97 2.59 1.75.57 4 .83 6.93.58-6.05 1.3-12.1 2.45-18.14 3.43.34 2.07.35 4.14 1.16 6.25.8 2.11 2.4 4.27 5.9 6.57-2.8-1.4-5.22-2.04-7.13-1.83-1.92.2-3.35 1.26-4.25 3.31-.56 1.38-2.62 2.24-3.6 3.45-.97 1.21-.86 2.78 2.85 5.73-1.64 2.74-1.41 4.84-.07 6.62 1.34 1.78 3.78 3.23 6.54 4.6-4.97-.6-12.26-2.54-14.5-.29-.22.22-.4.47-.5.77-.09.58 2.23 2.06 3.33 3.24s.97 2.08-3.92 1.35a493.9 493.9 0 0 1 16.42 15.03c-5.73-4.42-10.48-6.47-14.24-6.61-3.77-.15-6.57 1.61-8.63 5.05.98 2.5.34 5.56 1.14 8.14a5.77 5.77 0 0 0 2.71 3.38c1.54.91 3.84 1.58 7.33 1.79-2.78.47-5.21 1.4-8.03 1.72-2.82.32-6.02.02-10.32-1.92.37 1.82.46 3.45.96 5.41s1.42 4.25 3.41 7.42c-1.75-2.55-3.7-3.6-5.74-3.5s-4.2 1.32-6.5 3.39a787.05 787.05 0 0 1 18.16 17.96c-6.74-5.31-12.18-7.98-16.52-8.73-4.34-.74-7.6.45-10.16 3.05-.16 2.94-.7 5.95.15 8.74.42 1.39 1.2 2.73 2.56 3.97s3.31 2.4 6.1 3.37a374.44 374.44 0 0 1-17.97-4.28c-.54 2.03-1.37 3.92-1.5 6.18s.45 4.88 2.7 8.4c-1.98-2.41-3.92-3.98-5.75-4.57-1.84-.6-3.58-.21-5.23 1.3-1.08 1.02-3.3.97-4.7 1.68-1.38.71-1.92 2.2.27 6.4a6.9 6.9 0 0 0-2.56 2.9c-1.26 3 .96 6.43 3.9 9.98-2.35-1.4-5.18-3.46-7.75-4.85-2.56-1.38-4.85-2.1-6.16-.81-.3.5 1.2 2.8 1.73 4.32.52 1.52.05 2.3-4.13-.36a501.01 501.01 0 0 1 8.91 20.4c-3.45-6.36-6.95-10.16-10.34-11.83-3.38-1.66-6.65-1.18-9.94 1.13-.11 2.68-1.94 5.22-2.25 7.9-.16 1.35.07 2.73 1.1 4.19s2.88 3 5.98 4.6c-2.74-.69-5.33-.83-8.04-1.68-2.7-.85-5.51-2.4-8.66-5.93-.4 1.82-.98 3.35-1.31 5.34s-.42 4.46.11 8.17c-.57-3.05-1.92-4.8-3.83-5.54-1.9-.74-4.38-.49-7.3.48a784.89 784.89 0 0 1 9.31 23.77c-4-7.59-7.9-12.23-11.57-14.67-3.66-2.44-7.12-2.67-10.51-1.33-1.34 2.62-3.06 5.15-3.41 8.05-.35 2.89.64 6.18 4.94 10.22a370.9 370.9 0 0 1-14.7-11.2c-1.3 1.64-2.83 3.04-3.86 5.05-1.03 2-1.57 4.64-.94 8.77-.84-3.01-1.97-5.23-3.4-6.52-1.44-1.29-3.18-1.64-5.3-.94-1.09.39-2.54-.1-3.85-.3-2.1-.31-3.84.07-3.48 5.89-3.14.6-4.54 2.17-4.97 4.36-.43 2.19.12 4.98.95 7.94-1.57-2.24-3.32-5.27-5.1-7.58s-3.57-3.9-5.3-3.25c-.48.33-.03 3.04-.18 4.65-.14 1.6-.88 2.11-3.61-2.01.1 7.4.04 14.81-.19 22.25-.55-7.21-2.2-12.11-4.62-15-2.4-2.9-5.59-3.8-9.53-3.04-1.2 2.4-3.9 3.97-5.28 6.3-.69 1.16-1.04 2.52-.7 4.27s1.4 3.91 3.57 6.64c-2.2-1.75-4.52-2.93-6.64-4.81-2.13-1.88-4.05-4.46-5.49-8.95-1.1 1.5-2.25 2.65-3.37 4.33-1.12 1.69-2.2 3.9-3.23 7.5.72-3.01.2-5.15-1.24-6.61s-3.8-2.24-6.87-2.55c-.26 8.5-.66 17-1.2 25.5-.56-8.56-2.22-14.39-4.57-18.11-2.35-3.72-5.41-5.35-9.06-5.51-2.3 1.85-4.9 3.46-6.4 5.95-1.5 2.5-1.93 5.91.34 11.35a373.2 373.2 0 0 1-8.84-16.21c-1.87.96-3.83 1.6-5.6 3.02s-3.32 3.6-4.43 7.64c.78-5.19-.08-8.66-2.98-9.9a6.28 6.28 0 0 0-1.94-.46c-1.48-.12-2.93-1.81-4.38-2.36-1.46-.56-2.92.03-4.59 4.47-3.11-.72-5.03.15-6.31 1.97-1.29 1.83-1.91 4.6-2.36 7.65-.53-2.7-.9-6.17-1.58-9s-1.69-5.02-3.53-5.13c-.57.1-1.26 2.77-2.05 4.18-.78 1.4-1.67 1.57-2.5-3.3a502.3 502.3 0 0 1-9.18 20.27c2.41-6.82 2.89-11.97 1.86-15.6-1.03-3.63-3.58-5.74-7.5-6.63-2.06 1.71-5.18 2.05-7.37 3.62-1.1.78-1.98 1.88-2.37 3.62s-.31 4.15.57 7.52c-1.3-2.5-2.94-4.51-4.12-7.1s-1.9-5.7-1.4-10.4c-1.61.92-3.13 1.52-4.84 2.6s-3.6 2.67-5.99 5.55c1.88-2.46 2.27-4.63 1.55-6.55-.72-1.91-2.57-3.58-5.24-5.1a779.55 779.55 0 0 1-11.43 22.83c2.95-8.06 3.8-14.06 3.16-18.42-.64-4.35-2.78-7.07-6.05-8.7-2.84.76-5.87 1.17-8.26 2.84a8.8 8.8 0 0 0-2.98 3.68 17.48 17.48 0 0 0-1.31 6.83 359.91 359.91 0 0 1-1.5-18.4c-2.9.16-5.74-.3-8.97 1.59a17.3 17.3 0 0 0-4.52 4.06c1.69-2.63 2.59-4.96 2.58-6.89 0-1.93-.9-3.46-2.85-4.57-1.3-.7-1.93-2.85-3.04-3.94s-2.67-1.16-6 2.22c-2.55-1.93-4.66-1.92-6.57-.78-1.92 1.14-3.62 3.42-5.27 6.02.61-2.67 1.7-6 2.22-8.87s.51-5.26-1.12-6.1c-.57-.15-2.29 2-3.58 2.96-1.29.97-2.17.76-.93-4.03a500.22 500.22 0 0 1-16.66 14.75c4.99-5.24 7.52-9.74 8.07-13.47.54-3.74-.92-6.7-4.14-9.11-2.58.71-5.56-.25-8.2.28-1.33.27-2.58.91-3.65 2.35s-1.97 3.65-2.55 7.1c-.17-2.82-.84-5.33-.87-8.17-.02-2.83.6-5.99 2.98-10.06-1.85.18-3.48.1-5.48.4-2 .29-4.37.96-7.74 2.61 2.72-1.48 3.97-3.3 4.1-5.34.11-2.05-.9-4.32-2.71-6.81a785.98 785.98 0 0 1-19.76 16.18c6-6.15 9.21-11.28 10.4-15.52 1.2-4.24.35-7.6-1.97-10.42-2.9-.46-5.84-1.32-8.7-.76-2.86.55-5.69 2.52-8.2 7.84a371.11 371.11 0 0 1 6.12-17.42c-1.96-.74-3.76-1.77-5.99-2.13-2.23-.36-4.9-.07-8.64 1.81 2.61-1.73 4.38-3.48 5.16-5.25.78-1.76.58-3.53-.75-5.34-.9-1.17-.62-3.39-1.18-4.84-.57-1.45-1.98-2.14-6.4-.4-1.54-2.8-3.47-3.65-5.69-3.38-2.2.26-4.7 1.66-7.25 3.36 1.64-2.2 3.98-4.8 5.63-7.2s2.6-4.6 1.44-6.04c-.46-.36-2.9.9-4.47 1.26-1.57.37-2.3-.18.78-4.06-7 2.4-14.07 4.64-21.21 6.74 6.68-2.77 10.83-5.86 12.83-9.06s1.87-6.5-.09-10c-2.65-.4-4.99-2.48-7.62-3.06a5.77 5.77 0 0 0-4.28.66c-1.56.88-3.28 2.55-5.2 5.46.97-2.64 1.38-5.2 2.5-7.81s2.98-5.23 6.8-8c-1.76-.58-3.22-1.32-5.17-1.86-1.95-.54-4.38-.88-8.13-.73 3.09-.26 4.97-1.42 5.9-3.24s.95-4.3.3-7.31a775.04 775.04 0 0 1-24.62 6.78c7.96-3.2 12.99-6.58 15.8-9.97 2.8-3.4 3.4-6.8 2.43-10.32-1.35-.87-2.65-1.86-4.02-2.68-1.83-1.1-3.77-1.9-6.07-1.75-2.3.14-4.99 1.24-8.24 4.03 4.14-4.6 8.37-9.08 12.69-13.42-1.49-1.48-2.71-3.14-4.6-4.38-1.9-1.24-4.45-2.05-8.63-1.86 3.09-.52 5.42-1.4 6.85-2.7 1.43-1.29 1.97-2.98 1.5-5.17-.36-1.44.8-3.35.89-4.9.07-1.56-.93-2.76-5.67-2.98-.28-3.19-1.69-4.75-3.82-5.4-2.13-.66-4.96-.4-8 .1 2.4-1.33 5.6-2.75 8.08-4.27 2.48-1.52 4.25-3.14 3.8-4.93-.29-.51-3.03-.35-4.61-.67-1.59-.3-2.01-1.1 2.37-3.39-7.36-.67-14.73-1.5-22.11-2.5 7.23.2 12.28-.94 15.41-3.03 3.14-2.1 4.36-5.17 4-9.17-2.25-1.44-3.54-4.3-5.7-5.9a5.77 5.77 0 0 0-4.18-1.15c-1.78.17-4.04.98-6.98 2.86 1.97-2.01 3.4-4.2 5.48-6.1s4.85-3.57 9.47-4.53c-1.37-1.25-2.4-2.52-3.96-3.81s-3.64-2.6-7.12-4c2.92 1.03 5.1.74 6.7-.54 1.6-1.27 2.62-3.54 3.26-6.56a782.72 782.72 0 0 1-25.25-3.85c8.04.32 13.79-.58 17.73-2.3 3.94-1.72 6.07-4.27 6.92-7.47.11-.43.2-.87.27-1.32-1.6-2.48-2.93-5.23-5.26-6.99a8.73 8.73 0 0 0-4.41-1.7 17.5 17.5 0 0 0-6.9.86c5.64-2.52 11.33-4.9 17.04-7.1-.76-1.96-1.2-3.98-2.42-5.88s-3.23-3.69-7.13-5.21c3.03.78 5.51.92 7.35.32s3.01-1.94 3.46-4.13c.27-1.46 2.1-2.73 2.8-4.12.71-1.4.28-2.9-3.97-5.03 1.04-3.02.38-5.02-1.3-6.49-1.68-1.46-4.38-2.37-7.36-3.13 2.73-.25 6.23-.25 9.12-.64 2.89-.4 5.16-1.16 5.46-2.97-.05-.59-2.62-1.55-3.94-2.48-1.32-.92-1.4-1.83 3.55-2.14a501.29 501.29 0 0 1-19.21-11.24c6.53 3.1 11.6 4.12 15.32 3.47 3.7-.65 6.07-2.96 7.37-6.76-1.49-2.23-1.5-5.37-2.83-7.72a5.77 5.77 0 0 0-3.36-2.73c-1.7-.57-4.09-.74-7.54-.21 2.62-1.04 4.8-2.46 7.49-3.36 2.69-.9 5.88-1.3 10.49-.3-.75-1.7-1.18-3.28-2.08-5.09-.9-1.8-2.28-3.85-4.89-6.53 2.26 2.12 4.37 2.74 6.35 2.23 1.98-.52 3.83-2.18 5.64-4.68a763.7 763.7 0 0 1-21.5-13.78c4.83 2.39 8.95 3.85 12.44 4.57 3.48.72 6.32.7 8.63.07a10.36 10.36 0 0 0 6.2-4.63c-.45-2.9-.54-5.96-1.95-8.51-.7-1.28-1.74-2.43-3.33-3.36s-3.74-1.65-6.66-2.03c6.19 0 12.35.16 18.46.46.1-2.09.53-4.11.19-6.35-.35-2.23-1.45-4.68-4.39-7.66 2.45 1.95 4.67 3.09 6.59 3.3s3.53-.54 4.84-2.36c.84-1.23 3.04-1.64 4.25-2.62 1.2-.98 1.43-2.54-1.58-6.2 2.18-2.34 2.4-4.44 1.46-6.46-.94-2.02-3.03-3.96-5.44-5.87 2.6.89 5.8 2.32 8.59 3.14s5.18 1.05 6.2-.48c.2-.56-1.76-2.49-2.6-3.87-.82-1.39-.52-2.24 4.12-.5a502.82 502.82 0 0 1-12.94-18.12c4.7 5.51 8.9 8.5 12.56 9.43 3.66.92 6.76-.22 9.5-3.17-.45-2.64.82-5.5.56-8.2a5.77 5.77 0 0 0-1.95-3.86c-1.32-1.21-3.43-2.34-6.8-3.27 2.82.12 5.39-.29 8.21-.02 2.82.27 5.9 1.22 9.7 4 .01-1.85.27-3.46.18-5.48a25.99 25.99 0 0 0-1.8-7.97c1.12 2.7 2.68 4.12 4.54 4.55 1.86.44 4.04-.11 6.48-1.39l.92-.51a777.5 777.5 0 0 1-14.03-21.34c5.49 6.6 10.26 10.34 14.35 11.97 4.1 1.62 7.52 1.14 10.57-.87.77-2.85 1.93-5.68 1.67-8.58s-1.91-5.92-6.94-8.98a374.18 374.18 0 0 1 16.68 7.91c.95-1.87 2.15-3.55 2.75-5.73.59-2.18.57-4.87-.9-8.78 1.44 2.77 3 4.71 4.68 5.67 1.67.96 3.45.95 5.39-.19 1.26-.78 3.43-.26 4.94-.67 1.5-.41 2.33-1.75 1.07-6.32 2.94-1.25 3.99-3.08 3.95-5.3-.04-2.24-1.17-4.85-2.6-7.57 2.01 1.86 4.36 4.46 6.58 6.34s4.31 3.06 5.86 2.07c.4-.42-.6-2.98-.8-4.58s.43-2.26 3.97 1.2a499.33 499.33 0 0 1-4.5-21.8c2.06 6.94 4.7 11.38 7.67 13.7 2.97 2.34 6.27 2.55 9.96.97.66-2.6 2.98-4.7 3.84-7.27a5.8 5.8 0 0 0-.22-4.32c-.7-1.64-2.18-3.53-4.88-5.75 2.52 1.25 5.04 1.93 7.5 3.32 2.48 1.39 4.9 3.5 7.24 7.6.86-1.9 1.87-3.4 2.66-5.66a27.2 27.2 0 0 0 1.32-7.3c-.07 3.1.88 5.1 2.6 6.22 1.7 1.12 4.17 1.39 7.23 1.06a767.48 767.48 0 0 1-4.12-25.2c2.32 8.26 5.16 13.62 8.23 16.77 3.07 3.16 6.4 4.1 10 3.52 1.86-2.29 4.07-4.4 5.02-7.15s.67-6.18-2.68-11.03c4.14 4.6 8.14 9.28 12 14.03 1.63-1.32 3.42-2.36 4.85-4.11 1.43-1.75 2.51-4.2 2.76-8.39.19 3.13.83 5.54 1.96 7.1 1.14 1.56 2.77 2.27 5 2.02 1.47-.2 3.24 1.17 4.78 1.4 1.54.25 2.85-.63 3.56-5.32 3.2.06 4.9-1.19 5.77-3.24s.92-4.9.72-7.96c1.08 2.52 2.16 5.85 3.42 8.48 1.25 2.62 2.68 4.55 4.5 4.28.55-.22.67-2.97 1.15-4.51.47-1.54 1.3-1.89 3.12 2.72 1.43-7.26 3.03-14.5 4.8-21.74-.95 7.17-.35 12.3 1.4 15.64 1.76 3.34 4.69 4.88 8.7 4.94 1.67-2.1 4.65-3.08 6.48-5.07.91-1 1.54-2.24 1.56-4.03.02-1.8-.55-4.12-2.11-7.24 3.02 3.64 6.66 5.8 8.3 11.97.32 1.18.56 2.5.72 4 1.38-1.23 2.75-2.12 4.2-3.54 1.44-1.41 2.96-3.35 4.7-6.66-1.32 2.8-1.26 5-.15 6.72 1.1 1.73 3.25 2.98 6.18 3.92a784.4 784.4 0 0 1 6.47-24.7c-1.23 8.5-.81 14.54.71 18.67 1.53 4.13 4.2 6.35 7.72 7.27 2.63-1.34 5.51-2.37 7.5-4.5.99-1.07 1.76-2.41 2.15-4.21s.42-4.07-.13-6.96a374.73 374.73 0 0 1 5.3 17.69c2.02-.55 4.07-.78 6.09-1.8s4-2.83 5.92-6.55c-1.1 2.93-1.49 5.4-1.08 7.28s1.6 3.2 3.75 3.87c1.42.42 2.5 2.38 3.8 3.22 1.31.84 2.86.57 5.4-3.43 2.9 1.35 4.97.9 6.6-.62s2.82-4.1 3.88-7c-.04 2.75-.4 6.23-.31 9.14.08 2.91.6 5.25 2.38 5.74.59.02 1.81-2.44 2.87-3.66 1.06-1.22 1.96-1.2 1.76 3.75a494.01 494.01 0 0 1 13.2-17.92c-3.79 6.17-5.32 11.1-5.07 14.87.26 3.76 2.3 6.35 5.94 8.04 2.38-1.24 5.5-.93 7.97-2a5.78 5.78 0 0 0 3.07-3.05c.75-1.62 1.17-3.98 1.01-7.47.37 1.31.84 2.53 1.29 3.75 1.41 3.84 2.69 7.72.44 14.51 1.77-.56 3.39-.82 5.28-1.52 1.9-.7 4.07-1.86 7.02-4.17-2.35 2.02-3.2 4.05-2.89 6.08.3 2.02 1.76 4.04 4.05 6.1a779.35 779.35 0 0 1 15.98-19.92c-4.59 7.26-6.67 12.94-6.96 17.34-.3 4.4 1.23 7.5 4.07 9.78 2.95-.14 6 .1 8.68-1.04a8.73 8.73 0 0 0 3.69-2.97 17.5 17.5 0 0 0 2.72-6.4 374 374 0 0 1-2.4 18.3c2.08.33 4.05.96 6.3.85 2.26-.1 4.81-.94 8.08-3.56-2.2 2.23-3.56 4.32-3.96 6.2-.4 1.9.17 3.58 1.84 5.07 1.13.97 1.31 3.2 2.16 4.5.86 1.3 2.38 1.68 6.34-.93 2.1 2.42 4.16 2.85 6.27 2.13s4.25-2.6 6.4-4.8c-1.15 2.48-2.9 5.51-4.01 8.2-1.11 2.7-1.59 5.05-.17 6.22.53.26 2.66-1.49 4.12-2.17s2.28-.29.07 4.14a499.4 499.4 0 0 1 19.36-10.98c-5.86 4.02-9.26 7.84-10.61 11.33-1.35 3.5-.65 6.66 1.82 9.64l.27.3c2.67-.16 5.39 1.4 8.09 1.43a5.8 5.8 0 0 0 4.05-1.54c1.34-1.18 2.69-3.17 3.96-6.42-.4 2.8-.28 5.4-.84 8.17-.56 2.78-1.83 5.73-5 9.23 1.84.2 3.42.62 5.44.75 2.02.13 4.48-.04 8.11-.96-2.97.89-4.56 2.4-5.1 4.38-.55 1.98-.04 4.41 1.22 7.23a787.18 787.18 0 0 1 22.69-11.74c-7.14 4.78-11.35 9.13-13.4 13.03-2.04 3.9-1.91 7.36-.23 10.6 2.75 1.06 5.44 2.51 8.36 2.56 2.91.05 6.08-1.29 9.65-5.98a374.26 374.26 0 0 1-9.6 15.78c1.76 1.13 3.3 2.5 5.41 3.32s4.78 1.08 8.83.02c-2.91 1.15-5 2.5-6.13 4.07-1.13 1.56-1.3 3.33-.37 5.38.64 1.33-.1 3.44.15 4.98.25 1.53 1.5 2.5 6.17 1.72.94 3.05 2.65 4.28 4.87 4.48s4.94-.65 7.8-1.8c-2.07 1.81-4.9 3.87-7 5.89-2.11 2-3.5 3.96-2.68 5.6.38.45 3.03-.28 4.64-.3 1.62-.03 2.2.65-1.61 3.8a491 491 0 0 1 22.1-2.17c-7.02 1.32-11.78 3.48-14.35 6.18-2.57 2.7-2.95 5.96-1.55 9.8 2.5.93 4.43 3.46 6.8 4.58a5.1 5.1 0 0 0 4.04.25c1.57-.53 3.4-1.8 5.69-4.25-1.39 2.38-2.2 4.8-3.62 7.12-1.42 2.3-3.43 4.49-7.21 6.38 1.53.94 2.76 1.97 4.41 2.9a22.6 22.6 0 0 0 6.94 2.44c-2.66-.4-4.44.33-5.45 1.92-1.01 1.58-1.25 4-.96 7.09 7.07-.62 14-1.1 20.76-1.45-6.73 1.44-11.23 3.7-13.82 6.42-2.6 2.72-3.3 5.94-2.78 9.58 1.81 2.09 3.43 4.51 5.46 5.75s4.45 1.3 8.12-1.52l-10.2 10.48c.98 1.76 1.74 3.64 2.93 5.25a9.37 9.37 0 0 0 5.53 3.62c-2.02-.14-3.61.24-4.62 1.21-1.01.97-1.43 2.51-1.23 4.76.15 1.48-.65 3.1-.75 4.6-.1 1.51.5 2.9 3.27 4.1-.02 3.17.71 5 1.85 6.08s2.7 1.42 4.37 1.54c-1.42.81-3.26 1.54-4.69 2.52-1.43.98-2.43 2.2-2.28 4.03.13.56 1.52.97 2.31 1.59.8.62.97 1.46-1.2 2.75h5.48"/>
  <path opacity=".7" d="M5305.9-942.95a498.98 498.98 0 0 1 21.12 7.03c-7.04-1.7-12.2-1.63-15.7-.23s-5.34 4.15-5.82 8.14c1.91 1.88 2.58 4.94 4.37 6.96a5.77 5.77 0 0 0 3.85 1.98c1.77.21 4.15-.12 7.42-1.35-2.35 1.56-4.19 3.4-6.63 4.84-2.44 1.44-5.48 2.48-10.2 2.47 1.08 1.5 1.83 2.96 3.08 4.55a25.53 25.53 0 0 0 6.15 5.37c-2.65-1.6-4.85-1.77-6.68-.85s-3.3 2.93-4.54 5.75c8 2.86 15.98 5.85 23.9 8.98-8.32-2.1-14.37-2.31-18.64-1.22-4.26 1.1-6.75 3.51-8.03 6.93 1.06 2.75 1.79 5.72 3.7 7.91.96 1.1 2.22 2 3.97 2.59 1.75.57 4 .83 6.93.58-6.05 1.3-12.1 2.45-18.14 3.43.34 2.07.35 4.14 1.16 6.25.8 2.11 2.4 4.27 5.9 6.57-2.8-1.4-5.22-2.04-7.13-1.83-1.92.2-3.35 1.26-4.25 3.31-.56 1.38-2.62 2.24-3.6 3.45-.97 1.21-.86 2.78 2.85 5.73-1.64 2.74-1.41 4.84-.07 6.62 1.34 1.78 3.78 3.23 6.54 4.6-4.97-.6-12.26-2.54-14.5-.29-.22.22-.4.47-.5.77-.09.58 2.23 2.06 3.33 3.24s.97 2.08-3.92 1.35a493.9 493.9 0 0 1 16.42 15.03c-5.73-4.42-10.48-6.47-14.24-6.61-3.77-.15-6.57 1.61-8.63 5.05.98 2.5.34 5.56 1.14 8.14a5.77 5.77 0 0 0 2.71 3.38c1.54.91 3.84 1.58 7.33 1.79-2.78.47-5.21 1.4-8.03 1.72-2.82.32-6.02.02-10.32-1.92.37 1.82.46 3.45.96 5.41s1.42 4.25 3.41 7.42c-1.75-2.55-3.7-3.6-5.74-3.5s-4.2 1.32-6.5 3.39a787.05 787.05 0 0 1 18.16 17.96c-6.74-5.31-12.18-7.98-16.52-8.73-4.34-.74-7.6.45-10.16 3.05-.16 2.94-.7 5.95.15 8.74.42 1.39 1.2 2.73 2.56 3.97s3.31 2.4 6.1 3.37a374.44 374.44 0 0 1-17.97-4.28c-.54 2.03-1.37 3.92-1.5 6.18s.45 4.88 2.7 8.4c-1.98-2.41-3.92-3.98-5.75-4.57-1.84-.6-3.58-.21-5.23 1.3-1.08 1.02-3.3.97-4.7 1.68-1.38.71-1.92 2.2.27 6.4a6.9 6.9 0 0 0-2.56 2.9c-1.26 3 .96 6.43 3.9 9.98-2.35-1.4-5.18-3.46-7.75-4.85-2.56-1.38-4.85-2.1-6.16-.81-.3.5 1.2 2.8 1.73 4.32.52 1.52.05 2.3-4.13-.36a501.01 501.01 0 0 1 8.91 20.4c-3.45-6.36-6.95-10.16-10.34-11.83-3.38-1.66-6.65-1.18-9.94 1.13-.11 2.68-1.94 5.22-2.25 7.9-.16 1.35.07 2.73 1.1 4.19s2.88 3 5.98 4.6c-2.74-.69-5.33-.83-8.04-1.68-2.7-.85-5.51-2.4-8.66-5.93-.4 1.82-.98 3.35-1.31 5.34s-.42 4.46.11 8.17c-.57-3.05-1.92-4.8-3.83-5.54-1.9-.74-4.38-.49-7.3.48a784.89 784.89 0 0 1 9.31 23.77c-4-7.59-7.9-12.23-11.57-14.67-3.66-2.44-7.12-2.67-10.51-1.33-1.34 2.62-3.06 5.15-3.41 8.05-.35 2.89.64 6.18 4.94 10.22a370.9 370.9 0 0 1-14.7-11.2c-1.3 1.64-2.83 3.04-3.86 5.05-1.03 2-1.57 4.64-.94 8.77-.84-3.01-1.97-5.23-3.4-6.52-1.44-1.29-3.18-1.64-5.3-.94-1.09.39-2.54-.1-3.85-.3-2.1-.31-3.84.07-3.48 5.89-3.14.6-4.54 2.17-4.97 4.36-.43 2.19.12 4.98.95 7.94-1.57-2.24-3.32-5.27-5.1-7.58s-3.57-3.9-5.3-3.25c-.48.33-.03 3.04-.18 4.65-.14 1.6-.88 2.11-3.61-2.01.1 7.4.04 14.81-.19 22.25-.55-7.21-2.2-12.11-4.62-15-2.4-2.9-5.59-3.8-9.53-3.04-1.2 2.4-3.9 3.97-5.28 6.3-.69 1.16-1.04 2.52-.7 4.27s1.4 3.91 3.57 6.64c-2.2-1.75-4.52-2.93-6.64-4.81-2.13-1.88-4.05-4.46-5.49-8.95-1.1 1.5-2.25 2.65-3.37 4.33-1.12 1.69-2.2 3.9-3.23 7.5.72-3.01.2-5.15-1.24-6.61s-3.8-2.24-6.87-2.55c-.26 8.5-.66 17-1.2 25.5-.56-8.56-2.22-14.39-4.57-18.11-2.35-3.72-5.41-5.35-9.06-5.51-2.3 1.85-4.9 3.46-6.4 5.95-1.5 2.5-1.93 5.91.34 11.35a373.2 373.2 0 0 1-8.84-16.21c-1.87.96-3.83 1.6-5.6 3.02s-3.32 3.6-4.43 7.64c.78-5.19-.08-8.66-2.98-9.9a6.28 6.28 0 0 0-1.94-.46c-1.48-.12-2.93-1.81-4.38-2.36-1.46-.56-2.92.03-4.59 4.47-3.11-.72-5.03.15-6.31 1.97-1.29 1.83-1.91 4.6-2.36 7.65-.53-2.7-.9-6.17-1.58-9s-1.69-5.02-3.53-5.13c-.57.1-1.26 2.77-2.05 4.18-.78 1.4-1.67 1.57-2.5-3.3a502.3 502.3 0 0 1-9.18 20.27c2.41-6.82 2.89-11.97 1.86-15.6-1.03-3.63-3.58-5.74-7.5-6.63-2.06 1.71-5.18 2.05-7.37 3.62-1.1.78-1.98 1.88-2.37 3.62s-.31 4.15.57 7.52c-1.3-2.5-2.94-4.51-4.12-7.1s-1.9-5.7-1.4-10.4c-1.61.92-3.13 1.52-4.84 2.6s-3.6 2.67-5.99 5.55c1.88-2.46 2.27-4.63 1.55-6.55-.72-1.91-2.57-3.58-5.24-5.1a779.55 779.55 0 0 1-11.43 22.83c2.95-8.06 3.8-14.06 3.16-18.42-.64-4.35-2.78-7.07-6.05-8.7-2.84.76-5.87 1.17-8.26 2.84a8.8 8.8 0 0 0-2.98 3.68 17.48 17.48 0 0 0-1.31 6.83 359.91 359.91 0 0 1-1.5-18.4c-2.9.16-5.74-.3-8.97 1.59a17.3 17.3 0 0 0-4.52 4.06c1.69-2.63 2.59-4.96 2.58-6.89 0-1.93-.9-3.46-2.85-4.57-1.3-.7-1.93-2.85-3.04-3.94s-2.67-1.16-6 2.22c-2.55-1.93-4.66-1.92-6.57-.78-1.92 1.14-3.62 3.42-5.27 6.02.61-2.67 1.7-6 2.22-8.87s.51-5.26-1.12-6.1c-.57-.15-2.29 2-3.58 2.96-1.29.97-2.17.76-.93-4.03a500.22 500.22 0 0 1-16.66 14.75c4.99-5.24 7.52-9.74 8.07-13.47.54-3.74-.92-6.7-4.14-9.11-2.58.71-5.56-.25-8.2.28-1.33.27-2.58.91-3.65 2.35s-1.97 3.65-2.55 7.1c-.17-2.82-.84-5.33-.87-8.17-.02-2.83.6-5.99 2.98-10.06-1.85.18-3.48.1-5.48.4-2 .29-4.37.96-7.74 2.61 2.72-1.48 3.97-3.3 4.1-5.34.11-2.05-.9-4.32-2.71-6.81a785.98 785.98 0 0 1-19.76 16.18c6-6.15 9.21-11.28 10.4-15.52 1.2-4.24.35-7.6-1.97-10.42-2.9-.46-5.84-1.32-8.7-.76-2.86.55-5.69 2.52-8.2 7.84a371.11 371.11 0 0 1 6.12-17.42c-1.96-.74-3.76-1.77-5.99-2.13-2.23-.36-4.9-.07-8.64 1.81 2.61-1.73 4.38-3.48 5.16-5.25.78-1.76.58-3.53-.75-5.34-.9-1.17-.62-3.39-1.18-4.84-.57-1.45-1.98-2.14-6.4-.4-1.54-2.8-3.47-3.65-5.69-3.38-2.2.26-4.7 1.66-7.25 3.36 1.64-2.2 3.98-4.8 5.63-7.2s2.6-4.6 1.44-6.04c-.46-.36-2.9.9-4.47 1.26-1.57.37-2.3-.18.78-4.06-7 2.4-14.07 4.64-21.21 6.74 6.68-2.77 10.83-5.86 12.83-9.06s1.87-6.5-.09-10c-2.65-.4-4.99-2.48-7.62-3.06a5.77 5.77 0 0 0-4.28.66c-1.56.88-3.28 2.55-5.2 5.46.97-2.64 1.38-5.2 2.5-7.81s2.98-5.23 6.8-8c-1.76-.58-3.22-1.32-5.17-1.86-1.95-.54-4.38-.88-8.13-.73 3.09-.26 4.97-1.42 5.9-3.24s.95-4.3.3-7.31a775.04 775.04 0 0 1-24.62 6.78c7.96-3.2 12.99-6.58 15.8-9.97 2.8-3.4 3.4-6.8 2.43-10.32-1.35-.87-2.65-1.86-4.02-2.68-1.83-1.1-3.77-1.9-6.07-1.75-2.3.14-4.99 1.24-8.24 4.03 4.14-4.6 8.37-9.08 12.69-13.42-1.49-1.48-2.71-3.14-4.6-4.38-1.9-1.24-4.45-2.05-8.63-1.86 3.09-.52 5.42-1.4 6.85-2.7 1.43-1.29 1.97-2.98 1.5-5.17-.36-1.44.8-3.35.89-4.9.07-1.56-.93-2.76-5.67-2.98-.28-3.19-1.69-4.75-3.82-5.4-2.13-.66-4.96-.4-8 .1 2.4-1.33 5.6-2.75 8.08-4.27 2.48-1.52 4.25-3.14 3.8-4.93-.29-.51-3.03-.35-4.61-.67-1.59-.3-2.01-1.1 2.37-3.39-7.36-.67-14.73-1.5-22.11-2.5 7.23.2 12.28-.94 15.41-3.03 3.14-2.1 4.36-5.17 4-9.17-2.25-1.44-3.54-4.3-5.7-5.9a5.77 5.77 0 0 0-4.18-1.15c-1.78.17-4.04.98-6.98 2.86 1.97-2.01 3.4-4.2 5.48-6.1s4.85-3.57 9.47-4.53c-1.37-1.25-2.4-2.52-3.96-3.81s-3.64-2.6-7.12-4c2.92 1.03 5.1.74 6.7-.54 1.6-1.27 2.62-3.54 3.26-6.56a782.72 782.72 0 0 1-25.25-3.85c8.04.32 13.79-.58 17.73-2.3 3.94-1.72 6.07-4.27 6.92-7.47.11-.43.2-.87.27-1.32-1.6-2.48-2.93-5.23-5.26-6.99a8.73 8.73 0 0 0-4.41-1.7 17.5 17.5 0 0 0-6.9.86c5.64-2.52 11.33-4.9 17.04-7.1-.76-1.96-1.2-3.98-2.42-5.88s-3.23-3.69-7.13-5.21c3.03.78 5.51.92 7.35.32s3.01-1.94 3.46-4.13c.27-1.46 2.1-2.73 2.8-4.12.71-1.4.28-2.9-3.97-5.03 1.04-3.02.38-5.02-1.3-6.49-1.68-1.46-4.38-2.37-7.36-3.13 2.73-.25 6.23-.25 9.12-.64 2.89-.4 5.16-1.16 5.46-2.97-.05-.59-2.62-1.55-3.94-2.48-1.32-.92-1.4-1.83 3.55-2.14a501.29 501.29 0 0 1-19.21-11.24c6.53 3.1 11.6 4.12 15.32 3.47 3.7-.65 6.07-2.96 7.37-6.76-1.49-2.23-1.5-5.37-2.83-7.72a5.77 5.77 0 0 0-3.36-2.73c-1.7-.57-4.09-.74-7.54-.21 2.62-1.04 4.8-2.46 7.49-3.36 2.69-.9 5.88-1.3 10.49-.3-.75-1.7-1.18-3.28-2.08-5.09-.9-1.8-2.28-3.85-4.89-6.53 2.26 2.12 4.37 2.74 6.35 2.23 1.98-.52 3.83-2.18 5.64-4.68a763.7 763.7 0 0 1-21.5-13.78c4.83 2.39 8.95 3.85 12.44 4.57 3.48.72 6.32.7 8.63.07a10.36 10.36 0 0 0 6.2-4.63c-.45-2.9-.54-5.96-1.95-8.51-.7-1.28-1.74-2.43-3.33-3.36s-3.74-1.65-6.66-2.03c6.19 0 12.35.16 18.46.46.1-2.09.53-4.11.19-6.35-.35-2.23-1.45-4.68-4.39-7.66 2.45 1.95 4.67 3.09 6.59 3.3s3.53-.54 4.84-2.36c.84-1.23 3.04-1.64 4.25-2.62 1.2-.98 1.43-2.54-1.58-6.2 2.18-2.34 2.4-4.44 1.46-6.46-.94-2.02-3.03-3.96-5.44-5.87 2.6.89 5.8 2.32 8.59 3.14s5.18 1.05 6.2-.48c.2-.56-1.76-2.49-2.6-3.87-.82-1.39-.52-2.24 4.12-.5a502.82 502.82 0 0 1-12.94-18.12c4.7 5.51 8.9 8.5 12.56 9.43 3.66.92 6.76-.22 9.5-3.17-.45-2.64.82-5.5.56-8.2a5.77 5.77 0 0 0-1.95-3.86c-1.32-1.21-3.43-2.34-6.8-3.27 2.82.12 5.39-.29 8.21-.02 2.82.27 5.9 1.22 9.7 4 .01-1.85.27-3.46.18-5.48a25.99 25.99 0 0 0-1.8-7.97c1.12 2.7 2.68 4.12 4.54 4.55 1.86.44 4.04-.11 6.48-1.39l.92-.51a777.5 777.5 0 0 1-14.03-21.34c5.49 6.6 10.26 10.34 14.35 11.97 4.1 1.62 7.52 1.14 10.57-.87.77-2.85 1.93-5.68 1.67-8.58s-1.91-5.92-6.94-8.98a374.18 374.18 0 0 1 16.68 7.91c.95-1.87 2.15-3.55 2.75-5.73.59-2.18.57-4.87-.9-8.78 1.44 2.77 3 4.71 4.68 5.67 1.67.96 3.45.95 5.39-.19 1.26-.78 3.43-.26 4.94-.67 1.5-.41 2.33-1.75 1.07-6.32 2.94-1.25 3.99-3.08 3.95-5.3-.04-2.24-1.17-4.85-2.6-7.57 2.01 1.86 4.36 4.46 6.58 6.34s4.31 3.06 5.86 2.07c.4-.42-.6-2.98-.8-4.58s.43-2.26 3.97 1.2a499.33 499.33 0 0 1-4.5-21.8c2.06 6.94 4.7 11.38 7.67 13.7 2.97 2.34 6.27 2.55 9.96.97.66-2.6 2.98-4.7 3.84-7.27a5.8 5.8 0 0 0-.22-4.32c-.7-1.64-2.18-3.53-4.88-5.75 2.52 1.25 5.04 1.93 7.5 3.32 2.48 1.39 4.9 3.5 7.24 7.6.86-1.9 1.87-3.4 2.66-5.66a27.2 27.2 0 0 0 1.32-7.3c-.07 3.1.88 5.1 2.6 6.22 1.7 1.12 4.17 1.39 7.23 1.06a767.48 767.48 0 0 1-4.12-25.2c2.32 8.26 5.16 13.62 8.23 16.77 3.07 3.16 6.4 4.1 10 3.52 1.86-2.29 4.07-4.4 5.02-7.15s.67-6.18-2.68-11.03c4.14 4.6 8.14 9.28 12 14.03 1.63-1.32 3.42-2.36 4.85-4.11 1.43-1.75 2.51-4.2 2.76-8.39.19 3.13.83 5.54 1.96 7.1 1.14 1.56 2.77 2.27 5 2.02 1.47-.2 3.24 1.17 4.78 1.4 1.54.25 2.85-.63 3.56-5.32 3.2.06 4.9-1.19 5.77-3.24s.92-4.9.72-7.96c1.08 2.52 2.16 5.85 3.42 8.48 1.25 2.62 2.68 4.55 4.5 4.28.55-.22.67-2.97 1.15-4.51.47-1.54 1.3-1.89 3.12 2.72 1.43-7.26 3.03-14.5 4.8-21.74-.95 7.17-.35 12.3 1.4 15.64 1.76 3.34 4.69 4.88 8.7 4.94 1.67-2.1 4.65-3.08 6.48-5.07.91-1 1.54-2.24 1.56-4.03.02-1.8-.55-4.12-2.11-7.24 3.02 3.64 6.66 5.8 8.3 11.97.32 1.18.56 2.5.72 4 1.38-1.23 2.75-2.12 4.2-3.54 1.44-1.41 2.96-3.35 4.7-6.66-1.32 2.8-1.26 5-.15 6.72 1.1 1.73 3.25 2.98 6.18 3.92a784.4 784.4 0 0 1 6.47-24.7c-1.23 8.5-.81 14.54.71 18.67 1.53 4.13 4.2 6.35 7.72 7.27 2.63-1.34 5.51-2.37 7.5-4.5.99-1.07 1.76-2.41 2.15-4.21s.42-4.07-.13-6.96a374.73 374.73 0 0 1 5.3 17.69c2.02-.55 4.07-.78 6.09-1.8s4-2.83 5.92-6.55c-1.1 2.93-1.49 5.4-1.08 7.28s1.6 3.2 3.75 3.87c1.42.42 2.5 2.38 3.8 3.22 1.31.84 2.86.57 5.4-3.43 2.9 1.35 4.97.9 6.6-.62s2.82-4.1 3.88-7c-.04 2.75-.4 6.23-.31 9.14.08 2.91.6 5.25 2.38 5.74.59.02 1.81-2.44 2.87-3.66 1.06-1.22 1.96-1.2 1.76 3.75a494.01 494.01 0 0 1 13.2-17.92c-3.79 6.17-5.32 11.1-5.07 14.87.26 3.76 2.3 6.35 5.94 8.04 2.38-1.24 5.5-.93 7.97-2a5.78 5.78 0 0 0 3.07-3.05c.75-1.62 1.17-3.98 1.01-7.47.37 1.31.84 2.53 1.29 3.75 1.41 3.84 2.69 7.72.44 14.51 1.77-.56 3.39-.82 5.28-1.52 1.9-.7 4.07-1.86 7.02-4.17-2.35 2.02-3.2 4.05-2.89 6.08.3 2.02 1.76 4.04 4.05 6.1a779.35 779.35 0 0 1 15.98-19.92c-4.59 7.26-6.67 12.94-6.96 17.34-.3 4.4 1.23 7.5 4.07 9.78 2.95-.14 6 .1 8.68-1.04a8.73 8.73 0 0 0 3.69-2.97 17.5 17.5 0 0 0 2.72-6.4 374 374 0 0 1-2.4 18.3c2.08.33 4.05.96 6.3.85 2.26-.1 4.81-.94 8.08-3.56-2.2 2.23-3.56 4.32-3.96 6.2-.4 1.9.17 3.58 1.84 5.07 1.13.97 1.31 3.2 2.16 4.5.86 1.3 2.38 1.68 6.34-.93 2.1 2.42 4.16 2.85 6.27 2.13s4.25-2.6 6.4-4.8c-1.15 2.48-2.9 5.51-4.01 8.2-1.11 2.7-1.59 5.05-.17 6.22.53.26 2.66-1.49 4.12-2.17s2.28-.29.07 4.14a499.4 499.4 0 0 1 19.36-10.98c-5.86 4.02-9.26 7.84-10.61 11.33-1.35 3.5-.65 6.66 1.82 9.64l.27.3c2.67-.16 5.39 1.4 8.09 1.43a5.8 5.8 0 0 0 4.05-1.54c1.34-1.18 2.69-3.17 3.96-6.42-.4 2.8-.28 5.4-.84 8.17-.56 2.78-1.83 5.73-5 9.23 1.84.2 3.42.62 5.44.75 2.02.13 4.48-.04 8.11-.96-2.97.89-4.56 2.4-5.1 4.38-.55 1.98-.04 4.41 1.22 7.23a787.18 787.18 0 0 1 22.69-11.74c-7.14 4.78-11.35 9.13-13.4 13.03-2.04 3.9-1.91 7.36-.23 10.6 2.75 1.06 5.44 2.51 8.36 2.56 2.91.05 6.08-1.29 9.65-5.98a374.26 374.26 0 0 1-9.6 15.78c1.76 1.13 3.3 2.5 5.41 3.32s4.78 1.08 8.83.02c-2.91 1.15-5 2.5-6.13 4.07-1.13 1.56-1.3 3.33-.37 5.38.64 1.33-.1 3.44.15 4.98.25 1.53 1.5 2.5 6.17 1.72.94 3.05 2.65 4.28 4.87 4.48s4.94-.65 7.8-1.8c-2.07 1.81-4.9 3.87-7 5.89-2.11 2-3.5 3.96-2.68 5.6.38.45 3.03-.28 4.64-.3 1.62-.03 2.2.65-1.61 3.8a491 491 0 0 1 22.1-2.17c-7.02 1.32-11.78 3.48-14.35 6.18-2.57 2.7-2.95 5.96-1.55 9.8 2.5.93 4.43 3.46 6.8 4.58a5.1 5.1 0 0 0 4.04.25c1.57-.53 3.4-1.8 5.69-4.25-1.39 2.38-2.2 4.8-3.62 7.12-1.42 2.3-3.43 4.49-7.21 6.38 1.53.94 2.76 1.97 4.41 2.9a22.6 22.6 0 0 0 6.94 2.44c-2.66-.4-4.44.33-5.45 1.92-1.01 1.58-1.25 4-.96 7.09 7.07-.62 14-1.1 20.76-1.45-6.73 1.44-11.23 3.7-13.82 6.42-2.6 2.72-3.3 5.94-2.78 9.58 1.81 2.09 3.43 4.51 5.46 5.75s4.45 1.3 8.12-1.52l-10.2 10.48c.98 1.76 1.74 3.64 2.93 5.25a9.37 9.37 0 0 0 5.53 3.62c-2.02-.14-3.61.24-4.62 1.21-1.01.97-1.43 2.51-1.23 4.76.15 1.48-.65 3.1-.75 4.6-.1 1.51.5 2.9 3.27 4.1-.02 3.17.71 5 1.85 6.08s2.7 1.42 4.37 1.54c-1.42.81-3.26 1.54-4.69 2.52-1.43.98-2.43 2.2-2.28 4.03.13.56 1.52.97 2.31 1.59.8.62.97 1.46-1.2 2.75h5.48" transform="translate(-4649.66 1319.02)" filter="url(#c)" fill="#a40"/>
</svg>
