<?xml version="1.0" encoding="UTF-8"?>
<svg viewBox="0 0 32 32" width="32" height="32" focusable="false" version="1.1" xmlns="http://www.w3.org/2000/svg" id="moon">
  <path fill="#FCD57E" d="M29.6 10.7c-1.8-.5-3.1-1.9-3.7-3.7-.1-.2-.4-.2-.5 0-.5 1.8-1.9 3.1-3.7 3.7-.2.1-.2.4 0 .5 1.8.5 3.1 1.9 3.7 3.7.1.2.4.2.5 0 .5-1.8 1.9-3.1 3.7-3.7.2-.1.2-.4 0-.5zM19.5 3c-.6-.3-1.1-.8-1.4-1.4-.1-.2-.4-.2-.4 0-.3.6-.8 1.1-1.4 1.4-.2.1-.2.4 0 .4.6.3 1.1.8 1.4 1.4 0 .2.3.2.4 0 .3-.6.8-1.1 1.4-1.4.2-.1.2-.4 0-.4zM20.6 21.4c-4.8-1.4-8.6-5.2-9.9-9.9-.9-3.1-.7-6.1.2-8.8.1-.2-.1-.4-.3-.3C4.7 4.9.7 11.1 1.7 18c.9 6.4 6 11.5 12.4 12.4 7 1 13.1-2.9 15.6-8.8.1-.2-.1-.4-.3-.3-2.7.8-5.7 1-8.8.1z"/>
</svg>
