<?xml version="1.0" standalone="no"?>
<!DOCTYPE svg PUBLIC "-//W3C//DTD SVG 20010904//EN"
 "http://www.w3.org/TR/2001/REC-SVG-20010904/DTD/svg10.dtd">
<svg version="1.0" xmlns="http://www.w3.org/2000/svg"
 width="1156.000000pt" height="1156.000000pt" viewBox="0 0 1156.000000 1156.000000"
 preserveAspectRatio="xMidYMid meet">
<metadata>
Created by potrace 1.14, written by Peter Selinger 2001-2017
</metadata>
<g transform="translate(0.000000,1156.000000) scale(0.100000,-0.100000)"
fill="#000000" stroke="none">
<path d="M7511 11085 c-18 -8 -46 -15 -62 -15 -16 0 -39 -11 -55 -25 -15 -14
-39 -25 -55 -25 -16 0 -43 -6 -61 -14 -18 -8 -53 -20 -78 -27 -25 -7 -56 -19
-70 -26 -38 -19 -67 -16 -73 8 -5 20 -7 20 -29 5 -12 -9 -28 -16 -36 -16 -13
0 -59 -21 -264 -119 -59 -28 -109 -51 -112 -51 -3 0 -6 7 -6 15 0 19 -9 19
-29 2 -9 -8 -54 -31 -101 -51 -131 -58 -151 -69 -180 -96 -31 -29 -75 -52 -84
-43 -3 4 -6 15 -6 25 0 10 -3 18 -7 18 -16 0 -161 -56 -192 -74 -63 -37 -226
-106 -229 -98 -1 5 -9 17 -16 27 -13 18 -15 18 -51 -4 -26 -15 -41 -19 -50
-11 -8 7 -17 4 -30 -10 -10 -11 -22 -20 -28 -20 -5 0 -30 -18 -55 -41 -25 -22
-73 -55 -106 -74 -53 -30 -62 -32 -77 -20 -8 8 -19 15 -23 15 -18 0 -246 -159
-289 -202 -38 -38 -54 -47 -80 -46 -36 1 -102 -40 -152 -93 -52 -57 -205 -179
-223 -179 -10 0 -23 5 -30 12 -21 21 -96 -18 -154 -81 -68 -73 -152 -139 -186
-147 -15 -4 -48 -26 -74 -50 -45 -42 -80 -55 -93 -34 -10 16 -47 12 -62 -7 -8
-10 -30 -43 -50 -73 -20 -30 -58 -76 -84 -102 -60 -60 -121 -162 -155 -258
-31 -89 -38 -104 -78 -154 -72 -91 -123 -138 -178 -168 -32 -17 -102 -68 -154
-113 -53 -45 -113 -88 -133 -95 -39 -14 -83 -58 -105 -105 -7 -16 -35 -60 -62
-96 -27 -36 -60 -85 -74 -108 -14 -23 -35 -57 -47 -74 -12 -18 -31 -51 -41
-74 -11 -22 -29 -44 -41 -48 -12 -3 -23 -16 -27 -28 -3 -13 -18 -28 -33 -35
-18 -8 -34 -28 -46 -55 -9 -23 -32 -76 -51 -117 -18 -41 -36 -88 -40 -104 -5
-19 -17 -32 -39 -42 -39 -16 -59 -61 -75 -168 -6 -38 -13 -72 -15 -76 -2 -3
-4 -39 -6 -80 -3 -100 -21 -145 -85 -207 -54 -54 -68 -61 -79 -43 -13 21 -36
9 -52 -27 -9 -21 -25 -56 -35 -78 -10 -23 -22 -63 -28 -90 -20 -101 -29 -130
-45 -141 -30 -22 -64 -101 -76 -176 -6 -40 -15 -80 -20 -89 -5 -10 -9 -43 -10
-75 -2 -71 -16 -117 -35 -110 -24 9 -41 -46 -48 -154 -15 -248 -16 -252 -42
-246 -19 5 -26 0 -39 -23 -12 -25 -13 -45 -5 -118 5 -48 16 -115 23 -148 8
-40 10 -77 4 -110 -17 -107 -19 -137 -8 -148 6 -6 11 -30 11 -52 0 -23 3 -45
7 -48 3 -4 8 -17 9 -30 16 -124 59 -285 102 -381 19 -42 23 -61 14 -64 -7 -2
-12 -8 -12 -14 0 -5 9 -7 19 -3 11 3 22 1 26 -5 3 -6 -3 -10 -14 -10 -12 0
-21 -4 -21 -8 0 -14 39 -51 70 -67 17 -9 30 -20 30 -25 0 -5 21 -18 46 -29 25
-11 59 -32 76 -46 16 -14 35 -25 42 -25 8 0 25 -9 39 -20 14 -11 31 -20 38
-20 22 0 122 -82 199 -163 41 -43 106 -111 144 -150 77 -81 126 -174 166 -317
13 -47 32 -97 42 -112 10 -14 18 -33 18 -42 0 -9 5 -16 12 -16 15 0 85 76 105
114 8 16 31 51 49 78 20 29 34 60 34 78 0 16 4 30 9 30 17 0 23 60 16 152 -6
68 -12 95 -26 109 -10 10 -21 31 -24 46 l-5 28 14 -30 c13 -26 15 -27 16 -8 0
35 -20 80 -29 64 -6 -9 -10 -7 -14 8 -3 12 -1 19 4 15 15 -9 10 30 -12 92 -11
32 -24 77 -28 99 -4 22 -12 39 -18 38 -6 -1 -9 6 -6 16 6 25 -35 147 -69 200
-16 25 -26 51 -24 58 3 7 1 15 -4 18 -4 3 -27 41 -50 86 -23 44 -52 101 -66
126 -13 25 -24 55 -24 65 0 11 -5 28 -10 39 -7 13 -7 19 -1 19 6 0 13 -12 17
-27 9 -42 51 -128 69 -143 8 -7 15 -18 15 -25 0 -7 7 -18 15 -25 8 -7 15 -26
15 -42 0 -16 4 -27 9 -23 11 6 41 -21 42 -38 2 -30 10 -59 28 -94 30 -60 69
-165 81 -217 6 -27 15 -57 21 -68 13 -23 66 -263 84 -376 7 -46 15 -85 17 -86
1 -2 14 -9 27 -16 23 -12 23 -14 7 -25 -9 -7 -13 -15 -9 -18 8 -5 363 335 363
348 0 3 14 24 31 48 25 35 28 43 14 45 -9 2 -14 10 -11 20 24 89 39 173 50
291 7 77 18 146 23 153 16 21 23 60 13 78 -6 12 -5 23 5 36 18 24 20 48 3 38
-8 -5 -8 -1 1 10 11 13 12 19 2 25 -9 6 -9 15 -1 36 8 21 8 36 0 55 -11 25
-18 78 -20 135 0 23 -3 26 -10 15 -14 -22 -20 -9 -36 81 -11 66 -12 84 -2 90
10 6 9 11 -4 21 -10 8 -18 33 -21 63 -3 28 -10 75 -17 105 -6 30 -13 73 -15
95 -7 60 -16 99 -27 112 -6 7 -8 19 -5 26 3 8 -1 43 -8 78 -7 35 -16 87 -19
114 -4 28 -9 57 -11 65 -3 8 -9 62 -15 120 -28 300 -30 306 -133 484 -38 67
-81 141 -95 166 -14 25 -35 61 -47 80 -12 19 -24 42 -28 50 -4 8 -25 44 -47
78 -22 35 -38 68 -35 72 3 4 -2 10 -10 14 -8 3 -15 10 -15 16 0 6 -21 45 -47
88 -26 42 -54 95 -63 117 -8 22 -28 59 -43 82 -15 24 -27 49 -27 56 0 7 -7 22
-15 33 -16 21 -20 44 -7 44 4 0 18 -24 32 -52 27 -58 99 -179 143 -243 73
-106 104 -156 150 -244 27 -53 55 -103 62 -111 7 -8 22 -34 33 -56 12 -23 32
-54 45 -70 13 -16 34 -56 46 -88 41 -111 89 -177 121 -169 15 4 20 18 25 62 3
31 14 94 24 141 20 88 36 169 46 230 27 163 41 220 79 325 87 243 85 211 34
460 -17 83 -36 182 -44 220 -7 39 -18 87 -24 109 -18 61 -21 77 -25 153 -3 39
-5 75 -6 80 -1 4 0 55 1 113 2 128 15 100 24 -51 3 -57 10 -122 16 -144 6 -22
12 -49 14 -60 2 -11 8 -40 14 -65 6 -25 16 -70 22 -100 6 -30 15 -75 21 -100
5 -25 12 -64 15 -88 4 -23 11 -45 15 -48 5 -3 9 -25 9 -50 0 -34 6 -51 24 -69
21 -21 27 -23 50 -12 14 7 26 18 26 25 0 7 4 20 9 30 5 9 46 91 90 182 109
223 162 366 206 550 15 63 36 142 47 175 12 38 22 109 28 195 6 107 16 162 45
264 34 123 61 196 72 196 3 0 2 -10 -2 -22 -3 -13 -8 -32 -10 -43 -2 -11 -13
-54 -25 -95 -37 -127 -42 -151 -50 -265 -9 -126 -15 -164 -40 -255 -17 -62
-25 -95 -36 -150 -8 -46 -6 -90 6 -105 9 -11 7 -16 -9 -25 -12 -6 -21 -17 -21
-25 0 -8 -3 -15 -8 -15 -20 0 -75 -183 -59 -199 7 -7 6 -16 -4 -28 -9 -10 -16
-28 -17 -40 0 -13 -15 -44 -33 -70 -29 -41 -45 -69 -86 -148 -24 -46 -93 -192
-103 -219 -6 -16 -16 -26 -23 -23 -15 5 -35 -22 -47 -62 -4 -14 -11 -35 -16
-45 -5 -14 -4 -17 6 -11 8 5 11 3 8 -6 -3 -8 -11 -13 -18 -11 -6 1 -10 -3 -7
-10 2 -7 -1 -20 -8 -28 -6 -8 -25 -60 -40 -115 -16 -55 -34 -107 -40 -115 -7
-8 -21 -62 -33 -120 -25 -127 -49 -236 -67 -310 -35 -146 -46 -208 -61 -367
-9 -95 -13 -180 -9 -190 5 -10 9 -20 10 -23 1 -3 4 -12 8 -20 10 -27 37 -146
37 -166 0 -10 15 -84 34 -164 41 -169 56 -251 56 -306 0 -45 23 -166 38 -206
18 -44 27 -164 25 -313 -3 -165 -12 -249 -47 -405 -29 -129 -28 -165 7 -156
12 3 28 6 35 6 6 0 12 4 12 9 0 5 12 23 28 40 49 57 264 272 288 288 13 8 26
23 29 32 3 10 16 24 30 31 13 7 36 31 51 54 15 23 62 75 104 117 42 41 92 95
109 120 18 24 55 67 82 96 27 28 49 56 49 63 0 6 35 47 78 91 42 44 82 88 87
98 16 27 105 105 112 98 3 -4 12 -2 20 4 19 16 16 2 -4 -19 -31 -33 -55 -64
-51 -67 5 -5 340 336 406 412 52 62 69 92 32 58 -11 -10 -20 -14 -20 -8 0 5 9
18 20 28 18 16 20 16 35 1 15 -15 15 -17 1 -22 -9 -3 -16 -10 -16 -16 0 -5
-16 -24 -35 -42 -19 -19 -35 -36 -35 -40 0 -16 -364 -386 -379 -386 -6 0 -38
-27 -71 -60 -33 -33 -67 -60 -75 -60 -8 0 -15 -9 -15 -20 0 -23 10 -26 28 -8
9 9 12 8 12 -5 0 -12 8 -17 28 -17 15 0 33 -5 39 -11 19 -19 3 -39 -33 -39
-19 0 -57 -9 -85 -19 -28 -11 -57 -17 -65 -14 -8 3 -34 -16 -64 -48 -70 -76
-80 -88 -80 -99 0 -5 -20 -23 -45 -40 -25 -17 -80 -75 -122 -128 -76 -95 -302
-331 -319 -333 -5 0 -24 -17 -42 -37 -18 -20 -69 -75 -113 -122 -65 -70 -79
-91 -79 -117 0 -18 4 -33 10 -33 5 0 7 -7 4 -15 -8 -20 25 -20 52 -1 13 10 23
11 32 4 7 -6 29 -8 54 -4 23 4 89 9 147 12 58 3 112 7 119 9 6 2 12 0 12 -5 0
-6 5 -10 11 -10 5 0 7 6 3 13 -6 9 -4 9 8 -1 9 -7 42 -15 75 -17 32 -3 75 -7
97 -11 27 -4 36 -3 32 5 -4 6 -17 11 -29 12 -18 1 -16 2 7 10 19 5 34 5 42 -2
9 -7 15 -5 22 7 9 16 11 16 23 -4 8 -12 20 -22 27 -22 7 0 11 -4 7 -9 -3 -6
-18 -6 -38 0 -41 12 -54 12 -42 0 16 -16 95 -26 95 -12 0 6 7 11 15 11 8 0 15
-6 15 -14 0 -8 10 -14 23 -13 12 0 37 -3 55 -7 26 -6 32 -5 32 9 0 12 -6 16
-18 13 -18 -5 -42 13 -42 31 0 5 18 11 40 13 39 3 57 -13 28 -26 -7 -3 -2 -4
11 -3 17 1 27 11 35 34 l11 32 29 -30 c16 -16 35 -29 42 -29 7 0 14 -12 16
-27 2 -22 9 -29 33 -33 21 -4 30 -11 31 -25 4 -44 6 -49 13 -25 5 17 13 24 27
22 24 -3 93 -22 119 -32 11 -5 43 -11 72 -15 29 -3 78 -14 110 -24 32 -10 85
-24 118 -31 33 -7 69 -16 80 -21 11 -5 45 -11 75 -14 30 -3 75 -10 100 -16 25
-5 55 -11 67 -12 12 -1 25 -5 29 -10 4 -4 22 -7 40 -7 18 0 35 -4 39 -10 3 -5
12 -7 21 -3 8 3 20 -2 27 -11 14 -20 159 -48 256 -51 40 -1 66 -6 69 -13 2 -7
8 -12 13 -12 6 0 8 4 5 8 -7 12 34 11 74 -1 19 -6 78 -11 130 -12 52 -1 103
-5 113 -10 9 -4 29 -4 43 -1 14 4 32 2 39 -4 8 -6 32 -11 55 -12 23 0 44 -6
46 -12 3 -8 25 -12 62 -10 31 1 61 -1 67 -4 5 -4 17 -7 25 -7 66 -3 178 -20
199 -31 14 -8 38 -14 53 -14 32 0 78 -16 78 -28 0 -4 -17 -8 -37 -9 -21 0 -53
-3 -72 -6 -18 -4 -41 -2 -51 3 -9 5 -57 10 -106 11 -49 1 -94 6 -100 10 -6 5
-84 20 -174 34 -90 14 -166 28 -170 30 -11 7 -181 14 -196 8 -25 -9 -15 -30
29 -58 23 -15 65 -50 93 -79 72 -71 116 -105 136 -106 10 0 24 -13 33 -30 18
-34 60 -42 68 -13 4 14 5 12 6 -4 1 -31 56 -85 113 -112 42 -20 58 -37 58 -62
0 -14 -22 -11 -41 7 -20 18 -53 37 -159 91 -41 21 -81 46 -88 56 -7 9 -18 17
-24 17 -11 0 -71 45 -122 92 -17 16 -34 28 -39 28 -5 0 -21 12 -36 27 -16 16
-52 41 -82 57 -30 15 -63 36 -74 47 -11 10 -38 25 -59 34 -21 9 -56 27 -77 41
-21 13 -47 24 -57 24 -10 0 -27 7 -38 15 -10 8 -29 15 -41 15 -12 0 -24 4 -27
9 -10 16 -108 23 -118 9 -6 -10 -10 -10 -18 2 -6 9 -21 14 -45 11 -20 -1 -42
3 -50 9 -9 8 -20 8 -32 2 -13 -7 -28 -6 -52 4 -18 8 -37 12 -42 9 -4 -3 -25 4
-46 15 -21 11 -48 20 -60 20 -12 0 -26 8 -32 18 -9 16 -10 16 -16 0 -9 -24
-21 -23 -28 1 -3 12 -18 24 -38 29 -42 11 -47 8 -26 -16 10 -10 17 -24 17 -30
0 -7 7 -12 16 -12 13 0 15 -7 11 -34 -5 -29 0 -39 34 -74 21 -23 39 -44 39
-48 0 -15 102 -102 115 -98 8 4 20 -6 29 -24 15 -30 41 -46 56 -37 5 3 12 -5
15 -17 7 -22 94 -113 106 -110 3 0 10 -8 17 -19 7 -10 9 -19 5 -18 -32 5 -35
-3 -10 -29 15 -15 27 -34 27 -41 0 -7 5 -9 11 -6 6 4 7 19 4 36 -5 24 -4 28 9
23 17 -7 22 -54 6 -54 -5 0 -10 -9 -10 -20 0 -18 16 -26 43 -21 5 1 6 -3 2 -9
-7 -11 11 -40 26 -40 4 0 11 10 15 22 6 20 9 17 24 -22 9 -25 22 -44 28 -42 7
1 12 -5 12 -13 0 -9 6 -15 13 -13 6 1 46 -20 87 -47 41 -28 84 -52 95 -55 16
-5 19 -13 18 -40 -2 -31 -2 -32 7 -12 13 30 24 28 16 -4 -5 -19 -3 -25 6 -22
15 5 43 -20 34 -30 -4 -3 -15 -1 -24 6 -9 7 -30 19 -47 27 -16 9 -37 19 -45
24 -8 5 -33 17 -55 27 -22 11 -58 33 -81 49 -51 38 -284 257 -284 268 0 4 -36
45 -80 89 -44 45 -80 86 -80 90 0 4 -30 39 -67 77 -74 76 -214 226 -223 240
-13 20 -103 81 -119 81 -10 0 -30 9 -44 20 -14 11 -33 21 -43 23 -11 2 -41 11
-69 21 -27 10 -57 21 -65 24 -8 3 -24 4 -36 3 -12 -1 -57 8 -100 19 -43 12
-95 26 -114 31 -19 5 -78 11 -130 14 -52 2 -111 7 -130 9 -44 7 -222 19 -235
17 -63 -10 -108 -11 -138 -3 -25 7 -37 7 -37 0 0 -6 -9 -8 -19 -5 -11 3 -28
-1 -38 -8 -17 -11 -78 -24 -148 -31 -16 -1 -33 -3 -37 -3 -4 -1 -19 -19 -33
-41 -14 -22 -43 -51 -65 -65 -22 -14 -47 -40 -56 -57 -16 -30 -45 -65 -117
-141 -15 -16 -29 -34 -30 -41 -1 -6 -21 -23 -44 -39 -24 -15 -43 -33 -43 -40
0 -8 -12 -24 -26 -38 -14 -13 -39 -50 -56 -81 -17 -32 -40 -60 -51 -64 -25 -8
-77 -58 -77 -73 0 -6 -6 -11 -14 -11 -12 0 -40 -26 -179 -166 -26 -27 -52 -53
-58 -59 -18 -18 -101 -130 -127 -170 -14 -22 -31 -44 -38 -48 -8 -4 -14 -14
-14 -20 0 -7 -9 -21 -21 -31 -16 -13 -20 -25 -16 -45 4 -18 0 -37 -10 -51
l-16 -23 -9 22 c-8 21 -9 21 -52 -20 -26 -25 -42 -48 -39 -56 4 -9 0 -13 -8
-11 -16 3 -66 -44 -80 -76 -12 -29 -30 -57 -71 -111 -13 -16 -50 -70 -83 -118
-33 -49 -61 -84 -63 -78 -2 6 -8 11 -14 11 -6 0 -7 -7 -4 -17 4 -9 -1 -25 -12
-37 -11 -12 -28 -37 -38 -56 -10 -19 -25 -39 -32 -43 -7 -5 -24 -26 -37 -48
-14 -21 -31 -38 -38 -36 -7 1 -13 -10 -15 -26 -2 -18 -12 -32 -27 -39 -14 -6
-34 -33 -49 -68 -14 -32 -33 -63 -41 -70 -8 -7 -15 -17 -15 -23 0 -5 -11 -24
-24 -41 -13 -17 -26 -41 -30 -52 -3 -12 -15 -29 -26 -39 -11 -10 -20 -22 -20
-27 0 -8 -69 -117 -80 -128 -3 -3 -18 -26 -33 -52 -15 -27 -32 -48 -37 -48 -5
0 -21 -25 -35 -55 -15 -30 -31 -55 -36 -55 -5 0 -9 -6 -9 -13 0 -18 -34 -49
-43 -40 -4 3 -7 1 -7 -5 0 -6 5 -14 10 -17 16 -10 1 -25 -38 -42 -28 -11 -37
-12 -43 -2 -11 18 -39 -7 -39 -35 0 -12 -3 -26 -7 -32 -5 -5 -1 -1 9 8 17 19
48 24 48 9 0 -5 -7 -14 -15 -21 -8 -7 -15 -18 -15 -24 0 -13 -89 -188 -123
-243 -13 -21 -27 -49 -32 -63 -4 -14 -13 -34 -19 -45 -7 -11 -19 -42 -26 -70
-7 -27 -19 -59 -26 -70 -7 -11 -18 -47 -24 -80 -7 -33 -18 -67 -25 -75 -18
-21 -44 -118 -76 -285 -29 -152 -30 -177 -9 -170 19 6 29 -16 22 -47 -2 -13
-13 -18 -35 -18 l-31 0 24 -17 c14 -9 28 -21 31 -25 19 -28 62 115 78 257 7
55 14 116 16 136 5 42 41 157 54 173 5 6 14 27 19 46 42 141 234 505 392 740
31 47 67 105 80 129 12 24 83 134 158 245 75 111 186 276 247 367 130 193 171
247 295 389 51 58 131 157 178 220 85 113 186 241 229 290 13 14 23 28 23 32
0 4 35 49 78 100 42 51 112 136 154 189 42 53 92 106 111 118 19 11 45 36 57
54 l23 33 70 -13 c39 -7 88 -18 109 -24 30 -8 43 -7 59 4 14 11 30 12 56 6 20
-4 39 -7 42 -7 3 1 13 -2 21 -5 8 -3 33 -8 55 -11 22 -2 58 -11 80 -20 22 -8
50 -15 62 -16 30 0 110 -36 147 -66 17 -13 69 -50 116 -80 47 -31 110 -80 140
-109 30 -28 66 -58 80 -65 14 -7 29 -19 33 -26 4 -8 13 -14 20 -14 7 0 34 -30
61 -66 60 -81 117 -109 129 -63 5 18 10 20 34 14 15 -4 48 -12 73 -16 25 -5
50 -11 55 -13 11 -3 35 -12 63 -23 9 -3 19 -7 22 -7 31 -6 80 -35 101 -59 18
-20 37 -31 60 -33 107 -10 196 -32 283 -70 16 -6 35 -10 43 -7 7 3 20 0 29 -7
11 -10 18 -10 26 -2 17 17 58 15 178 -9 116 -23 280 -36 280 -22 0 5 -6 15
-12 22 -9 10 -9 12 -1 7 7 -4 13 3 15 21 3 25 4 25 19 11 12 -13 24 -15 52 -8
20 4 38 6 40 4 11 -11 100 -11 147 0 46 11 49 14 23 15 -21 1 -36 8 -43 20
-15 28 -13 33 9 21 14 -7 21 -6 25 3 3 9 8 8 18 -3 7 -8 22 -22 32 -30 18 -14
19 -13 12 24 -7 35 -6 38 11 32 30 -12 127 -26 143 -21 8 3 40 6 70 9 30 2 74
9 97 15 34 9 42 16 40 33 -1 15 10 28 48 49 82 47 128 69 143 69 7 0 34 8 60
19 26 10 65 24 87 30 52 15 85 39 67 50 -20 12 12 34 39 26 15 -5 20 -3 17 6
-6 18 33 54 54 51 10 -2 18 2 18 7 0 6 10 11 23 11 20 0 44 10 112 47 11 6 34
16 50 23 60 24 95 43 95 52 0 4 -4 8 -9 8 -5 0 -11 10 -15 23 -4 17 4 30 35
59 41 38 108 75 145 81 12 1 33 11 48 20 14 10 37 22 51 27 31 12 54 55 37 72
-13 13 36 49 99 75 22 8 39 19 39 24 0 5 7 9 15 9 18 0 85 41 104 64 7 9 18
16 23 16 5 0 35 18 65 40 61 43 91 84 85 113 -3 15 0 18 16 13 21 -7 39 8 23
18 -10 7 3 65 16 75 5 3 19 23 33 43 14 21 30 38 36 38 6 0 24 11 40 25 16 14
35 25 43 25 7 0 23 9 35 20 11 10 41 34 66 53 60 45 74 72 52 109 -15 25 -15
29 1 46 9 10 17 25 17 33 0 8 15 23 33 33 17 11 48 34 67 53 180 174 201 197
197 215 -3 11 0 18 9 18 17 0 17 1 4 34 -7 21 -6 26 5 26 8 0 48 34 90 75 65
66 75 80 75 111 0 25 -7 41 -22 53 -13 11 -18 23 -13 30 5 9 13 3 26 -18 10
-17 24 -31 30 -31 8 0 6 6 -4 18 -35 39 2 85 82 99 14 2 35 15 47 29 13 13 43
36 68 52 218 133 250 159 259 218 5 27 2 43 -9 55 -14 16 -13 18 13 31 19 9
27 20 25 33 -3 16 -1 17 8 8 16 -15 40 -6 33 13 -3 9 0 12 8 9 9 -3 19 7 27
27 8 18 18 43 23 56 5 13 14 20 19 17 21 -13 8 8 -22 37 -30 28 -31 31 -15 43
9 7 17 14 17 17 0 6 55 69 128 147 29 31 50 62 47 69 -8 22 5 35 21 21 11 -9
14 -9 14 0 0 7 11 27 25 45 14 18 25 38 25 44 0 6 5 12 12 14 6 2 15 29 20 59
5 29 10 62 11 72 2 9 40 51 85 93 45 42 82 82 82 88 0 6 18 33 40 59 22 27 42
64 46 83 4 21 10 31 18 27 6 -4 5 1 -2 10 -8 9 -10 22 -6 29 5 7 7 21 6 31 -2
9 4 20 12 23 9 3 16 12 16 18 0 7 14 22 30 34 17 13 30 27 30 33 0 5 21 41 46
79 25 38 44 78 42 87 -2 10 -18 25 -35 33 -18 8 -32 20 -32 25 0 6 31 35 70
65 38 30 69 63 69 72 0 9 5 29 12 45 7 15 13 48 15 73 5 80 10 125 15 140 32
95 39 124 35 141 -3 11 -2 32 3 47 39 128 41 141 30 162 -6 11 -8 30 -5 41 5
15 -1 29 -20 49 -30 31 -30 43 -5 165 6 28 12 64 14 81 2 17 9 48 15 70 17 60
14 101 -10 125 -21 21 -21 22 -5 132 17 122 31 280 29 340 -1 26 -9 46 -26 63
-32 32 -41 77 -22 114 8 16 15 49 15 73 0 47 11 87 40 152 21 45 32 160 13
142 -3 -4 -12 1 -19 11 -10 14 -9 23 3 52 30 72 74 268 71 325 -1 22 -7 46
-15 53 -24 24 -14 64 53 217 90 204 97 220 130 300 16 38 46 96 66 128 25 38
38 69 38 92 0 24 5 35 15 35 17 0 19 18 6 39 -7 11 -20 10 -77 -4 -38 -10
-115 -20 -171 -22 -56 -1 -112 -7 -125 -11 -13 -5 -67 -10 -121 -11 -80 -2
-101 1 -110 13 -10 14 -54 17 -277 23 l-265 8 3 28 c3 26 2 27 -46 27 -27 0
-66 7 -85 15 -22 9 -51 13 -72 9 -53 -8 -237 23 -252 43 -7 9 -13 19 -13 22 0
11 -65 35 -100 37 -90 5 -172 14 -183 21 -7 4 -28 8 -47 9 -19 0 -63 7 -97 14
-51 11 -63 17 -63 33 0 14 -5 18 -19 14 -11 -3 -28 1 -38 8 -11 7 -41 11 -78
9 -33 -1 -78 -4 -100 -5 -22 -1 -57 2 -77 6 -24 4 -38 3 -38 -3 0 -16 -33 -24
-41 -11 -5 8 -29 12 -66 11 -74 -3 -94 8 -58 32 15 10 25 20 22 22 -6 7 -328
6 -421 -1 -70 -5 -77 -4 -66 10 12 15 8 45 -7 45 -4 -1 -23 -7 -42 -15z m553
-163 c3 -5 -18 -19 -47 -32 -29 -13 -57 -31 -64 -39 -6 -9 -14 -13 -17 -10
-11 10 49 70 79 79 40 11 43 11 49 2z m-584 -32 c0 -5 -5 -10 -11 -10 -5 0 -7
5 -4 10 3 6 8 10 11 10 2 0 4 -4 4 -10z m-360 -14 c0 -2 -16 -13 -35 -25 -40
-23 -46 -18 -12 10 20 16 47 25 47 15z m-141 -135 c-44 -49 -59 -59 -59 -42 0
14 91 104 97 97 3 -3 -14 -28 -38 -55z m931 55 c0 -3 -4 -8 -10 -11 -5 -3 -10
-1 -10 4 0 6 5 11 10 11 6 0 10 -2 10 -4z m-481 -72 c2 -55 -17 -114 -37 -114
-9 0 -11 6 -6 23 4 12 9 36 10 52 1 29 20 85 27 85 2 0 5 -21 6 -46z m444 4
c-6 -7 -13 -25 -17 -40 -3 -16 -13 -28 -21 -28 -8 0 -18 -12 -21 -27 -4 -16
-27 -54 -51 -86 -23 -31 -43 -62 -43 -68 0 -11 -31 -70 -41 -79 -6 -5 -51 -74
-75 -115 -7 -11 -35 -67 -64 -125 -28 -57 -57 -111 -65 -120 -28 -31 -88 -208
-99 -295 -11 -79 -28 -139 -44 -151 -7 -5 -13 -17 -11 -25 1 -7 -3 -27 -9 -42
-7 -16 -12 -34 -12 -42 0 -7 -6 -35 -14 -61 -8 -27 -22 -98 -31 -159 -9 -60
-27 -146 -40 -190 -13 -44 -26 -102 -30 -129 -3 -27 -8 -53 -11 -58 -3 -4 -7
-63 -8 -130 -2 -67 -7 -123 -12 -125 -10 -3 -9 -187 2 -308 4 -44 8 -96 9
-115 1 -19 5 -77 9 -127 9 -94 19 -111 46 -78 7 8 30 19 51 25 22 6 40 18 44
29 3 10 15 23 28 28 12 6 66 48 119 94 54 46 112 96 131 111 18 15 50 44 72
64 22 20 52 42 67 50 16 8 28 20 28 27 0 6 12 21 26 32 14 11 36 30 49 43 l23
23 19 -38 c11 -21 24 -38 29 -39 20 -1 80 -17 89 -24 12 -8 154 -35 175 -33 8
1 29 -2 45 -7 47 -15 349 -18 465 -4 58 7 161 15 230 19 171 9 191 11 225 25
16 6 65 13 109 15 43 2 84 9 89 14 6 6 19 11 28 11 10 0 20 6 22 13 4 9 7 9
14 -1 8 -10 15 -9 40 3 16 8 44 18 62 21 26 6 30 4 25 -9 -3 -9 -22 -19 -42
-23 -21 -4 -42 -11 -48 -15 -6 -5 -33 -12 -60 -15 -27 -3 -86 -14 -131 -25
-46 -11 -93 -19 -105 -18 -13 1 -30 -1 -38 -4 -26 -10 -104 -30 -130 -32 -14
-2 -65 -6 -115 -9 -49 -4 -101 -9 -115 -11 -35 -6 -200 -19 -230 -17 -49 2
-130 2 -137 0 -9 -2 -183 12 -216 17 -12 2 -86 11 -164 20 -78 9 -155 20 -171
25 -40 11 -93 -7 -135 -46 -17 -17 -57 -50 -87 -75 -30 -24 -63 -52 -73 -62
-10 -10 -22 -15 -27 -12 -6 4 -10 -1 -10 -9 0 -9 -3 -16 -8 -16 -4 0 -19 -10
-32 -22 -14 -13 -55 -47 -90 -77 -36 -30 -94 -84 -129 -120 -38 -39 -65 -61
-68 -53 -8 21 -26 13 -20 -10 5 -17 -9 -37 -66 -95 -40 -41 -94 -91 -120 -111
-69 -52 -99 -132 -49 -132 11 0 18 -7 18 -19 0 -16 -6 -18 -39 -14 -53 6 -101
-12 -147 -55 -46 -43 -79 -72 -82 -72 -2 0 -4 11 -4 25 -1 14 2 25 8 25 5 0 6
-4 3 -10 -16 -25 16 -6 40 24 15 19 38 37 51 40 13 4 24 12 24 20 0 7 9 21 20
31 11 10 20 30 20 44 0 18 14 41 46 71 25 25 59 59 76 75 17 17 33 30 37 31
18 2 40 17 36 24 -3 5 3 6 14 3 10 -3 22 0 25 6 4 6 2 11 -3 11 -6 0 -11 4
-11 10 0 16 43 60 59 60 11 0 8 -7 -9 -25 -19 -20 -20 -25 -7 -25 19 0 37 29
37 59 0 11 12 29 26 40 20 16 23 24 15 39 -5 10 -15 65 -20 121 -6 57 -13 106
-15 109 -8 13 -16 140 -22 342 -3 113 -7 221 -9 240 -5 60 -16 134 -22 150
-11 27 -13 45 -14 90 0 25 -9 106 -20 180 -11 74 -26 182 -34 238 -8 57 -19
120 -24 140 -9 35 -14 79 -25 217 -5 61 13 315 24 345 1 3 2 13 1 22 -3 24 27
78 43 78 8 0 16 -6 19 -14 8 -21 -8 -71 -22 -69 -6 2 -11 -2 -11 -7 0 -6 4
-10 10 -10 6 0 6 -9 0 -24 -8 -22 -6 -211 3 -321 3 -27 8 -97 11 -154 4 -57
13 -128 22 -156 8 -29 14 -57 13 -61 -2 -5 1 -45 5 -89 4 -45 9 -112 11 -150
4 -78 11 -123 27 -173 l10 -34 29 28 c26 25 29 34 29 93 0 36 5 84 10 106 5
22 11 58 14 80 9 78 49 208 103 335 22 53 34 100 44 180 5 46 15 92 20 103 7
12 8 45 3 90 -10 88 -10 234 -1 243 13 14 17 -4 18 -77 1 -41 6 -82 11 -93 7
-12 6 -22 -1 -29 -6 -6 -11 -17 -11 -25 0 -12 3 -12 15 -2 8 7 12 16 9 21 -3
5 -1 9 5 9 6 0 14 12 17 28 4 15 10 29 14 32 4 3 39 64 78 137 40 73 92 163
116 200 24 37 53 87 65 110 12 23 35 58 51 77 17 18 30 37 30 41 0 4 16 28 36
52 25 31 40 41 47 34 7 -7 7 -14 0 -23z m1117 -28 c0 -11 -7 -20 -15 -20 -13
0 -14 4 -5 20 6 11 13 20 15 20 3 0 5 -9 5 -20z m70 0 c0 -5 -5 -10 -11 -10
-5 0 -7 5 -4 10 3 6 8 10 11 10 2 0 4 -4 4 -10z m-2198 -83 c-12 -13 -22 -29
-22 -35 0 -7 -4 -12 -10 -12 -5 0 -10 3 -10 7 0 12 52 74 58 69 3 -4 -4 -16
-16 -29z m2062 -57 c-11 -19 -25 -40 -33 -46 -8 -6 -11 -16 -7 -22 3 -6 2 -13
-4 -17 -9 -5 -54 -97 -82 -165 -6 -14 -14 -32 -19 -40 -10 -17 -35 -71 -54
-115 -7 -16 -22 -50 -33 -75 -11 -25 -25 -65 -31 -90 -6 -25 -20 -72 -31 -105
-41 -116 -71 -231 -81 -309 -5 -44 -12 -83 -15 -88 -3 -5 -8 -39 -10 -76 -2
-37 -8 -91 -14 -120 -12 -66 8 -117 41 -107 32 11 22 -14 -16 -36 -20 -12 -40
-30 -46 -40 -12 -23 -1 -24 25 -4 11 8 24 15 30 15 15 0 -65 -79 -86 -86 -10
-3 -18 -10 -18 -15 0 -11 -10 -21 -116 -130 -38 -38 -72 -69 -76 -69 -4 0 -21
-12 -37 -27 -17 -16 -46 -41 -66 -58 -20 -16 -64 -57 -98 -89 -70 -67 -123
-106 -143 -106 -24 0 -15 20 24 55 96 88 180 172 192 194 12 23 13 24 26 7 12
-17 16 -16 60 20 70 58 164 155 164 171 0 7 6 13 13 13 7 0 27 15 44 33 26 27
33 45 43 117 7 47 12 100 11 118 -5 115 79 548 121 626 6 11 19 49 29 86 10
37 44 123 75 191 31 68 67 152 79 186 12 34 27 69 33 76 7 8 15 29 18 48 9 45
20 65 63 119 34 43 36 43 40 20 1 -14 -5 -41 -15 -60z m-1554 -20 l-8 -35 -1
31 c-1 17 2 34 6 37 11 12 12 3 3 -33z m3050 -9 c-22 -32 -50 -41 -50 -17 0
14 61 59 68 51 2 -2 -6 -18 -18 -34z m-3625 9 c3 -5 -7 -29 -22 -52 -15 -24
-41 -70 -56 -103 -16 -33 -42 -79 -58 -102 -16 -23 -29 -45 -29 -49 0 -10 -75
-211 -108 -289 -62 -145 -121 -323 -137 -415 -10 -52 -26 -131 -37 -175 -11
-44 -21 -84 -22 -90 -1 -5 -9 -35 -19 -65 -20 -67 -56 -263 -56 -309 0 -34
-17 -120 -31 -156 -21 -52 -29 -84 -35 -125 -4 -25 -17 -81 -30 -125 -13 -44
-35 -147 -49 -230 -14 -82 -34 -199 -46 -259 -11 -61 -20 -144 -20 -185 0 -69
-12 -177 -39 -379 -6 -40 -11 -100 -12 -135 -2 -34 -6 -66 -9 -72 -4 -5 -10
-51 -12 -100 -3 -51 -12 -104 -20 -120 -9 -17 -19 -48 -22 -69 -12 -62 -37
-119 -49 -107 -6 6 -4 26 7 60 9 27 16 61 16 75 0 13 5 26 11 28 9 3 8 10 -2
25 -11 18 -10 27 4 60 9 21 16 60 15 88 -1 28 -1 70 0 95 1 25 2 52 2 60 2 88
11 210 19 257 6 32 13 76 16 98 3 22 8 46 11 54 7 21 25 148 30 216 4 50 12
111 19 135 1 3 5 34 9 70 11 89 28 174 64 315 29 114 38 155 63 263 6 26 17
72 25 103 8 30 14 66 14 80 0 13 13 76 30 139 16 63 30 129 30 145 0 17 7 40
15 52 21 29 48 151 40 181 -5 19 -3 23 9 19 11 -4 15 -1 14 11 -5 35 15 127
33 156 10 17 20 36 22 41 61 180 176 509 192 548 4 9 11 17 15 17 4 0 11 16
14 35 4 19 11 35 15 35 5 0 16 21 26 48 10 26 27 58 39 72 32 38 58 89 51 101
-4 6 1 17 11 24 23 17 31 18 39 5z m305 -20 c0 -5 -7 -7 -15 -4 -8 4 -15 8
-15 10 0 2 7 4 15 4 8 0 15 -4 15 -10z m770 0 c0 -5 -5 -10 -11 -10 -5 0 -7 5
-4 10 3 6 8 10 11 10 2 0 4 -4 4 -10z m1865 0 c-3 -5 -12 -10 -18 -10 -7 0 -6
4 3 10 19 12 23 12 15 0z m590 -50 c-10 -11 -21 -18 -23 -15 -3 3 3 12 14 20
27 20 30 18 9 -5z m-3245 -25 c0 -12 -7 -26 -16 -29 -12 -5 -15 -2 -10 10 3 8
6 25 6 35 0 11 5 17 10 14 6 -3 10 -17 10 -30z m2555 4 c-10 -15 -25 -10 -19
6 4 8 10 12 15 9 5 -3 7 -10 4 -15z m-2795 -39 c0 -5 -4 -10 -10 -10 -5 0 -10
5 -10 10 0 6 5 10 10 10 6 0 10 -4 10 -10z m228 -48 c-6 -15 -14 -36 -19 -47
-4 -11 -9 -29 -11 -39 -2 -11 -9 -21 -15 -23 -15 -5 -13 30 7 98 10 36 17 45
31 42 15 -4 16 -9 7 -31z m3052 15 c0 -2 -30 -28 -67 -57 -38 -30 -73 -60 -80
-67 -6 -8 -19 -13 -29 -11 -11 2 -23 -6 -30 -20 -8 -17 -14 -20 -19 -11 -5 8
1 19 16 31 13 10 29 22 36 28 7 5 14 10 17 10 3 0 35 23 72 50 59 44 84 58 84
47z m-2793 -29 c-3 -8 -6 -5 -6 6 -1 11 2 17 5 13 3 -3 4 -12 1 -19z m-1672
-35 c-4 -27 -13 -77 -21 -113 -7 -36 -25 -130 -39 -210 -14 -80 -32 -163 -39
-185 -20 -57 -24 -80 -31 -175 -4 -47 -11 -104 -15 -128 -4 -23 -4 -45 1 -48
5 -3 5 -13 0 -22 -5 -10 -8 -33 -7 -52 2 -19 1 -39 -2 -44 -3 -5 -6 -21 -8
-35 -1 -14 -4 -42 -8 -61 -3 -19 -8 -57 -10 -85 -10 -91 -18 -124 -28 -122
-15 3 -28 -47 -17 -64 9 -15 12 -7 12 34 0 12 5 16 17 12 35 -11 135 87 152
149 8 31 16 42 27 39 15 -3 61 54 61 77 0 16 17 12 24 -5 6 -16 -60 -115 -76
-115 -5 0 -16 -17 -26 -37 -9 -21 -35 -64 -57 -95 -22 -31 -49 -71 -60 -89
-11 -19 -27 -45 -36 -59 -8 -14 -21 -47 -28 -75 -31 -120 -134 -422 -167 -488
-8 -16 -14 -34 -14 -42 0 -7 -9 -32 -19 -56 -11 -24 -22 -66 -26 -94 -6 -53
-22 -113 -35 -130 -5 -5 -8 -12 -8 -15 1 -3 -2 -22 -6 -43 -7 -39 -1 -77 13
-77 16 0 177 115 220 157 24 24 47 43 51 43 5 0 19 13 32 29 13 15 37 36 52
46 24 16 50 39 124 108 12 12 22 17 22 11 0 -7 -7 -17 -15 -24 -8 -7 -15 -17
-15 -23 0 -6 -15 -24 -32 -41 -18 -17 -51 -52 -73 -78 -28 -33 -45 -46 -57
-42 -12 3 -18 0 -18 -10 0 -9 -3 -16 -7 -16 -5 0 -17 -14 -28 -30 -22 -33 -35
-38 -35 -14 0 19 -19 8 -28 -16 -4 -10 -54 -62 -112 -116 -108 -101 -161 -172
-180 -246 -7 -24 -15 -47 -20 -53 -7 -9 -41 -142 -70 -275 -7 -30 -16 -73 -21
-95 -11 -48 -78 -425 -86 -478 -3 -22 0 -43 7 -52 9 -10 8 -19 -3 -37 -10 -14
-14 -44 -13 -80 1 -32 -2 -58 -6 -58 -5 0 -8 -9 -8 -21 0 -11 5 -17 10 -14 6
3 10 -1 10 -9 0 -9 -6 -16 -14 -16 -11 0 -13 -22 -10 -117 3 -103 3 -234 0
-461 -1 -66 6 -84 22 -57 5 10 15 13 25 9 22 -8 21 -20 -1 -36 -11 -7 -24 -23
-31 -35 -6 -13 -18 -23 -25 -23 -16 0 -28 48 -14 56 5 3 4 12 -3 20 -13 16
-18 66 -19 234 -2 137 14 476 23 500 7 18 14 84 23 205 3 50 12 123 20 163 8
40 17 96 20 125 3 29 12 56 20 60 9 5 14 25 14 55 0 26 7 79 15 117 9 39 24
117 35 175 24 127 43 212 69 305 11 39 29 104 41 145 12 41 32 102 45 135 13
33 27 83 30 110 4 28 11 55 15 60 14 17 50 151 50 183 0 17 12 54 27 84 15 29
28 71 29 93 1 22 2 48 3 58 1 9 7 17 15 17 8 0 16 16 20 41 3 22 15 66 26 97
22 63 60 279 53 298 -2 7 5 31 16 55 16 33 21 62 21 128 0 47 7 147 15 221 7
74 17 164 20 200 7 79 19 138 50 250 13 47 33 130 45 185 22 101 45 184 60
220 5 11 11 32 14 48 10 45 18 31 11 -20z m1735 28 c0 -6 -4 -13 -10 -16 -5
-3 -10 1 -10 9 0 9 5 16 10 16 6 0 10 -4 10 -9z m2473 -155 c-10 -13 -55 -50
-101 -82 -46 -32 -91 -66 -101 -75 -10 -9 -25 -13 -36 -9 -16 5 -10 12 31 40
27 18 60 43 74 55 35 31 130 95 142 95 5 0 1 -11 -9 -24z m-2565 -54 c9 7 6 0
-6 -16 -14 -18 -20 -36 -16 -48 8 -25 -4 -88 -17 -88 -6 0 -7 28 -4 71 5 71
15 105 23 81 3 -10 7 -10 20 0z m-1038 -23 c0 -15 -39 -79 -48 -79 -4 0 -13
-15 -20 -32 -8 -18 -18 -43 -23 -55 -5 -13 -17 -23 -29 -23 -13 0 -20 -7 -20
-20 0 -28 -23 -70 -59 -109 -17 -18 -32 -39 -32 -47 -2 -23 -4 -28 -13 -43 -7
-11 -10 -11 -18 0 -7 10 -8 8 -3 -7 4 -14 0 -24 -10 -28 -8 -3 -15 -12 -15
-21 0 -8 -4 -15 -10 -15 -5 0 -13 -12 -16 -27 -4 -16 -20 -44 -35 -64 -16 -20
-29 -40 -29 -44 0 -4 -30 -52 -67 -108 -42 -62 -69 -95 -71 -85 -2 9 5 26 15
37 31 34 38 44 76 111 21 36 42 72 47 80 6 8 15 26 21 40 22 53 50 109 57 112
4 2 20 28 36 58 16 30 42 71 58 91 15 20 28 44 28 52 0 9 6 22 13 29 7 7 27
36 45 65 19 29 49 69 68 90 19 20 34 41 34 45 0 4 5 8 10 8 6 0 10 -5 10 -11z
m346 -106 c-11 -11 -17 4 -9 23 7 18 8 18 11 1 2 -10 1 -21 -2 -24z m-526 10
c0 -5 -5 -15 -10 -23 -8 -12 -10 -11 -10 8 0 12 5 22 10 22 6 0 10 -3 10 -7z
m3497 -28 c-9 -8 -19 -15 -23 -15 -8 0 -71 -52 -129 -107 -25 -24 -49 -43 -54
-43 -6 0 -14 -6 -18 -14 -4 -7 -26 -24 -48 -38 -22 -14 -58 -42 -80 -61 -22
-20 -44 -37 -49 -37 -5 0 15 21 45 48 29 26 80 72 112 102 76 71 75 70 123
103 22 15 45 27 52 27 7 0 12 7 12 15 0 8 7 15 16 15 8 0 22 7 31 15 8 9 18
14 20 11 3 -3 -2 -12 -10 -21z m-2471 -12 c-10 -10 -19 5 -10 18 6 11 8 11 12
0 2 -7 1 -15 -2 -18z m-489 11 c-3 -3 -12 -4 -19 -1 -8 3 -5 6 6 6 11 1 17 -2
13 -5z m-855 -16 c-7 -7 -12 -21 -12 -32 0 -14 -3 -17 -11 -9 -12 12 8 53 25
53 6 0 5 -5 -2 -12z m1593 -18 c3 -5 1 -10 -4 -10 -6 0 -11 5 -11 10 0 6 2 10
4 10 3 0 8 -4 11 -10z m-19 -67 c-11 -11 -17 4 -9 23 7 18 8 18 11 1 2 -10 1
-21 -2 -24z m-51 -23 c7 -21 0 -40 -16 -40 -5 0 -9 7 -9 16 0 14 -3 14 -16 4
-13 -12 -14 -10 -3 13 14 32 35 35 44 7z m-895 -25 c0 -8 -7 -15 -15 -15 -8 0
-15 7 -15 15 0 8 7 15 15 15 8 0 15 -7 15 -15z m890 -45 c0 -5 -5 -10 -11 -10
-5 0 -7 5 -4 10 3 6 8 10 11 10 2 0 4 -4 4 -10z m-2690 -44 c0 -3 -4 -8 -10
-11 -5 -3 -10 -1 -10 4 0 6 5 11 10 11 6 0 10 -2 10 -4z m5310 -20 c0 -4 -46
-27 -155 -76 -22 -10 -71 -23 -110 -30 -38 -6 -79 -15 -90 -20 -11 -5 -42 -12
-70 -16 -54 -8 -53 -8 -75 -17 -20 -7 -63 -14 -198 -32 -61 -8 -121 -19 -131
-25 -11 -5 -31 -10 -45 -10 -17 0 -34 -12 -53 -35 -15 -19 -54 -51 -86 -71
-31 -19 -55 -40 -52 -45 4 -5 2 -9 -4 -9 -5 0 -12 4 -15 9 -6 10 80 91 125
118 14 8 29 25 35 37 5 11 17 21 26 21 10 0 45 24 78 53 33 29 60 49 60 44 0
-5 -6 -15 -14 -22 -8 -6 -13 -17 -10 -25 13 -32 145 -25 309 16 44 11 105 27
135 34 83 21 116 31 225 69 103 36 115 39 115 32z m-1453 -418 c-3 -7 -5 -2
-5 12 0 14 2 19 5 13 2 -7 2 -19 0 -25z m353 26 c0 -8 -83 -84 -92 -84 -4 0
-24 -16 -45 -35 -55 -51 -63 -43 -12 13 56 60 149 127 149 106z m-490 -24 c0
-5 -2 -10 -4 -10 -3 0 -8 5 -11 10 -3 6 -1 10 4 10 6 0 11 -4 11 -10z m770 0
c0 -5 -2 -10 -4 -10 -3 0 -8 5 -11 10 -3 6 -1 10 4 10 6 0 11 -4 11 -10z
m-125 -20 c3 -5 1 -10 -4 -10 -6 0 -11 5 -11 10 0 6 2 10 4 10 3 0 8 -4 11
-10z m-1978 -82 c-3 -7 -5 -2 -5 12 0 14 2 19 5 13 2 -7 2 -19 0 -25z m1643 7
c0 -8 -7 -15 -15 -15 -16 0 -20 12 -8 23 11 12 23 8 23 -8z m-30 -64 c0 -5 -7
-14 -15 -21 -16 -14 -18 -10 -9 14 6 17 24 22 24 7z m480 -111 c0 -5 -4 -10
-10 -10 -5 0 -10 5 -10 10 0 6 5 10 10 10 6 0 10 -4 10 -10z m-2180 -100 c0
-5 -4 -10 -10 -10 -5 0 -10 5 -10 10 0 6 5 10 10 10 6 0 10 -4 10 -10z m133
-6 c3 -3 3 -13 0 -21 -5 -12 -7 -12 -14 -1 -15 23 -4 40 14 22z m1884 -56 c-3
-7 -5 -2 -5 12 0 14 2 19 5 13 2 -7 2 -19 0 -25z m-1527 -12 c0 -3 -4 -8 -10
-11 -5 -3 -10 -1 -10 4 0 6 5 11 10 11 6 0 10 -2 10 -4z m1136 -11 c21 -20 14
-47 -16 -62 -32 -16 -50 -1 -32 27 6 11 12 27 12 35 0 19 17 19 36 0z m-1466
-43 l0 -26 -16 22 c-8 12 -12 27 -9 32 10 17 25 1 25 -28z m1500 -16 c0 -23
-16 -27 -17 -5 -1 10 2 19 8 19 5 0 9 -6 9 -14z m1620 -15 c0 -6 -4 -13 -10
-16 -5 -3 -10 1 -10 9 0 9 5 16 10 16 6 0 10 -4 10 -9z m-1146 -26 c4 -10 -1
-15 -14 -15 -13 0 -18 5 -14 15 4 8 10 15 14 15 4 0 10 -7 14 -15z m-3274 -45
c0 -5 -4 -10 -10 -10 -5 0 -10 5 -10 10 0 6 5 10 10 10 6 0 10 -4 10 -10z
m2870 0 c0 -5 -5 -10 -11 -10 -5 0 -7 5 -4 10 3 6 8 10 11 10 2 0 4 -4 4 -10z
m1400 -18 c0 -4 -17 -15 -37 -25 -21 -9 -45 -21 -53 -26 -20 -12 -148 -63
-155 -62 -3 1 -26 -9 -53 -23 -64 -32 -172 -69 -180 -62 -3 4 0 12 6 18 9 9
12 9 12 -2 0 -10 4 -9 18 3 10 10 25 17 33 17 9 0 34 9 56 20 23 11 63 27 90
36 26 8 80 30 118 48 78 37 139 64 143 65 1 1 2 -2 2 -7z m-1690 -42 c0 -5 -5
-10 -11 -10 -5 0 -7 5 -4 10 3 6 8 10 11 10 2 0 4 -4 4 -10z m154 -36 c3 -8 2
-12 -4 -9 -6 3 -10 10 -10 16 0 14 7 11 14 -7z m261 -15 c-10 -15 -25 -10 -19
6 4 8 10 12 15 9 5 -3 7 -10 4 -15z m-635 -39 c0 -5 -4 -10 -10 -10 -5 0 -10
5 -10 10 0 6 5 10 10 10 6 0 10 -4 10 -10z m2000 -10 c0 -5 -5 -10 -11 -10 -5
0 -7 5 -4 10 3 6 8 10 11 10 2 0 4 -4 4 -10z m-4250 -46 c-18 -21 -24 -10 -9
18 8 14 14 18 17 10 2 -7 -2 -19 -8 -28z m1550 32 c0 -3 -4 -8 -10 -11 -5 -3
-10 -1 -10 4 0 6 5 11 10 11 6 0 10 -2 10 -4z m670 -27 c0 -11 -4 -17 -10 -14
-5 3 -10 15 -10 26 0 11 5 17 10 14 6 -3 10 -15 10 -26z m84 -15 c17 -7 22
-34 6 -34 -5 0 -10 6 -10 14 0 8 -6 17 -12 19 -7 3 -10 6 -6 6 3 1 13 -2 22
-5z m-2324 -18 c0 -15 -14 -36 -24 -36 -6 -1 -20 -20 -31 -42 -30 -61 -50 -62
-27 -1 11 26 17 54 15 61 -6 15 13 16 23 1 5 -8 10 -6 16 5 8 14 28 23 28 12z
m2280 -6 c0 -5 -4 -10 -10 -10 -5 0 -10 5 -10 10 0 6 5 10 10 10 6 0 10 -4 10
-10z m-2638 -52 c-7 -7 -12 -8 -12 -2 0 14 12 26 19 19 2 -3 -1 -11 -7 -17z
m-1258 -33 c-16 -25 -34 -33 -34 -16 0 12 29 41 41 41 5 0 2 -11 -7 -25z
m1511 15 c3 -5 1 -10 -4 -10 -6 0 -11 5 -11 10 0 6 2 10 4 10 3 0 8 -4 11 -10z
m-40 -30 c3 -5 1 -10 -4 -10 -6 0 -11 5 -11 10 0 6 2 10 4 10 3 0 8 -4 11 -10z
m5 -45 c0 -8 -7 -15 -15 -15 -16 0 -20 12 -8 23 11 12 23 8 23 -8z m-328 -267
c-6 -6 -15 -8 -19 -4 -4 4 -1 11 7 16 19 12 27 3 12 -12z m4754 -123 c-7 -18
-26 -20 -26 -2 0 18 24 41 28 27 2 -6 1 -17 -2 -25z m-746 -26 c0 -5 -4 -9
-10 -9 -5 0 -10 7 -10 16 0 8 5 12 10 9 6 -3 10 -10 10 -16z m-6507 -140 c3
-64 -19 -60 -27 5 -4 31 -12 58 -17 61 -5 4 -9 11 -9 17 0 6 12 -1 26 -15 18
-18 26 -37 27 -68z m7100 54 c-7 -2 -13 -13 -13 -24 0 -18 -13 -27 -95 -60
-38 -15 -110 -33 -127 -31 -9 1 -51 -10 -94 -23 -71 -24 -85 -25 -198 -18 -66
3 -140 7 -164 7 -30 0 -41 4 -38 13 7 16 4 16 -30 -2 -16 -8 -39 -15 -51 -15
-12 0 -25 -5 -29 -11 -4 -7 -10 -7 -16 -1 -11 11 -119 -10 -158 -32 -24 -13
-58 -21 -192 -46 -67 -13 -86 -30 -70 -65 12 -26 63 -41 110 -32 15 3 45 -1
67 -9 22 -8 96 -28 165 -44 69 -17 135 -35 148 -40 22 -9 50 -13 192 -26 36
-3 83 -8 105 -10 55 -5 305 -5 314 0 4 3 13 1 21 -4 9 -5 19 -5 26 1 8 7 14 7
18 0 10 -16 -9 -22 -81 -26 -37 -2 -113 -6 -168 -10 -59 -4 -135 -2 -185 5
-47 6 -103 13 -125 16 -22 2 -51 6 -65 9 -14 2 -53 8 -87 14 -34 5 -67 12 -72
15 -5 4 -32 8 -60 10 -28 3 -56 8 -63 12 -7 5 -19 9 -28 11 -63 10 -161 33
-188 43 -18 7 -39 10 -47 6 -8 -3 -17 -1 -20 4 -6 10 -90 25 -118 21 -9 -1
-20 4 -23 12 -3 10 -17 13 -45 11 -21 -2 -39 1 -39 7 0 15 -27 10 -34 -6 -4
-12 -10 -13 -24 -6 -12 7 -42 7 -88 0 -38 -6 -87 -11 -109 -13 -22 -2 -67 -9
-100 -16 -45 -9 -69 -9 -97 -1 -27 8 -49 9 -76 2 -20 -6 -71 -10 -112 -9 -128
2 -178 -3 -184 -19 -3 -7 1 -16 9 -19 8 -3 17 -14 20 -24 7 -22 28 -32 78 -35
26 -2 37 1 37 11 0 9 11 14 30 14 20 0 30 -5 30 -15 0 -8 5 -15 11 -15 5 0 7
-5 3 -11 -5 -8 -9 -7 -14 1 -10 16 -43 5 -37 -13 2 -6 12 -12 23 -12 13 0 20
-8 22 -26 3 -24 35 -49 62 -49 5 0 20 -11 34 -25 30 -30 50 -33 43 -5 -3 12
-1 18 5 14 5 -3 7 -16 4 -28 -4 -18 2 -26 32 -41 20 -11 43 -27 49 -35 11 -13
14 -13 23 0 9 13 11 13 20 0 5 -8 14 -16 20 -16 5 -1 13 -2 17 -3 4 0 -5 -13
-21 -28 -19 -17 -31 -23 -34 -15 -2 6 -20 19 -40 29 -20 9 -53 29 -72 43 -19
15 -43 30 -53 33 -20 7 -88 51 -204 129 -39 26 -75 48 -81 48 -5 0 -17 9 -27
20 -13 14 -22 17 -30 10 -10 -8 -19 -1 -35 25 -12 19 -29 39 -38 44 -20 9 -98
8 -108 -2 -4 -4 -14 -1 -23 7 -9 7 -38 16 -66 20 -55 8 -296 36 -307 36 -5 0
-8 5 -8 10 0 11 48 35 63 32 4 -1 24 -5 45 -8 20 -3 52 -12 71 -20 18 -8 37
-12 41 -9 5 3 28 6 52 6 23 1 48 5 53 9 6 5 42 2 80 -6 65 -13 237 -20 253
-11 4 3 78 8 165 12 121 5 157 4 157 -5 0 -9 4 -9 13 -3 6 6 47 9 89 7 65 -3
79 -1 87 14 8 12 13 14 18 6 7 -11 44 -12 146 -6 15 1 27 7 27 13 0 5 -5 7
-11 4 -14 -9 -59 3 -59 15 0 6 8 10 18 10 10 0 23 5 30 12 9 9 13 7 18 -6 5
-12 12 -15 28 -10 11 4 31 7 43 6 12 -1 25 3 28 8 4 6 12 4 22 -5 9 -9 22 -14
30 -11 8 4 39 9 69 12 30 4 57 11 60 15 3 5 17 9 32 9 15 0 56 9 91 20 36 11
67 18 69 16 2 -3 29 4 59 15 31 10 66 16 79 13 14 -4 31 -1 39 6 8 7 34 13 57
14 24 1 48 5 55 9 7 4 16 0 22 -10 8 -14 10 -15 11 -3 0 17 87 42 96 28 3 -5
10 -5 16 -2 8 5 9 1 4 -11 -5 -14 -3 -15 6 -7 8 6 38 7 83 3 39 -4 88 -4 109
1 22 5 56 7 75 5 20 -1 61 3 91 11 30 8 88 20 129 28 40 8 88 21 105 30 17 9
47 25 66 35 19 10 40 18 45 18 6 0 4 -3 -2 -6z m-5333 -112 c0 -6 -4 -13 -10
-16 -5 -3 -10 1 -10 9 0 9 5 16 10 16 6 0 10 -4 10 -9z m-789 -97 c-25 -32
-27 -24 -4 19 9 18 18 26 20 20 3 -7 -5 -25 -16 -39z m2945 -51 c-10 -10 -19
5 -10 18 6 11 8 11 12 0 2 -7 1 -15 -2 -18z m-26 -27 c0 -2 -7 -6 -15 -10 -8
-3 -15 -1 -15 4 0 6 7 10 15 10 8 0 15 -2 15 -4z m1740 -56 c0 -5 -2 -10 -4
-10 -3 0 -8 5 -11 10 -3 6 -1 10 4 10 6 0 11 -4 11 -10z m-4240 -24 c0 -3 -4
-8 -10 -11 -5 -3 -10 -1 -10 4 0 6 5 11 10 11 6 0 10 -2 10 -4z m4259 -37
c-17 -10 -24 4 -14 29 6 16 7 16 17 -2 8 -14 7 -21 -3 -27z m-1890 -16 c-9
-11 -10 -16 -1 -22 7 -4 8 -11 1 -21 -8 -11 -12 -12 -16 -3 -3 9 -14 11 -31 6
-27 -6 -27 -6 8 30 32 33 65 42 39 10z m205 18 c3 -5 -3 -11 -14 -14 -13 -3
-20 0 -20 9 0 15 26 19 34 5z m1040 -16 c4 -10 -1 -15 -14 -15 -11 0 -20 7
-20 15 0 8 6 15 14 15 8 0 16 -7 20 -15z m254 -4 c3 -8 -1 -12 -9 -9 -7 2 -15
10 -17 17 -3 8 1 12 9 9 7 -2 15 -10 17 -17z m141 -7 c12 -27 7 -45 -8 -28
-14 14 -23 54 -13 54 5 0 14 -12 21 -26z m-1069 -3 c0 -10 -6 -21 -13 -24 -11
-4 -15 18 -8 41 4 11 21 -2 21 -17z m70 3 c0 -2 -9 -4 -21 -4 -11 0 -18 4 -14
10 5 8 35 3 35 -6z m670 13 c0 -2 -9 -12 -19 -21 -19 -17 -19 -17 -14 3 3 12
12 21 19 21 8 0 14 -2 14 -3z m690 -7 c0 -5 9 -10 20 -10 33 0 22 -17 -15 -24
-46 -9 -62 1 -38 24 20 21 33 25 33 10z m-417 -18 c10 -10 14 -22 10 -26 -4
-4 -9 -28 -10 -53 -2 -26 -8 -52 -13 -58 -5 -7 -6 -16 -2 -20 4 -5 -1 -5 -10
-2 -10 3 -20 2 -23 -3 -10 -16 -22 -11 -22 7 0 10 10 25 22 35 26 21 33 89 10
112 -11 11 -12 16 -2 19 20 9 23 8 40 -11z m555 0 c2 -7 -2 -10 -12 -6 -9 3
-16 11 -16 16 0 13 23 5 28 -10z m-1376 -42 c4 0 8 9 8 20 0 12 7 20 16 20 10
0 14 -6 10 -15 -6 -17 9 -21 19 -5 4 6 11 7 17 4 6 -4 5 -9 -3 -15 -11 -6 -11
-11 -1 -21 16 -16 15 -28 -4 -28 -8 0 -12 -5 -9 -10 4 -6 10 -8 15 -5 4 3 10
-2 14 -10 6 -17 -10 -30 -19 -15 -4 6 -10 8 -15 5 -17 -11 -72 25 -67 44 5 20
-19 44 -36 36 -6 -4 -4 0 6 8 9 8 17 20 18 28 1 8 6 2 12 -13 6 -16 14 -28 19
-28z m923 0 c16 -31 20 -70 8 -70 -5 0 -19 9 -33 20 -14 11 -18 19 -10 18 11
-2 15 6 14 30 -2 40 1 40 21 2z m1651 8 c-10 -6 -20 -7 -24 -3 -9 8 20 25 31
18 5 -3 2 -10 -7 -15z m-1041 -18 c4 -6 10 -8 15 -5 4 3 10 -2 14 -10 8 -23
-14 -29 -29 -9 -8 11 -15 22 -15 27 0 4 -5 7 -11 7 -7 0 -9 -9 -6 -22 5 -19 5
-20 -10 -5 -22 22 -10 51 16 37 11 -5 23 -15 26 -20z m995 20 c0 -5 -4 -10
-10 -10 -5 0 -10 5 -10 10 0 6 5 10 10 10 6 0 10 -4 10 -10z m-2035 -20 c-5
-26 11 -35 24 -13 9 15 10 15 11 2 0 -8 -6 -24 -14 -34 -13 -18 -15 -18 -30
-2 -11 11 -15 24 -10 42 7 29 25 34 19 5z m155 -24 c0 -6 4 -5 9 3 9 14 51 24
51 12 0 -15 -48 -34 -80 -32 -44 4 -50 9 -27 26 20 15 47 10 47 -9z m-530 -2
c0 -2 -7 -4 -15 -4 -8 0 -15 4 -15 10 0 5 7 7 15 4 8 -4 15 -8 15 -10z m920
-24 c0 -16 5 -32 10 -35 20 -12 9 -31 -17 -30 -25 0 -28 4 -31 38 -3 39 13 72
29 61 5 -3 9 -18 9 -34z m-190 20 c0 -5 -4 -10 -10 -10 -5 0 -10 5 -10 10 0 6
5 10 10 10 6 0 10 -4 10 -10z m-1740 -6 c0 -8 -123 -124 -132 -124 -23 0 6 36
86 105 28 24 46 32 46 19z m2400 -14 c0 -5 -2 -10 -4 -10 -3 0 -8 5 -11 10 -3
6 -1 10 4 10 6 0 11 -4 11 -10z m-2370 -10 c0 -5 -2 -10 -4 -10 -3 0 -8 5 -11
10 -3 6 -1 10 4 10 6 0 11 -4 11 -10z m445 0 c3 -5 1 -10 -4 -10 -6 0 -11 5
-11 10 0 6 2 10 4 10 3 0 8 -4 11 -10z m1135 1 c0 -5 -11 -16 -25 -25 -23 -15
-25 -15 -25 -1 0 9 5 13 10 10 6 -3 13 1 16 9 7 17 24 22 24 7z m144 -10 c3
-4 -5 -18 -18 -30 -20 -19 -23 -19 -21 -4 2 35 26 55 39 34z m-600 -16 c-4 -8
-10 -15 -15 -15 -5 0 -9 7 -9 15 0 8 7 15 15 15 9 0 12 -6 9 -15z m721 5 c3
-5 -1 -10 -9 -10 -9 0 -16 5 -16 10 0 6 4 10 9 10 6 0 13 -4 16 -10z m632 -12
c-3 -8 -6 -5 -6 6 -1 11 2 17 5 13 3 -3 4 -12 1 -19z m-667 -18 c0 -5 -4 -10
-10 -10 -5 0 -10 5 -10 10 0 6 5 10 10 10 6 0 10 -4 10 -10z m-670 -22 c0 -4
-9 -12 -19 -18 -21 -11 -37 2 -26 19 6 11 45 10 45 -1z m-85 -8 c3 -5 -1 -10
-9 -10 -8 0 -18 5 -21 10 -3 6 1 10 9 10 8 0 18 -4 21 -10z m-1173 -30 c-37
-33 -52 -39 -31 -12 19 23 42 41 54 42 5 0 -5 -13 -23 -30z m1841 11 c3 -12
-1 -22 -11 -26 -20 -7 -34 15 -20 32 15 18 25 16 31 -6z m-883 -1 c0 -5 -4
-10 -10 -10 -5 0 -10 5 -10 10 0 6 5 10 10 10 6 0 10 -4 10 -10z m145 0 c-3
-5 -11 -10 -16 -10 -6 0 -7 5 -4 10 3 6 11 10 16 10 6 0 7 -4 4 -10z m239 -21
c-10 -16 -24 -9 -24 12 0 18 2 19 15 9 8 -7 12 -16 9 -21z m31 21 c3 -5 1 -10
-4 -10 -6 0 -11 5 -11 10 0 6 2 10 4 10 3 0 8 -4 11 -10z m705 -15 c0 -19 -20
-29 -32 -17 -8 8 -7 16 2 26 14 17 30 12 30 -9z m-330 -12 c0 -3 -3 -3 -7 0
-3 4 -12 2 -20 -4 -10 -9 -13 -7 -13 10 0 19 3 20 20 11 11 -6 20 -14 20 -17z
m185 17 c3 -6 -1 -7 -9 -4 -18 7 -21 14 -7 14 6 0 13 -4 16 -10z m175 0 c0 -5
-2 -10 -4 -10 -3 0 -8 5 -11 10 -3 6 -1 10 4 10 6 0 11 -4 11 -10z m-5986
-342 c-4 -189 -8 -413 -9 -498 -2 -174 -13 -406 -23 -478 -6 -38 -3 -56 15
-92 12 -25 28 -58 35 -75 8 -16 19 -39 24 -50 50 -97 102 -210 100 -213 -6 -5
-150 215 -179 273 -14 28 -35 74 -46 103 -11 29 -47 99 -80 156 -57 96 -74
135 -51 121 5 -3 26 -34 45 -69 20 -35 48 -79 64 -96 l28 -33 8 54 c4 30 8 79
10 109 1 30 5 82 8 115 11 93 27 464 33 740 3 138 7 256 9 263 14 43 16 -26 9
-330z m3816 338 c0 -3 -4 -8 -10 -11 -5 -3 -10 -1 -10 4 0 6 5 11 10 11 6 0
10 -2 10 -4z m2054 -11 c3 -9 0 -15 -9 -15 -9 0 -12 6 -9 15 4 8 7 15 9 15 2
0 5 -7 9 -15z m706 5 c0 -5 -2 -10 -4 -10 -3 0 -8 5 -11 10 -3 6 -1 10 4 10 6
0 11 -4 11 -10z m-825 -20 c-3 -5 -13 -10 -21 -10 -8 0 -12 5 -9 10 3 6 13 10
21 10 8 0 12 -4 9 -10z m-1988 -18 c-18 -20 -22 -42 -9 -42 5 0 18 11 30 25
22 25 42 33 42 16 0 -12 -68 -71 -81 -71 -5 0 -31 -20 -56 -46 -55 -54 -79
-68 -88 -53 -9 14 19 44 61 64 19 9 32 20 30 24 -5 8 71 101 82 101 3 0 -2 -8
-11 -18z m1937 3 c3 -9 0 -15 -9 -15 -16 0 -27 14 -18 24 10 10 21 7 27 -9z
m169 -14 c3 -14 1 -18 -9 -14 -15 6 -18 16 -7 26 9 10 10 9 16 -12z m87 2 c0
-8 -4 -11 -10 -8 -18 11 -32 -5 -19 -21 6 -8 9 -17 5 -21 -8 -9 -35 27 -36 48
0 11 9 16 30 16 19 0 30 -5 30 -14z m60 -24 c0 -9 -3 -9 -15 1 -8 6 -19 9 -25
5 -7 -5 -7 0 1 13 10 17 15 18 26 7 7 -8 13 -19 13 -26z m350 25 c0 -8 -4 -12
-10 -9 -5 3 -10 10 -10 16 0 5 5 9 10 9 6 0 10 -7 10 -16z m-263 -20 c22 -23
23 -29 10 -41 -13 -13 -17 -11 -31 18 -28 55 -18 65 21 23z m232 -21 c-9 -10
-8 -13 4 -13 8 0 18 -7 21 -16 3 -8 2 -12 -3 -9 -5 3 -12 -4 -16 -15 -8 -25
-25 -26 -26 -2 -8 108 -9 105 12 86 14 -13 16 -20 8 -31z m78 5 c-3 -7 -5 -2
-5 12 0 14 2 19 5 13 2 -7 2 -19 0 -25z m-1987 6 c0 -8 -4 -12 -10 -9 -5 3
-10 10 -10 16 0 5 5 9 10 9 6 0 10 -7 10 -16z m701 -27 c-8 -8 -11 -7 -11 4 0
9 3 19 7 23 4 4 9 2 11 -4 3 -7 -1 -17 -7 -23z m549 -35 c0 -13 -3 -12 -13 3
-10 13 -16 15 -21 6 -6 -9 -13 -8 -27 5 -30 27 -22 34 21 17 23 -9 40 -23 40
-31z m373 8 c6 0 3 -6 -7 -13 -23 -17 -17 -48 12 -63 12 -6 19 -14 15 -18 -4
-4 -2 -11 5 -15 8 -5 1 -8 -18 -8 -23 0 -30 5 -30 19 0 10 -11 30 -25 44 -28
28 -31 35 -13 32 6 -2 19 11 27 27 12 23 16 26 19 13 2 -10 8 -18 15 -18z
m-1051 2 c4 -15 12 -18 38 -14 27 4 31 2 28 -14 -3 -15 -10 -18 -38 -16 -42 5
-37 1 -45 35 -4 16 -3 27 3 27 5 0 12 -8 14 -18z m823 9 c3 -5 1 -12 -5 -16
-5 -3 -10 1 -10 9 0 18 6 21 15 7z m155 0 c0 -6 -4 -12 -8 -15 -5 -3 -9 1 -9
9 0 8 4 15 9 15 4 0 8 -4 8 -9z m-1595 -11 c3 -5 1 -10 -4 -10 -6 0 -11 5 -11
10 0 6 2 10 4 10 3 0 8 -4 11 -10z m405 -10 c0 -5 -2 -10 -4 -10 -3 0 -8 5
-11 10 -3 6 -1 10 4 10 6 0 11 -4 11 -10z m594 -33 c1 -20 -2 -37 -6 -37 -5 0
-8 4 -8 9 0 5 -3 23 -7 41 -4 24 -3 32 7 28 7 -2 13 -20 14 -41z m752 -18
c-15 -22 -16 -22 -16 -4 -1 19 -2 19 -14 3 -11 -15 -16 -15 -30 -5 -16 11 -16
15 -3 25 8 7 19 12 23 11 29 -5 36 1 23 19 -7 9 -3 8 10 -5 22 -20 23 -22 7
-44z m117 12 c-8 -21 -8 -32 0 -40 8 -8 5 -11 -11 -11 -13 0 -22 6 -22 15 0 9
-11 20 -25 25 -14 5 -25 15 -25 21 0 8 5 7 16 -2 15 -12 20 -10 37 14 27 35
46 21 30 -22z m-998 22 c2 -8 -4 -13 -17 -13 -17 0 -18 -2 -8 -15 9 -11 10
-19 3 -26 -14 -14 -46 18 -39 38 3 8 6 18 6 23 0 13 49 6 55 -7z m517 -46 c21
-33 3 -35 -36 -3 -23 20 -48 36 -55 36 -9 0 -9 3 1 13 10 11 18 9 47 -10 20
-13 39 -30 43 -36z m158 38 c0 -8 -4 -15 -10 -15 -5 0 -7 7 -4 15 4 8 8 15 10
15 2 0 4 -7 4 -15z m-1412 -25 c40 -25 64 -26 55 -4 -4 11 -2 15 7 12 8 -2 15
-18 17 -35 4 -30 3 -31 -34 -29 -26 1 -37 -3 -35 -12 1 -7 -10 -17 -24 -22
-14 -6 -28 -18 -30 -28 -5 -17 -54 -47 -54 -32 0 24 13 40 25 30 15 -13 38 34
30 61 -5 14 0 21 17 28 l23 8 -24 8 c-13 4 -28 2 -34 -4 -26 -26 -69 -4 -45
23 18 21 67 19 106 -4z m1822 9 c0 -6 7 -9 15 -5 8 3 15 1 15 -4 0 -13 -27
-13 -35 0 -4 6 -11 8 -16 5 -5 -4 -9 -1 -9 4 0 6 7 11 15 11 8 0 15 -5 15 -11z
m-1440 -19 c0 -5 -2 -10 -4 -10 -3 0 -8 5 -11 10 -3 6 -1 10 4 10 6 0 11 -4
11 -10z m80 0 c0 -5 -7 -10 -16 -10 -8 0 -12 5 -9 10 3 6 10 10 16 10 5 0 9
-4 9 -10z m16 -27 c-10 -10 -19 5 -10 18 6 11 8 11 12 0 2 -7 1 -15 -2 -18z
m642 -1 c3 -9 -2 -13 -14 -10 -9 1 -19 9 -22 16 -3 9 2 13 14 10 9 -1 19 -9
22 -16z m562 -1 c10 -20 4 -51 -11 -51 -4 0 -6 7 -3 15 4 9 0 15 -10 15 -9 0
-16 6 -16 14 0 12 6 17 27 25 1 1 7 -8 13 -18z m-2620 1 c0 -10 -65 -71 -143
-136 -46 -38 -61 -46 -70 -36 -9 9 -7 15 11 27 12 9 22 21 22 28 0 8 17 19 38
26 21 7 53 31 75 56 35 39 67 56 67 35z m2735 -10 c-3 -3 -11 0 -18 7 -9 10
-8 11 6 5 10 -3 15 -9 12 -12z m-616 -13 c-16 -10 -23 -4 -14 10 3 6 11 8 17
5 6 -4 5 -9 -3 -15z m245 2 c3 -5 -1 -11 -9 -15 -15 -6 -29 7 -18 18 9 9 21 8
27 -3z m-1804 -21 c0 -5 -4 -10 -10 -10 -5 0 -10 5 -10 10 0 6 5 10 10 10 6 0
10 -4 10 -10z m973 -28 c6 -31 5 -33 -16 -26 -31 9 -31 10 -10 37 10 14 18 24
19 24 1 -1 4 -17 7 -35z m827 17 c0 4 7 8 15 8 8 0 15 -4 15 -9 0 -4 -6 -8
-14 -8 -8 0 -16 -7 -20 -15 -7 -19 -40 -19 -56 0 -18 22 -4 35 30 25 17 -5 30
-5 30 -1z m176 -26 c-11 -11 -17 4 -9 23 7 18 8 18 11 1 2 -10 1 -21 -2 -24z
m-2146 2 c0 -8 -4 -15 -10 -15 -5 0 -10 7 -10 15 0 8 5 15 10 15 6 0 10 -7 10
-15z m745 -5 c3 -5 1 -10 -4 -10 -6 0 -11 5 -11 10 0 6 2 10 4 10 3 0 8 -4 11
-10z m53 -1 c-2 -6 -8 -10 -13 -10 -5 0 -11 4 -13 10 -2 6 4 11 13 11 9 0 15
-5 13 -11z m396 -4 c3 -8 1 -15 -4 -15 -6 0 -10 7 -10 15 0 8 2 15 4 15 2 0 6
-7 10 -15z m1166 5 c0 -5 -5 -10 -11 -10 -5 0 -7 5 -4 10 3 6 8 10 11 10 2 0
4 -4 4 -10z m-1825 -40 c-3 -5 -10 -10 -16 -10 -5 0 -9 5 -9 10 0 6 7 10 16
10 8 0 12 -4 9 -10z m182 -12 c-3 -8 -6 -5 -6 6 -1 11 2 17 5 13 3 -3 4 -12 1
-19z m473 7 c0 -8 -4 -15 -10 -15 -5 0 -10 7 -10 15 0 8 5 15 10 15 6 0 10 -7
10 -15z m-409 -18 c-13 -13 -26 -3 -16 12 3 6 11 8 17 5 6 -4 6 -10 -1 -17z
m-347 -1 c20 -10 23 -15 12 -19 -8 -3 -22 3 -32 14 -20 23 -16 24 20 5z m1150
5 c3 -5 -1 -11 -9 -15 -9 -3 -15 0 -15 9 0 16 16 20 24 6z m190 -24 c-4 -13
-9 -14 -19 -4 -9 9 -10 16 -2 25 13 16 30 1 21 -21z m-1574 7 c0 -7 -4 -16
-10 -19 -5 -3 -10 -1 -10 4 0 6 -8 11 -17 11 -13 0 -15 2 -5 8 19 13 42 10 42
-4z m2294 -17 c4 -19 3 -26 -4 -22 -5 3 -10 18 -10 32 0 32 5 28 14 -10z
m-266 11 c-6 -18 -28 -21 -28 -4 0 9 7 16 16 16 9 0 14 -5 12 -12z m-2758 -55
c16 -15 36 -23 61 -23 48 0 69 -8 69 -27 0 -12 -8 -14 -37 -9 -107 17 -163 18
-179 5 -13 -10 -17 -10 -24 0 -6 11 -14 10 -39 -5 -30 -18 -49 -15 -36 6 11
18 57 32 68 21 13 -13 37 -2 37 18 0 42 42 49 80 14z m840 17 c0 -5 -4 -10
-10 -10 -5 0 -10 5 -10 10 0 6 5 10 10 10 6 0 10 -4 10 -10z m120 -5 c0 -8 -9
-15 -19 -15 -24 0 -36 16 -19 23 24 10 38 7 38 -8z m25 -43 c-2 -3 -12 -1 -22
2 -15 6 -15 9 -3 16 13 8 35 -8 25 -18z m239 -7 c3 -8 1 -15 -4 -15 -6 0 -10
7 -10 15 0 8 2 15 4 15 2 0 6 -7 10 -15z m146 -25 c0 -13 -1 -13 -10 0 -5 8
-10 22 -10 30 0 13 1 13 10 0 5 -8 10 -22 10 -30z m1690 19 c0 -5 -11 -9 -25
-9 -17 0 -23 4 -19 14 6 15 44 10 44 -5z m-1165 0 c11 -17 2 -18 -19 -3 -17
12 -17 14 -4 14 9 0 20 -5 23 -11z m-1563 -12 c10 -2 21 -6 24 -10 4 -4 25 -7
46 -7 22 0 41 -5 44 -13 3 -8 24 -13 58 -14 29 0 64 -7 77 -15 13 -8 42 -20
64 -26 98 -26 202 -53 222 -57 12 -2 31 -9 42 -15 12 -6 69 -17 128 -24 60 -8
116 -17 125 -21 12 -5 20 -2 24 9 8 22 26 20 55 -5 21 -18 24 -19 27 -4 3 13
6 14 18 4 16 -13 18 -14 139 -25 105 -10 142 -10 250 -1 50 5 113 10 140 12
28 3 79 8 115 11 36 4 85 8 110 10 43 3 105 11 105 14 0 1 27 3 60 6 128 9
196 10 201 2 3 -4 15 -2 26 6 11 8 26 12 33 10 7 -3 16 -1 19 5 6 9 62 6 96
-6 8 -3 71 -7 139 -9 68 -2 129 -8 136 -14 6 -5 14 -8 17 -5 5 6 182 -22 223
-35 17 -6 86 -12 154 -15 68 -3 127 -7 131 -10 5 -3 12 -1 15 5 4 6 12 7 18 3
15 -10 53 -9 90 1 33 10 59 -6 40 -25 -21 -21 -417 -6 -454 17 -8 4 -30 7 -50
5 -20 -1 -83 3 -140 10 -142 16 -485 11 -669 -11 -41 -4 -92 -9 -113 -9 -20 0
-79 -8 -130 -17 -65 -11 -161 -16 -332 -17 -240 -2 -377 9 -505 38 -36 8 -103
21 -150 30 -171 31 -512 118 -536 137 -6 5 -18 6 -27 2 -8 -3 -18 -1 -22 5 -3
6 -19 11 -35 11 -28 0 -191 35 -220 47 -34 15 109 23 172 10z m818 4 c0 -6 -4
-13 -10 -16 -5 -3 -10 1 -10 9 0 9 5 16 10 16 6 0 10 -4 10 -9z m450 -6 c20
-24 6 -28 -15 -5 -10 11 -13 20 -8 20 6 0 16 -7 23 -15z m238 -17 c20 -20 14
-36 -13 -30 -24 4 -33 21 -18 35 9 10 17 9 31 -5z m-2045 -21 c-4 -8 -27 -36
-50 -62 -29 -32 -43 -42 -43 -30 0 11 -5 15 -16 11 -9 -3 -12 -2 -9 5 4 5 15
7 25 4 19 -6 34 9 35 34 0 8 9 19 20 25 11 6 24 17 28 24 12 18 21 7 10 -11z
m3274 -19 c-3 -8 -6 -5 -6 6 -1 11 2 17 5 13 3 -3 4 -12 1 -19z m-3087 -2 c0
-3 -4 -8 -10 -11 -5 -3 -10 -1 -10 4 0 6 5 11 10 11 6 0 10 -2 10 -4z m1702
-28 c-7 -7 -12 -8 -12 -2 0 14 12 26 19 19 2 -3 -1 -11 -7 -17z m728 -25 c0
-13 -20 -19 -20 -5 0 4 -3 18 -6 32 -5 24 -5 24 10 6 9 -11 16 -26 16 -33z
m110 8 c0 -6 -4 -13 -10 -16 -5 -3 -10 1 -10 9 0 9 5 16 10 16 6 0 10 -4 10
-9z m-3696 -27 c3 -8 2 -12 -4 -9 -6 3 -10 10 -10 16 0 14 7 11 14 -7z m3453
-6 c-3 -8 -6 -5 -6 6 -1 11 2 17 5 13 3 -3 4 -12 1 -19z m-2077 -3 c0 -8 -4
-15 -10 -15 -5 0 -10 7 -10 15 0 8 5 15 10 15 6 0 10 -7 10 -15z m90 5 c0 -5
-4 -10 -10 -10 -5 0 -10 5 -10 10 0 6 5 10 10 10 6 0 10 -4 10 -10z m-611 -16
c6 4 11 3 11 -2 0 -15 -32 -24 -43 -13 -5 5 -6 15 -2 21 6 9 9 9 15 0 4 -7 13
-9 19 -6z m3226 6 c3 -5 1 -10 -4 -10 -6 0 -11 5 -11 10 0 6 2 10 4 10 3 0 8
-4 11 -10z m-2405 -16 c0 -8 -4 -12 -10 -9 -5 3 -10 10 -10 16 0 5 5 9 10 9 6
0 10 -7 10 -16z m-55 -4 c3 -5 1 -10 -4 -10 -6 0 -11 5 -11 10 0 6 2 10 4 10
3 0 8 -4 11 -10z m-828 -52 c-3 -7 -5 -2 -5 12 0 14 2 19 5 13 2 -7 2 -19 0
-25z m660 26 c-3 -3 -12 -4 -19 -1 -8 3 -5 6 6 6 11 1 17 -2 13 -5z m153 -38
c-14 -14 -24 0 -16 21 6 15 8 15 16 3 6 -9 5 -19 0 -24z m130 4 c-7 -4 -9 -13
-6 -19 10 -16 26 -14 26 3 0 22 17 28 40 16 20 -11 29 -60 10 -60 -5 0 -10 7
-10 16 0 12 -7 14 -27 10 -16 -3 -34 -2 -42 3 -13 8 -13 14 -2 38 9 18 15 23
19 14 2 -7 -1 -17 -8 -21z m-4361 -20 c19 -16 103 -225 94 -233 -13 -14 -32 7
-27 28 4 16 -1 27 -16 38 -13 9 -19 20 -15 27 9 15 -22 99 -46 126 -11 11 -19
29 -19 40 1 18 1 18 12 -1 6 -11 14 -22 17 -25z m4571 25 c0 -17 -35 -55 -51
-55 -28 0 -23 27 6 34 14 4 23 11 20 16 -3 6 1 10 9 10 9 0 16 -2 16 -5z m77
-7 c12 -15 24 -48 18 -48 -2 0 -13 14 -25 30 -20 28 -14 44 7 18z m-1314 -75
c-21 -20 -48 -43 -60 -49 -41 -22 -25 6 34 65 45 43 58 52 61 39 2 -11 -13
-33 -35 -55z m1151 46 c-3 -5 -10 -7 -15 -3 -5 3 -7 10 -3 15 3 5 10 7 15 3 5
-3 7 -10 3 -15z m296 -40 c0 -5 -4 -9 -10 -9 -5 0 -10 7 -10 16 0 8 5 12 10 9
6 -3 10 -10 10 -16z m-180 -4 c0 -2 -6 -5 -13 -8 -8 -3 -14 1 -14 8 0 7 6 11
14 8 7 -3 13 -6 13 -8z m70 -6 c0 -5 -7 -9 -15 -9 -9 0 -12 6 -9 15 6 15 24
11 24 -6z m271 8 c-6 -8 -9 -17 -6 -21 3 -3 -1 -1 -7 4 -10 9 -10 13 2 20 21
13 24 12 11 -3z m-223 -22 c-3 -3 -9 2 -12 12 -6 14 -5 15 5 6 7 -7 10 -15 7
-18z m2322 -10 c0 -14 -4 -25 -10 -25 -11 0 -14 33 -3 43 11 11 13 8 13 -18z
m80 15 c0 -5 -5 -10 -11 -10 -5 0 -7 5 -4 10 3 6 8 10 11 10 2 0 4 -4 4 -10z
m-2280 -4 c0 -11 -19 -15 -25 -6 -3 5 1 10 9 10 9 0 16 -2 16 -4z m145 -15
c10 -17 -12 -21 -25 -6 -10 12 -10 15 3 15 9 0 18 -4 22 -9z m1005 -11 c0 -11
-4 -20 -10 -20 -5 0 -10 9 -10 20 0 11 5 20 10 20 6 0 10 -9 10 -20z m-859
-18 c6 -16 5 -22 -6 -22 -8 0 -15 4 -15 9 0 5 -3 17 -7 27 -4 11 -2 15 7 12 7
-2 17 -14 21 -26z m-739 -17 c-4 -34 -22 -50 -22 -19 0 14 17 54 23 54 2 0 1
-16 -1 -35z m832 -7 c-10 -15 -30 -8 -30 11 0 15 4 16 17 8 10 -6 15 -15 13
-19z m-1047 0 c-3 -8 -6 -5 -6 6 -1 11 2 17 5 13 3 -3 4 -12 1 -19z m853 13
c0 -12 -28 -22 -34 -12 -3 5 -3 11 1 15 9 9 33 7 33 -3z m865 -1 c11 -17 -5
-31 -19 -17 -14 12 -12 27 4 27 5 0 12 -4 15 -10z m-945 -20 c0 -5 -5 -10 -11
-10 -5 0 -7 5 -4 10 3 6 8 10 11 10 2 0 4 -4 4 -10z m2067 -12 c-3 -8 -6 -5
-6 6 -1 11 2 17 5 13 3 -3 4 -12 1 -19z m-717 -15 c0 -5 -5 -15 -10 -23 -8
-12 -10 -11 -10 8 0 12 5 22 10 22 6 0 10 -3 10 -7z m-3080 -12 c0 -12 -20
-25 -27 -18 -7 7 6 27 18 27 5 0 9 -4 9 -9z m2467 -10 c11 -14 14 -14 22 -1
12 18 24 9 15 -13 -9 -25 -84 -11 -84 17 0 18 33 16 47 -3z m214 -1 c24 0 5
-18 -31 -29 -36 -10 -39 -14 -30 -31 9 -17 7 -20 -14 -20 -15 0 -30 8 -36 19
-15 28 -13 33 10 26 13 -4 20 -2 20 7 0 16 39 37 58 32 8 -2 18 -4 23 -4z
m151 -12 c-7 -7 -12 -8 -12 -2 0 14 12 26 19 19 2 -3 -1 -11 -7 -17z m-2390
-10 c-7 -7 -12 -8 -12 -2 0 14 12 26 19 19 2 -3 -1 -11 -7 -17z m975 0 c-3 -8
-6 -5 -6 6 -1 11 2 17 5 13 3 -3 4 -12 1 -19z m-1463 -13 c-6 -16 -24 -21 -24
-7 0 11 11 22 21 22 5 0 6 -7 3 -15z m3313 -1 c-3 -3 -12 -4 -19 -1 -8 3 -5 6
6 6 11 1 17 -2 13 -5z m-733 -10 c19 -7 22 -44 3 -44 -7 0 -18 5 -25 12 -8 8
-15 8 -27 -2 -16 -13 -18 -10 -9 14 3 8 12 12 20 9 8 -3 14 0 14 6 0 13 3 13
24 5z m-5634 -19 c0 -8 -4 -15 -9 -15 -5 0 -11 7 -15 15 -3 9 0 15 9 15 8 0
15 -7 15 -15z m5786 3 c5 4 6 3 2 -2 -4 -5 2 -20 12 -34 24 -30 25 -42 5 -42
-8 0 -24 19 -35 42 -24 49 -24 54 -7 39 8 -6 18 -7 23 -3z m79 2 c-3 -5 -11
-10 -16 -10 -6 0 -7 5 -4 10 3 6 11 10 16 10 6 0 7 -4 4 -10z m205 -10 c0 -5
-4 -10 -10 -10 -5 0 -10 5 -10 10 0 6 5 10 10 10 6 0 10 -4 10 -10z m-3110
-15 c-7 -9 -15 -13 -17 -11 -7 7 7 26 19 26 6 0 6 -6 -2 -15z m32 -15 c-14
-16 -28 -27 -31 -25 -5 6 39 55 50 55 4 0 -5 -13 -19 -30z m2209 7 c-13 -13
-26 -3 -16 12 3 6 11 8 17 5 6 -4 6 -10 -1 -17z m831 1 c-7 -7 -12 -8 -12 -2
0 14 12 26 19 19 2 -3 -1 -11 -7 -17z m-58 -22 c-3 -9 -10 -13 -15 -10 -5 3
-3 11 4 19 15 16 19 13 11 -9z m-1784 5 c0 -13 -29 -35 -37 -28 -7 8 15 37 28
37 5 0 9 -4 9 -9z m1715 -1 c3 -5 -1 -10 -9 -10 -9 0 -16 5 -16 10 0 6 4 10 9
10 6 0 13 -4 16 -10z m-26 -49 c-3 -6 -10 -7 -18 -2 -7 5 -10 14 -6 21 9 14
29 -2 24 -19z m-473 -17 c3 -16 10 -34 16 -41 8 -10 6 -18 -7 -33 -9 -10 -14
-24 -10 -30 5 -8 11 -5 20 7 7 10 12 20 10 23 -2 3 5 11 15 18 12 7 21 8 25 2
8 -13 -4 -32 -16 -25 -5 4 -9 1 -9 -5 0 -7 9 -14 20 -17 12 -3 19 -8 18 -12
-2 -3 -10 -18 -17 -33 -14 -28 -34 -34 -78 -22 -26 7 -31 32 -8 40 11 5 12 11
4 25 -14 27 -27 24 -31 -8 -2 -14 -9 -29 -17 -31 -11 -4 -12 1 -6 19 4 13 8
38 9 56 1 34 26 72 26 40 0 -9 7 -17 15 -17 12 0 14 8 9 43 -7 46 4 47 12 1z
m278 10 c3 -8 2 -12 -4 -9 -6 3 -10 10 -10 16 0 14 7 11 14 -7z m-354 -34 c0
-14 -5 -18 -17 -13 -33 12 -37 16 -17 24 30 12 34 10 34 -11z m163 -2 c4 -12
4 -24 2 -27 -3 -2 -5 1 -5 7 0 7 -7 12 -15 12 -16 0 -20 12 -8 23 12 12 21 7
26 -15z m312 12 c3 -5 -1 -10 -10 -10 -9 0 -13 5 -10 10 3 6 8 10 10 10 2 0 7
-4 10 -10z m66 -29 c-6 -11 -11 -29 -11 -41 0 -12 -4 -18 -10 -15 -17 10 -9
84 9 87 21 5 25 -6 12 -31z m59 29 c0 -5 -7 -10 -15 -10 -8 0 -15 -4 -15 -10
0 -5 -5 -10 -10 -10 -6 0 -5 8 2 20 13 21 38 27 38 10z m-749 -33 c-8 -8 -11
-7 -11 4 0 9 3 19 7 23 4 4 9 2 11 -4 3 -7 -1 -17 -7 -23z m916 -14 c-3 -10
-5 -4 -5 12 0 17 2 24 5 18 2 -7 2 -21 0 -30z m-1267 23 c0 -11 -19 -15 -25
-6 -3 5 1 10 9 10 9 0 16 -2 16 -4z m1140 -6 c0 -5 -5 -10 -11 -10 -5 0 -7 5
-4 10 3 6 8 10 11 10 2 0 4 -4 4 -10z m-1073 -30 c0 -16 -4 -30 -9 -30 -9 0
-11 22 -2 44 9 23 11 20 11 -14z m1050 -7 c21 -23 32 -73 17 -73 -13 0 -30 27
-31 50 -1 14 -7 26 -13 28 -11 4 -14 22 -3 22 4 0 18 -12 30 -27z m-410 -40
c4 -28 1 -42 -11 -52 -9 -7 -16 -10 -16 -5 0 5 -4 3 -9 -5 -5 -7 -13 -11 -19
-8 -13 9 -3 57 12 54 6 -1 12 15 14 37 4 48 21 36 29 -21z m103 47 c0 -5 -4
-10 -10 -10 -5 0 -10 5 -10 10 0 6 5 10 10 10 6 0 10 -4 10 -10z m-491 -44
c-9 -8 -10 -7 -5 7 3 10 7 24 7 30 1 7 3 4 6 -7 3 -10 -1 -23 -8 -30z m1181
34 c0 -5 -4 -10 -10 -10 -5 0 -10 5 -10 10 0 6 5 10 10 10 6 0 10 -4 10 -10z
m-3540 -4 c0 -2 -16 -20 -35 -40 -19 -20 -39 -45 -44 -54 -5 -9 -13 -14 -16
-10 -11 11 34 77 63 93 30 16 32 17 32 11z m2340 -6 c0 -5 -4 -10 -10 -10 -5
0 -10 5 -10 10 0 6 5 10 10 10 6 0 10 -4 10 -10z m605 0 c8 -13 -4 -50 -16
-50 -13 0 -22 27 -15 45 6 17 22 20 31 5z m315 0 c0 -5 -2 -10 -4 -10 -3 0 -8
5 -11 10 -3 6 -1 10 4 10 6 0 11 -4 11 -10z m140 -11 c0 -5 -7 -9 -15 -9 -8 0
-15 7 -15 15 0 9 6 12 15 9 8 -4 15 -10 15 -15z m-1337 -3 c4 -10 1 -13 -9 -9
-15 6 -19 23 -5 23 5 0 11 -7 14 -14z m242 -18 c-1 -13 -6 -24 -11 -24 -5 -1
-8 3 -6 9 2 7 4 19 5 29 2 25 13 13 12 -14z m545 17 c0 -1 -11 -5 -25 -7 -16
-3 -25 -1 -25 7 0 8 9 10 25 7 14 -2 25 -6 25 -7z m588 -6 c17 -27 5 -40 -14
-15 -8 11 -14 23 -14 28 0 15 15 8 28 -13z m-4961 -26 c-3 -10 -5 -4 -5 12 0
17 2 24 5 18 2 -7 2 -21 0 -30z m3793 33 c0 -3 -4 -8 -10 -11 -5 -3 -10 -1
-10 4 0 6 5 11 10 11 6 0 10 -2 10 -4z m162 -28 c-9 -9 -12 -7 -12 12 0 19 3
21 12 12 9 -9 9 -15 0 -24z m678 -8 c0 -30 17 -50 29 -33 8 13 41 13 41 0 0
-5 -7 -6 -16 -3 -10 4 -14 2 -11 -6 2 -7 10 -12 16 -10 15 3 14 -15 -2 -25 -8
-4 -16 -18 -19 -30 -5 -19 -2 -22 18 -21 23 2 28 9 25 36 -2 14 17 42 28 42 3
0 12 -4 20 -9 12 -7 10 -14 -8 -36 -11 -15 -21 -34 -21 -42 0 -9 -7 -12 -24
-7 -18 4 -29 -1 -48 -27 -15 -18 -30 -29 -37 -25 -6 4 -9 11 -7 15 3 4 1 13
-5 21 -7 12 -9 11 -10 -5 -1 -11 -1 -26 0 -34 3 -21 -24 -7 -28 15 -2 10 -7
22 -12 25 -5 3 2 11 16 19 16 8 25 22 25 37 0 13 5 23 11 23 5 0 7 -6 3 -12
-5 -10 -4 -10 6 -1 7 6 19 9 26 6 8 -3 14 1 14 10 0 23 -17 30 -24 11 -5 -13
-9 -14 -20 -5 -11 9 -15 9 -19 -1 -7 -20 -15 -7 -19 32 -2 26 1 35 12 35 8 0
16 10 18 23 5 31 22 17 22 -18z m235 30 c3 -5 1 -10 -4 -10 -6 0 -11 5 -11 10
0 6 2 10 4 10 3 0 8 -4 11 -10z m-305 -36 c0 -13 -4 -24 -9 -24 -13 0 -24 37
-16 50 10 16 25 1 25 -26z m175 16 c-2 -31 -15 -37 -15 -7 0 15 4 27 8 27 5 0
8 -9 7 -20z m-919 -40 c13 0 14 -3 4 -15 -10 -12 -10 -15 2 -15 8 0 15 -7 15
-15 0 -11 -8 -14 -26 -12 -19 3 -26 10 -25 26 0 11 -6 21 -13 21 -8 0 -13 8
-11 18 5 26 22 33 30 12 4 -11 15 -20 24 -20z m-172 -18 c-7 -25 -24 -30 -24
-6 0 8 -4 13 -9 10 -5 -3 -14 1 -21 9 -10 12 -8 16 11 24 30 12 51 -6 43 -37z
m1242 11 c-7 -7 -26 7 -26 19 0 6 6 6 15 -2 9 -7 13 -15 11 -17z m66 -28 c-2
-14 -8 -23 -12 -20 -5 3 -11 -1 -13 -7 -4 -8 -6 -7 -6 4 -1 9 4 20 9 23 6 3 8
18 4 33 -5 25 -4 25 9 9 8 -9 12 -28 9 -42z m66 21 c-2 -10 -8 -13 -16 -7 -7
4 -10 15 -6 25 8 21 28 6 22 -18z m-692 13 c3 -6 2 -15 -4 -21 -6 -6 -11 -2
-15 11 -5 22 7 29 19 10z m104 -4 c0 -8 -6 -15 -14 -15 -17 0 -28 14 -19 24
12 12 33 6 33 -9z m380 11 c0 -3 -4 -8 -10 -11 -5 -3 -10 -1 -10 4 0 6 5 11
10 11 6 0 10 -2 10 -4z m46 -53 c-3 -7 -1 -13 4 -13 6 0 10 -4 10 -10 0 -18
-35 -10 -48 10 -10 17 -10 24 5 44 18 24 18 24 26 3 4 -11 5 -27 3 -34z m-896
31 c0 -8 -5 -12 -10 -9 -6 4 -8 11 -5 16 9 14 15 11 15 -7z m122 -46 c-14 -14
-72 0 -72 17 0 18 17 28 25 15 11 -18 33 -11 42 13 7 21 8 21 11 -7 2 -16 -1
-33 -6 -38z m411 19 c31 -20 35 -43 8 -50 -13 -3 -21 1 -24 15 -3 11 -10 17
-16 13 -6 -3 -9 0 -5 8 3 8 0 18 -5 22 -6 3 -8 11 -5 17 4 5 9 6 13 1 3 -5 18
-16 34 -26z m637 -2 c0 -8 -9 -15 -19 -15 -11 0 -27 -3 -35 -6 -12 -5 -15 -2
-10 9 3 9 12 13 19 11 7 -3 16 -1 20 5 9 16 25 13 25 -4z m-1130 -37 c0 -14
-18 -8 -24 8 -5 12 -10 14 -20 5 -7 -6 -16 -8 -19 -4 -4 3 3 12 16 18 18 10
24 9 35 -3 6 -9 12 -19 12 -24z m288 30 c-3 -7 -11 -13 -18 -13 -7 0 -15 6
-17 13 -3 7 4 12 17 12 13 0 20 -5 18 -12z m119 -24 c20 8 43 -11 43 -35 0
-15 6 -17 35 -12 28 4 36 2 42 -13 3 -11 11 -22 17 -26 7 -5 7 -11 -2 -20 -10
-10 -14 -10 -21 0 -4 7 -14 12 -22 10 -9 -2 -13 4 -12 17 1 11 0 14 -3 8 -4
-8 -15 -11 -32 -7 -36 9 -37 11 -22 29 11 13 10 14 -4 9 -9 -4 -24 0 -34 8 -9
8 -32 21 -49 29 -35 15 -43 29 -18 29 8 0 15 -4 15 -10 0 -17 27 -11 36 8 6
15 8 14 12 -6 2 -16 8 -22 19 -18z m-531 11 c-21 -16 -32 -13 -21 4 3 6 14 11
23 11 15 -1 15 -2 -2 -15z m243 -45 c-2 -60 -10 -74 -27 -44 -5 9 -15 14 -23
12 -17 -6 -49 9 -49 22 0 6 6 10 14 10 7 0 19 7 26 15 7 8 16 12 21 10 4 -3
13 4 19 15 17 31 20 24 19 -40z m896 40 c3 -5 2 -10 -4 -10 -5 0 -13 5 -16 10
-3 6 -2 10 4 10 5 0 13 -4 16 -10z m-215 -20 c0 -5 -2 -10 -4 -10 -3 0 -8 5
-11 10 -3 6 -1 10 4 10 6 0 11 -4 11 -10z m820 -5 c0 -8 -4 -15 -10 -15 -5 0
-10 7 -10 15 0 8 5 15 10 15 6 0 10 -7 10 -15z m50 5 c0 -5 -2 -10 -4 -10 -3
0 -8 5 -11 10 -3 6 -1 10 4 10 6 0 11 -4 11 -10z m-1405 -19 c-3 -6 -14 -10
-23 -10 -15 1 -15 2 1 6 9 2 17 9 17 15 0 6 3 9 6 5 3 -3 3 -10 -1 -16z m653
-1 c-17 -27 -42 -37 -28 -11 8 16 19 24 38 30 1 1 -3 -8 -10 -19z m-2113 0 c3
-5 1 -10 -4 -10 -6 0 -11 5 -11 10 0 6 2 10 4 10 3 0 8 -4 11 -10z m730 -26
c-23 -17 -32 -10 -15 11 7 8 17 12 23 8 6 -4 3 -11 -8 -19z m1299 20 c-7 -3
-10 -13 -7 -23 7 -27 -14 -36 -22 -10 -7 21 8 39 30 38 6 0 5 -3 -1 -5z m-118
-79 c-9 -23 -27 -8 -22 18 3 12 5 27 6 32 1 6 6 0 12 -12 6 -12 8 -29 4 -38z
m294 -5 c0 -5 -7 -10 -16 -10 -8 0 -12 5 -9 10 3 6 10 10 16 10 5 0 9 -4 9
-10z m-540 -9 c0 -10 -42 -23 -49 -15 -7 6 20 24 37 24 6 0 12 -4 12 -9z
m-495 -11 c3 -5 -1 -10 -9 -10 -9 0 -16 5 -16 10 0 6 4 10 9 10 6 0 13 -4 16
-10z m392 -6 c5 -14 -58 -27 -70 -15 -5 5 -7 13 -4 18 8 12 70 10 74 -3z
m-2187 -14 c-8 -5 -17 -7 -19 -4 -3 3 1 9 9 14 8 5 17 7 19 4 3 -3 -1 -9 -9
-14z m3266 -4 c15 4 24 2 24 -5 0 -12 -116 -72 -123 -64 -3 2 -21 -3 -41 -11
-20 -8 -42 -13 -50 -10 -7 3 -19 -2 -26 -10 -7 -9 -16 -14 -20 -11 -9 6 -93
-19 -122 -35 -10 -6 -27 -10 -37 -10 -11 0 -23 -5 -26 -10 -4 -6 -10 -8 -15
-5 -8 5 -108 -18 -235 -54 -38 -11 -89 -22 -113 -25 -23 -3 -50 -10 -60 -15
-9 -5 -39 -12 -67 -16 -27 -5 -73 -21 -100 -36 -28 -16 -66 -29 -85 -30 -19
-1 -51 -6 -70 -12 -19 -6 -44 -12 -55 -13 -11 -1 -40 -8 -65 -14 -99 -25 -134
-30 -218 -31 -96 0 -266 -20 -278 -31 -4 -5 -16 -8 -27 -8 -16 0 -18 -5 -13
-27 8 -34 51 -74 71 -67 8 4 15 1 15 -5 0 -6 6 -11 13 -11 7 0 39 -13 71 -30
32 -16 61 -29 65 -28 3 1 13 -1 21 -4 8 -3 62 -17 120 -31 58 -14 139 -34 180
-45 80 -21 263 -49 370 -57 93 -6 243 -9 259 -4 7 2 16 -2 18 -8 3 -7 -3 -13
-11 -13 -13 0 -15 -6 -10 -27 7 -25 6 -27 -9 -14 -9 7 -14 18 -10 23 3 6 0 8
-8 6 -8 -3 -13 -9 -12 -14 1 -5 -33 -11 -75 -13 -42 -1 -92 -4 -110 -5 -18 -2
-40 3 -50 10 -9 7 -30 14 -45 14 -16 0 -37 4 -47 10 -10 5 -44 12 -76 14 -33
3 -81 9 -109 15 -27 6 -78 13 -113 15 -35 3 -67 8 -73 11 -5 4 -22 9 -37 11
-15 3 -31 9 -37 15 -5 5 -20 9 -33 9 -13 0 -47 11 -75 24 -82 37 -210 88 -227
90 -8 0 -18 9 -22 19 -5 10 -14 17 -20 14 -7 -2 -24 4 -37 14 -13 11 -33 19
-44 19 -26 0 -57 28 -57 52 0 16 -8 18 -63 18 -35 0 -86 6 -113 14 -27 8 -67
14 -89 14 -22 -1 -98 4 -170 11 -184 17 -211 20 -295 30 -41 4 -88 7 -105 5
-16 -1 -34 -3 -38 -3 -5 -1 -7 -13 -5 -28 2 -16 8 -27 15 -26 6 1 22 -9 35
-22 13 -14 27 -25 31 -25 4 0 13 -5 20 -10 48 -41 62 -50 72 -50 7 0 16 -7 19
-16 4 -9 9 -14 12 -12 3 3 -4 22 -16 42 -26 47 -25 56 5 56 14 0 25 -4 25 -10
0 -5 -4 -10 -10 -10 -16 0 -11 -18 12 -45 12 -14 23 -34 25 -45 3 -21 71 -89
89 -90 6 0 19 -9 29 -20 10 -11 26 -20 36 -20 10 0 25 -7 33 -16 18 -17 36
-11 36 12 0 12 2 12 14 2 8 -7 12 -15 10 -17 -2 -2 3 -12 12 -22 9 -10 14 -25
11 -33 -4 -10 2 -20 16 -27 12 -7 24 -15 27 -18 3 -4 25 -21 50 -39 36 -26 46
-30 48 -17 4 18 23 20 40 3 17 -17 15 -33 -2 -19 -9 7 -17 8 -20 3 -7 -12 22
-25 35 -16 5 3 9 12 9 20 0 8 9 14 20 14 11 0 20 -5 20 -11 0 -5 -4 -7 -10 -4
-5 3 -10 0 -10 -9 0 -8 -2 -21 -5 -29 -4 -8 10 -24 35 -42 34 -24 43 -26 51
-14 7 12 9 11 9 -2 0 -19 16 -34 47 -43 18 -6 21 -4 17 16 -4 16 -1 13 9 -8 8
-17 23 -34 33 -37 11 -4 29 -11 40 -16 17 -7 21 -6 20 6 0 9 4 17 9 19 6 2 11
-12 12 -31 2 -19 -2 -35 -7 -35 -6 0 -10 -7 -10 -15 0 -19 -16 -20 -27 -1 -4
7 -51 35 -103 61 -149 74 -168 84 -175 95 -3 5 -12 10 -20 10 -19 0 -164 101
-205 144 -19 20 -38 36 -42 36 -12 0 -154 98 -186 127 -50 48 -140 123 -147
123 -4 0 -27 18 -53 39 -26 21 -65 48 -87 60 -22 12 -58 35 -80 51 -46 33 -66
39 -180 56 -22 4 -45 11 -51 16 -7 5 -41 9 -75 8 -77 0 -129 5 -189 19 -25 6
-81 13 -125 15 -246 15 -385 28 -385 36 0 11 69 19 167 21 46 1 80 6 77 11 -3
5 12 8 33 7 47 -3 63 -10 38 -19 -16 -6 -17 -7 -2 -13 9 -3 23 0 31 8 21 22
54 18 67 -7 l12 -22 8 22 c10 25 37 29 45 7 4 -10 13 -13 24 -10 11 3 20 0 24
-10 7 -19 32 -20 40 0 7 20 36 19 36 -1 0 -12 4 -14 13 -7 14 11 68 10 86 -1
6 -4 36 -9 66 -11 30 -2 62 -6 73 -9 22 -7 81 -14 182 -22 41 -3 89 -7 105
-10 74 -11 103 -14 140 -17 22 -1 45 -5 51 -9 6 -4 26 -5 45 -2 45 7 82 7 149
-1 30 -4 114 -11 185 -16 72 -5 141 -11 155 -13 173 -27 567 -25 685 3 22 6
53 12 70 15 41 8 137 36 157 47 10 5 27 9 39 9 11 0 28 4 37 9 9 5 31 11 47
14 17 3 41 10 55 16 23 10 163 39 220 45 15 1 48 10 75 19 28 8 74 21 104 26
29 6 67 17 85 25 50 23 98 36 106 31 5 -3 11 -1 15 5 3 5 16 10 29 10 12 0 27
5 34 12 6 6 38 13 69 15 32 2 67 4 78 5 11 1 39 14 62 29 36 24 42 25 46 11 4
-14 6 -13 12 5 9 28 56 46 68 26 5 -8 17 -11 33 -7z m-2270 -24 c-22 -5 -30 3
-21 18 5 8 11 7 22 -2 15 -12 14 -13 -1 -16z m1734 -3 c0 -6 -4 -7 -10 -4 -5
3 -10 11 -10 16 0 6 5 7 10 4 6 -3 10 -11 10 -16z m-680 1 c0 -5 -5 -10 -11
-10 -5 0 -7 5 -4 10 3 6 8 10 11 10 2 0 4 -4 4 -10z m558 -4 c-2 -1 -10 -7
-19 -14 -13 -10 -19 -9 -30 5 -8 9 -9 14 -4 11 6 -4 17 -3 25 2 8 5 18 6 23 3
4 -3 7 -6 5 -7z m-80 -11 c-2 -6 -6 -9 -10 -7 -5 1 -8 -5 -8 -14 0 -8 -4 -12
-10 -9 -6 4 -5 13 3 25 12 20 31 23 25 5z m-331 -37 c-3 -7 -5 -2 -5 12 0 14
2 19 5 13 2 -7 2 -19 0 -25z m-1167 -23 c0 -8 -2 -15 -4 -15 -2 0 -6 7 -10 15
-3 8 -1 15 4 15 6 0 10 -7 10 -15z m-4402 -77 c2 -4 9 -8 16 -8 7 0 21 -9 31
-20 10 -11 24 -20 32 -20 7 0 12 -6 11 -12 -2 -8 6 -12 20 -10 12 2 22 -1 22
-5 0 -5 27 -27 61 -49 33 -21 65 -47 70 -56 12 -22 5 -23 -16 -2 -13 13 -18
14 -31 3 -8 -7 -14 -8 -13 -3 4 22 -2 32 -23 39 -13 4 -26 7 -31 6 -18 -3
-136 82 -182 131 -71 75 -76 86 -19 48 27 -19 51 -37 52 -42z m2652 52 c0 -5
-4 -10 -10 -10 -5 0 -10 5 -10 10 0 6 5 10 10 10 6 0 10 -4 10 -10z m2925 -9
c3 -5 1 -12 -5 -16 -5 -3 -10 1 -10 9 0 18 6 21 15 7z m-1090 -51 c11 -17 -26
-24 -42 -7 -21 20 -8 40 17 27 10 -6 22 -15 25 -20z m-629 -17 c-10 -10 -19 5
-10 18 6 11 8 11 12 0 2 -7 1 -15 -2 -18z m-1453 -11 c-2 -7 11 -8 35 -5 20 3
46 5 57 4 11 0 43 -1 70 -1 31 0 59 -6 70 -15 19 -15 15 -16 -45 -12 -36 2
-90 1 -120 -3 -71 -9 -90 -4 -90 27 0 16 5 23 13 20 6 -2 11 -9 10 -15z m1607
-23 c0 -11 -4 -17 -10 -14 -5 3 -10 13 -10 21 0 8 5 14 10 14 6 0 10 -9 10
-21z m370 0 c0 -5 -4 -9 -10 -9 -5 0 -10 7 -10 16 0 8 5 12 10 9 6 -3 10 -10
10 -16z m1860 -9 c-7 -24 -5 -32 8 -39 16 -9 16 -12 0 -39 -10 -16 -15 -32
-11 -36 3 -3 -1 -6 -10 -6 -11 0 -14 5 -10 16 4 10 -5 25 -22 42 l-29 26 32 8
c34 9 42 25 17 34 -23 9 -18 24 9 24 23 0 24 -3 16 -30z m60 4 c0 -17 31 -19
49 -1 10 10 12 8 9 -8 -2 -14 -11 -20 -31 -20 -16 1 -27 -5 -27 -13 0 -7 4
-11 8 -8 5 3 9 -2 9 -10 0 -9 -6 -13 -14 -9 -8 3 -17 5 -19 5 -2 0 -4 21 -4
46 0 27 4 43 10 39 6 -3 10 -13 10 -21z m30 22 c0 -3 -4 -8 -10 -11 -5 -3 -10
-1 -10 4 0 6 5 11 10 11 6 0 10 -2 10 -4z m-1158 -58 c-7 -7 -12 -8 -12 -2 0
14 12 26 19 19 2 -3 -1 -11 -7 -17z m1245 -10 c-3 -8 -6 -5 -6 6 -1 11 2 17 5
13 3 -3 4 -12 1 -19z m-1407 -2 c0 -3 -4 -8 -10 -11 -5 -3 -10 -1 -10 4 0 6 5
11 10 11 6 0 10 -2 10 -4z m1075 -16 c3 -5 1 -10 -4 -10 -6 0 -11 5 -11 10 0
6 2 10 4 10 3 0 8 -4 11 -10z m-5706 -62 c13 -35 30 -75 37 -90 10 -24 10 -28
-2 -28 -8 0 -14 5 -14 11 0 6 -7 9 -15 5 -14 -5 -70 25 -105 57 -8 8 -24 17
-34 21 -10 3 -16 9 -14 12 6 5 52 -18 101 -50 35 -24 46 -15 16 13 -18 16 -20
24 -11 33 15 15 15 45 0 50 -12 4 -3 28 10 28 4 0 18 -28 31 -62z m5637 25
c-10 -10 -19 5 -10 18 6 11 8 11 12 0 2 -7 1 -15 -2 -18z m-3236 -14 c0 -5 -4
-9 -10 -9 -5 0 -10 7 -10 16 0 8 5 12 10 9 6 -3 10 -10 10 -16z m555 -39 c3
-5 1 -10 -4 -10 -6 0 -11 5 -11 10 0 6 2 10 4 10 3 0 8 -4 11 -10z m491 -27
c-10 -10 -19 5 -10 18 6 11 8 11 12 0 2 -7 1 -15 -2 -18z m2441 21 c-3 -3 -12
-4 -19 -1 -8 3 -5 6 6 6 11 1 17 -2 13 -5z m-3613 -50 c5 -14 4 -15 -9 -4 -17
14 -19 20 -6 20 5 0 12 -7 15 -16z m-114 -4 c0 -5 -2 -10 -4 -10 -3 0 -8 5
-11 10 -3 6 -1 10 4 10 6 0 11 -4 11 -10z m800 -10 c0 -5 -4 -10 -10 -10 -5 0
-10 5 -10 10 0 6 5 10 10 10 6 0 10 -4 10 -10z m795 -59 c-3 -2 -14 4 -25 14
-19 17 -19 19 -2 31 15 11 18 9 24 -14 4 -14 5 -28 3 -31z m525 28 c0 -5 -4
-9 -10 -9 -5 0 -10 7 -10 16 0 8 5 12 10 9 6 -3 10 -10 10 -16z m470 -9 c0 -5
-4 -10 -10 -10 -5 0 -10 5 -10 10 0 6 5 10 10 10 6 0 10 -4 10 -10z m81 -23
c-13 -13 -26 -3 -16 12 3 6 11 8 17 5 6 -4 6 -10 -1 -17z m-2876 3 c3 -5 1
-10 -4 -10 -6 0 -11 5 -11 10 0 6 2 10 4 10 3 0 8 -4 11 -10z m858 -30 c3 -11
2 -18 -3 -15 -4 3 -10 14 -13 25 -3 11 -2 18 3 15 4 -3 10 -14 13 -25z m903
-7 c-7 -7 -26 7 -26 19 0 6 6 6 15 -2 9 -7 13 -15 11 -17z m154 17 c0 -5 -2
-10 -4 -10 -3 0 -8 5 -11 10 -3 6 -1 10 4 10 6 0 11 -4 11 -10z m-103 -26 c-9
-9 -28 6 -21 18 4 6 10 6 17 -1 6 -6 8 -13 4 -17z m1413 12 c0 -16 -37 -28
-46 -15 -8 14 5 29 27 29 10 0 19 -6 19 -14z m-2710 -27 c0 -6 -4 -7 -10 -4
-5 3 -10 11 -10 16 0 6 5 7 10 4 6 -3 10 -11 10 -16z m1627 13 c9 -6 9 -16 -1
-45 -7 -20 -15 -34 -19 -31 -3 3 -1 17 5 30 8 17 8 27 -2 39 -13 16 -3 20 17
7z m-815 -34 c-7 -7 -12 -8 -12 -2 0 14 12 26 19 19 2 -3 -1 -11 -7 -17z m508
18 c0 -2 -7 -9 -15 -16 -12 -10 -15 -10 -15 4 0 9 7 16 15 16 8 0 15 -2 15 -4z
m171 -32 c-9 -28 -9 -29 -10 -3 -1 14 2 29 6 32 11 12 13 2 4 -29z m1789 17
c-13 -25 -13 -34 0 -26 15 9 25 -24 11 -38 -8 -8 -11 -7 -11 5 0 9 -9 23 -19
30 -25 17 -14 36 27 47 1 1 -2 -8 -8 -18z m-3359 -14 c-1 -12 -15 -9 -19 4 -3
6 1 10 8 8 6 -3 11 -8 11 -12z m1367 1 c7 -7 12 -21 12 -32 -1 -20 -1 -20 -20
3 -29 34 -22 59 8 29z m1596 4 c3 -5 -4 -16 -14 -25 -22 -19 -38 -4 -20 18 14
17 26 19 34 7z m39 -9 c-10 -29 -14 -34 -24 -28 -5 4 -5 14 1 26 13 24 32 25
23 2z m-899 -19 c7 -19 2 -18 -19 6 -16 17 -16 20 -3 15 9 -4 19 -13 22 -21z
m1181 6 c4 -6 10 -8 14 -5 5 2 6 -7 3 -20 -6 -35 -29 -31 -34 5 -4 29 5 40 17
20z m-1518 -32 c-3 -8 -6 -5 -6 6 -1 11 2 17 5 13 3 -3 4 -12 1 -19z m381 -13
c-3 -3 -9 2 -12 12 -6 14 -5 15 5 6 7 -7 10 -15 7 -18z m-1383 -34 c-10 -9
-24 21 -17 37 4 12 7 10 14 -8 5 -13 6 -25 3 -29z m885 45 c0 -3 -4 -8 -10
-11 -5 -3 -10 -1 -10 4 0 6 5 11 10 11 6 0 10 -2 10 -4z m-1670 -16 c0 -5 -7
-7 -15 -4 -8 4 -15 8 -15 10 0 2 7 4 15 4 8 0 15 -4 15 -10z m630 -26 c-18
-21 -24 -10 -9 18 8 14 14 18 17 10 2 -7 -2 -19 -8 -28z m-740 16 c0 -5 -5
-10 -11 -10 -5 0 -7 5 -4 10 3 6 8 10 11 10 2 0 4 -4 4 -10z m2353 -10 c3 -11
1 -20 -4 -20 -5 0 -9 9 -9 20 0 11 2 20 4 20 2 0 6 -9 9 -20z m-1519 -6 c9 -8
16 -20 16 -25 0 -11 -49 22 -50 34 0 12 18 8 34 -9z m2556 -5 c0 -5 -7 -9 -15
-9 -8 0 -15 7 -15 15 0 9 6 12 15 9 8 -4 15 -10 15 -15z m-1480 1 c0 -5 -2
-10 -4 -10 -3 0 -8 5 -11 10 -3 6 -1 10 4 10 6 0 11 -4 11 -10z m1410 -4 c0
-11 -19 -15 -25 -6 -3 5 1 10 9 10 9 0 16 -2 16 -4z m163 -2 c7 -8 -13 -54
-25 -54 -9 0 -10 7 -2 38 6 22 15 27 27 16z m-2561 -16 c-7 -7 -12 -21 -12
-32 0 -16 -2 -18 -9 -7 -10 15 7 51 23 51 6 0 5 -5 -2 -12z m828 -2 c0 -11
-13 -36 -19 -36 -4 0 -7 9 -7 20 0 11 6 20 13 20 7 0 13 -2 13 -4z m-1510 -22
c0 -14 -3 -14 -15 -4 -8 7 -15 14 -15 16 0 2 7 4 15 4 8 0 15 -7 15 -16z m107
-6 c-3 -8 -6 -5 -6 6 -1 11 2 17 5 13 3 -3 4 -12 1 -19z m380 0 c-3 -8 -6 -5
-6 6 -1 11 2 17 5 13 3 -3 4 -12 1 -19z m1298 12 c3 -5 1 -10 -4 -10 -6 0 -11
5 -11 10 0 6 2 10 4 10 3 0 8 -4 11 -10z m1375 0 c0 -5 -4 -10 -10 -10 -5 0
-10 5 -10 10 0 6 5 10 10 10 6 0 10 -4 10 -10z m-1399 -42 c12 3 11 -1 -4 -31
-10 -20 -16 -23 -28 -13 -19 13 -33 62 -23 78 5 7 14 3 27 -13 11 -13 24 -23
28 -21z m239 21 c0 -5 -4 -9 -10 -9 -5 0 -10 7 -10 16 0 8 5 12 10 9 6 -3 10
-10 10 -16z m1190 -18 c0 -6 -4 -12 -8 -15 -5 -3 -9 1 -9 9 0 8 4 15 9 15 4 0
8 -4 8 -9z m-3700 -11 c0 -5 -2 -10 -4 -10 -3 0 -8 5 -11 10 -3 6 -1 10 4 10
6 0 11 -4 11 -10z m2005 -28 c-3 -4 -10 0 -15 8 -6 9 -5 17 3 22 13 8 24 -19
12 -30z m-1541 -4 c5 -21 2 -30 -15 -39 -17 -9 -24 -8 -38 6 -15 16 -14 17 8
10 17 -5 22 -4 19 6 -5 13 10 55 16 47 2 -1 6 -15 10 -30z m126 22 c0 -5 -9
-19 -20 -30 -18 -18 -21 -19 -27 -4 -4 11 1 22 12 30 22 17 35 18 35 4z m25
-48 c-8 -8 -25 10 -19 20 4 6 9 5 15 -3 4 -7 6 -15 4 -17z m-236 4 c10 -12 8
-13 -8 -9 -12 3 -21 9 -21 14 0 14 16 11 29 -5z m539 -13 c-4 -22 -22 -20 -26
1 -2 10 3 16 13 16 10 0 15 -7 13 -17z m1402 7 c0 -5 -4 -10 -10 -10 -5 0 -10
5 -10 10 0 6 5 10 10 10 6 0 10 -4 10 -10z m197 -27 c-3 -10 -5 -4 -5 12 0 17
2 24 5 18 2 -7 2 -21 0 -30z m398 28 c3 -5 1 -12 -5 -16 -5 -3 -10 1 -10 9 0
18 6 21 15 7z m-1835 -16 c0 -8 -2 -15 -4 -15 -2 0 -6 7 -10 15 -3 8 -1 15 4
15 6 0 10 -7 10 -15z m148 -10 c-3 -3 -9 2 -12 12 -6 14 -5 15 5 6 7 -7 10
-15 7 -18z m1142 5 c0 -5 -5 -10 -11 -10 -5 0 -7 5 -4 10 3 6 8 10 11 10 2 0
4 -4 4 -10z m210 0 c0 -5 -4 -10 -10 -10 -5 0 -10 5 -10 10 0 6 5 10 10 10 6
0 10 -4 10 -10z m-2505 -10 c3 -5 1 -10 -4 -10 -6 0 -11 5 -11 10 0 6 2 10 4
10 3 0 8 -4 11 -10z m2220 -7 c14 -31 16 -61 5 -68 -10 -6 -14 6 -10 39 1 13
-3 17 -14 13 -11 -5 -16 -1 -16 13 0 25 25 26 35 3z m-2435 -3 c0 -5 -4 -10
-9 -10 -6 0 -13 5 -16 10 -3 6 1 10 9 10 9 0 16 -4 16 -10z m1178 -8 c2 -7 -2
-10 -12 -6 -9 3 -16 11 -16 16 0 13 23 5 28 -10z m-582 -17 c6 -23 -2 -63 -10
-54 -2 2 -6 21 -9 42 -6 41 9 51 19 12z m181 3 c-3 -8 -6 -5 -6 6 -1 11 2 17
5 13 3 -3 4 -12 1 -19z m-227 -5 c0 -10 -20 -40 -20 -31 0 3 -3 13 -6 22 -4
11 -1 16 10 16 9 0 16 -3 16 -7z m96 -19 c2 -12 -2 -21 -10 -21 -8 0 -13 10
-12 24 1 28 18 25 22 -3z m714 11 c0 -8 0 -17 0 -20 0 -3 -3 -6 -7 -7 -3 -2
-7 7 -8 20 -1 12 2 22 7 22 4 0 8 -7 8 -15z m-895 -5 c3 -5 -3 -10 -14 -10
-12 0 -21 5 -21 10 0 6 6 10 14 10 8 0 18 -4 21 -10z m605 1 c0 -6 -4 -13 -10
-16 -5 -3 -10 1 -10 9 0 9 5 16 10 16 6 0 10 -4 10 -9z m1500 -1 c0 -5 -4 -10
-9 -10 -6 0 -13 5 -16 10 -3 6 1 10 9 10 9 0 16 -4 16 -10z m340 -21 c0 -5 -7
-9 -15 -9 -8 0 -15 7 -15 15 0 9 6 12 15 9 8 -4 15 -10 15 -15z m-2560 -4 c0
-8 -4 -15 -9 -15 -5 0 -11 7 -15 15 -3 9 0 15 9 15 8 0 15 -7 15 -15z m-96 -8
c3 3 6 1 6 -5 0 -6 -9 -16 -20 -22 -23 -12 -22 -13 -25 17 -2 18 1 21 15 13
10 -5 20 -6 24 -3z m916 -40 c0 -4 -9 -2 -20 5 -11 7 -20 22 -20 33 0 18 2 18
20 -5 11 -14 20 -28 20 -33z m2006 16 c-11 -11 -19 6 -11 24 8 17 8 17 12 0 3
-10 2 -21 -1 -24z m-2763 -38 c7 -19 6 -19 -7 -2 -13 17 -14 17 -21 0 -6 -17
-7 -17 -19 0 -8 10 -20 15 -30 11 -23 -9 -20 5 7 31 l22 21 21 -20 c11 -12 23
-30 27 -41z m50 26 c4 10 6 8 6 -5 1 -13 -4 -16 -15 -12 -9 3 -18 6 -20 6 -2
0 -4 12 -3 28 l1 27 12 -29 c9 -20 15 -25 19 -15z m77 28 c0 -5 5 -7 10 -4 6
4 17 -9 25 -29 22 -52 20 -58 -20 -50 -31 5 -35 4 -35 -14 0 -12 -4 -24 -10
-27 -5 -3 -10 3 -10 15 0 11 -6 23 -14 26 -19 7 -10 31 15 37 20 5 27 27 8 27
-8 0 -8 5 1 15 14 17 30 20 30 4z m3000 7 c0 -3 -4 -8 -10 -11 -5 -3 -10 -1
-10 4 0 6 5 11 10 11 6 0 10 -2 10 -4z m-5100 -51 c0 -5 -5 -3 -10 5 -5 8 -10
20 -10 25 0 6 5 3 10 -5 5 -8 10 -19 10 -25z m2182 -7 c-9 -9 -15 -9 -24 0
-10 10 -10 15 2 22 20 12 38 -6 22 -22z m137 6 c-15 -18 -22 -13 -13 10 3 9
10 13 16 10 5 -3 4 -12 -3 -20z m686 -13 c-9 -29 -23 -17 -17 14 3 17 8 23 14
17 6 -6 7 -20 3 -31z m-772 15 c6 -15 -1 -26 -15 -26 -4 0 -8 9 -8 20 0 23 15
27 23 6z m544 -1 c0 -8 -4 -12 -9 -9 -5 3 -6 10 -3 15 9 13 12 11 12 -6z
m1700 9 c-3 -3 -12 -4 -19 -1 -8 3 -5 6 6 6 11 1 17 -2 13 -5z m-2041 -30 c-3
-9 -6 -18 -6 -20 0 -3 -4 -3 -10 1 -11 7 -2 35 12 35 6 0 7 -7 4 -16z m-142
-10 c3 -8 10 -13 15 -10 5 3 11 -5 13 -19 3 -14 2 -25 -1 -25 -15 0 -46 29
-39 36 4 4 3 13 -3 21 -7 8 -8 13 -1 13 5 0 13 -7 16 -16z m556 -10 c0 -8 -7
-14 -15 -14 -15 0 -21 21 -9 33 10 9 24 -2 24 -19z m49 4 c-9 -16 -14 -19 -17
-9 -2 7 2 17 9 22 20 13 21 11 8 -13z m168 -15 c-3 -10 -5 -4 -5 12 0 17 2 24
5 18 2 -7 2 -21 0 -30z m-707 1 c0 -8 -4 -14 -9 -14 -11 0 -22 26 -14 34 9 9
23 -3 23 -20z m2326 18 c6 -4 13 -18 17 -30 5 -22 4 -23 -12 -8 -10 9 -23 16
-29 16 -7 0 -12 7 -12 15 0 16 18 20 36 7z m-2658 -14 c16 -16 15 -28 -3 -28
-8 0 -15 2 -15 4 0 2 -3 11 -6 20 -7 19 7 21 24 4z m200 -2 c7 -4 12 -15 10
-23 -4 -20 -38 -26 -38 -7 0 8 -4 14 -10 14 -5 0 -10 6 -10 13 0 15 27 16 48
3z m-288 -6 c0 -5 -2 -10 -4 -10 -3 0 -8 5 -11 10 -3 6 -1 10 4 10 6 0 11 -4
11 -10z m187 -13 c-6 -20 -27 -19 -27 2 0 14 5 19 15 14 9 -3 14 -10 12 -16z
m-220 -24 c-3 -10 -5 -4 -5 12 0 17 2 24 5 18 2 -7 2 -21 0 -30z m1234 5 c-25
-20 -43 -16 -35 7 4 8 10 13 14 10 5 -3 11 -1 15 5 4 6 11 7 17 4 7 -5 3 -14
-11 -26z m1491 7 c6 -29 -7 -34 -15 -6 -4 17 0 31 9 31 1 0 4 -11 6 -25z m108
-1 c0 -8 -4 -12 -10 -9 -5 3 -10 10 -10 16 0 5 5 9 10 9 6 0 10 -7 10 -16z
m-1553 -26 c-3 -7 -5 -2 -5 12 0 14 2 19 5 13 2 -7 2 -19 0 -25z m-1007 7 c11
-13 10 -14 -4 -9 -9 3 -16 10 -16 15 0 13 6 11 20 -6z m1998 3 c7 -7 12 -8 12
-2 0 5 5 2 11 -6 8 -11 12 -12 16 -2 7 17 26 15 20 -2 -4 -10 -1 -13 7 -10 7
3 19 -2 26 -11 11 -13 9 -15 -16 -12 -35 4 -104 36 -104 48 0 13 14 11 28 -3z
m-2032 -13 c-4 -10 1 -15 15 -15 14 0 19 -5 17 -17 -2 -10 -10 -17 -17 -15 -9
2 -11 -3 -8 -13 4 -8 2 -15 -4 -15 -7 0 -9 10 -5 26 4 14 3 23 -2 20 -7 -4
-10 29 -3 42 5 10 12 -1 7 -13z m-82 -3 c2 -4 1 -14 -3 -21 -6 -9 -10 -7 -14
8 -5 20 7 29 17 13z m230 -9 c4 -9 2 -19 -4 -23 -6 -4 -10 -13 -8 -20 2 -7 -3
-15 -9 -17 -7 -3 -13 0 -13 6 0 6 -7 11 -15 11 -8 0 -15 9 -15 20 0 11 6 19
13 18 6 -2 11 3 10 10 -4 18 34 15 41 -5z m656 -4 c0 -5 -4 -9 -10 -9 -5 0
-10 7 -10 16 0 8 5 12 10 9 6 -3 10 -10 10 -16z m-1090 7 c0 -11 -19 -15 -25
-6 -3 5 1 10 9 10 9 0 16 -2 16 -4z m1237 -28 c-3 -7 -5 -2 -5 12 0 14 2 19 5
13 2 -7 2 -19 0 -25z m173 11 c0 -6 -4 -7 -10 -4 -5 3 -10 11 -10 16 0 6 5 7
10 4 6 -3 10 -11 10 -16z m-924 -15 c-3 -9 -6 -20 -6 -26 0 -6 -6 -5 -15 2
-12 10 -13 16 -4 26 16 19 33 18 25 -2z m987 1 c-3 -9 -8 -14 -10 -11 -3 3 -2
9 2 15 9 16 15 13 8 -4z m1617 1 c0 -7 -9 -16 -20 -19 -12 -3 -20 -14 -20 -26
0 -12 -4 -21 -10 -21 -16 0 -12 34 8 58 19 25 42 29 42 8z m-2563 -62 c-21
-40 -29 -6 -9 37 15 30 17 31 20 12 2 -12 -3 -34 -11 -49z m916 49 c6 -27 -22
-78 -36 -64 -7 7 -6 16 6 29 10 11 15 26 11 36 -3 9 -1 16 4 16 6 0 12 -8 15
-17z m-128 -12 c-3 -6 -11 -11 -17 -11 -6 0 -6 6 2 15 14 17 26 13 15 -4z
m1045 9 c0 -5 -4 -10 -10 -10 -5 0 -10 5 -10 10 0 6 5 10 10 10 6 0 10 -4 10
-10z m350 0 c0 -5 -5 -10 -11 -10 -5 0 -7 5 -4 10 3 6 8 10 11 10 2 0 4 -4 4
-10z m-1060 -21 c0 -5 -7 -9 -15 -9 -8 0 -15 7 -15 15 0 9 6 12 15 9 8 -4 15
-10 15 -15z m796 -5 c-3 -9 -6 -18 -6 -20 0 -10 -29 -3 -39 10 -12 14 -8 17
43 25 4 0 5 -6 2 -15z m-3201 -14 c-3 -5 -11 -10 -16 -10 -6 0 -7 5 -4 10 3 6
11 10 16 10 6 0 7 -4 4 -10z m1565 -11 c0 -6 -4 -7 -10 -4 -5 3 -10 11 -10 16
0 6 5 7 10 4 6 -3 10 -11 10 -16z m1670 -4 c0 -8 -7 -15 -15 -15 -26 0 -18 20
13 29 1 1 2 -6 2 -14z m36 -10 c0 -14 -5 -24 -9 -22 -5 1 -8 6 -8 10 1 4 1 14
1 22 0 8 4 15 9 15 5 0 8 -11 7 -25z m69 -4 c42 0 90 -17 93 -34 4 -21 -27
-22 -91 -3 -25 7 -48 12 -50 10 -2 -3 -2 7 1 21 3 18 8 23 16 16 7 -6 21 -10
31 -10z m-1363 -22 c-3 -20 -8 -27 -14 -21 -6 6 -6 17 1 31 16 28 18 26 13
-10z m-1107 11 c3 -5 2 -10 -4 -10 -5 0 -13 5 -16 10 -3 6 -2 10 4 10 5 0 13
-4 16 -10z m1064 3 c-1 -16 -18 -47 -18 -35 -1 6 -7 12 -15 12 -8 0 -16 7 -20
15 -4 11 2 15 24 15 17 0 30 -3 29 -7z m375 -18 c3 -9 0 -15 -9 -15 -9 0 -12
6 -9 15 4 8 7 15 9 15 2 0 5 -7 9 -15z m128 -7 c-7 -7 -12 -8 -12 -2 0 14 12
26 19 19 2 -3 -1 -11 -7 -17z m-1680 -10 c-7 -7 -12 -8 -12 -2 0 6 3 14 7 17
3 4 9 5 12 2 2 -3 -1 -11 -7 -17z m1997 19 c-2 -1 -12 -9 -21 -16 -15 -12 -18
-11 -18 3 0 10 8 16 22 16 12 0 19 -1 17 -3z m99 -21 c3 -12 -1 -17 -10 -14
-7 3 -15 13 -16 22 -3 12 1 17 10 14 7 -3 15 -13 16 -22z m-608 4 c0 -5 -2
-10 -4 -10 -3 0 -8 5 -11 10 -3 6 -1 10 4 10 6 0 11 -4 11 -10z m1253 -11
c-22 -22 -43 -19 -43 7 0 9 11 14 32 14 l32 0 -21 -21z m81 -4 c11 0 21 -5 23
-11 2 -6 -6 -10 -19 -8 -13 1 -29 3 -35 3 -7 1 -13 8 -13 17 0 10 5 12 12 7 7
-4 22 -7 32 -8z m-584 -5 c0 -5 -4 -10 -10 -10 -5 0 -10 5 -10 10 0 6 5 10 10
10 6 0 10 -4 10 -10z m47 4 c-3 -3 -12 -4 -19 -1 -8 3 -5 6 6 6 11 1 17 -2 13
-5z m19 -19 c-11 -8 -25 -15 -30 -15 -6 0 -2 7 8 15 11 8 25 15 30 15 6 0 2
-7 -8 -15z m-936 -5 c0 -5 -4 -10 -10 -10 -5 0 -10 5 -10 10 0 6 5 10 10 10 6
0 10 -4 10 -10z m380 -25 c0 -5 -5 -3 -10 5 -5 8 -10 20 -10 25 0 6 5 3 10 -5
5 -8 10 -19 10 -25z m25 25 c3 -5 1 -10 -4 -10 -6 0 -11 5 -11 10 0 6 2 10 4
10 3 0 8 -4 11 -10z m-191 -42 c-3 -5 -12 -4 -21 1 -9 4 -24 6 -33 4 -21 -6
-38 16 -21 27 15 8 82 -20 75 -32z m21 32 c3 -5 1 -10 -4 -10 -6 0 -11 5 -11
10 0 6 2 10 4 10 3 0 8 -4 11 -10z m970 -19 c-9 -16 -25 -3 -18 15 4 10 9 12
15 6 6 -6 7 -15 3 -21z m-895 15 c0 -3 -4 -8 -10 -11 -5 -3 -10 -1 -10 4 0 6
5 11 10 11 6 0 10 -2 10 -4z m1225 -5 c6 -11 -22 -19 -47 -13 -10 2 -18 8 -18
13 0 12 57 12 65 0z m-4255 -21 c-24 -15 -36 -11 -14 4 10 8 21 12 24 10 2 -3
-2 -9 -10 -14z m3290 -1 c0 -5 -4 -9 -10 -9 -5 0 -10 7 -10 16 0 8 5 12 10 9
6 -3 10 -10 10 -16z m514 -5 c11 -27 7 -37 -9 -24 -16 14 -20 40 -6 40 5 0 12
-7 15 -16z m-565 -24 c22 0 32 -20 24 -48 -5 -20 -6 -20 -50 4 -54 28 -53 28
-53 10 0 -8 -4 -17 -9 -20 -4 -3 -6 6 -3 20 3 15 15 29 28 34 13 5 24 15 24
22 0 8 5 6 11 -4 5 -10 18 -18 28 -18z m841 16 c0 -2 -7 -6 -15 -10 -8 -3 -15
-1 -15 4 0 6 7 10 15 10 8 0 15 -2 15 -4z m38 -14 c2 -7 -2 -10 -12 -6 -9 3
-16 11 -16 16 0 13 23 5 28 -10z m-2068 -17 c0 -8 -4 -15 -10 -15 -5 0 -10 7
-10 15 0 8 5 15 10 15 6 0 10 -7 10 -15z m650 6 c0 -6 -4 -13 -10 -16 -5 -3
-10 1 -10 9 0 9 5 16 10 16 6 0 10 -4 10 -9z m1650 5 c0 -3 -4 -8 -10 -11 -5
-3 -10 -1 -10 4 0 6 5 11 10 11 6 0 10 -2 10 -4z m-970 -37 c0 -6 -4 -7 -10
-4 -5 3 -10 11 -10 16 0 6 5 7 10 4 6 -3 10 -11 10 -16z m50 -9 c0 -5 -6 -10
-14 -10 -8 0 -18 5 -21 10 -3 6 3 10 14 10 12 0 21 -4 21 -10z m-1295 -21 c4
-6 5 -12 2 -15 -7 -7 -37 7 -37 17 0 13 27 11 35 -2z m845 -3 c0 -2 -7 -9 -15
-16 -13 -11 -14 -10 -9 4 5 14 24 23 24 12z m-115 -25 c3 -5 1 -12 -5 -16 -5
-3 -10 1 -10 9 0 18 6 21 15 7z m813 -16 c17 -3 32 -11 32 -16 0 -6 -5 -7 -11
-3 -6 3 -15 0 -20 -7 -8 -11 -13 -9 -29 10 -11 13 -20 28 -20 35 0 8 2 8 8 0
4 -6 22 -15 40 -19z m369 10 c1 -6 -1 -17 -7 -25 -8 -12 -11 -12 -28 3 -22 20
-53 22 -71 5 -11 -11 -13 -10 -9 2 7 24 108 37 115 15z m-447 -14 c0 -6 -4
-13 -10 -16 -5 -3 -10 1 -10 9 0 9 5 16 10 16 6 0 10 -4 10 -9z m-3396 -25
c-6 -16 -24 -23 -24 -8 0 10 22 33 27 28 2 -2 1 -11 -3 -20z m3608 -24 c-4
-10 -10 -9 -25 6 -11 11 -16 25 -12 32 9 15 44 -20 37 -38z m437 17 c-13 -26
-20 -21 -12 9 3 12 9 19 14 16 5 -3 4 -14 -2 -25z m-1663 -4 c-3 -9 -11 -13
-16 -10 -8 5 -7 11 1 21 14 18 24 11 15 -11z m354 21 c0 -3 -4 -8 -10 -11 -5
-3 -10 -1 -10 4 0 6 5 11 10 11 6 0 10 -2 10 -4z m-1783 -28 c-3 -8 -6 -5 -6
6 -1 11 2 17 5 13 3 -3 4 -12 1 -19z m553 -17 c0 -5 3 -17 7 -27 4 -11 3 -15
-4 -11 -14 9 -24 47 -12 47 5 0 9 -4 9 -9z m2340 -17 c0 -8 -4 -14 -10 -14 -5
0 -10 9 -10 21 0 11 5 17 10 14 6 -3 10 -13 10 -21z m-2248 -26 c-7 -7 -12 -8
-12 -2 0 14 12 26 19 19 2 -3 -1 -11 -7 -17z m2318 1 c0 -6 -4 -7 -10 -4 -5 3
-10 11 -10 16 0 6 5 7 10 4 6 -3 10 -11 10 -16z m-2170 1 c0 -5 -2 -10 -4 -10
-3 0 -8 5 -11 10 -3 6 -1 10 4 10 6 0 11 -4 11 -10z m1873 -15 c-3 -9 -8 -14
-10 -11 -3 3 -2 9 2 15 9 16 15 13 8 -4z m-259 -51 c3 -8 2 -12 -4 -9 -6 3
-10 10 -10 16 0 14 7 11 14 -7z m351 6 c-3 -5 -10 -10 -16 -10 -5 0 -9 5 -9
10 0 6 7 10 16 10 8 0 12 -4 9 -10z m114 -16 c-14 -18 -24 -11 -15 11 3 9 11
13 16 10 8 -5 7 -11 -1 -21z m-221 -3 c2 -6 -2 -11 -10 -11 -17 0 -50 -58 -37
-65 19 -12 8 -22 -26 -23 -19 -1 -35 3 -35 7 0 5 -9 7 -20 4 -11 -3 -20 -1
-20 4 0 17 12 22 30 13 23 -12 31 -3 20 25 -7 17 -5 25 5 29 8 3 14 1 12 -3
-1 -5 3 -10 8 -10 6 -1 11 9 13 23 3 20 8 24 30 22 14 -2 28 -8 30 -15z m40
-21 c-7 -11 -16 -20 -20 -20 -5 0 -8 9 -8 20 0 13 7 20 20 20 18 0 19 -2 8
-20z m96 -37 c-25 -18 -31 -16 -36 12 -5 26 6 35 16 13 4 -10 9 -8 18 5 12 16
13 16 17 0 2 -9 -5 -23 -15 -30z m-1504 23 c0 -3 -4 -8 -10 -11 -5 -3 -10 -1
-10 4 0 6 5 11 10 11 6 0 10 -2 10 -4z m1200 -19 c0 -30 -10 -40 -26 -26 -10
8 -11 16 -3 30 14 26 29 24 29 -4z m-1750 -1 c0 -7 -7 -19 -15 -26 -12 -10
-15 -9 -15 7 0 11 3 23 7 26 11 12 23 8 23 -7z m1685 -6 c15 -7 9 -9 -25 -9
-33 -1 -41 2 -30 9 18 12 28 12 55 0z m-595 -19 c0 -6 -4 -13 -10 -16 -5 -3
-10 1 -10 9 0 9 5 16 10 16 6 0 10 -4 10 -9z m-1010 -10 c0 -5 -3 -17 -6 -25
-5 -13 -10 -14 -20 -6 -7 7 -10 18 -7 26 6 15 33 20 33 5z m180 2 c-1 -18 -18
-35 -24 -24 -4 6 -4 16 -1 21 7 12 25 13 25 3z m47 -19 c-9 -9 -28 6 -21 18 4
6 10 6 17 -1 6 -6 8 -13 4 -17z m-187 -4 c0 -5 -5 -10 -11 -10 -5 0 -7 5 -4
10 3 6 8 10 11 10 2 0 4 -4 4 -10z m340 -10 c0 -5 -5 -10 -11 -10 -5 0 -7 5
-4 10 3 6 8 10 11 10 2 0 4 -4 4 -10z m471 -27 c13 -15 12 -15 -11 -3 -34 17
-36 20 -18 20 9 0 22 -7 29 -17z m836 -35 c-3 -8 -6 -5 -6 6 -1 11 2 17 5 13
3 -3 4 -12 1 -19z m-310 -39 c8 -3 9 -9 3 -19 -8 -13 -12 -12 -31 6 -13 13
-18 27 -14 35 6 9 10 9 19 -3 6 -8 16 -17 23 -19z m-72 -18 c3 -5 1 -12 -5
-16 -5 -3 -10 1 -10 9 0 18 6 21 15 7z m262 -28 c-3 -10 -5 -4 -5 12 0 17 2
24 5 18 2 -7 2 -21 0 -30z m-1932 -3 c3 -5 1 -10 -4 -10 -6 0 -11 5 -11 10 0
6 2 10 4 10 3 0 8 -4 11 -10z m1793 -10 c5 -13 3 -13 -11 -1 -15 12 -17 11
-17 -5 0 -16 -2 -17 -10 -4 -14 22 -12 27 12 26 12 0 24 -8 26 -16z m-2871 4
c-3 -3 -12 -4 -19 -1 -8 3 -5 6 6 6 11 1 17 -2 13 -5z m43 -15 c0 -6 -4 -7
-10 -4 -5 3 -10 11 -10 16 0 6 5 7 10 4 6 -3 10 -11 10 -16z m2820 -29 c0 -5
-4 -10 -10 -10 -5 0 -10 5 -10 10 0 6 5 10 10 10 6 0 10 -4 10 -10z m-2303
-37 c-3 -3 -11 -2 -17 2 -8 5 -7 11 2 22 12 15 13 14 16 -1 2 -10 1 -20 -1
-23z m2353 33 c0 -9 -30 -14 -35 -6 -4 6 3 10 14 10 12 0 21 -2 21 -4z m-2805
-36 c-3 -5 1 -10 9 -10 9 0 16 -5 16 -11 0 -5 -4 -7 -10 -4 -5 3 -10 -1 -10
-11 0 -13 -3 -14 -15 -4 -24 20 -18 41 13 49 2 1 0 -3 -3 -9z m2080 -38 c-6
-7 -35 18 -35 31 0 5 9 2 20 -8 11 -10 18 -20 15 -23z m22 -24 c-3 -8 -6 -5
-6 6 -1 11 2 17 5 13 3 -3 4 -12 1 -19z m-1134 -13 c-3 -9 -8 -14 -10 -11 -3
3 -2 9 2 15 9 16 15 13 8 -4z m1802 -5 c3 -5 1 -10 -4 -10 -6 0 -11 5 -11 10
0 6 2 10 4 10 3 0 8 -4 11 -10z m-1817 -40 c6 0 12 -4 12 -10 0 -11 -30 -13
-54 -4 -25 9 -19 27 7 20 12 -3 28 -6 35 -6z m-704 -16 c3 -8 2 -12 -4 -9 -6
3 -10 10 -10 16 0 14 7 11 14 -7z m-1661 -51 c-15 -21 -30 -40 -33 -43 -3 -3
-18 -23 -34 -44 -17 -22 -31 -35 -33 -29 -2 6 3 20 11 30 8 10 33 42 56 71 46
59 76 72 33 15z m2347 -2 c0 -6 -4 -13 -10 -16 -5 -3 -10 1 -10 9 0 9 5 16 10
16 6 0 10 -4 10 -9z m115 -10 c3 -5 1 -12 -5 -16 -5 -3 -10 1 -10 9 0 18 6 21
15 7z m962 -17 c-9 -9 -28 6 -21 18 4 6 10 6 17 -1 6 -6 8 -13 4 -17z m-1853
-9 c11 -8 17 -17 14 -21 -8 -8 -48 14 -48 26 0 14 12 12 34 -5z m2206 -1 c0
-8 -5 -12 -10 -9 -6 4 -8 11 -5 16 9 14 15 11 15 -7z m-50 -4 c0 -5 -5 -10
-11 -10 -5 0 -7 5 -4 10 3 6 8 10 11 10 2 0 4 -4 4 -10z m-1166 -14 c-6 -17
-41 -17 -41 -1 0 6 11 12 23 13 16 1 22 -2 18 -12z m-474 -6 c0 -5 -2 -10 -4
-10 -3 0 -8 5 -11 10 -3 6 -1 10 4 10 6 0 11 -4 11 -10z m1850 -6 c0 -8 -4
-12 -10 -9 -5 3 -10 10 -10 16 0 5 5 9 10 9 6 0 10 -7 10 -16z m-2290 -9 c0
-8 -6 -15 -14 -15 -17 0 -28 14 -19 24 12 12 33 6 33 -9z m-1771 -77 c-9 -17
-13 -18 -20 -7 -15 24 -10 37 11 32 16 -4 18 -9 9 -25z m2246 2 c-3 -6 1 -13
9 -16 9 -3 16 -10 16 -15 0 -11 -33 1 -42 15 -4 6 -2 14 5 18 16 10 19 10 12
-2z m431 -58 c-12 -11 -18 7 -10 30 l8 23 4 -23 c2 -13 1 -26 -2 -30z m144 18
c0 -5 -4 -10 -10 -10 -5 0 -10 5 -10 10 0 6 5 10 10 10 6 0 10 -4 10 -10z
m634 -9 c6 -9 95 -36 110 -32 5 1 16 -1 24 -4 11 -4 12 -8 2 -20 -8 -9 -17
-12 -24 -7 -6 5 -21 9 -34 10 -30 1 -95 34 -100 50 -4 14 14 17 22 3z m-3514
-8 c-1 -14 -27 -43 -39 -43 -17 0 -13 21 7 36 19 15 32 18 32 7z m2840 -23 c0
-5 -2 -10 -4 -10 -3 0 -8 5 -11 10 -3 6 -1 10 4 10 6 0 11 -4 11 -10z m-233
-62 c-3 -8 -6 -5 -6 6 -1 11 2 17 5 13 3 -3 4 -12 1 -19z m803 12 c0 -5 -4
-10 -10 -10 -5 0 -10 5 -10 10 0 6 5 10 10 10 6 0 10 -4 10 -10z m-3480 -4 c0
-3 -4 -8 -10 -11 -5 -3 -10 -1 -10 4 0 6 5 11 10 11 6 0 10 -2 10 -4z m3370
-38 c0 -11 -5 -18 -12 -16 -19 7 -21 35 -3 35 8 0 15 -9 15 -19z m-893 -40
c-3 -8 -6 -5 -6 6 -1 11 2 17 5 13 3 -3 4 -12 1 -19z m728 2 c3 -5 1 -10 -4
-10 -6 0 -11 5 -11 10 0 6 2 10 4 10 3 0 8 -4 11 -10z m-3300 -54 c-16 -24
-35 -35 -35 -19 0 10 43 54 48 49 2 -2 -4 -16 -13 -30z m3342 -8 c-3 -7 -5 -2
-5 12 0 14 2 19 5 13 2 -7 2 -19 0 -25z m83 2 c0 -5 -5 -10 -11 -10 -5 0 -7 5
-4 10 3 6 8 10 11 10 2 0 4 -4 4 -10z m-3466 -42 c-4 -7 -35 -46 -68 -88 -34
-42 -69 -91 -78 -108 -9 -18 -24 -32 -32 -32 -8 0 -17 -8 -21 -17 -6 -20 -51
-73 -60 -73 -8 0 46 77 84 120 17 19 31 39 31 44 0 4 11 17 25 28 14 11 25 24
25 30 0 6 11 21 25 34 14 13 25 28 25 34 0 5 5 10 10 10 6 0 10 7 10 15 0 8 7
15 16 15 9 0 12 -5 8 -12z m-304 -382 c0 -3 -4 -8 -10 -11 -5 -3 -10 -1 -10 4
0 6 5 11 10 11 6 0 10 -2 10 -4z m-220 -312 c-18 -25 -34 -43 -37 -41 -6 6 49
86 60 87 4 0 -6 -21 -23 -46z m-80 -124 c0 -5 -5 -10 -11 -10 -5 0 -7 5 -4 10
3 6 8 10 11 10 2 0 4 -4 4 -10z m-50 -74 c-24 -39 -48 -50 -29 -13 15 29 41
58 47 53 2 -3 -6 -21 -18 -40z m-63 -94 c-10 -10 -17 -25 -18 -33 0 -9 -2 -10
-6 -2 -4 12 28 65 36 57 2 -2 -3 -12 -12 -22z m-62 -102 c-10 -11 -21 -18 -23
-15 -3 3 3 12 14 20 27 20 30 18 9 -5z m-249 -379 c-3 -4 -10 -21 -16 -36 -6
-15 -13 -25 -16 -22 -8 8 18 67 29 67 5 0 6 -4 3 -9z m-58 -108 c-9 -10 -19
-28 -22 -40 -8 -26 -26 -31 -26 -8 0 8 5 15 10 15 6 0 10 5 10 11 0 7 8 18 18
25 24 19 28 17 10 -3z m-48 -92 c0 -5 -7 -12 -16 -15 -14 -5 -15 -4 -4 9 14
17 20 19 20 6z"/>
<path d="M7111 8921 c-12 -21 -4 -81 10 -81 15 0 27 35 22 63 -7 35 -19 43
-32 18z"/>
<path d="M6840 7609 c0 -5 5 -7 10 -4 6 3 10 8 10 11 0 2 -4 4 -10 4 -5 0 -10
-5 -10 -11z"/>
<path d="M5976 7544 c-3 -9 -5 -30 -5 -47 1 -21 3 -25 6 -12 3 11 9 24 14 30
12 12 12 45 0 45 -5 0 -12 -7 -15 -16z"/>
<path d="M5077 7724 c-4 -4 -7 -14 -7 -23 0 -11 3 -12 11 -4 6 6 10 16 7 23
-2 6 -7 8 -11 4z"/>
<path d="M7271 9844 c0 -11 3 -14 6 -6 3 7 2 16 -1 19 -3 4 -6 -2 -5 -13z"/>
<path d="M6076 5252 c-3 -6 -1 -14 5 -17 15 -10 25 3 12 16 -7 7 -13 7 -17 1z"/>
<path d="M7145 5160 c3 -5 13 -10 21 -10 8 0 12 5 9 10 -3 6 -13 10 -21 10 -8
0 -12 -4 -9 -10z"/>
<path d="M6791 4164 c0 -11 3 -14 6 -6 3 7 2 16 -1 19 -3 4 -6 -2 -5 -13z"/>
<path d="M3881 7744 c0 -11 3 -14 6 -6 3 7 2 16 -1 19 -3 4 -6 -2 -5 -13z"/>
<path d="M3680 5395 c0 -8 4 -15 10 -15 5 0 7 7 4 15 -4 8 -8 15 -10 15 -2 0
-4 -7 -4 -15z"/>
<path d="M4560 5389 c0 -5 5 -7 10 -4 6 3 10 8 10 11 0 2 -4 4 -10 4 -5 0 -10
-5 -10 -11z"/>
<path d="M4590 4309 c0 -22 24 -41 47 -38 10 2 28 -2 39 -9 19 -10 23 -9 27
10 8 29 2 34 -19 17 -14 -11 -18 -11 -30 5 -8 12 -19 16 -30 12 -10 -4 -21 -1
-26 6 -6 10 -8 9 -8 -3z"/>
<path d="M5085 4111 c-3 -5 -1 -12 5 -16 5 -3 10 1 10 9 0 18 -6 21 -15 7z"/>
<path d="M5940 3970 c0 -5 5 -10 11 -10 5 0 7 5 4 10 -3 6 -8 10 -11 10 -2 0
-4 -4 -4 -10z"/>
<path d="M6095 3867 c10 -15 20 -25 23 -22 3 3 -5 16 -17 28 l-23 22 17 -28z"/>
<path d="M2905 3715 c-3 -8 -7 -21 -9 -29 -3 -8 1 -19 7 -24 9 -8 13 0 14 29
3 39 -4 51 -12 24z"/>
<path d="M2785 3543 c-55 -59 -109 -116 -120 -127 -11 -12 -80 -91 -153 -176
-73 -85 -143 -166 -155 -180 -49 -56 -51 -60 -23 -47 14 7 26 17 26 22 0 6 21
31 46 55 25 25 63 68 84 95 43 57 67 83 233 255 123 126 171 184 165 201 -2 6
-48 -39 -103 -98z"/>
<path d="M2935 3640 c3 -5 8 -10 11 -10 2 0 4 5 4 10 0 6 -5 10 -11 10 -5 0
-7 -4 -4 -10z"/>
<path d="M5933 3237 c5 -15 29 -16 34 -2 2 6 -6 11 -18 12 -12 1 -19 -3 -16
-10z"/>
<path d="M2305 2950 c-3 -5 -1 -10 4 -10 6 0 11 5 11 10 0 6 -2 10 -4 10 -3 0
-8 -4 -11 -10z"/>
<path d="M2195 2878 c-17 -29 -17 -31 -1 -19 21 17 40 51 29 51 -5 0 -17 -15
-28 -32z"/>
<path d="M2155 2820 c-3 -5 -1 -10 4 -10 6 0 11 5 11 10 0 6 -2 10 -4 10 -3 0
-8 -4 -11 -10z"/>
<path d="M2106 2764 c-9 -24 -2 -26 12 -4 7 11 8 20 3 20 -5 0 -12 -7 -15 -16z"/>
<path d="M2011 2646 c-39 -53 -71 -99 -71 -103 0 -4 14 6 31 23 36 33 123 163
116 171 -3 3 -37 -38 -76 -91z"/>
<path d="M2061 2554 c0 -11 3 -14 6 -6 3 7 2 16 -1 19 -3 4 -6 -2 -5 -13z"/>
<path d="M1898 2503 c-8 -10 -34 -47 -58 -83 -23 -36 -49 -70 -56 -76 -8 -6
-12 -18 -8 -27 5 -13 8 -13 24 3 11 11 27 34 36 52 9 18 23 36 30 41 7 4 11
14 8 21 -3 8 3 20 14 27 10 8 22 24 26 37 9 27 4 28 -16 5z"/>
<path d="M1680 2213 c-12 -21 -30 -53 -41 -70 -12 -18 -16 -33 -10 -33 6 0 11
7 11 15 0 8 5 15 11 15 6 0 9 -7 6 -15 -4 -8 -2 -17 2 -20 12 -7 20 29 10 47
-6 10 1 26 21 49 31 36 36 49 20 49 -5 0 -19 -17 -30 -37z"/>
<path d="M1585 2050 c-8 -13 4 -32 16 -25 12 8 12 35 0 35 -6 0 -13 -4 -16
-10z"/>
<path d="M1625 1990 c-3 -5 -1 -10 4 -10 6 0 11 5 11 10 0 6 -2 10 -4 10 -3 0
-8 -4 -11 -10z"/>
<path d="M1590 1961 c0 -6 5 -13 10 -16 6 -3 10 1 10 9 0 9 -4 16 -10 16 -5 0
-10 -4 -10 -9z"/>
<path d="M1586 1911 c-4 -5 -2 -12 3 -15 5 -4 12 -2 15 3 4 5 2 12 -3 15 -5 4
-12 2 -15 -3z"/>
<path d="M1525 1859 c-4 -6 -5 -12 -2 -15 2 -3 7 2 10 11 7 17 1 20 -8 4z"/>
<path d="M1467 1784 c-8 -8 1 -24 14 -24 5 0 9 7 9 15 0 15 -12 20 -23 9z"/>
<path d="M1434 1691 c4 -5 1 -11 -6 -13 -7 -3 -9 -12 -4 -23 8 -21 20 -12 31
23 5 16 2 22 -10 22 -9 0 -14 -4 -11 -9z"/>
<path d="M1397 1622 c-10 -2 -16 -9 -14 -15 2 -6 -6 -20 -17 -30 -20 -18 -20
-18 13 0 46 25 58 54 18 45z"/>
<path d="M1324 1515 c-17 -27 -16 -39 2 -27 12 8 29 52 20 52 -3 0 -13 -11
-22 -25z"/>
<path d="M1147 1448 c-52 -90 -68 -120 -64 -125 5 -4 34 41 75 115 31 57 22
66 -11 10z"/>
<path d="M1052 1288 c-6 -6 -12 -16 -12 -21 0 -5 -8 -21 -18 -35 -39 -56 -72
-122 -63 -122 6 0 27 30 47 68 21 37 44 75 52 84 17 21 13 45 -6 26z"/>
<path d="M1050 1080 c0 -5 5 -10 10 -10 6 0 10 5 10 10 0 6 -4 10 -10 10 -5 0
-10 -4 -10 -10z"/>
<path d="M918 1058 c-24 -38 -29 -58 -12 -51 7 3 14 13 14 22 0 9 5 22 12 29
6 6 9 14 6 17 -3 3 -12 -5 -20 -17z"/>
<path d="M1070 1050 c0 -5 5 -10 11 -10 5 0 7 5 4 10 -3 6 -8 10 -11 10 -2 0
-4 -4 -4 -10z"/>
<path d="M940 629 c0 -5 5 -7 10 -4 6 3 10 8 10 11 0 2 -4 4 -10 4 -5 0 -10
-5 -10 -11z"/>
<path d="M875 500 c3 -5 8 -10 11 -10 2 0 4 5 4 10 0 6 -5 10 -11 10 -5 0 -7
-4 -4 -10z"/>
<path d="M760 431 c0 -5 7 -28 16 -52 8 -24 13 -57 10 -72 -5 -23 1 -35 31
-64 20 -20 34 -32 32 -26 -2 6 -20 58 -39 117 -19 58 -38 106 -42 106 -5 0 -8
-4 -8 -9z"/>
</g>
</svg>
