<?xml version="1.0" encoding="UTF-8"?>
<!DOCTYPE svg PUBLIC "-//W3C//DTD SVG 1.1//EN" "http://www.w3.org/Graphics/SVG/1.1/DTD/svg11.dtd">
<svg xmlns="http://www.w3.org/2000/svg" version="1.1" width="256px" height="256px" style="shape-rendering:geometricPrecision; text-rendering:geometricPrecision; image-rendering:optimizeQuality; fill-rule:evenodd; clip-rule:evenodd" xmlns:xlink="http://www.w3.org/1999/xlink">
<g><path style="opacity:0.031" fill="#fef803" d="M 167.5,33.5 C 166.504,33.4142 165.671,33.7476 165,34.5C 163.587,37.6612 161.92,40.6612 160,43.5C 159.536,42.9056 159.369,42.2389 159.5,41.5C 162.446,31.9404 165.113,22.9404 167.5,14.5C 168.833,14.1667 168.833,13.8333 167.5,13.5C 167.328,12.5084 167.662,11.8417 168.5,11.5C 169.905,9.58047 171.239,6.9138 172.5,3.5C 173.848,1.53873 175.181,1.37206 176.5,3C 173.368,12.7305 170.034,22.3972 166.5,32C 167.056,32.3826 167.389,32.8826 167.5,33.5 Z"/></g>
<g><path style="opacity:0.016" fill="#faf202" d="M 146.5,27.5 C 146.918,28.2216 147.584,28.7216 148.5,29C 146.347,29.0995 144.681,29.9328 143.5,31.5C 144.211,35.3246 143.045,38.3246 140,40.5C 139.242,38.2305 139.409,36.0639 140.5,34C 139.934,33.0053 139.267,32.172 138.5,31.5C 138.577,30.2502 139.244,29.4169 140.5,29C 139.833,28.6667 139.167,28.3333 138.5,28C 139.416,27.7216 140.082,27.2216 140.5,26.5C 140.607,18.7923 142.107,11.1256 145,3.5C 146.718,10.9789 146.552,18.4789 144.5,26C 144.836,27.0299 145.503,27.5299 146.5,27.5 Z"/></g>
<g><path style="opacity:0.267" fill="#febd4a" d="M 140.5,26.5 C 140.082,27.2216 139.416,27.7216 138.5,28C 139.167,28.3333 139.833,28.6667 140.5,29C 139.244,29.4169 138.577,30.2502 138.5,31.5C 137.519,34.4211 136.685,37.4211 136,40.5C 133.723,36.7339 133.056,32.7339 134,28.5C 133.667,27.8333 133.333,27.1667 133,26.5C 132.667,29.5 132.333,32.5 132,35.5C 131.685,33.4144 131.185,31.4144 130.5,29.5C 130.833,28.1667 131.167,26.8333 131.5,25.5C 132.777,24.3064 133.444,22.6397 133.5,20.5C 134.03,15.1695 134.53,9.83618 135,4.5C 136,3.16667 137,3.16667 138,4.5C 138.19,10.4155 138.69,16.2488 139.5,22C 138.447,23.7493 138.78,25.2493 140.5,26.5 Z"/></g>
<g><path style="opacity:0.233" fill="#ffc847" d="M 111.5,27.5 C 109.545,28.4474 109.211,29.7807 110.5,31.5C 109.833,31.8333 109.167,32.1667 108.5,32.5C 106.249,31.7883 104.916,30.7883 104.5,29.5C 105.145,22.5284 104.812,15.5284 103.5,8.5C 104,8.16667 104.5,7.83333 105,7.5C 106.735,8.68185 107.735,10.3485 108,12.5C 109.328,17.478 110.495,22.478 111.5,27.5 Z"/></g>
<g><path style="opacity:0.235" fill="#fcf00d" d="M 119.5,10.5 C 119.327,17.6484 119.16,24.9818 119,32.5C 118.617,33.056 118.117,33.3893 117.5,33.5C 117.191,30.8014 116.858,28.468 116.5,26.5C 115.667,18.5121 115.501,10.5121 116,2.5C 117.768,4.91245 118.935,7.57912 119.5,10.5 Z"/></g>
<g><path style="opacity:0.005" fill="#fffe17" d="M 131.5,25.5 C 131.167,26.8333 130.833,28.1667 130.5,29.5C 127.351,29.7886 124.351,29.2886 121.5,28C 122.056,27.6174 122.389,27.1174 122.5,26.5C 125.609,26.7359 128.609,26.4025 131.5,25.5 Z"/></g>
<g><path style="opacity:0.069" fill="#fdf701" d="M 74.5,29.5 C 74.5,29.8333 74.5,30.1667 74.5,30.5C 74.5,31.1667 74.8333,31.5 75.5,31.5C 77.2454,34.0347 78.5787,36.3681 79.5,38.5C 81.6643,43.5003 84.331,48.167 87.5,52.5C 87.6567,53.8734 87.49,55.2068 87,56.5C 84.9197,54.0072 83.0864,51.3405 81.5,48.5C 80.2713,47.7189 78.938,47.2189 77.5,47C 77.8333,46.6667 78.1667,46.3333 78.5,46C 76.7605,44.483 75.0938,42.983 73.5,41.5C 73.9175,40.7784 74.5842,40.2784 75.5,40C 70.613,33.0211 66.2796,25.6878 62.5,18C 63,17.5 63.5,17 64,16.5C 67.7433,20.7322 71.2433,25.0655 74.5,29.5 Z"/></g>
<g><path style="opacity:0.32" fill="#fec045" d="M 84.5,35.5 C 84.0825,36.2216 83.4158,36.7216 82.5,37C 85.7145,40.5879 88.0478,44.7546 89.5,49.5C 89,49.8333 88.5,50.1667 88,50.5C 86.4739,48.084 84.8072,45.7507 83,43.5C 82.6667,42.1667 82.3333,40.8333 82,39.5C 81.3292,38.7476 80.4959,38.4142 79.5,38.5C 78.5787,36.3681 77.2454,34.0347 75.5,31.5C 74.8333,31.5 74.5,31.1667 74.5,30.5C 74.5,30.1667 74.5,29.8333 74.5,29.5C 74.4606,28.4168 74.1272,27.4168 73.5,26.5C 74.365,25.4173 75.365,25.2506 76.5,26C 78.4579,28.7482 80.2912,31.5815 82,34.5C 82.6708,35.2524 83.5041,35.5858 84.5,35.5 Z"/></g>
<g><path style="opacity:0.224" fill="#ffbe44" d="M 71.5,42.5 C 71.3893,43.1174 71.056,43.6174 70.5,44C 74.1819,46.9993 77.1819,51.1659 79.5,56.5C 78.4091,57.8876 77.0758,58.3876 75.5,58C 73.5867,56.2089 71.92,54.2089 70.5,52C 69.5,51.6667 68.5,51.3333 67.5,51C 68.6537,50.0862 68.487,49.2529 67,48.5C 66.0228,49.7736 65.1894,49.7736 64.5,48.5C 64.9528,47.5416 65.6195,46.7083 66.5,46C 63.0903,41.5916 60.0903,36.9249 57.5,32C 57.8333,31.5 58.1667,31 58.5,30.5C 62.9257,34.6001 67.2591,38.6001 71.5,42.5 Z"/></g>
<g><path style="opacity:0.107" fill="#fdcd18" d="M 96.5,31.5 C 97.6921,32.5659 97.3588,33.3992 95.5,34C 101.275,39.4743 102.442,45.3076 99,51.5C 98.0944,48.8792 97.5944,49.0459 97.5,52C 97.8747,54.2886 98.5414,56.4553 99.5,58.5C 99.5858,59.4959 99.2524,60.3292 98.5,61C 96.3594,61.5725 94.3594,62.4058 92.5,63.5C 92.147,59.1735 90.4804,55.5069 87.5,52.5C 84.331,48.167 81.6643,43.5003 79.5,38.5C 80.4959,38.4142 81.3292,38.7476 82,39.5C 82.3333,40.8333 82.6667,42.1667 83,43.5C 84.8072,45.7507 86.4739,48.084 88,50.5C 88.5,50.1667 89,49.8333 89.5,49.5C 88.0478,44.7546 85.7145,40.5879 82.5,37C 83.4158,36.7216 84.0825,36.2216 84.5,35.5C 88.2854,33.5715 92.2854,32.2382 96.5,31.5 Z"/></g>
<g><path style="opacity:0.47" fill="#fdce1d" d="M 119.5,10.5 C 121.049,15.631 122.049,20.9644 122.5,26.5C 122.389,27.1174 122.056,27.6174 121.5,28C 124.351,29.2886 127.351,29.7886 130.5,29.5C 131.185,31.4144 131.685,33.4144 132,35.5C 132.333,32.5 132.667,29.5 133,26.5C 133.333,27.1667 133.667,27.8333 134,28.5C 133.056,32.7339 133.723,36.7339 136,40.5C 136.685,37.4211 137.519,34.4211 138.5,31.5C 139.267,32.172 139.934,33.0053 140.5,34C 139.409,36.0639 139.242,38.2305 140,40.5C 143.045,38.3246 144.211,35.3246 143.5,31.5C 144.583,31.4606 145.583,31.1272 146.5,30.5C 146.833,31 147.167,31.5 147.5,32C 144.952,38.91 143.618,46.0766 143.5,53.5C 141.5,53.5 139.5,53.5 137.5,53.5C 131.964,52.793 126.298,52.1263 120.5,51.5C 118.848,45.6182 117.848,39.6182 117.5,33.5C 118.117,33.3893 118.617,33.056 119,32.5C 119.16,24.9818 119.327,17.6484 119.5,10.5 Z"/></g>
<g><path style="opacity:0.385" fill="#fdca23" d="M 116.5,26.5 C 116.858,28.468 117.191,30.8014 117.5,33.5C 117.848,39.6182 118.848,45.6182 120.5,51.5C 126.298,52.1263 131.964,52.793 137.5,53.5C 124.372,52.2812 111.705,53.9479 99.5,58.5C 98.5414,56.4553 97.8747,54.2886 97.5,52C 97.5944,49.0459 98.0944,48.8792 99,51.5C 102.442,45.3076 101.275,39.4743 95.5,34C 97.3588,33.3992 97.6921,32.5659 96.5,31.5C 98.3796,28.3569 101.046,27.6902 104.5,29.5C 104.916,30.7883 106.249,31.7883 108.5,32.5C 109.167,32.1667 109.833,31.8333 110.5,31.5C 109.211,29.7807 109.545,28.4474 111.5,27.5C 113.117,26.962 114.784,26.6287 116.5,26.5 Z"/></g>
<g><path style="opacity:0.562" fill="#fdc82f" d="M 168.5,11.5 C 167.662,11.8417 167.328,12.5084 167.5,13.5C 167.5,13.8333 167.5,14.1667 167.5,14.5C 165.113,22.9404 162.446,31.9404 159.5,41.5C 157.471,45.9109 155.805,50.5775 154.5,55.5C 156.239,57.5155 158.239,59.1821 160.5,60.5C 154.668,58.2522 148.668,56.5855 142.5,55.5C 140.833,54.8333 139.167,54.1667 137.5,53.5C 139.5,53.5 141.5,53.5 143.5,53.5C 143.618,46.0766 144.952,38.91 147.5,32C 147.167,31.5 146.833,31 146.5,30.5C 145.583,31.1272 144.583,31.4606 143.5,31.5C 144.681,29.9328 146.347,29.0995 148.5,29C 147.584,28.7216 146.918,28.2216 146.5,27.5C 148.144,27.2865 149.644,27.6198 151,28.5C 151.75,22.8222 153.416,17.4889 156,12.5C 157.569,17.6439 157.403,22.8105 155.5,28C 156.098,29.3012 157.098,30.1345 158.5,30.5C 160.998,23.8492 163.498,17.1825 166,10.5C 167.461,9.11746 168.294,9.45079 168.5,11.5 Z"/></g>
<g><path style="opacity:0.392" fill="#fdc338" d="M 182.5,40.5 C 180.073,41.2789 180.073,42.4455 182.5,44C 181.386,45.5699 180.053,46.9032 178.5,48C 179.167,48.3333 179.833,48.6667 180.5,49C 178.324,49.1629 176.491,49.9963 175,51.5C 173,54.8333 171,58.1667 169,61.5C 168.421,62.9285 168.588,64.2618 169.5,65.5C 166.151,64.8305 163.484,63.1639 161.5,60.5C 163.991,62.1677 166.158,61.8344 168,59.5C 169.014,55.6225 170.514,51.9558 172.5,48.5C 170.748,45.8087 171.248,45.142 174,46.5C 174.163,44.324 174.996,42.4907 176.5,41C 175.833,40.6667 175.167,40.3333 174.5,40C 176.119,39.7645 177.119,38.9311 177.5,37.5C 180.098,32.6559 183.431,28.3225 187.5,24.5C 187.833,25 188.167,25.5 188.5,26C 186.067,30.6939 184.067,35.5272 182.5,40.5 Z"/></g>
<g><path style="opacity:0.379" fill="#fed112" d="M 167.5,33.5 C 171.116,34.3143 174.449,35.6477 177.5,37.5C 177.119,38.9311 176.119,39.7645 174.5,40C 175.167,40.3333 175.833,40.6667 176.5,41C 174.996,42.4907 174.163,44.324 174,46.5C 171.248,45.142 170.748,45.8087 172.5,48.5C 170.514,51.9558 169.014,55.6225 168,59.5C 166.158,61.8344 163.991,62.1677 161.5,60.5C 161.167,60.5 160.833,60.5 160.5,60.5C 158.239,59.1821 156.239,57.5155 154.5,55.5C 155.805,50.5775 157.471,45.9109 159.5,41.5C 159.369,42.2389 159.536,42.9056 160,43.5C 161.92,40.6612 163.587,37.6612 165,34.5C 165.671,33.7476 166.504,33.4142 167.5,33.5 Z"/></g>
<g><path style="opacity:0.051" fill="#fec44c" d="M 43.5,49.5 C 43.5,50.1667 43.8333,50.5 44.5,50.5C 44.5,51.1667 44.8333,51.5 45.5,51.5C 45.5,52.1667 45.8333,52.5 46.5,52.5C 50.0708,54.3972 53.0708,57.0639 55.5,60.5C 57.1368,62.1237 56.8034,63.1237 54.5,63.5C 53.1508,63.1543 51.8175,62.821 50.5,62.5C 47.5375,59.0359 44.3709,55.7025 41,52.5C 40.5172,51.552 40.3505,50.552 40.5,49.5C 41.5,49.5 42.5,49.5 43.5,49.5 Z"/></g>
<g><path style="opacity:0.137" fill="#fdf605" d="M 54.5,52.5 C 54.5,53.1667 54.8333,53.5 55.5,53.5C 55.5,54.1667 55.8333,54.5 56.5,54.5C 57.9176,56.1867 59.2509,58.02 60.5,60C 58.6577,59.932 56.991,60.0986 55.5,60.5C 53.0708,57.0639 50.0708,54.3972 46.5,52.5C 45.8333,52.5 45.5,52.1667 45.5,51.5C 44.8333,51.5 44.5,51.1667 44.5,50.5C 43.8333,50.5 43.5,50.1667 43.5,49.5C 42.2222,47.2009 40.8889,44.8676 39.5,42.5C 39.8333,42.1667 40.1667,41.8333 40.5,41.5C 45.1855,45.1904 49.8521,48.8571 54.5,52.5 Z"/></g>
<g><path style="opacity:0.282" fill="#fec53e" d="M 199.5,54.5 C 198.768,55.8083 197.934,57.1416 197,58.5C 196.667,58.1667 196.333,57.8333 196,57.5C 192.678,60.9881 189.178,64.3214 185.5,67.5C 184.653,65.939 184.986,64.439 186.5,63C 184.043,61.8456 184.043,60.5123 186.5,59C 181.731,59.9174 181.397,58.584 185.5,55C 185.167,54.6667 184.833,54.3333 184.5,54C 186.002,53.4169 187.335,52.5836 188.5,51.5C 188.291,50.914 187.957,50.414 187.5,50C 189.141,48.871 190.141,47.371 190.5,45.5C 193.86,43.6592 196.86,41.1592 199.5,38C 200.5,37.3333 201.5,37.3333 202.5,38C 200.249,41.9252 197.583,45.5919 194.5,49C 195,49.5 195.5,50 196,50.5C 201.333,43.8333 207.333,37.8333 214,32.5C 214.667,33.8333 214.667,35.1667 214,36.5C 209.333,42.6636 204.5,48.6636 199.5,54.5 Z"/></g>
<g><path style="opacity:0.231" fill="#fcef0d" d="M 211.5,57.5 C 211.483,55.9719 210.816,55.4719 209.5,56C 203.636,62.199 197.469,68.0323 191,73.5C 190.833,73 190.667,72.5 190.5,72C 199.052,63.9502 207.052,55.4502 214.5,46.5C 216.296,45.2073 217.963,43.7073 219.5,42C 220.833,41.3333 222.167,41.3333 223.5,42C 218.843,46.8031 214.843,51.9697 211.5,57.5 Z"/></g>
<g><path style="opacity:0.646" fill="#fdcb20" d="M 73.5,41.5 C 75.0938,42.983 76.7605,44.483 78.5,46C 78.1667,46.3333 77.8333,46.6667 77.5,47C 78.938,47.2189 80.2713,47.7189 81.5,48.5C 83.0864,51.3405 84.9197,54.0072 87,56.5C 87.49,55.2068 87.6567,53.8734 87.5,52.5C 90.4804,55.5069 92.147,59.1735 92.5,63.5C 85.9797,66.6833 80.313,71.0166 75.5,76.5C 74.4602,72.0647 72.4602,68.0647 69.5,64.5C 69.6667,64.1667 69.8333,63.8333 70,63.5C 71.1133,65.3293 72.6133,66.1626 74.5,66C 70.1159,61.9521 66.9492,57.1187 65,51.5C 62.8424,50.9498 62.3424,49.9498 63.5,48.5C 63.8333,48.5 64.1667,48.5 64.5,48.5C 65.1894,49.7736 66.0228,49.7736 67,48.5C 68.487,49.2529 68.6537,50.0862 67.5,51C 68.5,51.3333 69.5,51.6667 70.5,52C 71.92,54.2089 73.5867,56.2089 75.5,58C 77.0758,58.3876 78.4091,57.8876 79.5,56.5C 77.1819,51.1659 74.1819,46.9993 70.5,44C 71.056,43.6174 71.3893,43.1174 71.5,42.5C 71.8417,41.6618 72.5084,41.3284 73.5,41.5 Z"/></g>
<g><path style="opacity:0.125" fill="#fcf601" d="M 217.5,78.5 C 216.078,78.7086 214.745,79.2086 213.5,80C 214.654,80.9138 214.487,81.7471 213,82.5C 211.796,81.1414 210.296,80.1414 208.5,79.5C 209.09,78.2011 210.09,77.3678 211.5,77C 210.906,76.5357 210.239,76.369 209.5,76.5C 210.189,75.2928 210.355,73.9594 210,72.5C 210.953,70.6269 212.12,70.2935 213.5,71.5C 213.987,72.4734 214.487,73.4734 215,74.5C 223.37,69.3007 231.87,64.3007 240.5,59.5C 241.308,59.8076 241.975,60.3076 242.5,61C 234.487,67.3355 226.154,73.1688 217.5,78.5 Z"/></g>
<g><path style="opacity:0.341" fill="#ffc248" d="M 213.5,71.5 C 212.12,70.2935 210.953,70.6269 210,72.5C 210.355,73.9594 210.189,75.2928 209.5,76.5C 208.732,75.7375 208.232,74.7375 208,73.5C 204.367,75.6328 200.867,77.9661 197.5,80.5C 196.624,80.6309 195.957,80.2975 195.5,79.5C 199.33,75.7862 202.997,72.6195 206.5,70C 206.167,69.6667 205.833,69.3333 205.5,69C 207.044,68.7104 208.377,68.0437 209.5,67C 208.226,66.0228 208.226,65.1894 209.5,64.5C 209.897,65.525 210.563,65.6917 211.5,65C 216.167,61.6667 220.833,58.3333 225.5,55C 226.635,54.2506 227.635,54.4173 228.5,55.5C 224.149,60.6848 219.316,65.3514 214,69.5C 213.536,70.0944 213.369,70.7611 213.5,71.5 Z"/></g>
<g><path style="opacity:0.029" fill="#feeb03" d="M 44.5,72.5 C 48.9301,76.5529 53.9301,79.8862 59.5,82.5C 61.4224,83.96 62.0891,85.6267 61.5,87.5C 55.9172,85.3632 50.7506,82.6966 46,79.5C 44.9701,79.8361 44.4701,80.5028 44.5,81.5C 43.0041,83.0898 41.8374,85.0898 41,87.5C 39.8552,87.3809 38.6885,87.0476 37.5,86.5C 38.539,83.2182 39.8724,80.0516 41.5,77C 34.8333,72.6667 28.1667,68.3333 21.5,64C 17.251,60.9509 17.5843,59.6175 22.5,60C 29.9789,63.9945 37.3122,68.1611 44.5,72.5 Z"/></g>
<g><path style="opacity:0.595" fill="#fdca2c" d="M 63.5,48.5 C 62.3424,49.9498 62.8424,50.9498 65,51.5C 66.9492,57.1187 70.1159,61.9521 74.5,66C 72.6133,66.1626 71.1133,65.3293 70,63.5C 69.8333,63.8333 69.6667,64.1667 69.5,64.5C 72.4602,68.0647 74.4602,72.0647 75.5,76.5C 70.9918,82.1895 66.9918,88.1895 63.5,94.5C 62.8501,94.8039 62.1835,95.1373 61.5,95.5C 56.7341,93.2458 52.0674,90.7458 47.5,88C 46.2685,85.834 45.2685,83.6674 44.5,81.5C 44.4701,80.5028 44.9701,79.8361 46,79.5C 50.7506,82.6966 55.9172,85.3632 61.5,87.5C 62.0891,85.6267 61.4224,83.96 59.5,82.5C 53.9301,79.8862 48.9301,76.5529 44.5,72.5C 44.7512,70.8297 45.4178,69.3297 46.5,68C 41.3697,64.1128 36.703,59.7795 32.5,55C 33,54.5 33.5,54 34,53.5C 38.5876,56.5437 43.0876,59.7103 47.5,63C 48.7494,63.7401 49.7494,63.5735 50.5,62.5C 51.8175,62.821 53.1508,63.1543 54.5,63.5C 56.8034,63.1237 57.1368,62.1237 55.5,60.5C 56.991,60.0986 58.6577,59.932 60.5,60C 59.2509,58.02 57.9176,56.1867 56.5,54.5C 55.8333,54.5 55.5,54.1667 55.5,53.5C 54.8333,53.5 54.5,53.1667 54.5,52.5C 54.7214,51.2652 55.3881,50.2652 56.5,49.5C 55.4798,47.5675 55.3131,45.5675 56,43.5C 58.3996,45.4146 60.8996,47.0812 63.5,48.5 Z"/></g>
<g><path style="opacity:0.922" fill="#d79508" d="M 137.5,53.5 C 139.167,54.1667 140.833,54.8333 142.5,55.5C 140.833,55.5 139.167,55.5 137.5,55.5C 96.776,54.4301 70.9427,73.4301 60,112.5C 56.9449,132.273 61.1116,150.273 72.5,166.5C 90.5657,189.695 114.232,198.862 143.5,194C 147.823,192.724 152.156,191.558 156.5,190.5C 154.879,192.117 152.879,193.284 150.5,194C 137.927,196.684 125.26,197.184 112.5,195.5C 110.565,194.85 108.565,194.517 106.5,194.5C 102.477,191.989 98.1441,190.156 93.5,189C 90.9493,186.9 88.2827,185.067 85.5,183.5C 81.5271,178.86 77.1938,174.527 72.5,170.5C 66.8927,161.858 62.7261,152.525 60,142.5C 59.6174,141.944 59.1174,141.611 58.5,141.5C 58.4828,139.435 58.1495,137.435 57.5,135.5C 57.3336,127.16 57.5003,118.827 58,110.5C 60.2915,105.316 62.1248,99.9829 63.5,94.5C 66.9918,88.1895 70.9918,82.1895 75.5,76.5C 80.313,71.0166 85.9797,66.6833 92.5,63.5C 94.3594,62.4058 96.3594,61.5725 98.5,61C 99.2524,60.3292 99.5858,59.4959 99.5,58.5C 111.705,53.9479 124.372,52.2812 137.5,53.5 Z"/></g>
<g><path style="opacity:0.58" fill="#fdcc24" d="M 182.5,40.5 C 185.704,41.3833 188.371,43.0499 190.5,45.5C 190.141,47.371 189.141,48.871 187.5,50C 187.957,50.414 188.291,50.914 188.5,51.5C 187.335,52.5836 186.002,53.4169 184.5,54C 184.833,54.3333 185.167,54.6667 185.5,55C 181.397,58.584 181.731,59.9174 186.5,59C 184.043,60.5123 184.043,61.8456 186.5,63C 184.986,64.439 184.653,65.939 185.5,67.5C 189.178,64.3214 192.678,60.9881 196,57.5C 196.333,57.8333 196.667,58.1667 197,58.5C 197.934,57.1416 198.768,55.8083 199.5,54.5C 202.1,53.0812 204.6,51.4146 207,49.5C 207.333,50.1667 207.667,50.8333 208,51.5C 209.758,49.2345 211.925,47.5678 214.5,46.5C 207.052,55.4502 199.052,63.9502 190.5,72C 190.667,72.5 190.833,73 191,73.5C 197.469,68.0323 203.636,62.199 209.5,56C 210.816,55.4719 211.483,55.9719 211.5,57.5C 211.047,58.4584 210.381,59.2917 209.5,60C 214.532,60.0209 214.532,61.5209 209.5,64.5C 208.226,65.1894 208.226,66.0228 209.5,67C 208.377,68.0437 207.044,68.7104 205.5,69C 205.833,69.3333 206.167,69.6667 206.5,70C 202.997,72.6195 199.33,75.7862 195.5,79.5C 195.957,80.2975 196.624,80.6309 197.5,80.5C 196.024,82.5 194.191,84.1666 192,85.5C 191.517,86.448 191.351,87.448 191.5,88.5C 189.248,85.0676 186.748,81.7342 184,78.5C 178.972,74.3011 174.139,69.9678 169.5,65.5C 168.588,64.2618 168.421,62.9285 169,61.5C 171,58.1667 173,54.8333 175,51.5C 176.491,49.9963 178.324,49.1629 180.5,49C 179.833,48.6667 179.167,48.3333 178.5,48C 180.053,46.9032 181.386,45.5699 182.5,44C 180.073,42.4455 180.073,41.2789 182.5,40.5 Z"/></g>
<g><path style="opacity:0.143" fill="#faf605" d="M 255.5,79.5 C 255.5,79.8333 255.5,80.1667 255.5,80.5C 251.592,83.2853 247.259,85.2853 242.5,86.5C 234.433,89.9667 226.1,92.6333 217.5,94.5C 214.284,94.1276 213.784,92.7943 216,90.5C 218.373,91.543 220.54,91.2097 222.5,89.5C 233.059,84.9824 244.059,81.6491 255.5,79.5 Z"/></g>
<g><path style="opacity:0.875" fill="#d59207" d="M 137.5,55.5 C 139.167,55.5 140.833,55.5 142.5,55.5C 148.668,56.5855 154.668,58.2522 160.5,60.5C 160.833,60.5 161.167,60.5 161.5,60.5C 163.484,63.1639 166.151,64.8305 169.5,65.5C 174.139,69.9678 178.972,74.3011 184,78.5C 186.748,81.7342 189.248,85.0676 191.5,88.5C 192.279,91.5447 193.613,94.2114 195.5,96.5C 200.778,112.822 201.778,129.489 198.5,146.5C 194.826,155.349 190.159,163.683 184.5,171.5C 182.738,172.262 181.738,173.596 181.5,175.5C 176.158,179.503 170.825,183.503 165.5,187.5C 163.883,188.038 162.216,188.371 160.5,188.5C 165.597,185.252 170.597,181.752 175.5,178C 178.118,175.894 180.118,173.394 181.5,170.5C 196.128,154.35 201.628,135.35 198,113.5C 190.36,81.0257 170.194,61.6924 137.5,55.5 Z"/></g>
<g><path style="opacity:0.345" fill="#fed20a" d="M 209.5,76.5 C 210.239,76.369 210.906,76.5357 211.5,77C 210.09,77.3678 209.09,78.2011 208.5,79.5C 210.296,80.1414 211.796,81.1414 213,82.5C 214.487,81.7471 214.654,80.9138 213.5,80C 214.745,79.2086 216.078,78.7086 217.5,78.5C 218.93,82.3544 220.597,86.0211 222.5,89.5C 220.54,91.2097 218.373,91.543 216,90.5C 213.784,92.7943 214.284,94.1276 217.5,94.5C 211.006,96.794 204.339,98.794 197.5,100.5C 197.843,98.5168 197.176,97.1834 195.5,96.5C 193.613,94.2114 192.279,91.5447 191.5,88.5C 191.351,87.448 191.517,86.448 192,85.5C 194.191,84.1666 196.024,82.5 197.5,80.5C 200.867,77.9661 204.367,75.6328 208,73.5C 208.232,74.7375 208.732,75.7375 209.5,76.5 Z"/></g>
<g><path style="opacity:0.336" fill="#fec147" d="M 35.5,91.5 C 39.5428,94.0189 44.2095,96.0189 49.5,97.5C 49.719,98.675 49.3857,99.675 48.5,100.5C 46.6293,99.233 44.7959,99.233 43,100.5C 42.6258,99.5838 42.1258,98.7504 41.5,98C 39.567,97.7489 37.7337,97.2489 36,96.5C 35.2917,97.3805 34.4584,98.0472 33.5,98.5C 32.2264,97.8106 32.2264,96.9772 33.5,96C 28.3528,94.2617 23.6861,91.7617 19.5,88.5C 19.8076,87.6919 20.3076,87.0253 21,86.5C 25.8715,88.0682 30.7048,89.7349 35.5,91.5 Z"/></g>
<g><path style="opacity:1" fill="#eaab01" d="M 77.5,86.5 C 77.5,88.8333 77.5,91.1667 77.5,93.5C 77.5,94.5 77.5,95.5 77.5,96.5C 62.4442,129.109 69.1109,156.276 97.5,178C 100.059,179.777 102.726,181.277 105.5,182.5C 109.101,185.765 113.435,187.599 118.5,188C 131.636,189.773 144.303,188.106 156.5,183C 159.406,180.381 162.739,178.547 166.5,177.5C 164.236,179.314 161.903,181.147 159.5,183C 145.261,190.234 130.261,192.401 114.5,189.5C 105.443,186.972 97.1101,182.805 89.5,177C 64.3189,154.98 57.9855,128.147 70.5,96.5C 72.8556,93.1002 75.1889,89.7669 77.5,86.5 Z"/></g>
<g><path style="opacity:1" fill="#eaae02" d="M 181.5,90.5 C 182.721,91.0283 183.887,91.695 185,92.5C 192.87,108.721 195.203,125.721 192,143.5C 190.37,148.644 188.37,153.644 186,158.5C 181.499,162.973 177.332,167.806 173.5,173C 171.283,174.723 168.95,176.223 166.5,177.5C 162.739,178.547 159.406,180.381 156.5,183C 144.303,188.106 131.636,189.773 118.5,188C 113.435,187.599 109.101,185.765 105.5,182.5C 109.086,183.793 112.752,184.793 116.5,185.5C 141.298,190.396 161.465,182.729 177,162.5C 186.302,149.294 189.968,134.627 188,118.5C 186.324,110.646 184.158,102.98 181.5,95.5C 181.5,93.8333 181.5,92.1667 181.5,90.5 Z"/></g>
<g><path style="opacity:0.212" fill="#fecf23" d="M 36.5,88.5 C 44.1213,90.3968 51.788,93.3968 59.5,97.5C 59.8333,98.1667 60.1667,98.8333 60.5,99.5C 58.951,101.902 58.2843,104.568 58.5,107.5C 56.7085,107.634 55.0418,107.301 53.5,106.5C 48.4015,105.023 43.4015,103.356 38.5,101.5C 37.8076,102.025 37.3076,102.692 37,103.5C 35.8549,102.364 34.6883,101.364 33.5,100.5C 33.5,99.8333 33.5,99.1667 33.5,98.5C 34.4584,98.0472 35.2917,97.3805 36,96.5C 37.7337,97.2489 39.567,97.7489 41.5,98C 42.1258,98.7504 42.6258,99.5838 43,100.5C 44.7959,99.233 46.6293,99.233 48.5,100.5C 49.3857,99.675 49.719,98.675 49.5,97.5C 44.2095,96.0189 39.5428,94.0189 35.5,91.5C 35.5569,90.391 35.8902,89.391 36.5,88.5 Z"/></g>
<g><path style="opacity:1" fill="#efc00b" d="M 179.5,100.5 C 191.499,127.007 187.165,150.507 166.5,171C 163.924,172.638 161.257,174.138 158.5,175.5C 163.833,169.331 168.999,162.998 174,156.5C 183.978,139.53 184.812,122.197 176.5,104.5C 177.512,103.128 178.512,101.795 179.5,100.5 Z"/></g>
<g><path style="opacity:0.802" fill="#fac12f" d="M 44.5,81.5 C 45.2685,83.6674 46.2685,85.834 47.5,88C 52.0674,90.7458 56.7341,93.2458 61.5,95.5C 62.1835,95.1373 62.8501,94.8039 63.5,94.5C 62.1248,99.9829 60.2915,105.316 58,110.5C 57.5003,118.827 57.3336,127.16 57.5,135.5C 56.5151,131.366 56.1818,127.032 56.5,122.5C 53.4816,122.335 50.4816,122.502 47.5,123C 49.1667,123.333 50.8333,123.667 52.5,124C 52.1667,124.333 51.8333,124.667 51.5,125C 47.9106,125.207 44.4106,125.707 41,126.5C 37.7002,124.206 34.2002,123.873 30.5,125.5C 26.2153,124.792 21.882,124.292 17.5,124C 16.6634,122.989 16.33,121.822 16.5,120.5C 20.8689,120.467 25.2022,120.8 29.5,121.5C 32.8265,119.359 36.4931,118.359 40.5,118.5C 45.6327,119.665 50.966,120.332 56.5,120.5C 56.5,117.833 56.5,115.167 56.5,112.5C 53.9407,112.802 51.6074,112.468 49.5,111.5C 52.4841,111.213 53.8174,109.546 53.5,106.5C 55.0418,107.301 56.7085,107.634 58.5,107.5C 58.2843,104.568 58.951,101.902 60.5,99.5C 60.1667,98.8333 59.8333,98.1667 59.5,97.5C 51.788,93.3968 44.1213,90.3968 36.5,88.5C 36.3284,87.5084 36.6618,86.8417 37.5,86.5C 38.6885,87.0476 39.8552,87.3809 41,87.5C 41.8374,85.0898 43.0041,83.0898 44.5,81.5 Z"/></g>
<g><path style="opacity:0.505" fill="#fdc844" d="M 33.5,100.5 C 34.6883,101.364 35.8549,102.364 37,103.5C 37.3076,102.692 37.8076,102.025 38.5,101.5C 43.4015,103.356 48.4015,105.023 53.5,106.5C 53.8174,109.546 52.4841,111.213 49.5,111.5C 44.219,110.444 38.8856,109.777 33.5,109.5C 33.1583,108.662 32.4916,108.328 31.5,108.5C 23.7595,107.567 16.4262,105.4 9.5,102C 13.1667,101.667 16.8333,101.333 20.5,101C 18.7448,100.28 17.9115,99.1134 18,97.5C 22.908,98.5047 28.0747,99.5047 33.5,100.5 Z"/></g>
<g><path style="opacity:0.115" fill="#fecb49" d="M 227.5,112.5 C 224.486,113.374 221.486,113.041 218.5,111.5C 219.319,109.084 218.652,108.918 216.5,111C 217.337,112.011 217.67,113.178 217.5,114.5C 213.445,114.824 209.445,114.491 205.5,113.5C 209.788,110.791 214.455,108.958 219.5,108C 217.144,107.845 214.811,107.845 212.5,108C 214.717,106.725 217.051,105.725 219.5,105C 218.833,104 218.167,103 217.5,102C 219.329,101.727 220.829,100.893 222,99.5C 222.671,100.252 223.504,100.586 224.5,100.5C 231.488,98.1049 238.488,97.2715 245.5,98C 243.623,100.106 241.29,101.439 238.5,102C 242.813,101.755 247.147,101.755 251.5,102C 249.779,103.527 247.779,104.527 245.5,105C 248.226,105.182 250.893,105.682 253.5,106.5C 252.619,107.971 251.286,108.804 249.5,109C 242.243,110.71 234.91,111.876 227.5,112.5 Z"/></g>
<g><path style="opacity:1" fill="#f3cf15" d="M 175.5,104.5 C 175.833,104.5 176.167,104.5 176.5,104.5C 184.812,122.197 183.978,139.53 174,156.5C 168.999,162.998 163.833,169.331 158.5,175.5C 157.391,175.557 156.391,175.89 155.5,176.5C 154.761,176.631 154.094,176.464 153.5,176C 156.056,174.945 157.723,173.112 158.5,170.5C 169.671,158.815 176.004,144.815 177.5,128.5C 177.078,121.477 175.411,114.811 172.5,108.5C 172.5,108.167 172.5,107.833 172.5,107.5C 173.833,106.833 174.833,105.833 175.5,104.5 Z"/></g>
<g><path style="opacity:0.446" fill="#fec82c" d="M 224.5,98.5 C 224.5,99.1667 224.5,99.8333 224.5,100.5C 223.504,100.586 222.671,100.252 222,99.5C 220.829,100.893 219.329,101.727 217.5,102C 218.167,103 218.833,104 219.5,105C 217.051,105.725 214.717,106.725 212.5,108C 214.811,107.845 217.144,107.845 219.5,108C 214.455,108.958 209.788,110.791 205.5,113.5C 209.445,114.491 213.445,114.824 217.5,114.5C 217.67,113.178 217.337,112.011 216.5,111C 218.652,108.918 219.319,109.084 218.5,111.5C 221.486,113.041 224.486,113.374 227.5,112.5C 231.982,113.326 236.649,113.826 241.5,114C 241.957,114.414 242.291,114.914 242.5,115.5C 237.337,117.265 232.004,117.932 226.5,117.5C 225.493,120.322 224.66,123.322 224,126.5C 223.505,123.469 223.671,120.469 224.5,117.5C 221.52,117.62 218.687,118.287 216,119.5C 215.481,118.484 214.647,117.818 213.5,117.5C 209.061,118.091 205.061,118.425 201.5,118.5C 201.315,114.756 200.648,111.089 199.5,107.5C 199.833,106.833 200.167,106.167 200.5,105.5C 208.404,101.876 216.404,99.5423 224.5,98.5 Z"/></g>
<g><path style="opacity:1" fill="#f6dc21" d="M 172.5,108.5 C 175.411,114.811 177.078,121.477 177.5,128.5C 176.004,144.815 169.671,158.815 158.5,170.5C 158.548,167.687 159.215,165.021 160.5,162.5C 160.333,162.167 160.167,161.833 160,161.5C 159.066,162.858 158.232,164.192 157.5,165.5C 157.5,163.167 157.5,160.833 157.5,158.5C 158.167,155.833 158.833,153.167 159.5,150.5C 161.117,151.589 161.95,153.256 162,155.5C 166.228,145.924 168.228,135.924 168,125.5C 167.446,121.277 166.279,117.277 164.5,113.5C 167.131,111.847 169.797,110.181 172.5,108.5 Z"/></g>
<g><path style="opacity:0.025" fill="#fcf609" d="M 31.5,108.5 C 32.4916,108.328 33.1583,108.662 33.5,109.5C 34.9938,114.484 38.1605,116.484 43,115.5C 44.7259,115.946 46.2259,116.779 47.5,118C 45.1902,118.497 42.8568,118.663 40.5,118.5C 36.4931,118.359 32.8265,119.359 29.5,121.5C 29.4142,120.504 29.7476,119.671 30.5,119C 22.3318,117.978 14.3318,116.311 6.5,114C 8.87009,112.964 11.3701,112.464 14,112.5C 19.4235,112.841 24.7569,113.508 30,114.5C 31.128,112.655 31.628,110.655 31.5,108.5 Z"/></g>
<g><path style="opacity:0.431" fill="#fdcf10" d="M 33.5,109.5 C 38.8856,109.777 44.219,110.444 49.5,111.5C 51.6074,112.468 53.9407,112.802 56.5,112.5C 56.5,115.167 56.5,117.833 56.5,120.5C 50.966,120.332 45.6327,119.665 40.5,118.5C 42.8568,118.663 45.1902,118.497 47.5,118C 46.2259,116.779 44.7259,115.946 43,115.5C 38.1605,116.484 34.9938,114.484 33.5,109.5 Z"/></g>
<g><path style="opacity:1" fill="#e38d00" d="M 80.5,80.5 C 80.5,80.8333 80.5,81.1667 80.5,81.5C 79.2632,82.9649 78.2632,84.6316 77.5,86.5C 75.1889,89.7669 72.8556,93.1002 70.5,96.5C 57.9855,128.147 64.3189,154.98 89.5,177C 97.1101,182.805 105.443,186.972 114.5,189.5C 111.09,189.543 107.757,189.043 104.5,188C 99.8333,186 95.1667,184 90.5,182C 84.9647,176.297 79.2981,170.797 73.5,165.5C 59.1609,142.085 57.6609,117.751 69,92.5C 71.7126,87.2901 75.5459,83.2901 80.5,80.5 Z"/></g>
<g><path style="opacity:1" fill="#e38e00" d="M 178.5,80.5 C 182.649,83.7009 186.149,87.7009 189,92.5C 196.105,107.389 198.439,123.055 196,139.5C 193.824,146.554 190.99,153.22 187.5,159.5C 170.845,185.15 147.179,195.65 116.5,191C 115.584,190.722 114.918,190.222 114.5,189.5C 130.261,192.401 145.261,190.234 159.5,183C 161.903,181.147 164.236,179.314 166.5,177.5C 168.95,176.223 171.283,174.723 173.5,173C 177.332,167.806 181.499,162.973 186,158.5C 188.37,153.644 190.37,148.644 192,143.5C 195.203,125.721 192.87,108.721 185,92.5C 183.887,91.695 182.721,91.0283 181.5,90.5C 181.737,89.209 181.404,88.209 180.5,87.5C 180.606,84.9214 179.939,82.588 178.5,80.5 Z"/></g>
<g><path style="opacity:0.067" fill="#fdd113" d="M 226.5,117.5 C 226.823,121.952 226.823,126.285 226.5,130.5C 225.883,130.389 225.383,130.056 225,129.5C 219.907,130.68 214.74,131.68 209.5,132.5C 210.025,133.192 210.692,133.692 211.5,134C 216.508,134.501 221.508,135.001 226.5,135.5C 226.5,136.5 226.5,137.5 226.5,138.5C 222.105,138.371 217.605,137.705 213,136.5C 209.27,137.46 205.437,137.793 201.5,137.5C 201.5,134.833 201.5,132.167 201.5,129.5C 208.841,129.666 216.174,129.5 223.5,129C 223.043,128.586 222.709,128.086 222.5,127.5C 215.532,126.503 208.532,126.17 201.5,126.5C 201.5,123.833 201.5,121.167 201.5,118.5C 205.061,118.425 209.061,118.091 213.5,117.5C 214.647,117.818 215.481,118.484 216,119.5C 218.687,118.287 221.52,117.62 224.5,117.5C 223.671,120.469 223.505,123.469 224,126.5C 224.66,123.322 225.493,120.322 226.5,117.5 Z"/></g>
<g><path style="opacity:1" fill="#eeba09" d="M 77.5,96.5 C 78.3446,97.6715 79.0113,99.0048 79.5,100.5C 78.0205,106.14 76.5205,111.806 75,117.5C 71.9507,142.72 80.784,162.386 101.5,176.5C 102.29,177.794 103.29,178.961 104.5,180C 108.848,181.379 112.848,183.213 116.5,185.5C 112.752,184.793 109.086,183.793 105.5,182.5C 102.726,181.277 100.059,179.777 97.5,178C 69.1109,156.276 62.4442,129.109 77.5,96.5 Z"/></g>
<g><path style="opacity:1" fill="#f2cc13" d="M 79.5,100.5 C 81.0526,102.93 83.0526,104.93 85.5,106.5C 85.5,106.833 85.5,107.167 85.5,107.5C 77.9409,126.252 79.9409,143.919 91.5,160.5C 90.7611,160.369 90.0944,160.536 89.5,161C 91.7259,163.953 93.5593,167.12 95,170.5C 97.3353,172.4 99.502,174.4 101.5,176.5C 80.784,162.386 71.9507,142.72 75,117.5C 76.5205,111.806 78.0205,106.14 79.5,100.5 Z"/></g>
<g><path style="opacity:0.335" fill="#fec145" d="M 30.5,130.5 C 36.8421,130.334 43.1754,130.5 49.5,131C 51.6633,131.245 53.33,132.245 54.5,134C 47.9782,136.017 41.6448,137.85 35.5,139.5C 34.7784,139.918 34.2784,140.584 34,141.5C 33.5831,140.244 32.7498,139.577 31.5,139.5C 30.9859,138.375 30.6526,137.209 30.5,136C 21.6706,135.971 13.004,135.304 4.5,134C 5.16667,133.333 5.83333,132.667 6.5,132C 14.4954,131.357 22.4954,130.857 30.5,130.5 Z"/></g>
<g><path style="opacity:0.25" fill="#fdbe4c" d="M 226.5,130.5 C 236.268,130.462 245.935,131.129 255.5,132.5C 255.5,133.167 255.5,133.833 255.5,134.5C 245.916,135.473 236.25,135.806 226.5,135.5C 221.508,135.001 216.508,134.501 211.5,134C 210.692,133.692 210.025,133.192 209.5,132.5C 214.74,131.68 219.907,130.68 225,129.5C 225.383,130.056 225.883,130.389 226.5,130.5 Z"/></g>
<g><path style="opacity:0.356" fill="#fdd00e" d="M 57.5,135.5 C 58.1495,137.435 58.4828,139.435 58.5,141.5C 58.5,142.833 58.5,144.167 58.5,145.5C 55.1667,145.5 51.8333,145.5 48.5,145.5C 46.1636,143.721 43.3303,142.721 40,142.5C 38.5349,143.33 37.0349,143.496 35.5,143C 36.1667,142.667 36.8333,142.333 37.5,142C 36.6195,141.292 35.9528,140.458 35.5,139.5C 41.6448,137.85 47.9782,136.017 54.5,134C 53.33,132.245 51.6633,131.245 49.5,131C 43.1754,130.5 36.8421,130.334 30.5,130.5C 30.5,128.833 30.5,127.167 30.5,125.5C 34.2002,123.873 37.7002,124.206 41,126.5C 44.4106,125.707 47.9106,125.207 51.5,125C 51.8333,124.667 52.1667,124.333 52.5,124C 50.8333,123.667 49.1667,123.333 47.5,123C 50.4816,122.502 53.4816,122.335 56.5,122.5C 56.1818,127.032 56.5151,131.366 57.5,135.5 Z"/></g>
<g><path style="opacity:0.724" fill="#fbc336" d="M 242.5,86.5 C 243.706,87.8804 243.373,89.0471 241.5,90C 235.475,92.3797 229.808,95.213 224.5,98.5C 216.404,99.5423 208.404,101.876 200.5,105.5C 200.167,106.167 199.833,106.833 199.5,107.5C 200.648,111.089 201.315,114.756 201.5,118.5C 201.5,121.167 201.5,123.833 201.5,126.5C 208.532,126.17 215.532,126.503 222.5,127.5C 222.709,128.086 223.043,128.586 223.5,129C 216.174,129.5 208.841,129.666 201.5,129.5C 201.5,132.167 201.5,134.833 201.5,137.5C 205.437,137.793 209.27,137.46 213,136.5C 217.605,137.705 222.105,138.371 226.5,138.5C 231.343,138.117 236.009,138.783 240.5,140.5C 240.291,141.086 239.957,141.586 239.5,142C 234.78,142.717 230.114,142.55 225.5,141.5C 223.821,141.285 222.821,141.952 222.5,143.5C 221.244,143.096 220.077,142.429 219,141.5C 217.278,141.611 217.112,142.111 218.5,143C 212.155,143.444 205.822,143.277 199.5,142.5C 199.261,144.467 199.594,146.301 200.5,148C 199.184,148.528 198.517,148.028 198.5,146.5C 201.778,129.489 200.778,112.822 195.5,96.5C 197.176,97.1834 197.843,98.5168 197.5,100.5C 204.339,98.794 211.006,96.794 217.5,94.5C 226.1,92.6333 234.433,89.9667 242.5,86.5 Z"/></g>
<g><path style="opacity:1" fill="#fcf24b" d="M 145.5,137.5 C 149.033,140.2 152.699,142.7 156.5,145C 157.639,146.78 158.639,148.614 159.5,150.5C 158.833,153.167 158.167,155.833 157.5,158.5C 156.849,159.091 156.182,159.757 155.5,160.5C 154.692,158.577 154.192,156.577 154,154.5C 153.722,155.416 153.222,156.082 152.5,156.5C 150.51,150.336 146.51,145.836 140.5,143C 134.509,142.97 128.509,142.137 122.5,140.5C 112.972,142.87 105.972,148.37 101.5,157C 100.295,159.207 100.295,161.374 101.5,163.5C 101.517,165.565 101.85,167.565 102.5,169.5C 100.833,168.167 99.1667,166.833 97.5,165.5C 95.5311,160.854 96.1977,156.687 99.5,153C 97.9632,151.89 97.2965,150.39 97.5,148.5C 98.7359,146.389 100.236,144.389 102,142.5C 102.333,142.833 102.667,143.167 103,143.5C 106.044,140.949 109.211,138.616 112.5,136.5C 123.684,131.003 134.684,131.336 145.5,137.5 Z"/></g>
<g><path style="opacity:0.081" fill="#fdf801" d="M 225.5,141.5 C 225.97,142.693 226.97,143.36 228.5,143.5C 237.607,144.429 246.607,145.762 255.5,147.5C 255.5,148.5 255.5,149.5 255.5,150.5C 245.833,149.833 236.167,149.167 226.5,148.5C 226.167,148.5 225.833,148.5 225.5,148.5C 225.167,147.167 224.833,147.167 224.5,148.5C 221.546,147.729 218.546,147.062 215.5,146.5C 214.737,145.732 213.737,145.232 212.5,145C 216.025,144.821 219.359,144.321 222.5,143.5C 222.821,141.952 223.821,141.285 225.5,141.5 Z"/></g>
<g><path style="opacity:0.143" fill="#fcf600" d="M 31.5,139.5 C 32.7498,139.577 33.5831,140.244 34,141.5C 34.2784,140.584 34.7784,139.918 35.5,139.5C 35.9528,140.458 36.6195,141.292 37.5,142C 36.8333,142.333 36.1667,142.667 35.5,143C 37.0349,143.496 38.5349,143.33 40,142.5C 43.3303,142.721 46.1636,143.721 48.5,145.5C 43.383,146.516 38.383,147.85 33.5,149.5C 32.3784,148.844 31.0451,148.511 29.5,148.5C 21.1846,149.443 12.8513,150.11 4.5,150.5C 4.36007,148.876 5.02674,147.71 6.5,147C 15.305,146.116 23.9717,144.616 32.5,142.5C 31.8728,141.583 31.5394,140.583 31.5,139.5 Z"/></g>
<g><path style="opacity:1" fill="#fbf06f" d="M 152.5,156.5 C 153.222,156.082 153.722,155.416 154,154.5C 154.192,156.577 154.692,158.577 155.5,160.5C 156.182,159.757 156.849,159.091 157.5,158.5C 157.5,160.833 157.5,163.167 157.5,165.5C 153.131,168.742 149.131,172.576 145.5,177C 139.561,178.48 133.561,179.646 127.5,180.5C 120.961,179.826 114.628,178.326 108.5,176C 107.002,173.336 105.002,171.17 102.5,169.5C 101.85,167.565 101.517,165.565 101.5,163.5C 103.164,162.051 103.998,160.051 104,157.5C 104.333,158.5 104.667,159.5 105,160.5C 105.607,156.619 107.274,153.286 110,150.5C 110.333,151.167 110.667,151.833 111,152.5C 122.554,143.256 133.888,143.59 145,153.5C 145.718,152.549 146.551,152.383 147.5,153C 148.856,155.398 150.023,157.898 151,160.5C 152.188,159.437 152.688,158.103 152.5,156.5 Z"/></g>
<g><path style="opacity:1" fill="#edba0d" d="M 181.5,95.5 C 184.158,102.98 186.324,110.646 188,118.5C 189.968,134.627 186.302,149.294 177,162.5C 161.465,182.729 141.298,190.396 116.5,185.5C 124.886,185.787 133.219,185.287 141.5,184C 146.45,181.966 151.117,179.466 155.5,176.5C 156.391,175.89 157.391,175.557 158.5,175.5C 161.257,174.138 163.924,172.638 166.5,171C 187.165,150.507 191.499,127.007 179.5,100.5C 179.796,98.597 180.463,96.9303 181.5,95.5 Z"/></g>
<g><path style="opacity:1" fill="#de7b02" d="M 137.5,55.5 C 170.194,61.6924 190.36,81.0257 198,113.5C 201.628,135.35 196.128,154.35 181.5,170.5C 183.754,166.993 185.754,163.327 187.5,159.5C 190.99,153.22 193.824,146.554 196,139.5C 198.439,123.055 196.105,107.389 189,92.5C 186.149,87.7009 182.649,83.7009 178.5,80.5C 176.212,76.5442 173.212,73.2109 169.5,70.5C 153.921,59.6165 136.587,55.4499 117.5,58C 101.913,60.4471 89.5792,67.9471 80.5,80.5C 75.5459,83.2901 71.7126,87.2901 69,92.5C 57.6609,117.751 59.1609,142.085 73.5,165.5C 73.5,166.167 73.1667,166.5 72.5,166.5C 61.1116,150.273 56.9449,132.273 60,112.5C 70.9427,73.4301 96.776,54.4301 137.5,55.5 Z"/></g>
<g><path style="opacity:1" fill="#fcf461" d="M 152.5,156.5 C 152.688,158.103 152.188,159.437 151,160.5C 150.023,157.898 148.856,155.398 147.5,153C 146.551,152.383 145.718,152.549 145,153.5C 133.888,143.59 122.554,143.256 111,152.5C 110.667,151.833 110.333,151.167 110,150.5C 107.274,153.286 105.607,156.619 105,160.5C 104.667,159.5 104.333,158.5 104,157.5C 103.998,160.051 103.164,162.051 101.5,163.5C 100.295,161.374 100.295,159.207 101.5,157C 105.972,148.37 112.972,142.87 122.5,140.5C 128.509,142.137 134.509,142.97 140.5,143C 146.51,145.836 150.51,150.336 152.5,156.5 Z"/></g>
<g><path style="opacity:1" fill="#fcf32d" d="M 108.5,118.5 C 121.833,119.833 135.167,119.833 148.5,118.5C 151.168,119.457 152.668,121.457 153,124.5C 154.414,129.199 154.914,133.866 154.5,138.5C 151.533,137.838 148.699,136.171 146,133.5C 145.51,134.793 145.343,136.127 145.5,137.5C 134.684,131.336 123.684,131.003 112.5,136.5C 112.539,135.244 112.039,134.244 111,133.5C 108.851,135.661 106.351,136.828 103.5,137C 103.148,132.897 103.648,128.73 105,124.5C 105.424,121.975 106.59,119.975 108.5,118.5 Z"/></g>
<g><path style="opacity:1" fill="#fae928" d="M 161.5,113.5 C 162.5,113.5 163.5,113.5 164.5,113.5C 166.279,117.277 167.446,121.277 168,125.5C 168.228,135.924 166.228,145.924 162,155.5C 161.95,153.256 161.117,151.589 159.5,150.5C 158.639,148.614 157.639,146.78 156.5,145C 152.699,142.7 149.033,140.2 145.5,137.5C 145.343,136.127 145.51,134.793 146,133.5C 148.699,136.171 151.533,137.838 154.5,138.5C 154.914,133.866 154.414,129.199 153,124.5C 152.668,121.457 151.168,119.457 148.5,118.5C 150.167,117.833 151.833,117.167 153.5,116.5C 156.486,116.097 159.152,115.097 161.5,113.5 Z"/></g>
<g><path style="opacity:1" fill="#fae927" d="M 93.5,112.5 C 93.8333,112.5 94.1667,112.5 94.5,112.5C 98.9482,115.091 103.615,117.091 108.5,118.5C 106.59,119.975 105.424,121.975 105,124.5C 103.648,128.73 103.148,132.897 103.5,137C 106.351,136.828 108.851,135.661 111,133.5C 112.039,134.244 112.539,135.244 112.5,136.5C 109.211,138.616 106.044,140.949 103,143.5C 102.667,143.167 102.333,142.833 102,142.5C 100.236,144.389 98.7359,146.389 97.5,148.5C 96.0502,146.014 94.8835,146.347 94,149.5C 91.6494,143.26 90.1494,136.76 89.5,130C 90.0097,123.947 91.343,118.114 93.5,112.5 Z"/></g>
<g><path style="opacity:1" fill="#fbf03f" d="M 106.5,111.5 C 121.47,114.165 136.47,114.165 151.5,111.5C 150.989,113.419 151.656,115.085 153.5,116.5C 151.833,117.167 150.167,117.833 148.5,118.5C 135.167,119.833 121.833,119.833 108.5,118.5C 103.615,117.091 98.9482,115.091 94.5,112.5C 96.4358,111.741 98.2691,110.741 100,109.5C 102.225,110.096 104.392,110.763 106.5,111.5 Z"/></g>
<g><path style="opacity:1" fill="#f6dc20" d="M 85.5,107.5 C 88.1667,109.167 90.8333,110.833 93.5,112.5C 91.343,118.114 90.0097,123.947 89.5,130C 90.1494,136.76 91.6494,143.26 94,149.5C 94.8835,146.347 96.0502,146.014 97.5,148.5C 97.2965,150.39 97.9632,151.89 99.5,153C 96.1977,156.687 95.5311,160.854 97.5,165.5C 95.6957,163.505 93.6957,161.838 91.5,160.5C 79.9409,143.919 77.9409,126.252 85.5,107.5 Z"/></g>
<g><path style="opacity:1" fill="#fbef48" d="M 161.5,113.5 C 159.152,115.097 156.486,116.097 153.5,116.5C 151.656,115.085 150.989,113.419 151.5,111.5C 136.47,114.165 121.47,114.165 106.5,111.5C 106.953,110.542 107.619,109.708 108.5,109C 108.167,108.667 107.833,108.333 107.5,108C 109.241,106.38 111.075,104.88 113,103.5C 123.667,104.833 134.333,104.833 145,103.5C 146.973,104.64 148.807,105.973 150.5,107.5C 153.103,106.438 155.77,106.272 158.5,107C 159.366,109.324 160.366,111.491 161.5,113.5 Z"/></g>
<g><path style="opacity:1" fill="#f9e94b" d="M 91.5,102.5 C 96.0248,105.091 100.525,105.091 105,102.5C 108.78,104.133 112.28,103.633 115.5,101C 124.5,100.333 133.5,100.333 142.5,101C 145.72,103.633 149.22,104.133 153,102.5C 159.011,105.369 164.678,104.703 170,100.5C 171.523,102.569 172.357,104.903 172.5,107.5C 172.5,107.833 172.5,108.167 172.5,108.5C 169.797,110.181 167.131,111.847 164.5,113.5C 163.5,113.5 162.5,113.5 161.5,113.5C 160.366,111.491 159.366,109.324 158.5,107C 155.77,106.272 153.103,106.438 150.5,107.5C 148.807,105.973 146.973,104.64 145,103.5C 134.333,104.833 123.667,104.833 113,103.5C 111.075,104.88 109.241,106.38 107.5,108C 107.833,108.333 108.167,108.667 108.5,109C 107.619,109.708 106.953,110.542 106.5,111.5C 104.392,110.763 102.225,110.096 100,109.5C 98.2691,110.741 96.4358,111.741 94.5,112.5C 94.1667,112.5 93.8333,112.5 93.5,112.5C 90.8333,110.833 88.1667,109.167 85.5,107.5C 85.5,107.167 85.5,106.833 85.5,106.5C 85.848,104.287 86.6813,102.287 88,100.5C 88.8159,101.823 89.9826,102.489 91.5,102.5 Z"/></g>
<g><path style="opacity:1" fill="#f9e857" d="M 175.5,104.5 C 174.833,105.833 173.833,106.833 172.5,107.5C 172.357,104.903 171.523,102.569 170,100.5C 164.678,104.703 159.011,105.369 153,102.5C 149.22,104.133 145.72,103.633 142.5,101C 133.5,100.333 124.5,100.333 115.5,101C 112.28,103.633 108.78,104.133 105,102.5C 100.525,105.091 96.0248,105.091 91.5,102.5C 92.3795,99.7378 93.5462,97.0711 95,94.5C 98.6284,96.3539 102.462,97.1873 106.5,97C 106.167,96.6667 105.833,96.3333 105.5,96C 106.793,95.51 108.127,95.3433 109.5,95.5C 109.931,92.0763 111.931,90.4097 115.5,90.5C 124.5,91.8333 133.5,91.8333 142.5,90.5C 146.069,90.4097 148.069,92.0763 148.5,95.5C 149.873,95.3433 151.207,95.51 152.5,96C 151.112,96.8893 151.278,97.3893 153,97.5C 159.415,97.1988 164.915,94.8654 169.5,90.5C 172.86,94.5806 174.86,99.2473 175.5,104.5 Z"/></g>
<g><path style="opacity:1" fill="#f7df5d" d="M 173.5,80.5 C 174.833,83.8333 177.167,86.1667 180.5,87.5C 181.404,88.209 181.737,89.209 181.5,90.5C 181.5,92.1667 181.5,93.8333 181.5,95.5C 180.463,96.9303 179.796,98.597 179.5,100.5C 178.512,101.795 177.512,103.128 176.5,104.5C 176.167,104.5 175.833,104.5 175.5,104.5C 174.86,99.2473 172.86,94.5806 169.5,90.5C 164.915,94.8654 159.415,97.1988 153,97.5C 151.278,97.3893 151.112,96.8893 152.5,96C 151.207,95.51 149.873,95.3433 148.5,95.5C 148.069,92.0763 146.069,90.4097 142.5,90.5C 133.5,91.8333 124.5,91.8333 115.5,90.5C 111.931,90.4097 109.931,92.0763 109.5,95.5C 108.127,95.3433 106.793,95.51 105.5,96C 105.833,96.3333 106.167,96.6667 106.5,97C 102.462,97.1873 98.6284,96.3539 95,94.5C 93.5462,97.0711 92.3795,99.7378 91.5,102.5C 89.9826,102.489 88.8159,101.823 88,100.5C 86.6813,102.287 85.848,104.287 85.5,106.5C 83.0526,104.93 81.0526,102.93 79.5,100.5C 79.0113,99.0048 78.3446,97.6715 77.5,96.5C 77.5,95.5 77.5,94.5 77.5,93.5C 78.7206,94.0283 79.8873,94.695 81,95.5C 83.4705,93.9166 85.9705,92.25 88.5,90.5C 89.4776,90.9767 90.3109,91.6433 91,92.5C 92.853,90.0975 94.6863,87.7641 96.5,85.5C 98.0295,86.0668 99.5295,86.7334 101,87.5C 102.594,86.2841 104.094,84.9507 105.5,83.5C 113.144,85.768 120.977,86.768 129,86.5C 137.023,86.768 144.856,85.768 152.5,83.5C 153.906,84.9507 155.406,86.2841 157,87.5C 158.47,86.7334 159.97,86.0668 161.5,85.5C 165.017,82.7435 169.017,81.0768 173.5,80.5 Z"/></g>
<g><path style="opacity:1" fill="#f8e26d" d="M 161.5,85.5 C 159.97,86.0668 158.47,86.7334 157,87.5C 155.406,86.2841 153.906,84.9507 152.5,83.5C 144.856,85.768 137.023,86.768 129,86.5C 120.977,86.768 113.144,85.768 105.5,83.5C 104.094,84.9507 102.594,86.2841 101,87.5C 99.5295,86.7334 98.0295,86.0668 96.5,85.5C 98.4563,82.3753 100.956,79.7087 104,77.5C 106.607,78.2705 109.273,78.9371 112,79.5C 114.95,77.7731 118.116,76.7731 121.5,76.5C 126.5,77.8333 131.5,77.8333 136.5,76.5C 139.884,76.7731 143.05,77.7731 146,79.5C 148.727,78.9371 151.393,78.2705 154,77.5C 157.044,79.7087 159.544,82.3753 161.5,85.5 Z"/></g>
<g><path style="opacity:1" fill="#f5d86f" d="M 173.5,80.5 C 169.017,81.0768 165.017,82.7435 161.5,85.5C 159.544,82.3753 157.044,79.7087 154,77.5C 151.393,78.2705 148.727,78.9371 146,79.5C 143.05,77.7731 139.884,76.7731 136.5,76.5C 131.5,77.8333 126.5,77.8333 121.5,76.5C 118.116,76.7731 114.95,77.7731 112,79.5C 109.273,78.9371 106.607,78.2705 104,77.5C 100.956,79.7087 98.4563,82.3753 96.5,85.5C 94.6863,87.7641 92.853,90.0975 91,92.5C 90.3109,91.6433 89.4776,90.9767 88.5,90.5C 85.9705,92.25 83.4705,93.9166 81,95.5C 79.8873,94.695 78.7206,94.0283 77.5,93.5C 77.5,91.1667 77.5,88.8333 77.5,86.5C 78.2632,84.6316 79.2632,82.9649 80.5,81.5C 80.4346,81.9382 80.6012,82.2716 81,82.5C 83.9849,81.1024 86.1515,78.9358 87.5,76C 90.0711,74.5462 92.7378,73.3795 95.5,72.5C 99.0478,70.4803 102.881,69.4803 107,69.5C 118.627,71.5157 130.294,71.849 142,70.5C 144.969,71.4381 147.969,72.4381 151,73.5C 155.587,70.8414 159.253,71.5081 162,75.5C 162.333,75.1667 162.667,74.8333 163,74.5C 165.355,75.8081 167.855,76.8081 170.5,77.5C 171.77,78.2876 172.77,79.2876 173.5,80.5 Z"/></g>
<g><path style="opacity:1" fill="#f4d67f" d="M 169.5,70.5 C 173.212,73.2109 176.212,76.5442 178.5,80.5C 179.939,82.588 180.606,84.9214 180.5,87.5C 177.167,86.1667 174.833,83.8333 173.5,80.5C 172.77,79.2876 171.77,78.2876 170.5,77.5C 167.855,76.8081 165.355,75.8081 163,74.5C 162.667,74.8333 162.333,75.1667 162,75.5C 159.253,71.5081 155.587,70.8414 151,73.5C 147.969,72.4381 144.969,71.4381 142,70.5C 130.294,71.849 118.627,71.5157 107,69.5C 102.881,69.4803 99.0478,70.4803 95.5,72.5C 96.3479,70.9069 97.6813,69.7403 99.5,69C 109.017,64.6911 119.017,62.8578 129.5,63.5C 137.194,63.5908 144.861,64.0908 152.5,65C 157.855,68.6212 163.521,70.4546 169.5,70.5 Z"/></g>
<g><path style="opacity:1" fill="#f4d197" d="M 169.5,70.5 C 163.521,70.4546 157.855,68.6212 152.5,65C 144.861,64.0908 137.194,63.5908 129.5,63.5C 119.017,62.8578 109.017,64.6911 99.5,69C 97.6813,69.7403 96.3479,70.9069 95.5,72.5C 92.7378,73.3795 90.0711,74.5462 87.5,76C 86.1515,78.9358 83.9849,81.1024 81,82.5C 80.6012,82.2716 80.4346,81.9382 80.5,81.5C 80.5,81.1667 80.5,80.8333 80.5,80.5C 89.5792,67.9471 101.913,60.4471 117.5,58C 136.587,55.4499 153.921,59.6165 169.5,70.5 Z"/></g>
<g><path style="opacity:1" fill="#fdf58e" d="M 122.5,153.5 C 135.902,152.644 143.069,157.644 144,168.5C 135.703,178.483 125.869,180.15 114.5,173.5C 111.163,170.156 109.997,166.156 111,161.5C 111.333,162.167 111.667,162.833 112,163.5C 114.106,158.557 117.606,155.224 122.5,153.5 Z"/></g>
<g><path style="opacity:0.135" fill="#ffcb48" d="M 215.5,146.5 C 218.546,147.062 221.546,147.729 224.5,148.5C 224.833,148.5 225.167,148.5 225.5,148.5C 225.833,148.5 226.167,148.5 226.5,148.5C 230.014,149.784 233.347,151.45 236.5,153.5C 236.167,154.5 235.5,155.167 234.5,155.5C 230.884,154.121 227.217,153.287 223.5,153C 230.018,155.299 236.685,157.299 243.5,159C 244.833,159.667 246.167,160.333 247.5,161C 246.434,162.159 246.767,162.992 248.5,163.5C 247.791,164.404 246.791,164.737 245.5,164.5C 245.167,164.5 244.833,164.5 244.5,164.5C 230.8,160.378 217.133,156.045 203.5,151.5C 203.917,150.876 204.584,150.543 205.5,150.5C 210.59,151.842 215.59,152.675 220.5,153C 218.02,150.257 215.02,148.257 211.5,147C 212.793,146.51 214.127,146.343 215.5,146.5 Z"/></g>
<g><path style="opacity:0.62" fill="#fdc831" d="M 58.5,141.5 C 59.1174,141.611 59.6174,141.944 60,142.5C 62.7261,152.525 66.8927,161.858 72.5,170.5C 69.3383,169.206 67.3383,170.372 66.5,174C 62.5853,177.536 58.4186,180.703 54,183.5C 53.0546,183.095 52.3879,182.428 52,181.5C 51,182.833 50,182.833 49,181.5C 48.9657,179.82 48.799,178.32 48.5,177C 46.8602,176.652 45.5268,177.152 44.5,178.5C 39.2803,180.693 34.1137,183.026 29,185.5C 28.2888,183.633 28.7888,182.133 30.5,181C 34.5,178.667 38.5,176.333 42.5,174C 41.281,171.722 39.9477,169.555 38.5,167.5C 41.0116,168.928 43.6783,169.428 46.5,169C 45.8333,168.667 45.1667,168.333 44.5,168C 46.5397,165.977 48.873,164.31 51.5,163C 49.0087,162.374 49.0087,161.541 51.5,160.5C 49.2825,159.943 46.9491,159.943 44.5,160.5C 50.0202,158.34 55.3535,155.673 60.5,152.5C 59.8333,152.167 59.1667,151.833 58.5,151.5C 44.7896,156.005 31.1229,160.338 17.5,164.5C 17.1667,164.5 16.8333,164.5 16.5,164.5C 15.6618,164.158 15.3284,163.492 15.5,162.5C 15.5743,160.589 16.5743,159.422 18.5,159C 24.1389,157.622 29.4722,155.789 34.5,153.5C 31.4903,152.301 31.1569,150.967 33.5,149.5C 38.383,147.85 43.383,146.516 48.5,145.5C 51.8333,145.5 55.1667,145.5 58.5,145.5C 58.5,144.167 58.5,142.833 58.5,141.5 Z"/></g>
<g><path style="opacity:0.208" fill="#fcf50b" d="M 44.5,160.5 C 35.6842,163.105 27.0175,166.105 18.5,169.5C 14.4545,171.126 10.2878,172.459 6,173.5C 4.94123,173.37 4.1079,172.87 3.5,172C 7.07895,169.246 11.0789,167.246 15.5,166C 9.14694,165.478 9.14694,164.311 15.5,162.5C 15.3284,163.492 15.6618,164.158 16.5,164.5C 16.8333,165.833 17.1667,165.833 17.5,164.5C 31.1229,160.338 44.7896,156.005 58.5,151.5C 59.1667,151.833 59.8333,152.167 60.5,152.5C 55.3535,155.673 50.0202,158.34 44.5,160.5 Z"/></g>
<g><path style="opacity:0.277" fill="#febd49" d="M 208.5,156.5 C 220.529,160.842 232.529,165.176 244.5,169.5C 244.5,170.5 244.5,171.5 244.5,172.5C 236.018,171.284 227.851,168.95 220,165.5C 219.722,166.416 219.222,167.082 218.5,167.5C 218.5,165.5 217.5,164.5 215.5,164.5C 212.816,162.665 209.983,160.998 207,159.5C 206.275,157.843 206.775,156.843 208.5,156.5 Z"/></g>
<g><path style="opacity:0.275" fill="#fec147" d="M 38.5,167.5 C 32.2869,168.929 26.1202,170.595 20,172.5C 17.7197,172.106 17.2197,171.106 18.5,169.5C 27.0175,166.105 35.6842,163.105 44.5,160.5C 46.9491,159.943 49.2825,159.943 51.5,160.5C 49.0087,161.541 49.0087,162.374 51.5,163C 48.873,164.31 46.5397,165.977 44.5,168C 45.1667,168.333 45.8333,168.667 46.5,169C 43.6783,169.428 41.0116,168.928 38.5,167.5 Z"/></g>
<g><path style="opacity:0.415" fill="#fccc1b" d="M 222.5,143.5 C 219.359,144.321 216.025,144.821 212.5,145C 213.737,145.232 214.737,145.732 215.5,146.5C 214.127,146.343 212.793,146.51 211.5,147C 215.02,148.257 218.02,150.257 220.5,153C 215.59,152.675 210.59,151.842 205.5,150.5C 204.584,150.543 203.917,150.876 203.5,151.5C 201.401,150.769 199.401,150.769 197.5,151.5C 201.343,152.993 205.01,154.66 208.5,156.5C 206.775,156.843 206.275,157.843 207,159.5C 209.983,160.998 212.816,162.665 215.5,164.5C 215.082,165.222 214.416,165.722 213.5,166C 213.833,166.333 214.167,166.667 214.5,167C 213.5,167.5 212.5,168 211.5,168.5C 206.47,164.653 201.137,161.32 195.5,158.5C 194.479,159.002 194.312,159.668 195,160.5C 197.479,162.314 199.979,163.981 202.5,165.5C 201.761,165.369 201.094,165.536 200.5,166C 201.716,167.74 203.382,168.74 205.5,169C 205,169.5 204.5,170 204,170.5C 200.693,168.255 197.193,166.755 193.5,166C 198.249,169.756 203.249,173.089 208.5,176C 209.126,176.75 209.626,177.584 210,178.5C 210.977,177.226 211.811,177.226 212.5,178.5C 210.833,181.833 209.167,185.167 207.5,188.5C 202.481,185.751 202.314,183.751 207,182.5C 207.688,181.668 207.521,181.002 206.5,180.5C 205.575,181.641 204.741,181.641 204,180.5C 203.632,181.91 202.799,182.91 201.5,183.5C 198.451,180.289 194.951,177.623 191,175.5C 190.667,176.5 190.333,177.5 190,178.5C 186.805,177.149 184.972,174.815 184.5,171.5C 190.159,163.683 194.826,155.349 198.5,146.5C 198.517,148.028 199.184,148.528 200.5,148C 199.594,146.301 199.261,144.467 199.5,142.5C 205.822,143.277 212.155,143.444 218.5,143C 217.112,142.111 217.278,141.611 219,141.5C 220.077,142.429 221.244,143.096 222.5,143.5 Z"/></g>
<g><path style="opacity:0.041" fill="#fdf607" d="M 203.5,151.5 C 217.133,156.045 230.8,160.378 244.5,164.5C 243.817,165.644 244.151,165.644 245.5,164.5C 246.791,164.737 247.791,164.404 248.5,163.5C 249.043,163.56 249.376,163.893 249.5,164.5C 248.624,165.251 247.624,165.751 246.5,166C 249.484,167.271 252.484,168.438 255.5,169.5C 255.5,170.5 255.5,171.5 255.5,172.5C 251.653,172.106 247.986,171.106 244.5,169.5C 232.529,165.176 220.529,160.842 208.5,156.5C 205.01,154.66 201.343,152.993 197.5,151.5C 199.401,150.769 201.401,150.769 203.5,151.5 Z"/></g>
<g><path style="opacity:0.102" fill="#febd40" d="M 202.5,165.5 C 207.597,168.748 212.597,172.248 217.5,176C 216.944,176.383 216.611,176.883 216.5,177.5C 214.805,176.174 213.472,176.507 212.5,178.5C 211.811,177.226 210.977,177.226 210,178.5C 209.626,177.584 209.126,176.75 208.5,176C 203.249,173.089 198.249,169.756 193.5,166C 197.193,166.755 200.693,168.255 204,170.5C 204.5,170 205,169.5 205.5,169C 203.382,168.74 201.716,167.74 200.5,166C 201.094,165.536 201.761,165.369 202.5,165.5 Z"/></g>
<g><path style="opacity:0.153" fill="#fce520" d="M 215.5,164.5 C 217.5,164.5 218.5,165.5 218.5,167.5C 217.587,169.086 217.587,170.586 218.5,172C 228.222,177.564 237.222,184.064 245.5,191.5C 245.167,191.833 244.833,192.167 244.5,192.5C 234.79,187.982 225.457,182.982 216.5,177.5C 216.611,176.883 216.944,176.383 217.5,176C 212.597,172.248 207.597,168.748 202.5,165.5C 199.979,163.981 197.479,162.314 195,160.5C 194.312,159.668 194.479,159.002 195.5,158.5C 201.137,161.32 206.47,164.653 211.5,168.5C 212.5,168 213.5,167.5 214.5,167C 214.167,166.667 213.833,166.333 213.5,166C 214.416,165.722 215.082,165.222 215.5,164.5 Z"/></g>
<g><path style="opacity:1" fill="#f4d23a" d="M 91.5,160.5 C 93.6957,161.838 95.6957,163.505 97.5,165.5C 99.1667,166.833 100.833,168.167 102.5,169.5C 105.002,171.17 107.002,173.336 108.5,176C 114.628,178.326 120.961,179.826 127.5,180.5C 133.561,179.646 139.561,178.48 145.5,177C 149.131,172.576 153.131,168.742 157.5,165.5C 158.232,164.192 159.066,162.858 160,161.5C 160.167,161.833 160.333,162.167 160.5,162.5C 159.215,165.021 158.548,167.687 158.5,170.5C 157.723,173.112 156.056,174.945 153.5,176C 154.094,176.464 154.761,176.631 155.5,176.5C 151.117,179.466 146.45,181.966 141.5,184C 133.219,185.287 124.886,185.787 116.5,185.5C 112.848,183.213 108.848,181.379 104.5,180C 103.29,178.961 102.29,177.794 101.5,176.5C 99.502,174.4 97.3353,172.4 95,170.5C 93.5593,167.12 91.7259,163.953 89.5,161C 90.0944,160.536 90.7611,160.369 91.5,160.5 Z"/></g>
<g><path style="opacity:1" fill="#fdf9ab" d="M 122.5,162.5 C 125.518,162.335 128.518,162.502 131.5,163C 135.446,166.46 135.446,169.96 131.5,173.5C 127.217,175.154 123.383,174.487 120,171.5C 119.131,168.007 119.964,165.007 122.5,162.5 Z"/></g>
<g><path style="opacity:0.291" fill="#fdcc1f" d="M 72.5,170.5 C 77.1938,174.527 81.5271,178.86 85.5,183.5C 84.4187,185.764 83.0854,187.931 81.5,190C 82.4506,190.718 82.6172,191.551 82,192.5C 80.6378,195.236 78.8044,197.569 76.5,199.5C 77.2472,199.736 78.0805,200.07 79,200.5C 80.2997,197.568 82.2997,195.234 85,193.5C 84.5176,195.408 83.8509,197.408 83,199.5C 80.2436,202.018 78.2436,205.018 77,208.5C 76.3076,207.975 75.8076,207.308 75.5,206.5C 78.1424,201.207 77.3091,200.541 73,204.5C 72.5172,205.448 72.3505,206.448 72.5,207.5C 69.6286,208.986 68.2953,207.986 68.5,204.5C 72.0552,202.875 72.3885,200.708 69.5,198C 70.7441,197.544 71.5774,198.044 72,199.5C 72.3333,199.167 72.6667,198.833 73,198.5C 72.6948,196.557 72.6948,194.557 73,192.5C 73.3333,192.833 73.6667,193.167 74,193.5C 74.5,192.333 75.3333,191.5 76.5,191C 76.1667,190.667 75.8333,190.333 75.5,190C 78.5912,189.261 80.0912,187.428 80,184.5C 78.4293,186.923 76.2626,188.256 73.5,188.5C 75.7668,186.633 76.9335,184.3 77,181.5C 72.5,184.667 68.6667,188.5 65.5,193C 64.6683,193.688 64.0016,193.521 63.5,192.5C 65.9825,188.551 69.1492,185.217 73,182.5C 73.49,181.207 73.6567,179.873 73.5,178.5C 71.3043,178.565 69.3043,179.232 67.5,180.5C 64.7915,184.209 61.4581,187.209 57.5,189.5C 55.8983,188.45 55.065,189.117 55,191.5C 54.6174,190.944 54.1174,190.611 53.5,190.5C 50.022,186.886 47.022,182.886 44.5,178.5C 45.5268,177.152 46.8602,176.652 48.5,177C 48.799,178.32 48.9657,179.82 49,181.5C 50,182.833 51,182.833 52,181.5C 52.3879,182.428 53.0546,183.095 54,183.5C 58.4186,180.703 62.5853,177.536 66.5,174C 67.3383,170.372 69.3383,169.206 72.5,170.5 Z"/></g>
<g><path style="opacity:0.51" fill="#fdce1c" d="M 181.5,175.5 C 185.696,178.767 189.696,182.267 193.5,186C 192.892,186.87 192.059,187.37 191,187.5C 188.138,185.4 185.471,183.067 183,180.5C 183.027,182.417 183.861,184.084 185.5,185.5C 184.603,185.669 183.603,186.002 182.5,186.5C 186.946,190.569 191.279,194.736 195.5,199C 194.944,199.383 194.611,199.883 194.5,200.5C 193.662,200.842 193.328,201.508 193.5,202.5C 188.668,195.993 183.001,189.993 176.5,184.5C 176.39,186.098 176.057,187.765 175.5,189.5C 178.693,193.532 181.359,197.365 183.5,201C 181.071,201.451 180.904,202.285 183,203.5C 185.503,202.762 187.337,203.762 188.5,206.5C 186.372,207.957 184.038,208.957 181.5,209.5C 180.732,208.737 180.232,207.737 180,206.5C 179.667,207.167 179.333,207.833 179,208.5C 177.237,205.98 175.237,203.647 173,201.5C 170.23,196.918 167.73,192.251 165.5,187.5C 170.825,183.503 176.158,179.503 181.5,175.5 Z"/></g>
<g><path style="opacity:0.317" fill="#fecf1d" d="M 85.5,183.5 C 88.2827,185.067 90.9493,186.9 93.5,189C 98.1441,190.156 102.477,191.989 106.5,194.5C 106.296,196.685 105.63,198.685 104.5,200.5C 104.008,202.819 103.008,204.819 101.5,206.5C 102.646,202.246 103.313,197.913 103.5,193.5C 102.5,193.5 101.5,193.5 100.5,193.5C 99.057,201.383 96.2237,208.717 92,215.5C 90.9207,213.606 89.5874,213.273 88,214.5C 87.6667,213.833 87.3333,213.167 87,212.5C 85.7365,214.607 83.9032,215.607 81.5,215.5C 80.9311,218.902 79.2644,221.569 76.5,223.5C 77.6284,219.91 79.295,216.577 81.5,213.5C 78.4594,211.441 75.4594,209.441 72.5,207.5C 72.3505,206.448 72.5172,205.448 73,204.5C 77.3091,200.541 78.1424,201.207 75.5,206.5C 75.8076,207.308 76.3076,207.975 77,208.5C 78.2436,205.018 80.2436,202.018 83,199.5C 83.8509,197.408 84.5176,195.408 85,193.5C 82.2997,195.234 80.2997,197.568 79,200.5C 78.0805,200.07 77.2472,199.736 76.5,199.5C 78.8044,197.569 80.6378,195.236 82,192.5C 82.6172,191.551 82.4506,190.718 81.5,190C 83.0854,187.931 84.4187,185.764 85.5,183.5 Z"/></g>
<g><path style="opacity:0.26" fill="#fec445" d="M 184.5,171.5 C 184.972,174.815 186.805,177.149 190,178.5C 190.333,177.5 190.667,176.5 191,175.5C 194.951,177.623 198.451,180.289 201.5,183.5C 202.799,182.91 203.632,181.91 204,180.5C 204.741,181.641 205.575,181.641 206.5,180.5C 207.521,181.002 207.688,181.668 207,182.5C 202.314,183.751 202.481,185.751 207.5,188.5C 211.979,191.477 215.146,195.477 217,200.5C 220.396,203.393 223.229,206.726 225.5,210.5C 223.813,211.568 222.146,211.401 220.5,210C 217.547,206.099 214.214,204.766 210.5,206C 208,203.5 205.5,201 203,198.5C 202.333,199.167 202.333,199.833 203,200.5C 206.038,203.203 208.705,206.203 211,209.5C 211.667,210.5 211.667,211.5 211,212.5C 205.603,208.257 200.103,204.257 194.5,200.5C 194.611,199.883 194.944,199.383 195.5,199C 191.279,194.736 186.946,190.569 182.5,186.5C 183.603,186.002 184.603,185.669 185.5,185.5C 183.861,184.084 183.027,182.417 183,180.5C 185.471,183.067 188.138,185.4 191,187.5C 192.059,187.37 192.892,186.87 193.5,186C 189.696,182.267 185.696,178.767 181.5,175.5C 181.738,173.596 182.738,172.262 184.5,171.5 Z"/></g>
<g><path style="opacity:1" fill="#dd7d00" d="M 187.5,159.5 C 185.754,163.327 183.754,166.993 181.5,170.5C 180.118,173.394 178.118,175.894 175.5,178C 170.597,181.752 165.597,185.252 160.5,188.5C 159.713,190.104 158.38,190.771 156.5,190.5C 152.156,191.558 147.823,192.724 143.5,194C 114.232,198.862 90.5657,189.695 72.5,166.5C 73.1667,166.5 73.5,166.167 73.5,165.5C 79.2981,170.797 84.9647,176.297 90.5,182C 95.1667,184 99.8333,186 104.5,188C 107.757,189.043 111.09,189.543 114.5,189.5C 114.918,190.222 115.584,190.722 116.5,191C 147.179,195.65 170.845,185.15 187.5,159.5 Z"/></g>
<g><path style="opacity:0.38" fill="#fee023" d="M 68.5,204.5 C 67.5416,204.047 66.7083,203.381 66,202.5C 59.5994,208.384 52.9327,214.05 46,219.5C 44.7705,218.725 44.4372,217.725 45,216.5C 48.3811,212.241 51.8811,208.074 55.5,204C 53.0938,202.233 53.4271,200.733 56.5,199.5C 56.4614,200.756 56.9614,201.756 58,202.5C 58.2896,200.956 58.9563,199.623 60,198.5C 60.4226,199.956 61.2559,200.456 62.5,200C 65.6689,195.665 69.3356,191.832 73.5,188.5C 76.2626,188.256 78.4293,186.923 80,184.5C 80.0912,187.428 78.5912,189.261 75.5,190C 75.8333,190.333 76.1667,190.667 76.5,191C 75.3333,191.5 74.5,192.333 74,193.5C 73.6667,193.167 73.3333,192.833 73,192.5C 72.6948,194.557 72.6948,196.557 73,198.5C 72.6667,198.833 72.3333,199.167 72,199.5C 71.5774,198.044 70.7441,197.544 69.5,198C 72.3885,200.708 72.0552,202.875 68.5,204.5 Z"/></g>
<g><path style="opacity:0.706" fill="#fcc336" d="M 165.5,187.5 C 167.73,192.251 170.23,196.918 173,201.5C 175.237,203.647 177.237,205.98 179,208.5C 179.333,207.833 179.667,207.167 180,206.5C 180.232,207.737 180.732,208.737 181.5,209.5C 180.527,211.068 180.36,212.735 181,214.5C 184.113,219.729 186.947,225.062 189.5,230.5C 184.632,225.137 180.466,219.137 177,212.5C 173.289,210.078 170.789,206.745 169.5,202.5C 167.261,198.359 164.761,194.359 162,190.5C 159.023,190.988 156.523,192.322 154.5,194.5C 158.328,202.157 161.661,209.991 164.5,218C 163.552,218.483 162.552,218.649 161.5,218.5C 160.957,218.56 160.624,218.893 160.5,219.5C 162.167,226.836 163.834,234.169 165.5,241.5C 164.483,244.028 163.316,244.028 162,241.5C 161.624,238.025 160.291,235.025 158,232.5C 157.309,234.891 156.309,234.891 155,232.5C 154.058,229.626 152.891,226.96 151.5,224.5C 151.737,223.209 151.404,222.209 150.5,221.5C 149.942,213.987 148.442,206.654 146,199.5C 145.83,203.493 145.996,207.493 146.5,211.5C 146.808,213.924 146.474,216.257 145.5,218.5C 143.524,211.641 142.524,204.641 142.5,197.5C 133.827,197.666 125.16,197.5 116.5,197C 114.942,196.79 113.609,196.29 112.5,195.5C 125.26,197.184 137.927,196.684 150.5,194C 152.879,193.284 154.879,192.117 156.5,190.5C 158.38,190.771 159.713,190.104 160.5,188.5C 162.216,188.371 163.883,188.038 165.5,187.5 Z"/></g>
<g><path style="opacity:0.307" fill="#fec145" d="M 193.5,202.5 C 193.082,203.222 192.416,203.722 191.5,204C 195.675,207.528 199.008,211.695 201.5,216.5C 200.635,217.583 199.635,217.749 198.5,217C 194.935,213.604 191.602,210.104 188.5,206.5C 187.337,203.762 185.503,202.762 183,203.5C 180.904,202.285 181.071,201.451 183.5,201C 181.359,197.365 178.693,193.532 175.5,189.5C 176.057,187.765 176.39,186.098 176.5,184.5C 183.001,189.993 188.668,195.993 193.5,202.5 Z"/></g>
<g><path style="opacity:0.768" fill="#fdcb29" d="M 106.5,194.5 C 108.565,194.517 110.565,194.85 112.5,195.5C 113.609,196.29 114.942,196.79 116.5,197C 125.16,197.5 133.827,197.666 142.5,197.5C 142.524,204.641 143.524,211.641 145.5,218.5C 146.474,216.257 146.808,213.924 146.5,211.5C 148.055,215.203 148.722,219.203 148.5,223.5C 148.498,226.686 148.165,229.686 147.5,232.5C 146.622,229.239 145.956,225.906 145.5,222.5C 143.167,222.5 140.833,222.5 138.5,222.5C 137.885,216.811 137.052,211.144 136,205.5C 135.252,210.93 134.919,216.263 135,221.5C 134.333,220.833 133.667,220.167 133,219.5C 132.857,215.381 132.19,211.381 131,207.5C 130.501,211.821 130.334,216.154 130.5,220.5C 129.127,220.343 127.793,220.51 126.5,221C 127.737,221.232 128.737,221.732 129.5,222.5C 127.326,222.92 125.326,222.92 123.5,222.5C 121.881,228.013 121.048,233.68 121,239.5C 120.71,241.044 120.044,242.377 119,243.5C 117.918,235.927 117.418,229.594 117.5,224.5C 115.852,219.977 117.019,218.977 121,221.5C 121.923,220.241 122.757,218.908 123.5,217.5C 124.192,218.025 124.692,218.692 125,219.5C 125.667,216.5 125.667,213.5 125,210.5C 124.798,212.256 124.298,213.922 123.5,215.5C 121.978,212.371 121.145,209.037 121,205.5C 120.007,209.442 119.34,213.442 119,217.5C 118.5,217 118,216.5 117.5,216C 118.632,211.587 118.799,207.087 118,202.5C 116.701,203.09 115.868,204.09 115.5,205.5C 115.018,209.434 113.852,213.1 112,216.5C 111.833,215.667 111.667,214.833 111.5,214C 112.519,211.451 112.519,208.951 111.5,206.5C 109.931,207.714 109.098,209.381 109,211.5C 108.667,210.167 108.333,208.833 108,207.5C 106.859,210.062 106.026,212.728 105.5,215.5C 104.828,217.16 103.828,218.493 102.5,219.5C 102.389,218.883 102.056,218.383 101.5,218C 103.869,213.087 105.536,207.92 106.5,202.5C 106.253,201.287 105.586,200.62 104.5,200.5C 105.63,198.685 106.296,196.685 106.5,194.5 Z"/></g>
<g><path style="opacity:0.345" fill="#fdd023" d="M 169.5,202.5 C 168.624,202.369 167.957,202.702 167.5,203.5C 168.373,205.413 169.373,207.247 170.5,209C 168.203,210.16 168.536,211.16 171.5,212C 169.349,212.265 167.682,213.265 166.5,215C 168.399,219.363 169.899,223.863 171,228.5C 171.703,230.929 171.537,233.262 170.5,235.5C 168.611,231.366 166.944,227.033 165.5,222.5C 163.812,221.479 162.479,220.145 161.5,218.5C 162.552,218.649 163.552,218.483 164.5,218C 161.661,209.991 158.328,202.157 154.5,194.5C 156.523,192.322 159.023,190.988 162,190.5C 164.761,194.359 167.261,198.359 169.5,202.5 Z"/></g>
<g><path style="opacity:0.098" fill="#fec646" d="M 73.5,188.5 C 69.3356,191.832 65.6689,195.665 62.5,200C 61.2559,200.456 60.4226,199.956 60,198.5C 58.9563,199.623 58.2896,200.956 58,202.5C 56.9614,201.756 56.4614,200.756 56.5,199.5C 57.9687,197.895 57.6354,197.395 55.5,198C 49.5264,203.318 43.1931,208.152 36.5,212.5C 36.1667,212 35.8333,211.5 35.5,211C 41.0311,203.643 47.0311,196.81 53.5,190.5C 54.1174,190.611 54.6174,190.944 55,191.5C 55.065,189.117 55.8983,188.45 57.5,189.5C 61.4581,187.209 64.7915,184.209 67.5,180.5C 69.3043,179.232 71.3043,178.565 73.5,178.5C 73.6567,179.873 73.49,181.207 73,182.5C 69.1492,185.217 65.9825,188.551 63.5,192.5C 64.0016,193.521 64.6683,193.688 65.5,193C 68.6667,188.5 72.5,184.667 77,181.5C 76.9335,184.3 75.7668,186.633 73.5,188.5 Z"/></g>
<g><path style="opacity:0.33" fill="#fde919" d="M 150.5,221.5 C 150.263,222.791 150.596,223.791 151.5,224.5C 152.586,233.867 153.086,243.534 153,253.5C 151.853,254.458 150.853,254.125 150,252.5C 148.744,245.879 147.911,239.212 147.5,232.5C 148.165,229.686 148.498,226.686 148.5,223.5C 148.722,219.203 148.055,215.203 146.5,211.5C 145.996,207.493 145.83,203.493 146,199.5C 148.442,206.654 149.942,213.987 150.5,221.5 Z"/></g>
<g><path style="opacity:0.373" fill="#fec144" d="M 138.5,222.5 C 139.992,228.261 139.825,233.928 138,239.5C 136.956,238.377 136.29,237.044 136,235.5C 135.667,231.5 135.333,227.5 135,223.5C 134.667,223.167 134.333,222.833 134,222.5C 132.732,230.415 131.232,230.415 129.5,222.5C 128.737,221.732 127.737,221.232 126.5,221C 127.793,220.51 129.127,220.343 130.5,220.5C 130.334,216.154 130.501,211.821 131,207.5C 132.19,211.381 132.857,215.381 133,219.5C 133.667,220.167 134.333,220.833 135,221.5C 134.919,216.263 135.252,210.93 136,205.5C 137.052,211.144 137.885,216.811 138.5,222.5 Z"/></g>
<g><path style="opacity:0.318" fill="#fec048" d="M 104.5,200.5 C 105.586,200.62 106.253,201.287 106.5,202.5C 105.536,207.92 103.869,213.087 101.5,218C 102.056,218.383 102.389,218.883 102.5,219.5C 99.0188,225.129 96.0188,231.129 93.5,237.5C 92.7579,238.287 91.9246,238.953 91,239.5C 90.6012,239.272 90.4346,238.938 90.5,238.5C 93.2852,227.819 96.9519,217.152 101.5,206.5C 103.008,204.819 104.008,202.819 104.5,200.5 Z"/></g>
<g><path style="opacity:0.273" fill="#ffc749" d="M 117.5,224.5 C 114.729,231.496 112.896,238.83 112,246.5C 110.363,252.723 108.863,253.223 107.5,248C 108.712,239.471 110.045,230.971 111.5,222.5C 111.154,221.304 110.654,221.304 110,222.5C 100.894,248.311 98.7278,247.811 103.5,221C 102.944,220.617 102.611,220.117 102.5,219.5C 103.828,218.493 104.828,217.16 105.5,215.5C 106.026,212.728 106.859,210.062 108,207.5C 108.333,208.833 108.667,210.167 109,211.5C 109.098,209.381 109.931,207.714 111.5,206.5C 112.519,208.951 112.519,211.451 111.5,214C 111.667,214.833 111.833,215.667 112,216.5C 113.852,213.1 115.018,209.434 115.5,205.5C 115.868,204.09 116.701,203.09 118,202.5C 118.799,207.087 118.632,211.587 117.5,216C 118,216.5 118.5,217 119,217.5C 119.34,213.442 120.007,209.442 121,205.5C 121.145,209.037 121.978,212.371 123.5,215.5C 124.298,213.922 124.798,212.256 125,210.5C 125.667,213.5 125.667,216.5 125,219.5C 124.692,218.692 124.192,218.025 123.5,217.5C 122.757,218.908 121.923,220.241 121,221.5C 117.019,218.977 115.852,219.977 117.5,224.5 Z"/></g>
<g><path style="opacity:0.161" fill="#fcea14" d="M 169.5,202.5 C 170.789,206.745 173.289,210.078 177,212.5C 180.466,219.137 184.632,225.137 189.5,230.5C 191.619,234.16 193.619,237.994 195.5,242C 195.15,243.257 194.483,243.591 193.5,243C 186.641,233.481 179.808,223.981 173,214.5C 171.5,215 170,215.5 168.5,216C 172.766,227.131 176.432,238.464 179.5,250C 178.886,252.495 177.886,252.828 176.5,251C 174.199,245.927 172.199,240.761 170.5,235.5C 171.537,233.262 171.703,230.929 171,228.5C 169.899,223.863 168.399,219.363 166.5,215C 167.682,213.265 169.349,212.265 171.5,212C 168.536,211.16 168.203,210.16 170.5,209C 169.373,207.247 168.373,205.413 167.5,203.5C 167.957,202.702 168.624,202.369 169.5,202.5 Z"/></g>
<g><path style="opacity:0.157" fill="#fcef0f" d="M 101.5,206.5 C 96.9519,217.152 93.2852,227.819 90.5,238.5C 88.7186,242.744 86.8853,247.077 85,251.5C 83.9153,253.657 82.7487,253.824 81.5,252C 84.9651,240.605 88.6317,229.271 92.5,218C 91.3349,216.916 90.0016,216.083 88.5,215.5C 82.5218,222.776 77.0218,230.443 72,238.5C 70.4464,241.102 68.2798,242.269 65.5,242C 69.0669,235.687 72.7336,229.521 76.5,223.5C 79.2644,221.569 80.9311,218.902 81.5,215.5C 83.9032,215.607 85.7365,214.607 87,212.5C 87.3333,213.167 87.6667,213.833 88,214.5C 89.5874,213.273 90.9207,213.606 92,215.5C 96.2237,208.717 99.057,201.383 100.5,193.5C 101.5,193.5 102.5,193.5 103.5,193.5C 103.313,197.913 102.646,202.246 101.5,206.5 Z"/></g>
</svg>