<svg xmlns="http://www.w3.org/2000/svg" xml:space="preserve" viewBox="0 0 490.67 490.67"><circle cx="245.33" cy="245.33" r="160" fill="#FFC107"/><path fill="#FFD54F" d="M245.33 64c5.891 0 10.667-4.776 10.667-10.667V10.667C255.997 4.776 251.221 0 245.33 0s-10.667 4.776-10.667 10.667v42.667C234.664 59.224 239.439 64 245.33 64zm0 362.67c-5.891 0-10.667 4.776-10.667 10.667v42.666c0 5.891 4.776 10.667 10.667 10.667s10.667-4.776 10.667-10.667v-42.667c0-5.891-4.776-10.666-10.667-10.666zm234.67-192h-42.667c-5.891 0-10.667 4.776-10.667 10.667s4.776 10.667 10.667 10.667H480c5.891 0 10.667-4.776 10.667-10.667 0-5.892-4.776-10.667-10.667-10.667zM64 245.33c0-5.891-4.776-10.667-10.667-10.667H10.667C4.776 234.664 0 239.439 0 245.33s4.776 10.667 10.667 10.667h42.667c5.89 0 10.666-4.776 10.666-10.667zm76.1-160.935a10.665 10.665 0 0 0 9.259 5.333 10.515 10.515 0 0 0 5.333-1.429c5.102-2.946 6.849-9.469 3.904-14.571l-21.333-36.949c-2.979-5.082-9.514-6.787-14.596-3.808-5.035 2.951-6.763 9.401-3.878 14.474l21.311 36.95zM350.57 406.27c-2.98-5.082-9.515-6.786-14.597-3.806-5.033 2.952-6.761 9.4-3.878 14.473l21.333 36.949a10.665 10.665 0 0 0 9.259 5.333 10.515 10.515 0 0 0 5.333-1.429c5.102-2.946 6.849-9.469 3.904-14.571L350.57 406.27zM411.6 160a10.515 10.515 0 0 0 5.333-1.429l36.949-21.333c5.22-2.731 7.238-9.176 4.507-14.396s-9.176-7.238-14.396-4.507c-.266.139-.525.289-.778.45l-36.949 21.333c-5.102 2.946-6.849 9.47-3.904 14.571a10.665 10.665 0 0 0 9.237 5.333V160zM73.728 332.1l-36.949 21.333c-5.102 2.946-6.849 9.469-3.904 14.571a10.665 10.665 0 0 0 9.237 5.333 10.515 10.515 0 0 0 5.333-1.429l36.949-21.333c5.22-2.731 7.238-9.176 4.507-14.396s-9.176-7.238-14.396-4.507c-.266.139-.525.289-.778.45l.001-.022zM36.779 137.24l36.949 21.333a10.514 10.514 0 0 0 5.312 1.429 10.668 10.668 0 0 0 5.333-19.904l-36.949-21.333c-4.972-3.16-11.564-1.692-14.724 3.279s-1.692 11.564 3.279 14.724c.253.161.512.311.778.45l.022.022zM453.89 353.43l-36.949-21.333c-4.972-3.16-11.564-1.692-14.724 3.279s-1.692 11.564 3.279 14.724c.253.161.513.311.778.45l36.949 21.333a10.517 10.517 0 0 0 5.333 1.429c5.891 0 10.666-4.776 10.666-10.667 0-3.811-2.033-7.332-5.333-9.237v.022zM336 88.299a10.517 10.517 0 0 0 5.333 1.429 10.669 10.669 0 0 0 9.259-5.333l21.333-36.949c2.911-5.121 1.119-11.633-4.002-14.544-5.073-2.883-11.521-1.156-14.473 3.878l-21.333 36.949c-2.949 5.095-1.211 11.617 3.883 14.57zM154.67 402.37c-5.102-2.945-11.625-1.198-14.571 3.904l-21.333 36.949c-2.945 5.102-1.198 11.625 3.904 14.571a10.517 10.517 0 0 0 5.333 1.429 10.668 10.668 0 0 0 9.259-5.333l21.333-36.949c2.94-5.105 1.186-11.627-3.919-14.567l-.006-.004z"/></svg>