<svg width="50" height="50" xmlns="http://www.w3.org/2000/svg"><path d="M22.858-21.82-2.04-7.444-7.05-4.549-19.055 2.38a32.77 14.172 0 0 0-.744.947 32.77 14.172 0 0 0-.836 1.817 32.77 14.172 0 0 0-.28 1.851 32.77 14.172 0 0 0 .28 1.849 32.77 14.172 0 0 0 .836 1.819 32.77 14.172 0 0 0 .557.71l12.638 7.297 4.565 2.634L22.858 35.68V-21.82zM.242-1.945a7.443 8.49 0 0 1 .687.036 7.443 8.49 0 0 1 .679.11 7.443 8.49 0 0 1 .67.177 7.443 8.49 0 0 1 .65.25 7.443 8.49 0 0 1 .63.316 7.443 8.49 0 0 1 .601.382 7.443 8.49 0 0 1 .567.445 7.443 8.49 0 0 1 .528.5 7.443 8.49 0 0 1 .487.555 7.443 8.49 0 0 1 .44.602 7.443 8.49 0 0 1 .388.647 7.443 8.49 0 0 1 .334.685 7.443 8.49 0 0 1 .279.719 7.443 8.49 0 0 1 .218.743 7.443 8.49 0 0 1 .157.764 7.443 8.49 0 0 1 .096.777 7.443 8.49 0 0 1 .031.782 7.443 8.49 0 0 1-.255 2.198 7.443 8.49 0 0 1-.742 2.047 7.443 8.49 0 0 1-1.183 1.758 7.443 8.49 0 0 1-1.541 1.35 7.443 8.49 0 0 1-1.796.85 7.443 8.49 0 0 1-1.925.289 7.443 8.49 0 0 1-1.928-.29 7.443 8.49 0 0 1-1.793-.849 7.443 8.49 0 0 1-1.543-1.35 7.443 8.49 0 0 1-1.182-1.758 7.443 8.49 0 0 1-.743-2.047 7.443 8.49 0 0 1-.254-2.198 7.443 8.49 0 0 1 .254-2.197 7.443 8.49 0 0 1 .743-2.048A7.443 8.49 0 0 1-5.022.54 7.443 8.49 0 0 1-3.48-.808a7.443 8.49 0 0 1 1.793-.849 7.443 8.49 0 0 1 1.928-.29z" transform="matrix(.99514 0 0 .8696 27.254 18.974)"/></svg>
