<?xml version="1.0" encoding="UTF-8"?>
<svg enable-background="new 0 0 511.989 511.989" version="1.1" viewBox="0 0 511.99 511.99" xml:space="preserve" xmlns="http://www.w3.org/2000/svg">
<circle cx="255.99" cy="255.99" r="255.99" fill="#27536B"/>
<path d="m391.37 292.82c-48.362 48.362-126.77 48.362-175.14 0s-48.362-126.77 0-175.14c10.084-10.084 21.476-18.057 33.627-23.935-39.798 1.061-79.279 16.774-109.65 47.147-62.946 62.946-62.946 165 0 227.95s165 62.946 227.95 0c30.374-30.374 46.086-69.854 47.147-109.65-5.877 12.152-13.85 23.544-23.934 33.628z" fill="#FCD57E"/>
<g fill="#fff">
  <polygon points="355.8 153.57 361.51 205.22 367.22 153.57 418.87 147.86 367.22 142.15 361.51 90.499 355.8 142.15 304.15 147.86"/>
  <polygon points="112.36 410.63 116.46 447.62 120.54 410.63 157.54 406.54 120.54 402.45 116.46 365.45 112.36 402.45 75.368 406.54"/>

    <rect transform="matrix(.7071 -.7071 .7071 .7071 -106.43 249.84)" x="243.19" y="248.21" width="10.362" height="10.362"/>

    <rect transform="matrix(.7071 -.7071 .7071 .7071 -16.182 358.05)" x="418.93" y="193.38" width="10.362" height="10.362"/>

    <rect transform="matrix(.7071 -.7071 .7071 .7071 -71.454 406.7)" x="450.02" y="284.42" width="10.362" height="10.362"/>

    <rect transform="matrix(.7071 -.7071 .7071 .7071 -67.926 95.444)" x="76.067" y="124.54" width="10.362" height="10.362"/>

    <rect transform="matrix(.7071 -.7071 .7071 .7071 -198.71 373.5)" x="346.32" y="421.43" width="10.362" height="10.362"/>

    <rect transform="matrix(.7071 -.7071 .7071 .7071 -36.919 117)" x="117.59" y="97.883" width="10.362" height="10.362"/>
</g>
</svg>