<svg xmlns:svg="http://www.w3.org/2000/svg" xmlns="http://www.w3.org/2000/svg" version="1.2" width="192.4" height="123.7">
  <defs>
    <pattern patternTransform="translate(96.421153,1.5199643)" height="45.6" width="54.2" patternUnits="userSpaceOnUse">
      <path d="m53.8 0c-1 0.1-3.7 1.1-7.9 3-6.9 3.1-12.8 7.2-18.8 13.2-2.7 2.7-7.9 6.5-11.4 8.3-7.8 4.1-14.5 10.5-15.5 14.8-0.3 1.2-0.1 3.2 0.6 6.3l5.4 0-1.4-5.1 2.3-2.7c2.4-2.8 7.9-5.7 21.8-11.3 10.1-4.1 14-7.8 16.2-15.3 1.5-5 2.3-6.2 6.3-8.8 2.6-1.7 3.3-2.5 2.3-2.3z" clip-path="none" />
    </pattern>
  </defs>

  <!-- roots -->
  <path d="m17.5 50.7c-0.4 8.7-1.1 18.5-1.7 23-1.2 9.4-1.2 9.6-6.1 14.8C3.2 95.4 1 100.7 0.4 110.4L0 118.2 0.9 110.8c1.1-8.9 4-15.3 8.4-18.6 1.8-1.4 3.5-2.5 3.9-2.5 0.4 0 0.7 2.1 0.7 4.6 0 2.8 0.4 4.3 1 3.9 0.6-0.3 1-2.9 1-5.7 0-3.4 0.6-5.8 1.9-7.4l1.9-2.4 1.1 3.2c0.6 1.7 1.1 4.5 1.1 6.1 0 1.6 0.4 2.7 0.8 2.4 0.4-0.3 2.1 2.1 3.7 5.2 1.9 3.6 6.3 9 12.3 14.9 5.2 5.1 9.6 9.3 9.9 9.3 0.3 0-3.8-4.5-9.2-10-7-7.2-10.5-11.7-12.6-16.2-2.8-6.1-4.9-16.2-4.9-24.2l0-3.9 2.8 3.7c1.5 2 4.8 5.1 7.3 6.9l4.5 3.2-4.7-4.5c-2.7-2.5-5.9-7.1-7.5-10.4-2.5-5.4-2.8-6.9-2.8-17.5l-3.9 0zM18.8 74.7c0-0.9-0.3-0.8-0.9 0.5-0.5 1.1-0.9 2.7-0.9 3.5 0 0.9 0.3 0.8 0.9-0.5 0.5-1.1 0.9-2.7 0.9-3.5zM15.3 114.4c-0.3-0.9-0.6-2.2-0.6-2.8 0-0.6 0.5-0.1 1 1.2 0.5 1.3 0.8 2.6 0.6 2.8-0.2 0.2-0.7-0.3-1-1.2zM15.3 110.5c0-1.2 0.3-1.4 0.6-0.6 0.3 0.7 0.3 1.6-0.1 1.9-0.3 0.3-0.6-0.3-0.5-1.3zM13.8 102.1c0-6.6 0.6-9.3 1.4-6 0.8 3.3 0.8 8.7 0 11.9-0.8 3.3-1.4 0.6-1.4-6zM19.9 101.8c0-1.1 0.4-3.1 0.8-4.5 0.6-2 0.8-2.1 0.8-0.5 0 1.1-0.4 3.1-0.8 4.5-0.6 2-0.8 2.1-0.8 0.5zM21.8 95c0-2.5 0.4-3.5 1-2.3 0.5 1.2 0.5 3.3 0 4.5-0.5 1.2-1 0.2-1-2.3zM38.3 84.5l-1.9-2.2 2.5 2c1.4 1.1 2.7 2.1 2.9 2.3 0.2 0.1 0 0.3-0.6 0.3-0.6 0-1.9-1-2.9-2.2z" fill="#45322b"/>

  <!-- Rootwork -->
  <g transform="translate(-44.90226,-76.383644)" class="s1"><path d="m75.2 108c0 0.4 0 0.7 0 0.9 0 0.2 0 0.4-0.1 0.6 0 0.1-0.1 0.2-0.2 0.3-0.1 0.1-0.2 0.1-0.3 0.1-0.1 0-0.3 0-0.5-0.1-0.2-0.1-0.4-0.2-0.6-0.2-0.2-0.1-0.5-0.2-0.8-0.2-0.3-0.1-0.6-0.1-1-0.1-0.4 0-0.8 0.1-1.2 0.2-0.4 0.2-0.8 0.4-1.2 0.8-0.4 0.4-0.9 0.9-1.3 1.5-0.5 0.6-1 1.4-1.6 2.3l0 14.5c0 0.1 0 0.2-0.1 0.3-0.1 0.1-0.2 0.2-0.3 0.2-0.1 0.1-0.3 0.1-0.6 0.1-0.3 0-0.6 0-1 0-0.4 0-0.7 0-1 0-0.3 0-0.5-0.1-0.6-0.1-0.1-0.1-0.3-0.1-0.3-0.2 0-0.1-0.1-0.2-0.1-0.3l0-22c0-0.1 0-0.2 0.1-0.3 0-0.1 0.1-0.2 0.3-0.2 0.1-0.1 0.3-0.1 0.6-0.1 0.2 0 0.5 0 0.9 0 0.4 0 0.7 0 0.9 0 0.2 0 0.4 0.1 0.6 0.1 0.1 0.1 0.2 0.1 0.3 0.2 0.1 0.1 0.1 0.2 0.1 0.3l0 3.2c0.6-0.9 1.2-1.6 1.7-2.1 0.5-0.6 1-1 1.5-1.3 0.5-0.3 0.9-0.5 1.4-0.7 0.5-0.1 0.9-0.2 1.4-0.2 0.2 0 0.4 0 0.7 0 0.3 0 0.6 0.1 0.9 0.1 0.3 0.1 0.6 0.1 0.8 0.2 0.2 0.1 0.4 0.2 0.5 0.2 0.1 0.1 0.2 0.2 0.2 0.2 0 0.1 0.1 0.2 0.1 0.3 0 0.1 0 0.3 0 0.5 0 0.2 0 0.5 0 0.9" class="s2" fill="#45322b"/></g>

  <!-- rOotwork -->
  <g transform="translate(-29.396941,-76.383644)" class="s1"><path d="m82.8 117.3c0 1.8-0.2 3.4-0.7 5-0.5 1.5-1.2 2.8-2.1 3.9-0.9 1.1-2.1 1.9-3.5 2.6-1.4 0.6-3 0.9-4.9 0.9-1.8 0-3.4-0.3-4.7-0.8-1.3-0.5-2.4-1.3-3.3-2.3-0.9-1-1.6-2.3-2-3.7-0.4-1.5-0.7-3.1-0.7-5 0-1.8 0.2-3.4 0.7-4.9 0.5-1.5 1.2-2.8 2.1-3.9 0.9-1.1 2.1-1.9 3.5-2.5 1.4-0.6 3-0.9 4.9-0.9 1.8 0 3.4 0.3 4.7 0.8 1.4 0.5 2.5 1.3 3.4 2.3 0.9 1 1.6 2.3 2 3.7 0.5 1.5 0.7 3.1 0.7 5m-4.2 0.3c0-1.2-0.1-2.3-0.3-3.4-0.2-1.1-0.6-2-1.1-2.8-0.5-0.8-1.2-1.4-2.1-1.9-0.9-0.5-1.9-0.7-3.2-0.7-1.2 0-2.2 0.2-3.1 0.6-0.8 0.4-1.5 1-2.1 1.8-0.6 0.8-1 1.7-1.2 2.7-0.3 1.1-0.4 2.2-0.4 3.5 0 1.2 0.1 2.3 0.3 3.4 0.2 1.1 0.6 2 1.1 2.8 0.5 0.8 1.2 1.4 2.1 1.9 0.9 0.5 1.9 0.7 3.2 0.7 1.2 0 2.2-0.2 3.1-0.6 0.9-0.4 1.6-1 2.1-1.8 0.6-0.8 1-1.7 1.2-2.7 0.3-1.1 0.4-2.2 0.4-3.5" class="s2" fill="#45322b"/></g>

  <!-- roOtwork -->
  <g transform="translate(-5.1689656,-76.383644)" class="s1"><path d="m82.8 117.3c0 1.8-0.2 3.4-0.7 5-0.5 1.5-1.2 2.8-2.1 3.9-0.9 1.1-2.1 1.9-3.5 2.6-1.4 0.6-3 0.9-4.9 0.9-1.8 0-3.4-0.3-4.7-0.8-1.3-0.5-2.4-1.3-3.3-2.3-0.9-1-1.6-2.3-2-3.7-0.4-1.5-0.7-3.1-0.7-5 0-1.8 0.2-3.4 0.7-4.9 0.5-1.5 1.2-2.8 2.1-3.9 0.9-1.1 2.1-1.9 3.5-2.5 1.4-0.6 3-0.9 4.9-0.9 1.8 0 3.4 0.3 4.7 0.8 1.4 0.5 2.5 1.3 3.4 2.3 0.9 1 1.6 2.3 2 3.7 0.5 1.5 0.7 3.1 0.7 5m-4.2 0.3c0-1.2-0.1-2.3-0.3-3.4-0.2-1.1-0.6-2-1.1-2.8-0.5-0.8-1.2-1.4-2.1-1.9-0.9-0.5-1.9-0.7-3.2-0.7-1.2 0-2.2 0.2-3.1 0.6-0.8 0.4-1.5 1-2.1 1.8-0.6 0.8-1 1.7-1.2 2.7-0.3 1.1-0.4 2.2-0.4 3.5 0 1.2 0.1 2.3 0.3 3.4 0.2 1.1 0.6 2 1.1 2.8 0.5 0.8 1.2 1.4 2.1 1.9 0.9 0.5 1.9 0.7 3.2 0.7 1.2 0 2.2-0.2 3.1-0.6 0.9-0.4 1.6-1 2.1-1.8 0.6-0.8 1-1.7 1.2-2.7 0.3-1.1 0.4-2.2 0.4-3.5" class="s2" fill="#45322b"/></g>

  <!-- rooTwork -->
  <g transform="translate(19.469332,-76.383644)" class="s1"><path d="m73.8 127c0 0.5 0 0.8-0.1 1.1-0.1 0.3-0.2 0.5-0.3 0.6-0.1 0.1-0.3 0.3-0.6 0.4-0.3 0.1-0.6 0.2-0.9 0.3-0.3 0.1-0.7 0.1-1 0.2-0.4 0-0.7 0.1-1.1 0.1-1.1 0-2.1-0.1-2.9-0.4-0.8-0.3-1.5-0.8-2-1.4-0.5-0.6-0.9-1.4-1.1-2.3-0.2-0.9-0.3-2.1-0.3-3.3l0-12.8-3.1 0c-0.2 0-0.4-0.1-0.6-0.4-0.1-0.3-0.2-0.7-0.2-1.3 0-0.3 0-0.6 0-0.8 0-0.2 0.1-0.4 0.2-0.5 0.1-0.1 0.1-0.2 0.2-0.3 0.1-0.1 0.2-0.1 0.4-0.1l3.1 0 0-5.2c0-0.1 0-0.2 0.1-0.3 0.1-0.1 0.2-0.2 0.3-0.2 0.2-0.1 0.4-0.1 0.6-0.2 0.3 0 0.6 0 1 0 0.4 0 0.7 0 1 0 0.3 0 0.5 0.1 0.6 0.2 0.1 0.1 0.3 0.1 0.3 0.2 0.1 0.1 0.1 0.2 0.1 0.3l0 5.2 5.6 0c0.1 0 0.2 0 0.3 0.1 0.1 0 0.2 0.1 0.2 0.3 0.1 0.1 0.1 0.3 0.2 0.5 0 0.2 0 0.5 0 0.8 0 0.6-0.1 1-0.2 1.3-0.1 0.3-0.3 0.4-0.6 0.4l-5.6 0 0 12.3c0 1.5 0.2 2.7 0.7 3.4 0.5 0.8 1.3 1.1 2.4 1.1 0.4 0 0.7 0 1-0.1 0.3-0.1 0.6-0.2 0.8-0.2 0.2-0.1 0.4-0.2 0.6-0.2 0.2-0.1 0.3-0.1 0.4-0.1 0.1 0 0.2 0 0.2 0.1 0.1 0 0.1 0.1 0.2 0.2 0 0.1 0.1 0.3 0.1 0.5 0 0.2 0 0.4 0 0.7" class="s2" fill="#45322b"/></g>

  <!-- rootWork -->
  <g transform="translate(37.499315,-76.383644)" class="s1"><path d="m95 106.5c0 0.2 0 0.4-0.1 0.7 0 0.3-0.1 0.6-0.3 1.1l-5.8 19.7c-0.1 0.3-0.2 0.5-0.3 0.7-0.1 0.2-0.3 0.3-0.6 0.4-0.3 0.1-0.6 0.2-1.1 0.2-0.5 0-1.1 0-1.9 0-0.8 0-1.4 0-2-0.1-0.5 0-0.9-0.1-1.2-0.2-0.3-0.1-0.5-0.2-0.6-0.4-0.1-0.2-0.2-0.4-0.3-0.7l-3.7-13.2 0-0.2 0 0.2-3.4 13.2c-0.1 0.3-0.2 0.5-0.3 0.7-0.1 0.2-0.3 0.3-0.6 0.4-0.3 0.1-0.7 0.2-1.2 0.2-0.5 0-1.2 0-2 0-0.8 0-1.5 0-2-0.1-0.5 0-0.9-0.1-1.2-0.2-0.3-0.1-0.5-0.2-0.6-0.4-0.1-0.2-0.2-0.4-0.3-0.7l-5.8-19.7c-0.1-0.5-0.2-0.8-0.3-1.1 0-0.3 0-0.5 0-0.7 0-0.2 0-0.3 0.1-0.4 0.1-0.1 0.3-0.2 0.5-0.3 0.2-0.1 0.6-0.1 1-0.2 0.4 0 0.9 0 1.5 0 0.7 0 1.2 0 1.6 0 0.4 0 0.7 0.1 1 0.2 0.2 0.1 0.4 0.2 0.5 0.3 0.1 0.1 0.2 0.3 0.2 0.5l4.3 16 0 0.3 0-0.3 4.1-16c0-0.2 0.1-0.4 0.2-0.5 0.1-0.1 0.3-0.3 0.5-0.3 0.2-0.1 0.5-0.1 0.9-0.2 0.4 0 0.9 0 1.5 0 0.6 0 1.1 0 1.5 0.1 0.4 0 0.7 0.1 0.9 0.2 0.2 0.1 0.4 0.2 0.5 0.3 0.1 0.1 0.2 0.3 0.2 0.4l4.3 16.1 0.1 0.3 0-0.3 4.2-16c0-0.2 0.1-0.4 0.2-0.5 0.1-0.1 0.3-0.3 0.5-0.3 0.2-0.1 0.5-0.1 0.9-0.2 0.4 0 0.9 0 1.5 0 0.6 0 1.1 0 1.5 0 0.4 0 0.7 0.1 0.9 0.2 0.2 0.1 0.4 0.2 0.5 0.3 0.1 0.1 0.1 0.3 0.1 0.4" class="s3" fill="#5d8c7f"/></g>

  <!-- rootwOrk -->
  <g transform="translate(70.897336,-76.383644)" class="s1"><path d="m83.7 117.2c0 1.9-0.2 3.5-0.7 5.1-0.5 1.5-1.2 2.8-2.2 4-1 1.1-2.2 2-3.7 2.6-1.5 0.6-3.2 0.9-5.2 0.9-1.9 0-3.6-0.3-5.1-0.8-1.4-0.5-2.6-1.3-3.6-2.3-0.9-1-1.6-2.3-2.1-3.8-0.5-1.5-0.7-3.2-0.7-5.1 0-1.9 0.2-3.5 0.7-5.1 0.5-1.5 1.3-2.9 2.2-4 1-1.1 2.2-2 3.7-2.6 1.5-0.6 3.2-0.9 5.2-0.9 2 0 3.6 0.3 5.1 0.8 1.4 0.5 2.6 1.3 3.5 2.3 0.9 1 1.6 2.3 2.1 3.8 0.5 1.5 0.7 3.2 0.7 5.2m-6.3 0.2c0-1.1-0.1-2.1-0.3-3-0.2-0.9-0.4-1.7-0.9-2.4-0.4-0.7-1-1.2-1.6-1.6-0.7-0.4-1.5-0.6-2.5-0.6-0.9 0-1.7 0.2-2.4 0.5-0.7 0.3-1.2 0.8-1.7 1.5-0.4 0.6-0.8 1.4-1 2.3-0.2 0.9-0.3 1.9-0.3 3.1 0 1.1 0.1 2.1 0.3 3 0.2 0.9 0.5 1.7 0.9 2.3 0.4 0.7 1 1.2 1.6 1.6 0.7 0.4 1.5 0.5 2.5 0.5 0.9 0 1.7-0.2 2.4-0.5 0.7-0.3 1.2-0.8 1.7-1.5 0.4-0.6 0.8-1.4 1-2.3 0.2-0.9 0.3-1.9 0.3-3.1" class="s3" fill="#5d8c7f"/></g>

  <!-- rootwoRk -->
  <g transform="translate(94.757105,-76.383644)" class="s1"><path d="m75.7 108.6c0 0.6 0 1.1 0 1.4 0 0.4-0.1 0.7-0.1 0.9-0.1 0.2-0.2 0.4-0.3 0.4-0.1 0.1-0.2 0.1-0.4 0.1-0.1 0-0.3 0-0.4-0.1-0.2-0.1-0.3-0.1-0.6-0.2-0.2-0.1-0.4-0.1-0.7-0.2-0.2-0.1-0.5-0.1-0.8-0.1-0.3 0-0.7 0.1-1 0.2-0.3 0.1-0.7 0.3-1.1 0.6-0.4 0.3-0.7 0.7-1.1 1.2-0.4 0.5-0.8 1.1-1.3 1.8l0 13.6c0 0.2 0 0.3-0.1 0.4-0.1 0.1-0.3 0.2-0.5 0.3-0.2 0.1-0.5 0.1-0.9 0.2-0.4 0-0.9 0.1-1.5 0.1-0.6 0-1.1 0-1.5-0.1-0.4 0-0.7-0.1-1-0.2-0.2-0.1-0.4-0.2-0.5-0.3-0.1-0.1-0.1-0.3-0.1-0.4l0-21.8c0-0.2 0-0.3 0.1-0.4 0.1-0.1 0.2-0.2 0.4-0.3 0.2-0.1 0.5-0.1 0.8-0.2 0.3 0 0.8-0.1 1.3-0.1 0.5 0 1 0 1.3 0.1 0.3 0 0.6 0.1 0.8 0.2 0.2 0.1 0.3 0.2 0.4 0.3 0.1 0.1 0.1 0.3 0.1 0.4l0 2.7c0.6-0.8 1.1-1.5 1.6-2 0.5-0.5 1-1 1.4-1.3 0.5-0.3 0.9-0.5 1.4-0.6 0.5-0.1 0.9-0.2 1.4-0.2 0.2 0 0.4 0 0.7 0 0.2 0 0.5 0.1 0.8 0.1 0.3 0 0.5 0.1 0.7 0.2 0.2 0.1 0.3 0.1 0.4 0.2 0.1 0.1 0.2 0.2 0.2 0.3 0 0.1 0.1 0.2 0.1 0.4 0 0.2 0.1 0.4 0.1 0.8 0 0.3 0 0.8 0 1.4" class="s3" fill="#5d8c7f"/></g><g transform="translate(110.47574,-76.383644)" class="s1">

  <!-- rootworK -->
  <path d="m81.9 128.4c0 0.2 0 0.3-0.1 0.4-0.1 0.1-0.2 0.2-0.5 0.3-0.2 0.1-0.5 0.1-1 0.1-0.4 0-0.9 0.1-1.6 0.1-0.7 0-1.2 0-1.6 0-0.4 0-0.7-0.1-1-0.1-0.3-0.1-0.5-0.2-0.6-0.3-0.1-0.1-0.3-0.3-0.4-0.5l-7.3-11.5 0 11.5c0 0.2 0 0.3-0.1 0.4-0.1 0.1-0.3 0.2-0.5 0.3-0.2 0.1-0.5 0.1-0.9 0.2-0.4 0-0.9 0.1-1.5 0.1-0.6 0-1.1 0-1.5-0.1-0.4 0-0.7-0.1-1-0.2-0.2-0.1-0.4-0.2-0.5-0.3-0.1-0.1-0.1-0.3-0.1-0.4l0-32.1c0-0.2 0-0.3 0.1-0.4 0.1-0.1 0.3-0.2 0.5-0.3 0.2-0.1 0.6-0.2 1-0.2 0.4 0 0.9-0.1 1.5-0.1 0.6 0 1.1 0 1.5 0.1 0.4 0 0.7 0.1 0.9 0.2 0.2 0.1 0.4 0.2 0.5 0.3 0.1 0.1 0.1 0.3 0.1 0.4l0 19.1 6.4-8.7c0.1-0.2 0.3-0.4 0.4-0.5 0.2-0.1 0.4-0.3 0.6-0.3 0.3-0.1 0.6-0.1 1-0.2 0.4 0 0.9-0.1 1.5-0.1 0.6 0 1.1 0 1.5 0.1 0.4 0 0.8 0.1 1 0.2 0.3 0.1 0.4 0.2 0.5 0.3 0.1 0.1 0.1 0.3 0.1 0.4 0 0.2-0.1 0.5-0.2 0.8-0.1 0.3-0.3 0.6-0.5 0.9l-6.4 7.2 7.4 11.4c0.2 0.3 0.3 0.6 0.4 0.9 0.1 0.2 0.1 0.4 0.1 0.6" class="s3" fill="#5d8c7f"/></g>

  <!-- stem -->
  <path d="m97 30.9c-0.3-0.8-0.6-2.3-0.8-3.1-0.2-1-0.2-2.2-0.1-3.1 0.3-3 1.9-4.8 4.8-5.4 0.4-0.1 1.2-0.2 1.3-0.2 0 0-0.1 0.1-0.2 0.3-0.3 0.4-0.4 0.8-0.5 1.4-0.1 0.7-0.1 2.3 0.1 3.4 0.2 1.4 0.5 2.6 0.9 4.1 0.2 0.7 0.6 2.1 0.8 2.5l0.1 0.3-0.3 0c-0.2 0-1 0-1.8 0-1.8 0-3.5 0-4.1 0.1-0.1 0-0.1 0-0.2-0.3l0 0z" fill="#5d8c7f"/>

  <!-- leaf -->
  <path d="m121.9 0-1.6 1.8c-0.9 1-4.6 3.2-8.3 5-4.7 2.3-7.1 3.9-8.3 5.5-1.6 2.3-2.2 6.6-0.9 5.8 0.4-0.2 0.7-0.1 0.7 0.3 0 0.4-0.3 0.8-0.7 1.1-0.4 0.2-0.7 0.7-0.7 1 0 0.3 2 0.5 4.5 0.4 8.9-0.3 13.2-5.3 14.9-17.5L121.9 0zm-3.6 5.7c0.7-0.1-0.9 0.7-0.1 0.4-1.5 1.7-2 3.9-3.1 5.8-1.5 2.9-4.4 5.2-7.7 5.6-1.1 0.2-2.2 0.6-3.3 0.3-0.1-0.4 0.7-0.4 0.8-0.7 2.1 0.2 4.1-0.5 6.1-1.1-0.2-0.1 0.8-0.7 1-1 2-1.9 2.7-4.6 4-7 0.5-1 1.2-1.9 2.3-2.3z" fill="#5d8c7f"/>

</svg>
